<?xml version="1.0" standalone="no"?>
<!DOCTYPE svg PUBLIC "-//W3C//DTD SVG 20010904//EN"
 "http://www.w3.org/TR/2001/REC-SVG-20010904/DTD/svg10.dtd">
<svg version="1.0" xmlns="http://www.w3.org/2000/svg"
 width="490.000000pt" height="341.000000pt" viewBox="0 0 490.000000 341.000000"
 preserveAspectRatio="xMidYMid meet">

<g transform="translate(0.000000,341.000000) scale(0.100000,-0.100000)"
fill="#000000" stroke="none">
<path d="M0 1808 l0 -1602 43 39 42 40 -42 -45 -43 -46 0 -97 0 -97 2450 0
2450 0 0 99 0 99 -55 47 c-31 26 -53 50 -50 53 3 3 28 -16 55 -43 l50 -49 0
496 c0 388 -3 497 -12 501 -10 4 -10 6 0 6 9 1 12 228 12 1101 l0 1100 -2450
0 -2450 0 0 -1602z m2383 1135 c-7 -2 -21 -2 -30 0 -10 3 -4 5 12 5 17 0 24
-2 18 -5z m2033 -88 c-28 -21 -243 -82 -253 -71 -7 7 -6 7 131 46 60 16 112
32 114 35 3 3 10 5 16 5 6 0 2 -7 -8 -15z m-3981 -49 c61 -19 134 -38 163 -42
29 -3 52 -11 52 -15 0 -5 -10 -7 -22 -4 -13 3 -52 12 -88 20 -115 25 -160 38
-160 46 0 4 -9 5 -19 2 -21 -5 -61 12 -61 27 0 5 6 8 13 5 6 -2 62 -20 122
-39z m3710 -25 c-6 -5 -32 -12 -60 -15 l-50 -5 50 13 c63 18 72 19 60 7z
m-3268 -27 c-3 -3 -12 -4 -19 -1 -8 3 -5 6 6 6 11 1 17 -2 13 -5z m3138 -3
c-28 -11 -204 -35 -210 -29 -6 6 156 35 200 36 25 1 26 -1 10 -7z m-3210 -21
c66 -12 87 -18 62 -19 -49 -1 -179 19 -191 30 -14 13 15 10 129 -11z m2895 16
c0 -2 -11 -6 -25 -8 -13 -3 -22 -1 -19 3 5 9 44 13 44 5z m-100 -16 c-8 -5
-22 -10 -30 -10 -13 0 -13 1 0 10 8 5 22 10 30 10 13 0 13 -1 0 -10z m-2425
-10 c19 -5 6 -6 -35 -3 -36 3 -67 7 -69 9 -8 7 73 2 104 -6z m2629 -45 c-10
-8 -14 -15 -9 -14 6 1 21 0 35 -1 19 -2 20 -3 7 -7 -10 -3 -16 -10 -14 -16 2
-7 -10 -18 -27 -25 l-31 -12 30 5 c22 4 26 3 15 -5 -8 -5 -24 -10 -35 -10 -18
-1 -18 -2 3 -10 22 -10 31 -30 11 -30 -5 0 -7 4 -4 10 3 5 0 7 -8 4 -9 -3 -13
-13 -10 -25 3 -10 1 -19 -4 -19 -6 0 -9 -12 -7 -27 3 -28 -38 -88 -51 -75 -5
4 -5 2 -1 -5 9 -17 -18 -78 -43 -95 -49 -34 -28 -79 34 -73 28 3 28 2 8 -7
-13 -6 -23 -17 -23 -25 0 -7 -7 -16 -15 -19 -10 -4 -12 -11 -6 -22 13 -27 14
-152 1 -152 -6 0 -8 -5 -5 -10 4 -6 15 -8 26 -5 17 6 19 1 19 -55 0 -67 13
-82 54 -60 16 8 22 19 20 34 -4 20 -4 20 4 1 12 -27 7 -38 -27 -53 -35 -15
-52 -54 -60 -136 -6 -64 -26 -85 -37 -39 -16 72 -26 93 -45 93 -11 0 -18 4
-14 9 3 5 1 12 -5 16 -14 9 -13 98 2 113 9 9 9 15 0 24 -7 7 -12 33 -12 58 0
25 5 51 12 58 9 9 9 15 0 24 -15 15 -16 82 -2 108 7 14 7 25 -1 38 -8 13 -9
34 -3 68 4 27 7 56 5 64 -6 30 0 105 9 114 6 6 6 14 0 21 -5 6 -11 37 -13 69
-3 34 -10 62 -18 67 -7 4 -11 10 -9 12 6 6 194 35 234 36 29 1 29 0 10 -14z
m-2996 -17 c-2 -7 -6 -15 -9 -18 -3 -3 -2 -16 2 -30 6 -23 7 -23 8 -3 1 12 6
25 11 28 6 4 8 10 5 15 -3 5 -1 11 5 15 5 3 10 1 10 -6 0 -8 3 -9 14 0 10 8
54 7 176 -4 90 -8 165 -17 169 -20 3 -3 -5 -8 -17 -12 -20 -5 -22 -12 -22 -73
0 -46 -4 -70 -12 -73 -10 -3 -10 -9 0 -26 14 -25 16 -107 2 -116 -7 -4 -6 -13
1 -27 6 -12 9 -45 7 -76 -3 -31 -1 -73 5 -94 7 -29 6 -46 -3 -64 -11 -19 -11
-27 -2 -36 16 -16 15 -91 0 -106 -9 -9 -9 -15 0 -24 17 -17 15 -96 -2 -114 -8
-8 -24 -14 -35 -14 -12 0 -21 -6 -21 -12 0 -33 -22 -88 -35 -88 -11 0 -15 12
-15 42 0 62 -28 127 -56 134 -23 6 -29 24 -27 82 1 7 -10 15 -24 18 -27 7 -26
27 2 32 23 5 35 -14 35 -55 0 -18 5 -33 11 -33 5 0 9 8 8 18 -2 9 0 29 4 45 6
20 14 27 32 27 29 0 43 18 21 26 -12 5 -16 21 -16 66 0 38 4 57 10 53 13 -8 8
18 -5 27 -6 4 -2 8 9 8 15 0 16 3 6 15 -7 8 -20 15 -30 15 -10 0 -23 6 -29 14
-10 12 -8 14 14 11 18 -2 25 2 21 11 -3 7 0 16 6 20 7 4 8 3 4 -4 -5 -8 0 -11
16 -8 13 3 26 5 31 5 19 2 4 50 -24 77 -33 32 -62 84 -58 106 3 15 -23 74 -44
101 -15 18 -33 24 -22 7 9 -14 -6 -12 -35 6 -14 8 -17 13 -7 10 10 -3 17 0 17
8 0 18 -36 27 -88 20 -42 -5 -47 -1 -43 34 3 19 -27 14 -32 -5 -3 -11 -5 -7
-6 10 -1 17 3 26 9 22 6 -3 17 1 26 9 19 19 25 20 22 4z m3994 -120 c-6 -6
-12 -3 -15 6 -4 9 -2 16 3 16 6 0 10 8 10 18 0 14 -2 15 -10 2 -14 -22 -12 -2
3 23 11 21 12 20 15 -17 2 -21 -1 -43 -6 -48z m-1497 -100 c4 -90 4 -269 1
-398 l-5 -235 -914 -3 -914 -2 -7 52 c-3 29 -6 207 -6 395 l0 342 68 4 c37 2
450 4 918 5 l852 2 7 -162z m-2425 132 c0 -5 -4 -10 -10 -10 -5 0 -10 5 -10
10 0 6 5 10 10 10 6 0 10 -4 10 -10z m3591 -92 c-9 -20 -10 -18 -10 17 0 31 2
36 9 23 6 -10 7 -25 1 -40z m-4192 -5 c0 -34 -1 -36 -11 -16 -6 12 -8 29 -5
37 11 27 17 18 16 -21z m4521 -130 c0 -16 -16 -31 -35 -35 -14 -2 -21 3 -23
20 -3 19 1 22 27 22 17 0 31 -3 31 -7z m-3790 -159 c0 -1 -9 0 -20 3 -11 3
-20 12 -20 19 0 11 5 10 20 -3 11 -10 20 -18 20 -19z m2727 9 c-3 -2 -14 0
-24 7 -16 10 -16 11 0 6 9 -3 17 0 18 7 0 8 2 8 6 -1 3 -7 3 -16 0 -19z m-287
-27 c0 -2 -11 -6 -25 -8 -13 -3 -22 -1 -19 3 5 9 44 13 44 5z m-2500 -34 c0
-5 -7 -9 -15 -9 -8 0 -12 4 -9 9 3 4 9 8 15 8 5 0 9 -4 9 -8z m2496 -17 c1 -8
-4 -15 -11 -15 -7 0 -12 8 -10 18 2 9 4 19 4 21 2 9 15 -10 17 -24z m-2129
-21 c-3 -3 -12 -4 -19 -1 -8 3 -5 6 6 6 11 1 17 -2 13 -5z m2133 -39 c0 -31
-3 -35 -25 -35 -34 0 -36 40 -2 41 12 0 16 3 10 6 -18 7 -16 23 2 23 10 0 15
-11 15 -35z m-2223 -7 c-3 -7 -5 -2 -5 12 0 14 2 19 5 13 2 -7 2 -19 0 -25z
m90 16 c-3 -3 -12 -4 -19 -1 -8 3 -5 6 6 6 11 1 17 -2 13 -5z m7 -20 c9 -3 16
-12 16 -20 0 -18 -46 -18 -53 0 -9 23 7 32 37 20z m2194 -29 c-3 -3 -9 2 -12
12 -6 14 -5 15 5 6 7 -7 10 -15 7 -18z m-2291 -27 c-3 -8 -6 -5 -6 6 -1 11 2
17 5 13 3 -3 4 -12 1 -19z m2223 -133 c0 -131 -2 -155 -15 -155 -9 0 -15 10
-15 26 0 17 4 23 13 19 6 -4 4 0 -6 8 -11 9 -17 27 -17 48 0 19 -2 55 -5 82
-4 40 -3 47 12 48 16 1 16 2 -1 6 -15 4 -16 7 -5 14 10 6 10 9 2 9 -7 0 -13
11 -13 25 0 20 5 25 25 25 l25 0 0 -155z m-2129 111 c1 -19 2 -19 9 4 7 21 8
22 9 5 1 -27 -17 -45 -43 -44 -13 0 -16 3 -7 6 9 4 10 8 3 12 -6 4 -9 16 -6
28 7 27 34 19 35 -11z m2186 12 c-3 -8 -6 -5 -6 6 -1 11 2 17 5 13 3 -3 4 -12
1 -19z m423 2 c0 -5 -4 -10 -10 -10 -5 0 -10 5 -10 10 0 6 5 10 10 10 6 0 10
-4 10 -10z m-146 -15 c3 -8 1 -15 -4 -15 -6 0 -10 7 -10 15 0 8 2 15 4 15 2 0
6 -7 10 -15z m-2917 -15 c-3 -21 -17 -40 -17 -22 0 13 11 42 16 42 2 0 3 -9 1
-20z m38 10 c-3 -5 -12 -10 -18 -10 -7 0 -6 4 3 10 19 12 23 12 15 0z m2607
-32 c-7 -7 -10 -5 -7 8 5 29 6 30 12 16 3 -8 1 -18 -5 -24z m328 17 c0 -8 -7
-15 -15 -15 -13 0 -14 3 -3 15 16 18 18 18 18 0z m-2613 -27 c-3 -8 -6 -5 -6
6 -1 11 2 17 5 13 3 -3 4 -12 1 -19z m-296 -8 c6 0 7 6 3 13 -5 9 -4 9 6 0 8
-7 11 -16 7 -19 -10 -10 -37 4 -36 18 0 10 2 10 6 1 2 -7 9 -13 14 -13z m380
-7 c1 -17 2 -17 6 0 6 23 23 22 23 -3 0 -14 -7 -20 -24 -20 -15 0 -26 7 -29
20 -3 13 0 20 9 20 8 0 15 -8 15 -17z m2201 -35 c-10 -22 -10 -21 -9 9 1 19 6
28 11 23 6 -6 5 -18 -2 -32z m331 25 c-7 -2 -19 -2 -25 0 -7 3 -2 5 12 5 14 0
19 -2 13 -5z m-2890 -20 c-7 -2 -21 -2 -30 0 -10 3 -4 5 12 5 17 0 24 -2 18
-5z m274 -15 c-3 -8 -6 -5 -6 6 -1 11 2 17 5 13 3 -3 4 -12 1 -19z m94 -12 c2
-28 2 -28 -7 -50 -5 -14 -4 -17 4 -12 16 9 15 -7 0 -22 -19 -19 -31 -14 -26
13 3 14 1 25 -3 25 -14 0 -10 30 4 31 9 0 9 2 0 5 -16 7 -6 31 12 31 8 0 16
-10 16 -21z m2190 -43 c-8 -15 -10 -15 -11 -2 0 17 10 32 18 25 2 -3 -1 -13
-7 -23z m-2284 -15 c-3 -7 -5 -2 -5 12 0 14 2 19 5 13 2 -7 2 -19 0 -25z
m2377 -24 c3 -8 2 -12 -4 -9 -6 3 -10 10 -10 16 0 14 7 11 14 -7z m-2454 2 c0
-2 -7 -6 -15 -10 -8 -3 -15 -1 -15 4 0 6 7 10 15 10 8 0 15 -2 15 -4z m2365
-26 c-4 -12 -9 -19 -12 -17 -3 3 -2 15 2 27 4 12 9 19 12 17 3 -3 2 -15 -2
-27z m-1302 -330 c-3 -11 -10 -23 -16 -27 -7 -4 -8 0 -4 11 4 10 7 22 7 27 0
5 4 9 9 9 5 0 7 -9 4 -20z m348 -30 c10 -22 15 -40 11 -40 -8 1 -42 66 -42 82
0 17 11 2 31 -42z m-813 -97 c-10 -2 -28 -2 -40 0 -13 2 -5 4 17 4 22 1 32 -1
23 -4z m1470 0 c-32 -2 -86 -2 -120 0 -35 2 -9 3 57 3 66 0 94 -1 63 -3z m347
-3 c3 -5 1 -10 -4 -10 -6 0 -11 5 -11 10 0 6 2 10 4 10 3 0 8 -4 11 -10z
m-2132 -46 c-4 -10 -13 -14 -27 -10 -11 3 -30 6 -41 7 -19 0 -19 1 -2 8 10 4
32 8 48 9 22 2 27 -1 22 -14z m194 4 c0 -9 -15 -12 -51 -8 l-51 4 50 7 c28 3
50 7 51 7 0 1 1 -4 1 -10z m2788 2 c3 -5 2 -10 -4 -10 -5 0 -13 5 -16 10 -3 6
-2 10 4 10 5 0 13 -4 16 -10z m-3738 -6 c-3 -3 -12 -4 -19 -1 -8 3 -5 6 6 6
11 1 17 -2 13 -5z m2589 -5 c-55 -4 -106 -11 -114 -14 -12 -4 -13 -3 -2 10 10
12 34 15 114 14 l101 -2 -99 -8z m237 4 c-7 -2 -19 -2 -25 0 -7 3 -2 5 12 5
14 0 19 -2 13 -5z m-3328 -23 c-3 -5 -14 -10 -23 -10 -15 0 -15 2 -2 10 20 13
33 13 25 0z m1005 -5 c-6 -8 -8 -19 -4 -26 4 -6 3 -10 -2 -7 -5 2 -24 10 -42
17 -40 16 -27 31 27 31 28 0 32 -2 21 -15z m2425 5 c3 -4 -41 -10 -97 -12 -57
-2 -110 -8 -119 -12 -12 -5 -18 -1 -22 13 -5 20 -1 20 114 20 65 0 121 -4 124
-9z m549 -6 c18 -7 22 -34 5 -34 -5 0 -8 4 -4 9 3 6 -3 14 -12 20 -20 12 -13
14 11 5z m-3538 -37 c-20 -17 -27 -29 -23 -41 5 -13 2 -17 -11 -14 -9 2 -17 8
-17 13 0 6 -4 16 -9 23 -4 7 -6 15 -5 16 17 14 48 25 69 26 l25 0 -29 -23z
m4112 -5 c5 -17 -9 -14 -38 8 l-25 19 29 -7 c16 -5 31 -13 34 -20z m-974 12
c15 -6 15 -8 -1 -20 -18 -13 -52 -20 -40 -7 4 3 2 12 -4 20 -9 10 -7 13 9 13
11 0 28 -3 36 -6z m-1009 -53 c-6 -5 -25 10 -25 20 0 5 6 4 14 -3 8 -7 12 -15
11 -17z m1584 3 c7 -2 10 -11 7 -19 -3 -8 -1 -15 5 -15 6 0 7 -4 4 -10 -9 -14
-47 -12 -43 2 3 7 -7 22 -21 35 l-26 23 30 -6 c17 -3 36 -8 44 -10z m-2328
-21 c-9 -33 -31 -43 -31 -13 0 12 -4 18 -10 15 -6 -3 -7 1 -4 9 3 9 17 16 29
16 20 0 22 -3 16 -27z m789 17 c0 -5 -4 -10 -10 -10 -5 0 -10 5 -10 10 0 6 5
10 10 10 6 0 10 -4 10 -10z m71 -29 c-8 -5 -20 -7 -28 -4 -21 8 -15 13 15 13
20 0 23 -3 13 -9z m-957 -45 c-14 -45 -24 -66 -30 -66 -4 0 -5 3 -1 6 3 3 -4
16 -16 28 -13 11 -18 18 -13 14 6 -5 17 -8 26 -7 11 0 9 4 -7 16 -32 22 -29
29 12 29 31 0 34 -3 29 -20z m1050 -11 c4 -14 4 -31 0 -37 -4 -7 -3 -8 4 -4 7
4 12 3 12 -2 0 -6 -16 -12 -35 -14 -33 -4 -36 -2 -45 31 -14 51 -14 51 24 51
28 0 35 -4 40 -25z m-1155 -57 c-28 -86 -29 -88 -70 -88 -44 0 -43 -1 -27 37
6 15 10 32 9 36 0 4 3 17 9 27 8 15 21 20 50 20 l39 0 -10 -32z m1276 -15 c4
-21 10 -48 15 -60 9 -22 7 -23 -29 -23 -41 0 -44 3 -71 93 -8 27 -8 27 35 27
43 0 44 -1 50 -37z m-1406 -62 c-7 -19 -16 -28 -27 -26 -9 2 -29 4 -44 4 -19
1 -25 6 -23 19 2 9 4 20 4 25 1 4 23 7 50 7 l50 0 -10 -29z m1587 -35 c13 -32
21 -62 19 -66 -3 -5 1 -11 7 -13 7 -3 -13 -6 -46 -6 -54 -1 -58 1 -53 19 3 11
1 18 -3 15 -4 -3 -15 14 -23 37 -8 24 -18 51 -22 61 -7 16 -2 18 45 15 l52 -3
24 -59z m-1794 -111 l-37 -76 -40 7 c-22 4 -46 7 -53 7 -17 0 -10 52 13 100
l19 37 68 0 68 0 -38 -75z m2019 56 c3 -3 17 -26 32 -51 l25 -46 -24 -2 c-18
-1 -23 2 -18 11 6 9 4 9 -8 -1 -13 -10 -17 -10 -21 0 -3 7 -6 1 -6 -14 -1 -15
-6 -30 -11 -33 -6 -4 -8 -16 -5 -28 9 -30 -42 56 -70 120 -16 36 -20 53 -12
57 15 6 110 -4 118 -13z m-1906 -11 c3 -5 1 -10 -4 -10 -6 0 -11 5 -11 10 0 6
2 10 4 10 3 0 8 -4 11 -10z m1975 -112 c0 -11 -38 -10 -44 1 -3 5 5 8 19 7 14
0 25 -4 25 -8z m-55 -8 c3 -5 -1 -10 -9 -10 -9 0 -16 5 -16 10 0 6 4 10 9 10
6 0 13 -4 16 -10z m-2335 -27 c0 -5 -10 -19 -21 -33 l-20 -25 16 33 c15 30 25
41 25 25z m-40 -13 c0 -5 -5 -10 -11 -10 -5 0 -7 5 -4 10 3 6 8 10 11 10 2 0
4 -4 4 -10z m2671 -7 c1 -17 2 -17 6 0 3 13 15 17 46 17 39 -1 44 -4 81 -56
29 -42 33 -53 18 -45 -12 6 -32 12 -46 13 -15 1 -26 9 -26 16 0 12 -3 12 -15
2 -8 -6 -19 -9 -24 -6 -5 4 -14 -2 -20 -11 -9 -16 -10 -15 -11 7 0 18 -3 21
-9 12 -7 -11 -13 -9 -31 10 -22 22 -19 9 4 -21 10 -13 17 -41 10 -41 -2 0 -13
18 -24 39 l-20 40 23 16 c20 15 21 16 2 13 -11 -2 -23 -7 -26 -11 -3 -5 -9 -2
-12 5 -4 11 5 15 34 17 31 1 39 -2 40 -16z m-2681 -63 c-6 -11 -13 -20 -16
-20 -2 0 0 9 6 20 6 11 13 20 16 20 2 0 0 -9 -6 -20z m767 -12 c-3 -7 -5 -2
-5 12 0 14 2 19 5 13 2 -7 2 -19 0 -25z m0 -60 c-3 -8 -6 -5 -6 6 -1 11 2 17
5 13 3 -3 4 -12 1 -19z m1931 -23 c-3 -3 -9 2 -12 12 -6 14 -5 15 5 6 7 -7 10
-15 7 -18z m159 3 c-3 -8 -6 -5 -6 6 -1 11 2 17 5 13 3 -3 4 -12 1 -19z m26 8
c3 -8 -2 -20 -11 -27 -14 -11 -15 -11 -5 0 6 7 9 20 6 27 -3 8 -3 14 0 14 3 0
7 -6 10 -14z m-56 -28 c-3 -8 -6 -5 -6 6 -1 11 2 17 5 13 3 -3 4 -12 1 -19z
m-2137 -134 c0 -34 -4 -53 -10 -49 -16 10 -10 105 6 105 2 0 4 -25 4 -56z
m1204 40 c3 -8 2 -12 -4 -9 -6 3 -10 10 -10 16 0 14 7 11 14 -7z m6 -49 c0 -8
-4 -15 -10 -15 -5 0 -7 7 -4 15 4 8 8 15 10 15 2 0 4 -7 4 -15z m-1330 -148
c0 -7 -9 -18 -21 -25 -17 -11 -20 -11 -13 0 9 15 28 37 32 38 1 0 2 -6 2 -13z
m1478 -43 c-10 -10 -28 6 -28 24 0 15 1 15 17 -1 9 -9 14 -19 11 -23z"/>
<path d="M3727 2498 c-11 -37 -8 -48 9 -41 13 5 13 7 2 14 -10 7 -10 11 -1 17
7 4 9 13 4 21 -6 9 -10 6 -14 -11z"/>
<path d="M3177 858 c-9 -6 -8 -11 3 -18 10 -6 16 -6 19 1 2 7 6 7 11 -2 5 -7
18 -14 30 -16 17 -2 21 1 16 13 -3 8 -6 20 -6 24 0 11 -56 8 -73 -2z"/>
</g>
</svg>
