<?xml version="1.0" standalone="no"?>
<!DOCTYPE svg PUBLIC "-//W3C//DTD SVG 20010904//EN"
 "http://www.w3.org/TR/2001/REC-SVG-20010904/DTD/svg10.dtd">
<svg version="1.0" xmlns="http://www.w3.org/2000/svg"
 width="250.000000pt" height="380.000000pt" viewBox="0 0 250.000000 380.000000"
 preserveAspectRatio="xMidYMid meet">

<g transform="translate(0.000000,380.000000) scale(0.100000,-0.100000)"
fill="#000000" stroke="none">
<path d="M0 3000 l0 -800 51 0 c66 0 62 -24 -4 -28 -38 -3 -47 -7 -47 -22 0
-16 9 -19 50 -22 40 -2 48 -6 41 -17 -5 -8 -29 -18 -53 -21 l-43 -7 48 -2 c75
-2 56 -40 -20 -41 -13 0 -23 -4 -23 -9 0 -5 21 -6 46 -3 44 5 46 4 42 -19 -2
-20 -9 -24 -45 -27 -38 -3 -43 -6 -43 -28 0 -21 5 -24 35 -24 39 0 39 1 25
-34 -7 -19 -17 -26 -35 -26 -20 0 -25 -5 -25 -25 0 -18 5 -25 20 -25 15 0 20
-7 20 -28 0 -15 -4 -32 -9 -38 -4 -5 4 -147 20 -324 15 -174 32 -371 36 -439
9 -136 8 -141 -56 -141 l-31 0 0 -234 0 -235 58 25 c31 14 61 30 66 35 6 5 20
9 32 9 13 0 32 12 43 27 21 25 22 26 37 7 27 -34 32 -58 48 -239 9 -99 19
-195 22 -212 l5 -33 1094 0 1095 0 0 1900 0 1900 -1250 0 -1250 0 0 -800z
m497 -55 c67 -44 75 -135 18 -192 -34 -34 -38 -35 -91 -31 -46 4 -61 10 -87
37 -27 27 -32 39 -32 80 0 35 6 58 21 78 38 51 116 64 171 28z m1680 -467 c-3
-8 -6 -5 -6 6 -1 11 2 17 5 13 3 -3 4 -12 1 -19z m113 2 c0 -5 -4 -10 -10 -10
-5 0 -10 5 -10 10 0 6 5 10 10 10 6 0 10 -4 10 -10z m10 -40 c0 -5 -4 -10 -10
-10 -5 0 -10 5 -10 10 0 6 5 10 10 10 6 0 10 -4 10 -10z m-2180 -180 c0 -5
-15 -10 -32 -9 -28 0 -30 2 -13 9 28 12 45 12 45 0z m314 -101 c-3 -5 -10 -7
-15 -3 -5 3 -7 10 -3 15 3 5 10 7 15 3 5 -3 7 -10 3 -15z m6 -59 c0 -5 -4 -10
-10 -10 -5 0 -10 5 -10 10 0 6 5 10 10 10 6 0 10 -4 10 -10z m1653 -165 c7
-16 -8 -29 -23 -20 -10 6 -2 35 10 35 4 0 10 -7 13 -15z m-1943 -26 c0 -5 -4
-9 -10 -9 -5 0 -10 7 -10 16 0 8 5 12 10 9 6 -3 10 -10 10 -16z m1678 -1 c-6
-18 -28 -21 -28 -4 0 9 7 16 16 16 9 0 14 -5 12 -12z m333 -95 c10 -768 10
-775 -7 -769 -27 10 -54 -3 -54 -27 1 -19 2 -20 13 -7 7 9 22 16 35 17 18 1
22 -3 22 -28 0 -16 -4 -29 -10 -29 -16 0 -12 -22 8 -36 15 -12 16 -13 0 -14
-9 0 -34 17 -56 38 -31 30 -37 41 -28 54 13 22 1 35 -18 19 -10 -8 -16 -9 -21
-1 -3 5 -11 10 -17 10 -6 0 -4 -10 5 -23 8 -13 12 -28 9 -33 -10 -13 -32 -16
-32 -3 0 6 -7 4 -15 -5 -8 -8 -15 -24 -15 -35 0 -12 -8 -36 -18 -54 -15 -29
-20 -32 -31 -19 -12 12 -11 17 10 34 23 18 23 19 3 16 -28 -4 -53 18 -47 42 3
11 10 20 15 20 5 0 7 -8 3 -19 -4 -12 0 -21 11 -25 14 -5 15 -4 4 9 -9 10 -9
15 -1 15 7 0 9 10 5 28 -9 34 -8 34 -28 26 -10 -4 -13 -10 -8 -13 5 -3 -1 -14
-13 -24 -15 -10 -26 -13 -30 -7 -3 5 -1 10 5 10 7 0 5 7 -4 16 -24 23 -19 94
6 94 6 0 8 -6 5 -14 -5 -12 6 -14 48 -7 6 1 -3 13 -20 26 -26 22 -28 27 -17
45 13 21 3 27 -15 9 -6 -6 -9 -17 -7 -24 3 -7 1 -16 -5 -20 -8 -4 -11 23 -11
87 0 51 -3 103 -6 116 -5 16 -2 22 10 22 10 0 14 -5 10 -11 -4 -7 1 -7 16 1
15 8 20 8 16 1 -4 -6 0 -11 8 -11 9 0 16 -4 16 -9 0 -6 14 -25 30 -43 17 -18
30 -29 30 -25 0 3 11 2 25 -3 17 -6 25 -6 25 1 0 6 4 8 8 5 13 -8 58 45 66 76
8 36 -5 67 -48 111 -28 29 -43 37 -73 37 -20 0 -44 -6 -52 -14 -9 -7 -32 -16
-53 -19 l-36 -5 -6 56 c-3 31 -8 132 -12 223 l-6 166 133 10 c74 5 153 10 177
11 l42 2 1 -77z m-537 45 c7 -12 7 -21 0 -28 -13 -13 -40 -4 -48 17 -14 35 27
44 48 11z m-722 -168 c3 -22 -3 -26 -50 -39 -59 -16 -72 -10 -72 35 0 18 9 23
53 31 59 10 65 8 69 -27z m-378 -5 c3 -8 0 -15 -7 -15 -7 0 -29 -3 -49 -6 -48
-8 -52 11 -5 25 46 13 54 13 61 -4z m1286 -15 c0 -16 -38 -32 -46 -19 -7 12
12 29 34 29 6 0 12 -4 12 -10z m-175 -21 c4 -6 5 -13 2 -16 -8 -7 -47 7 -47
18 0 13 37 11 45 -2z m-855 -19 c0 -5 -2 -10 -4 -10 -3 0 -8 5 -11 10 -3 6 -1
10 4 10 6 0 11 -4 11 -10z m450 -16 c0 -8 -4 -13 -9 -10 -5 4 -11 0 -14 -6 -3
-9 -7 -7 -12 6 -5 11 -3 21 6 26 16 11 29 4 29 -16z m-552 -5 c-8 -5 -31 -9
-49 -11 -19 -1 -38 -5 -44 -9 -5 -4 -30 -10 -55 -14 -25 -3 -53 -9 -62 -11
-10 -3 -18 -1 -18 4 0 5 12 12 28 15 88 18 117 26 119 34 2 4 24 6 50 4 32 -2
42 -6 31 -12z m-171 -5 c-3 -3 -12 -4 -19 -1 -8 3 -5 6 6 6 11 1 17 -2 13 -5z
m-397 -35 c0 -10 -4 -19 -10 -19 -5 0 -10 12 -10 26 0 14 4 23 10 19 6 -3 10
-15 10 -26z m300 -30 c-7 -11 -14 -18 -17 -15 -3 3 0 12 7 21 18 21 23 19 10
-6z m230 -69 c-20 -13 -40 -13 -40 0 0 6 12 10 28 10 21 0 24 -2 12 -10z m-65
-10 c-3 -5 -13 -10 -22 -10 -11 0 -14 -7 -10 -25 3 -20 1 -25 -12 -23 -24 5
-27 55 -4 61 33 8 54 7 48 -3z m615 -27 c21 -43 23 -50 6 -28 -8 11 -20 25
-26 32 -12 15 -13 23 -2 23 5 0 15 -12 22 -27z m-1090 -3 c0 -5 -2 -10 -4 -10
-3 0 -8 5 -11 10 -3 6 -1 10 4 10 6 0 11 -4 11 -10z m1770 -45 c0 -8 -4 -15
-10 -15 -5 0 -10 7 -10 15 0 8 5 15 10 15 6 0 10 -7 10 -15z m-1284 -32 c-10
-10 -19 5 -10 18 6 11 8 11 12 0 2 -7 1 -15 -2 -18z m1445 -4 c9 -17 8 -25 -4
-37 -27 -26 -67 6 -53 43 8 22 44 18 57 -6z m-1691 -22 c0 -12 -90 -37 -135
-37 -35 0 0 22 57 35 70 17 78 17 78 2z m260 -8 c0 -5 -7 -9 -15 -9 -15 0 -20
12 -9 23 8 8 24 -1 24 -14z m1133 0 c8 -30 -2 -49 -25 -49 -10 0 -16 5 -13 10
3 6 3 15 -1 21 -4 8 -9 7 -15 -2 -6 -11 -9 -9 -9 7 0 26 8 34 36 34 14 0 24
-8 27 -21z m-1368 -29 c3 -5 1 -10 -4 -10 -6 0 -11 5 -11 10 0 6 2 10 4 10 3
0 8 -4 11 -10z m290 -180 c-3 -5 -13 -10 -21 -10 -8 0 -14 5 -14 10 0 6 9 10
21 10 11 0 17 -4 14 -10z m180 -20 c3 -5 1 -10 -4 -10 -6 0 -11 5 -11 10 0 6
2 10 4 10 3 0 8 -4 11 -10z m-255 -10 c8 -5 11 -12 8 -16 -10 -9 -38 3 -38 16
0 12 10 13 30 0z m270 -30 c0 -5 -4 -10 -10 -10 -5 0 -10 5 -10 10 0 6 5 10
10 10 6 0 10 -4 10 -10z m-190 -20 c0 -5 -4 -10 -10 -10 -5 0 -10 5 -10 10 0
6 5 10 10 10 6 0 10 -4 10 -10z m-96 -46 c7 -19 -2 -37 -15 -29 -12 8 -12 45
0 45 5 0 12 -7 15 -16z m108 -19 c2 -11 -3 -21 -12 -22 -12 -3 -15 4 -14 24 1
15 2 30 3 33 2 9 20 -16 23 -35z m52 18 c4 -9 3 -20 -2 -25 -6 -6 -11 1 -14
16 -6 29 6 35 16 9z m-217 -15 c-3 -8 -6 -5 -6 6 -1 11 2 17 5 13 3 -3 4 -12
1 -19z m1360 -37 c-3 -15 0 -17 16 -13 17 4 19 2 14 -18 -4 -17 0 -28 19 -42
27 -22 31 -37 9 -34 -39 6 -101 126 -65 126 7 0 10 -8 7 -19z m153 9 c0 -5 -4
-10 -10 -10 -5 0 -10 5 -10 10 0 6 5 10 10 10 6 0 10 -4 10 -10z m100 -7 c0
-5 -7 -17 -15 -27 -12 -16 -17 -17 -30 -6 -12 10 -15 10 -15 -4 0 -10 -8 -16
-21 -16 -16 0 -20 -4 -15 -17 5 -15 4 -15 -9 1 -19 25 -19 36 0 36 9 0 25 9
37 20 21 19 68 28 68 13z m15 -53 c-3 -5 -10 -10 -16 -10 -5 0 -9 5 -9 10 0 6
7 10 16 10 8 0 12 -4 9 -10z m-1413 -20 c14 -31 7 -39 -42 -49 -28 -6 -54 -10
-58 -9 -4 1 -20 -2 -36 -7 -20 -5 -31 -4 -37 6 -13 20 -12 22 24 44 57 35 136
43 149 15z m438 -34 c0 -3 -4 -8 -10 -11 -5 -3 -10 -1 -10 4 0 6 5 11 10 11 6
0 10 -2 10 -4z m999 -18 c0 -7 -4 -22 -9 -33 -7 -17 -9 -15 -9 13 -1 17 4 32
9 32 6 0 10 -6 9 -12z m-1394 -37 c-6 -5 -25 10 -25 20 0 5 6 4 14 -3 8 -7 12
-15 11 -17z m1282 -13 c-3 -7 -5 -2 -5 12 0 14 2 19 5 13 2 -7 2 -19 0 -25z
m-1361 -6 c1 -7 2 -19 3 -27 0 -8 9 -15 19 -16 14 0 14 -2 -3 -9 -11 -5 -28
-9 -39 -9 -15 -1 -16 2 -6 14 7 9 10 25 6 41 -5 19 -3 25 6 22 7 -3 14 -10 14
-16z m-181 -22 c3 -5 2 -10 -4 -10 -5 0 -13 5 -16 10 -3 6 -2 10 4 10 5 0 13
-4 16 -10z m525 -346 c0 -8 -4 -12 -10 -9 -5 3 -10 10 -10 16 0 5 5 9 10 9 6
0 10 -7 10 -16z m130 -5 c0 -5 -11 -9 -25 -9 -24 0 -32 10 -19 22 8 8 44 -3
44 -13z m-93 5 c-3 -3 -12 -4 -19 -1 -8 3 -5 6 6 6 11 1 17 -2 13 -5z m438 -3
c3 -5 1 -12 -5 -16 -5 -3 -10 1 -10 9 0 18 6 21 15 7z m506 -34 c-13 -13 -26
-3 -16 12 3 6 11 8 17 5 6 -4 6 -10 -1 -17z m-486 -17 c-3 -5 -10 -10 -16 -10
-5 0 -9 5 -9 10 0 6 7 10 16 10 8 0 12 -4 9 -10z m424 -53 c6 -8 8 -17 4 -20
-7 -8 -33 11 -33 24 0 13 16 11 29 -4z m161 -87 c0 -5 -4 -10 -10 -10 -5 0
-10 5 -10 10 0 6 5 10 10 10 6 0 10 -4 10 -10z m-95 -40 c3 -5 1 -10 -4 -10
-6 0 -11 5 -11 10 0 6 2 10 4 10 3 0 8 -4 11 -10z m185 -11 c0 -11 -4 -17 -10
-14 -5 3 -10 13 -10 21 0 8 5 14 10 14 6 0 10 -9 10 -21z m-1359 -39 c10 -6
26 -24 35 -41 10 -21 11 -29 3 -23 -9 5 -11 2 -6 -9 10 -26 -7 -20 -18 5 -6
13 -23 29 -39 37 -24 11 -33 11 -67 -4 -21 -10 -37 -22 -36 -28 1 -6 -6 -13
-15 -15 -10 -2 -18 1 -18 7 0 6 5 11 11 11 5 0 8 4 5 9 -4 5 8 21 25 35 33 28
84 34 120 16z"/>
<path d="M430 2831 c0 -11 4 -21 9 -21 18 0 21 18 6 30 -13 10 -15 9 -15 -9z"/>
<path d="M1865 1189 c-11 -16 -1 -19 13 -3 7 8 8 14 3 14 -5 0 -13 -5 -16 -11z"/>
<path d="M2121 1164 c0 -11 3 -14 6 -6 3 7 2 16 -1 19 -3 4 -6 -2 -5 -13z"/>
<path d="M2030 1130 c0 -20 21 -51 30 -45 5 3 11 1 15 -5 3 -5 11 -10 16 -10
6 0 7 5 4 10 -3 6 -2 10 4 10 6 0 8 7 4 16 -4 11 -9 12 -16 5 -16 -16 -37 -13
-37 3 0 8 -4 18 -10 21 -5 3 -10 1 -10 -5z"/>
<path d="M1930 1105 c7 -9 15 -13 17 -11 7 7 -7 26 -19 26 -6 0 -6 -6 2 -15z"/>
<path d="M1920 1039 c0 -5 5 -7 10 -4 6 3 10 8 10 11 0 2 -4 4 -10 4 -5 0 -10
-5 -10 -11z"/>
<path d="M1955 1030 c-4 -7 -1 -16 6 -21 17 -10 26 8 11 23 -6 6 -12 6 -17 -2z"/>
<path d="M1986 1332 c-3 -6 -1 -14 5 -17 14 -9 20 -2 10 14 -6 8 -11 9 -15 3z"/>
<path d="M650 830 c0 -6 7 -10 15 -10 8 0 15 2 15 4 0 2 -7 6 -15 10 -8 3 -15
1 -15 -4z"/>
<path d="M41 344 c-19 -8 -32 -16 -29 -19 6 -7 68 18 68 27 0 10 2 10 -39 -8z"/>
</g>
</svg>
