<?xml version="1.0" standalone="no"?>
<!DOCTYPE svg PUBLIC "-//W3C//DTD SVG 20010904//EN"
 "http://www.w3.org/TR/2001/REC-SVG-20010904/DTD/svg10.dtd">
<svg version="1.0" xmlns="http://www.w3.org/2000/svg"
 width="251.000000pt" height="381.000000pt" viewBox="0 0 251.000000 381.000000"
 preserveAspectRatio="xMidYMid meet">

<g transform="translate(0.000000,381.000000) scale(0.100000,-0.100000)"
fill="#000000" stroke="none">
<path d="M0 3420 l0 -390 26 6 c22 6 25 4 22 -12 -2 -10 -14 -21 -28 -25 -21
-6 -19 -7 13 -8 21 -1 36 3 32 8 -11 19 27 41 71 41 l44 0 0 -44 c0 -28 -6
-51 -16 -61 -15 -14 -15 -32 -5 -183 7 -92 15 -178 17 -191 5 -22 6 -22 18 -6
24 33 26 -8 3 -58 l-22 -47 -87 0 -88 0 0 -74 c0 -65 2 -74 20 -79 16 -4 20
-13 19 -49 l0 -43 -19 45 -19 45 0 -437 c-1 -241 1 -438 3 -438 3 0 12 24 20
53 9 29 23 71 32 93 9 22 17 73 19 122 1 46 5 85 7 88 3 2 8 -24 12 -58 8 -72
14 -120 21 -163 3 -16 16 -133 30 -260 20 -184 23 -231 13 -241 -7 -6 -45 -24
-85 -39 l-72 -28 -1 -493 0 -494 29 0 c16 0 31 4 33 9 2 4 13 12 26 15 15 5
24 3 28 -8 8 -21 159 -24 167 -3 4 9 6 9 6 0 1 -9 17 -13 45 -13 35 0 46 4 51
19 10 33 52 74 69 68 21 -8 21 -27 -1 -27 -15 0 -14 -2 3 -14 19 -15 19 -15
-1 -30 -19 -15 -19 -15 12 -16 17 0 34 4 37 9 5 8 25 152 30 211 1 14 7 24 14
23 15 -4 35 34 26 50 -4 6 -3 9 1 4 5 -4 14 5 21 20 10 24 11 18 7 -45 -3 -48
-11 -85 -24 -105 -23 -38 -24 -47 -4 -47 15 0 13 -33 -5 -92 -8 -24 -6 -28 10
-28 10 0 21 6 23 13 4 9 8 9 14 1 10 -14 172 -18 193 -4 12 8 10 10 -10 11
-19 1 -17 3 10 8 20 3 37 2 40 -4 3 -5 13 -11 22 -11 14 -1 15 2 8 15 -5 10
-16 24 -25 31 -11 9 -14 22 -10 41 6 26 3 28 -29 35 -20 3 -36 10 -36 15 0 11
-2 11 37 0 18 -5 35 -6 38 -1 6 10 45 9 45 -1 0 -4 -6 -10 -13 -12 -8 -4 -8
-6 0 -6 10 -1 10 -50 0 -79 -2 -7 6 -12 23 -12 5 0 7 7 4 15 -5 11 1 15 19 15
36 0 35 47 -2 62 -24 10 -25 11 -6 18 35 15 62 11 68 -9 2 -11 0 -24 -6 -30
-8 -8 -7 -11 2 -11 7 0 9 -4 6 -10 -3 -5 -1 -10 6 -10 7 0 10 -3 6 -6 -8 -9
21 -64 33 -64 6 0 10 7 10 17 0 15 2 15 19 -1 22 -20 43 -13 34 11 -4 9 1 19
10 25 10 5 17 14 17 21 0 8 -3 8 -9 -2 -7 -10 -13 -11 -30 -2 -30 17 -26 21
20 21 38 0 40 -1 37 -27 -2 -20 -8 -27 -20 -25 -12 2 -16 -2 -12 -13 7 -18 16
-19 32 -3 9 9 12 7 12 -10 0 -22 1 -22 180 -22 150 0 182 3 186 15 5 13 8 13
21 0 11 -12 44 -15 148 -15 l134 0 -13 24 c-7 13 -51 64 -99 112 -48 48 -85
90 -82 93 3 2 29 -18 58 -46 28 -28 92 -81 141 -117 l89 -66 294 0 293 0 0 90
c0 78 -3 91 -17 96 -47 15 -129 48 -137 55 -4 4 28 -3 73 -16 l81 -23 0 98 0
97 -106 32 c-186 57 -427 173 -553 266 -33 25 -61 50 -61 57 0 7 -28 42 -62
77 -35 36 -52 56 -38 44 71 -60 266 -181 383 -237 126 -62 379 -156 418 -156
18 0 19 15 19 393 l0 392 -162 54 c-254 84 -527 214 -514 246 2 7 -13 25 -35
41 -65 48 -44 46 56 -7 170 -90 463 -203 628 -243 l27 -6 0 1230 0 1230 -1255
0 -1255 0 0 -390z m688 274 c45 -51 14 -144 -49 -144 -42 0 -64 14 -79 49 -20
49 -5 100 33 116 39 17 65 11 95 -21z m-331 -420 c-3 -3 -12 -4 -19 -1 -8 3
-5 6 6 6 11 1 17 -2 13 -5z m828 -32 c18 -13 17 -35 0 -28 -9 3 -19 6 -21 6
-2 0 -4 7 -4 15 0 16 9 19 25 7z m-867 -9 c-10 -2 -28 -2 -40 0 -13 2 -5 4 17
4 22 1 32 -1 23 -4z m-155 -40 c-18 -2 -48 -2 -65 0 -18 2 -4 4 32 4 36 0 50
-2 33 -4z m137 -1 c0 -4 -18 -6 -40 -4 -22 2 -40 6 -40 8 0 2 18 4 40 4 22 0
40 -3 40 -8z m330 -12 c0 -5 -4 -10 -10 -10 -5 0 -10 5 -10 10 0 6 5 10 10 10
6 0 10 -4 10 -10z m-354 -22 c-3 -13 -6 -38 -6 -57 0 -29 -13 -37 -16 -10 -1
5 -2 13 -3 18 0 6 -18 11 -38 13 -35 3 -36 4 -19 21 17 16 13 17 -74 17 -58 0
-89 4 -85 10 4 6 57 10 127 10 120 0 120 0 114 -22z m-126 -23 c-13 -16 -84
-21 -117 -8 -14 6 -11 9 17 14 19 4 52 7 74 8 33 1 37 -1 26 -14z m480 5 c0
-5 -4 -10 -10 -10 -5 0 -10 5 -10 10 0 6 5 10 10 10 6 0 10 -4 10 -10z m-402
-69 c5 -30 -6 -71 -18 -71 -6 0 -10 14 -10 30 0 28 -2 30 -40 30 -22 0 -40 4
-40 8 0 20 28 33 65 30 33 -3 41 -7 43 -27z m119 -23 c-3 -8 -6 -5 -6 6 -1 11
2 17 5 13 3 -3 4 -12 1 -19z m773 -59 c0 -25 -33 -22 -38 4 -2 12 3 17 17 17
15 0 21 -6 21 -21z m310 -111 c0 -68 -4 -222 -10 -343 -16 -380 -17 -552 -2
-566 6 -7 12 -26 12 -42 0 -17 14 -48 33 -76 19 -25 36 -51 40 -56 7 -14 -17
-45 -39 -49 -11 -3 -26 -7 -34 -10 -10 -4 -28 6 -48 26 -27 25 -33 38 -30 65
2 22 -3 37 -12 43 -13 8 -13 10 1 10 40 0 38 98 -3 123 -27 18 -68 0 -75 -33
-3 -17 -10 -33 -14 -36 -15 -9 -10 -61 6 -68 11 -4 15 -20 15 -57 0 -40 3 -50
14 -46 9 4 16 -3 20 -16 5 -21 5 -21 28 4 l24 26 17 -23 c13 -18 17 -44 17
-118 0 -55 -4 -98 -10 -101 -6 -4 -8 -15 -5 -26 8 -23 2 -24 -21 -2 -16 16
-18 16 -36 -6 -10 -13 -22 -20 -26 -16 -4 4 -1 10 6 12 6 3 12 9 12 15 0 6 -7
5 -16 -3 -14 -12 -15 -29 -9 -129 4 -63 5 -113 2 -110 -10 11 -55 393 -80 665
-16 185 -12 725 6 725 7 0 17 -10 22 -22 17 -36 41 -45 73 -28 34 20 41 66 14
100 -14 18 -22 21 -38 13 -10 -5 -32 -9 -49 -9 l-30 1 -3 143 -3 142 116 0
115 0 0 -122z m-1133 -25 c-3 -10 -5 -2 -5 17 0 19 2 27 5 18 2 -10 2 -26 0
-35z m-47 12 c0 -8 -4 -15 -10 -15 -5 0 -10 7 -10 15 0 8 5 15 10 15 6 0 10
-7 10 -15z m414 6 c6 -8 -25 -21 -51 -21 -22 0 -14 18 10 23 12 2 25 5 29 6 4
0 9 -3 12 -8z m232 -8 c-2 -34 -76 -47 -76 -14 0 19 7 22 66 30 7 0 11 -7 10
-16z m234 -19 c0 -8 -5 -12 -10 -9 -6 4 -8 11 -5 16 9 14 15 11 15 -7z m-371
-28 c-2 -2 -22 -7 -44 -10 -22 -4 -56 -9 -75 -13 -50 -8 -31 6 21 16 48 10
105 13 98 7z m81 -6 c0 -5 -2 -10 -4 -10 -3 0 -8 5 -11 10 -3 6 -1 10 4 10 6
0 11 -4 11 -10z m-517 -32 c-6 -7 -13 -22 -16 -33 -4 -18 -5 -18 -6 3 0 13 5
29 12 36 15 17 24 11 10 -6z m260 -3 c-3 -9 -8 -14 -10 -11 -3 3 -2 9 2 15 9
16 15 13 8 -4z m-6 -57 c-3 -7 -5 -2 -5 12 0 14 2 19 5 13 2 -7 2 -19 0 -25z
m-394 2 c3 -11 1 -18 -4 -14 -5 3 -9 12 -9 20 0 20 7 17 13 -6z m917 6 c0 -11
-19 -15 -25 -6 -3 5 1 10 9 10 9 0 16 -2 16 -4z m-810 -31 c0 -14 -4 -25 -9
-25 -5 0 -8 8 -6 18 2 9 4 20 4 25 2 19 11 4 11 -18z m377 -7 c-3 -7 -5 -2 -5
12 0 14 2 19 5 13 2 -7 2 -19 0 -25z m-440 -10 c-3 -8 -6 -5 -6 6 -1 11 2 17
5 13 3 -3 4 -12 1 -19z m360 -15 c-3 -10 -5 -4 -5 12 0 17 2 24 5 18 2 -7 2
-21 0 -30z m643 27 c0 -5 -4 -10 -10 -10 -5 0 -10 5 -10 10 0 6 5 10 10 10 6
0 10 -4 10 -10z m-1040 -68 c-7 -13 -9 -8 -9 23 0 35 1 37 10 17 6 -15 5 -30
-1 -40z m918 25 c-11 -21 -11 -21 -18 -2 -9 25 -4 36 15 29 12 -5 12 -10 3
-27z m200 10 c2 -10 -3 -17 -12 -17 -18 0 -29 16 -21 31 9 14 29 6 33 -14z
m-1052 -29 c-3 -13 -6 -29 -6 -35 0 -7 -4 -13 -10 -13 -11 0 -14 53 -3 63 14
15 25 6 19 -15z m294 13 c0 -7 -69 -21 -106 -21 -31 0 -11 19 24 23 71 7 82 7
82 -2z m47 -33 c-3 -7 -5 -2 -5 12 0 14 2 19 5 13 2 -7 2 -19 0 -25z m10 -55
c-3 -10 -5 -4 -5 12 0 17 2 24 5 18 2 -7 2 -21 0 -30z m-97 -15 c0 -6 20 -44
45 -86 25 -41 45 -82 45 -91 -1 -27 -39 26 -77 106 -34 74 -41 99 -23 88 6 -3
10 -11 10 -17z m-412 -268 l0 -35 -8 30 c-4 17 -8 44 -8 60 0 29 0 29 8 5 4
-14 8 -41 8 -60z m635 -10 c4 -15 0 -20 -13 -20 -13 0 -17 5 -13 20 3 11 9 20
13 20 4 0 10 -9 13 -20z m-626 -132 c-2 -13 -4 -5 -4 17 -1 22 1 32 4 23 2
-10 2 -28 0 -40z m373 -12 c0 -8 -4 -18 -10 -21 -5 -3 -10 3 -10 14 0 12 5 21
10 21 6 0 10 -6 10 -14z m400 -51 c0 -2 3 -11 7 -21 6 -15 2 -15 -25 5 -34 24
-35 49 -1 31 10 -6 19 -12 19 -15z m-763 -27 c-3 -7 -5 -2 -5 12 0 14 2 19 5
13 2 -7 2 -19 0 -25z m1218 -108 c3 -5 -1 -10 -9 -10 -9 0 -16 5 -16 10 0 6 4
10 9 10 6 0 13 -4 16 -10z m-512 -88 c24 -21 22 -67 -5 -86 -33 -24 -45 -19
-20 7 12 13 22 28 22 34 0 22 -29 40 -54 36 -33 -7 -43 -39 -20 -64 24 -27 11
-36 -15 -10 -26 26 -27 63 -3 83 33 29 60 29 95 0z m497 -22 c0 -5 -4 -10 -10
-10 -5 0 -10 5 -10 10 0 6 5 10 10 10 6 0 10 -4 10 -10z m-105 -162 c5 -69 4
-98 -4 -98 -7 0 -11 35 -11 102 0 56 2 99 4 97 2 -2 7 -48 11 -101z m320 40
c-19 -11 -30 -5 -21 11 4 6 14 7 22 4 15 -5 14 -7 -1 -15z m-118 -30 c-3 -8
-6 -5 -6 6 -1 11 2 17 5 13 3 -3 4 -12 1 -19z m83 -7 c0 -16 -3 -36 -6 -45
-12 -31 -24 -16 -24 29 0 33 4 45 15 45 10 0 15 -10 15 -29z m116 -49 c18 -12
25 -42 9 -42 -15 0 -45 27 -45 41 0 11 21 12 36 1z m-386 -99 c0 -41 -14 -36
-25 10 -6 21 -4 27 9 27 12 0 16 -10 16 -37z m-880 -113 c0 -5 -4 -10 -10 -10
-5 0 -10 5 -10 10 0 6 5 10 10 10 6 0 10 -4 10 -10z m-60 -4 c0 -2 -6 -16 -14
-30 -15 -29 -6 -87 21 -139 13 -25 13 -31 -1 -52 -20 -30 -20 -35 0 -35 11 0
14 -8 12 -32 -3 -30 -6 -33 -40 -36 -25 -2 -38 -8 -38 -18 0 -27 -18 -14 -24
19 -5 26 -3 35 14 46 26 17 25 27 -2 36 -22 6 -22 7 7 20 17 7 33 11 37 9 4
-3 5 2 2 10 -4 11 -14 13 -35 9 -26 -5 -29 -3 -29 21 0 19 6 27 25 32 27 7 34
24 10 24 -22 0 -19 47 3 53 14 4 14 6 -5 12 -36 11 -29 43 10 48 17 2 35 5 40
5 4 1 7 0 7 -2z m69 -43 c0 -10 -3 -13 -5 -6 -3 7 -12 9 -20 6 -7 -3 -11 -9
-8 -14 3 -5 -2 -9 -10 -9 -9 0 -16 6 -16 14 0 13 9 17 53 25 4 0 7 -7 6 -16z
m951 -263 c0 -5 -4 -10 -10 -10 -5 0 -10 5 -10 10 0 6 5 10 10 10 6 0 10 -4
10 -10z m190 -114 c0 -3 -4 -8 -10 -11 -5 -3 -10 -1 -10 4 0 6 5 11 10 11 6 0
10 -2 10 -4z m-57 -66 c3 -11 1 -20 -4 -20 -5 0 -9 9 -9 20 0 11 2 20 4 20 2
0 6 -9 9 -20z m147 -75 c-1 -5 -12 3 -25 18 -14 15 -25 33 -25 40 1 7 12 -1
25 -18 14 -16 25 -34 25 -40z m-1338 -65 c0 -16 1 -36 2 -42 1 -7 -8 -14 -18
-16 -14 -3 -17 0 -12 13 3 9 6 30 6 46 0 38 20 38 22 -1z m-42 -21 c0 -6 -6
-17 -14 -25 -20 -19 -30 0 -14 25 12 19 28 19 28 0z m-135 -29 c3 -5 -7 -23
-22 -40 -27 -31 -27 -31 -35 -9 -13 35 38 79 57 49z m66 -235 c4 -6 4 -29 -1
-50 -5 -22 -7 -49 -4 -60 6 -19 5 -19 -11 -3 -20 19 -26 57 -11 76 7 10 5 17
-7 23 -10 6 -14 16 -10 27 10 26 28 34 32 14 2 -9 7 -22 12 -27z m1 -153 c23
-27 1 -18 -37 15 -39 34 -39 34 -7 16 19 -10 38 -24 44 -31z m438 2 c0 -8 -7
-14 -15 -14 -15 0 -21 21 -9 33 10 9 24 -2 24 -19z m-29 -61 c-8 -15 -10 -15
-11 -2 0 17 10 32 18 25 2 -3 -1 -13 -7 -23z m-435 -28 c-3 -8 -1 -15 4 -15 6
0 10 -9 10 -20 0 -17 3 -18 26 -10 39 15 53 10 17 -6 -18 -8 -33 -19 -33 -25
0 -7 10 -5 25 5 30 20 46 21 39 2 -3 -7 2 -16 10 -19 21 -8 21 -37 0 -37 -8 0
-13 -4 -9 -10 3 -5 13 -6 23 -3 12 4 14 3 7 -5 -17 -18 -62 -25 -71 -11 -5 9
-2 10 9 6 10 -3 17 -2 17 3 0 6 -6 10 -12 11 -7 0 -3 5 10 11 32 16 27 28 -12
28 -25 0 -39 7 -50 22 -12 17 -18 20 -28 10 -34 -34 -39 14 -5 52 25 29 32 32
23 11z m1432 -20 c-3 -3 -9 2 -12 12 -6 14 -5 15 5 6 7 -7 10 -15 7 -18z
m-568 -40 c0 -8 -4 -15 -9 -15 -5 0 -11 7 -15 15 -3 9 0 15 9 15 8 0 15 -7 15
-15z m48 -16 c-3 -8 -7 -3 -11 10 -4 17 -3 21 5 13 5 -5 8 -16 6 -23z m-973 1
c3 -5 -1 -10 -10 -10 -9 0 -13 5 -10 10 3 6 8 10 10 10 2 0 7 -4 10 -10z
m1355 -20 c0 -11 -7 -20 -15 -20 -8 0 -15 9 -15 20 0 11 7 20 15 20 8 0 15 -9
15 -20z m-657 -4 c4 -9 -3 -16 -16 -20 -26 -6 -31 -2 -24 19 8 19 33 20 40 1z
m-364 -12 c5 3 12 0 14 -6 3 -8 6 -6 6 4 1 11 6 15 16 11 14 -5 14 -7 0 -23
-8 -9 -15 -22 -15 -28 0 -7 -4 -12 -9 -12 -5 0 -12 -11 -15 -25 -10 -39 -23
-30 -30 21 -9 72 -9 79 9 64 8 -6 18 -9 24 -6z m916 -9 c0 -5 -21 -11 -47 -13
-46 -3 -67 11 -30 21 28 8 77 3 77 -8z m-370 -16 c-3 -4 -12 -6 -20 -3 -8 4
-13 10 -10 15 3 4 12 6 20 3 8 -4 13 -10 10 -15z m793 -64 c-3 -3 -9 2 -12 12
-6 14 -5 15 5 6 7 -7 10 -15 7 -18z m-1008 5 c0 -5 -4 -10 -10 -10 -5 0 -10 5
-10 10 0 6 5 10 10 10 6 0 10 -4 10 -10z m769 3 c-3 -21 3 -32 19 -36 11 -3 7
-5 -10 -6 -14 0 -34 2 -43 5 -14 6 -14 8 1 25 17 19 35 25 33 12z"/>
<path d="M238 3153 c6 -2 18 -2 25 0 6 3 1 5 -13 5 -14 0 -19 -2 -12 -5z"/>
<path d="M1404 1939 c-3 -6 -1 -16 5 -22 8 -8 11 -5 11 11 0 24 -5 28 -16 11z"/>
<path d="M1375 1880 c3 -5 8 -10 11 -10 2 0 4 5 4 10 0 6 -5 10 -11 10 -5 0
-7 -4 -4 -10z"/>
<path d="M1270 1706 c0 -2 8 -10 18 -17 15 -13 16 -12 3 4 -13 16 -21 21 -21
13z"/>
<path d="M974 45 c-9 -22 4 -48 18 -39 8 5 9 9 1 11 -6 2 -9 13 -6 23 6 23 -5
27 -13 5z"/>
</g>
</svg>
