<?xml version="1.0" standalone="no"?>
<!DOCTYPE svg PUBLIC "-//W3C//DTD SVG 20010904//EN"
 "http://www.w3.org/TR/2001/REC-SVG-20010904/DTD/svg10.dtd">
<svg version="1.0" xmlns="http://www.w3.org/2000/svg"
 width="555.000000pt" height="364.000000pt" viewBox="0 0 555.000000 364.000000"
 preserveAspectRatio="xMidYMid meet">
<metadata>
Created by potrace 1.16, written by Peter Selinger 2001-2019
</metadata>
<g transform="translate(0.000000,364.000000) scale(0.100000,-0.100000)"
fill="#000000" stroke="none">
<path d="M0 2802 l0 -837 126 -2 c116 -1 145 -5 133 -18 -8 -8 -72 -8 -166 0
l-93 8 0 -104 0 -104 179 3 c196 5 246 -4 181 -32 -20 -8 -52 -13 -71 -11 -43
4 -187 7 -246 6 l-43 -1 0 -855 0 -855 2775 0 2775 0 0 1820 0 1820 -2775 0
-2775 0 0 -838z m4880 608 c30 -4 48 -8 39 -9 -9 0 -19 -8 -23 -16 -5 -13 -47
-15 -298 -15 -161 0 -303 3 -315 6 -14 4 -23 14 -23 25 0 18 12 19 283 18 155
-1 307 -4 337 -9z m-2122 -30 c36 -22 52 -54 52 -104 0 -58 -72 -105 -129 -83
-29 10 -31 15 -31 59 0 33 -5 50 -16 56 -20 11 -7 40 32 71 33 26 50 26 92 1z
m587 -2 c33 -15 55 -56 55 -102 0 -44 -46 -86 -95 -86 -35 0 -76 37 -90 80 -9
27 25 91 56 107 30 16 42 16 74 1z m-1190 -20 c61 -48 73 -141 25 -206 -34
-48 -72 -62 -109 -41 -37 21 -80 89 -81 127 0 72 54 142 110 142 15 0 40 -10
55 -22z m484 -614 c30 -6 31 -8 31 -60 0 -62 -9 -68 -96 -62 l-49 3 -3 57 -2
57 37 4 c21 2 41 4 44 5 4 1 21 -1 38 -4z m198 -2 c14 -9 15 -92 1 -109 -13
-16 -114 -17 -124 -2 -14 23 -15 102 -2 111 16 10 109 10 125 0z m-717 -46 c0
-25 4 -47 9 -50 16 -10 33 22 29 56 l-3 33 75 0 75 0 0 -45 c0 -33 4 -45 15
-45 11 0 16 13 18 48 l3 47 75 0 74 0 0 -44 c0 -72 -15 -92 -46 -62 -8 9 -10
16 -3 18 15 5 -7 58 -25 58 -13 0 -51 -48 -44 -55 2 -2 15 -8 28 -14 21 -8 15
-10 -30 -9 -30 1 -70 -2 -89 -6 -31 -8 -33 -6 -29 12 7 24 -5 31 -41 24 l-24
-5 29 -13 c27 -11 23 -12 -46 -13 -43 -1 -81 -6 -88 -13 -8 -8 -15 -8 -26 1
-7 6 -18 11 -22 10 -5 -1 -38 0 -74 1 -43 2 -53 5 -30 7 41 5 52 18 44 55 -3
15 -3 32 1 38 3 5 37 10 76 10 l69 0 0 -44z m75 -120 c15 -20 45 -21 45 -1 0
12 14 15 68 14 l67 -1 -50 -12 -50 -13 43 -4 c58 -5 54 -23 -7 -27 -28 -2 -55
-9 -61 -17 -11 -13 -5 -15 36 -16 43 -2 40 -3 -21 -9 -38 -3 -81 -10 -94 -14
-20 -7 -23 -5 -18 8 4 9 2 16 -4 16 -6 0 -9 -14 -7 -32 2 -25 -1 -34 -14 -36
-11 -2 -18 3 -18 11 0 22 -18 26 -122 28 -89 1 -93 1 -91 -20 2 -15 -3 -21
-17 -21 -12 0 -20 7 -20 18 0 11 -8 17 -22 18 -13 1 -54 5 -93 9 -38 4 -80 8
-91 9 -15 1 -21 6 -19 19 3 13 -3 17 -23 17 -15 0 -33 4 -41 9 -22 14 22 24
69 16 34 -6 40 -11 40 -31 0 -19 5 -24 26 -24 20 0 25 4 22 23 -3 19 3 23 44
31 32 6 48 15 51 28 4 15 16 18 82 18 68 0 77 -2 82 -20 7 -25 39 -26 46 -1 6
23 34 30 101 26 31 -1 54 -8 61 -19z m1695 -51 c8 -9 22 -12 41 -8 26 5 29 3
29 -21 0 -21 5 -26 25 -26 21 0 25 5 25 31 0 16 4 28 9 24 5 -3 12 -1 16 5 8
13 91 13 116 0 11 -6 19 -21 19 -35 0 -24 2 -24 93 -28 62 -2 41 -4 -65 -5
-106 -1 -159 -6 -164 -14 -5 -8 12 -10 69 -5 74 6 77 6 93 -18 9 -14 25 -25
35 -25 12 0 19 -7 19 -20 0 -19 -4 -20 -63 -14 -51 5 -65 3 -76 -10 -10 -12
-11 -20 -3 -28 16 -16 3 -38 -22 -38 -19 0 -21 6 -24 56 -3 54 -18 84 -41 84
-6 0 -8 7 -5 15 5 13 -11 15 -107 15 l-114 0 0 33 c0 17 4 35 10 39 17 13 72
9 85 -7z m-2518 -203 c6 -6 6 -18 -2 -32 -18 -33 0 -40 102 -40 48 0 89 -4 93
-9 7 -12 -32 -18 -144 -25 -46 -2 -88 -9 -94 -15 -21 -21 -30 -11 -24 27 l6
37 -19 -22 c-17 -22 -58 -33 -45 -14 3 6 -4 15 -16 21 -19 10 -20 9 -15 -8 4
-11 2 -23 -3 -26 -6 -4 -61 -8 -123 -10 -62 -2 -122 -5 -133 -7 -28 -6 -31 25
-3 39 17 8 19 11 6 11 -9 1 -26 -10 -37 -25 -19 -25 -20 -25 -31 -5 -12 23
-33 29 -24 8 2 -7 -1 -20 -8 -30 -12 -17 -17 -17 -73 -3 -33 9 -90 15 -127 13
-64 -2 -89 5 -74 20 4 5 67 11 139 14 73 3 120 6 105 7 -24 2 -28 6 -28 32 0
42 30 51 154 48 l101 -3 3 -29 c2 -16 -2 -32 -10 -37 -9 -6 -7 -9 10 -9 12 0
22 5 22 11 0 5 10 9 22 7 18 -2 22 2 23 27 0 27 4 31 40 37 54 9 195 2 207
-10z m-413 -561 c18 -11 -23 -20 -99 -22 -55 -1 -235 -15 -297 -23 -65 -9 -46
27 23 43 50 12 355 13 373 2z"/>
</g>
</svg>
