<?xml version="1.0" standalone="no"?>
<!DOCTYPE svg PUBLIC "-//W3C//DTD SVG 20010904//EN"
 "http://www.w3.org/TR/2001/REC-SVG-20010904/DTD/svg10.dtd">
<svg version="1.0" xmlns="http://www.w3.org/2000/svg"
 width="551.000000pt" height="350.000000pt" viewBox="0 0 551.000000 350.000000"
 preserveAspectRatio="xMidYMid meet">
<metadata>
Created by potrace 1.16, written by Peter Selinger 2001-2019
</metadata>
<g transform="translate(0.000000,350.000000) scale(0.100000,-0.100000)"
fill="#000000" stroke="none">
<path d="M0 2029 c0 -836 4 -1468 9 -1465 5 3 14 -1 20 -8 10 -12 8 -13 -8 -9
-21 5 -21 3 -21 -271 l0 -276 2755 0 2755 0 0 1240 c0 1053 -2 1240 -14 1240
-20 0 -26 -22 -27 -108 -2 -64 -3 -70 -9 -37 -4 24 -8 -35 -9 -145 0 -102 -4
-208 -7 -236 -6 -47 -8 -50 -33 -46 l-26 4 -3 465 c-2 256 1 470 6 476 4 7 5
26 1 42 l-7 30 -2 -30 c-1 -16 -2 -33 -1 -37 0 -5 -5 -8 -13 -8 -7 0 -19 -7
-26 -15 -28 -34 -40 -18 -40 58 0 67 -23 166 -38 168 -4 0 -79 8 -167 17
l-160 17 0 199 c0 141 -3 200 -11 203 -9 3 -14 -53 -19 -197 l-8 -200 -32 0
c-19 0 -36 -6 -38 -12 -3 -7 -6 83 -6 200 l-1 212 -604 0 c-567 0 -605 -1
-609 -17 -4 -17 -5 -17 -6 0 -1 16 -64 17 -1167 17 -1099 0 -1240 -3 -1116
-26 20 -4 39 -10 42 -14 3 -4 21 -11 40 -14 31 -6 33 -5 18 7 -22 18 -24 41
-2 33 9 -3 29 -6 45 -6 19 0 29 -5 29 -15 0 -8 -5 -15 -12 -15 -8 0 -8 -4 2
-14 19 -19 130 -33 130 -17 0 6 -7 14 -15 17 -28 11 -15 24 23 24 32 0 41 -5
50 -25 10 -21 9 -25 -6 -26 -9 -1 25 -8 77 -15 52 -8 96 -15 97 -17 2 -2 1
-47 -3 -101 -4 -70 -10 -99 -20 -103 -16 -6 -892 65 -906 74 -6 4 -7 47 -3
109 5 79 4 104 -6 104 -9 0 -9 3 0 12 7 7 12 16 12 20 0 4 -205 8 -455 8
l-455 0 0 -1471z m2600 1366 c91 -9 150 -25 150 -41 0 -17 0 -17 -41 0 -24 10
-80 14 -189 15 -144 1 -153 0 -125 -14 20 -10 30 -23 31 -40 1 -14 -2 -22 -7
-19 -5 3 -9 0 -9 -6 0 -7 6 -10 13 -7 6 2 12 11 11 19 -1 18 55 16 66 -3 6 -8
22 -10 54 -6 46 7 53 3 38 -20 -5 -8 -13 -9 -22 -3 -8 6 -24 9 -35 9 -12 -1
-8 -4 13 -10 17 -5 32 -15 32 -21 0 -9 3 -9 12 0 7 7 21 12 33 12 17 0 18 -2
5 -11 -12 -8 -9 -10 12 -6 15 2 33 0 40 -4 8 -5 -7 -9 -38 -9 -28 0 -73 -2
-100 -5 -41 -4 -44 -3 -19 5 23 7 13 8 -44 6 -40 -2 -67 0 -60 5 8 5 -10 9
-46 11 -66 3 -93 -12 -101 -57 -2 -12 -25 -103 -50 -201 -94 -369 -194 -774
-194 -789 0 -11 -12 -15 -51 -15 -43 0 -50 2 -45 18 9 30 253 1024 266 1085
12 53 15 57 41 57 15 0 31 5 35 12 5 8 -10 9 -59 4 -37 -3 -74 -9 -82 -12 -8
-4 -15 -2 -15 4 0 13 48 22 195 37 117 12 151 12 285 0z m986 -39 c159 -19
326 -38 372 -42 76 -6 84 -9 93 -31 5 -13 9 -28 9 -31 0 -4 -116 4 -257 19
-142 15 -324 32 -406 40 -81 7 -151 15 -156 19 -5 3 -13 18 -16 33 -7 26 -6
27 33 27 22 0 170 -15 328 -34z m-21 -131 c149 -15 276 -28 283 -31 7 -2 10
-9 6 -16 -6 -10 -4 -11 7 0 14 13 79 16 153 6 41 -6 44 -8 29 -20 -10 -7 -22
-13 -28 -14 -5 0 -3 5 5 10 13 8 12 10 -2 10 -29 0 -33 -1 -30 -11 1 -5 -3 -9
-9 -9 -6 0 -9 7 -5 15 6 16 -3 19 -28 9 -13 -5 -13 -8 -2 -20 8 -7 17 -19 20
-26 5 -10 7 -10 12 0 8 17 44 15 44 -2 0 -8 6 -16 13 -19 6 -2 -24 -2 -68 0
-44 3 -87 7 -95 10 -8 3 -24 5 -35 4 -11 -1 -144 10 -295 24 -151 14 -283 25
-292 25 -15 0 -18 9 -18 45 l0 46 33 -5 c17 -3 154 -17 302 -31z m-2875 -160
l0 -35 -130 0 -130 0 0 35 0 35 130 0 130 0 0 -35z m3888 -221 c51 -7 52 -7
52 -40 0 -51 -4 -52 -161 -38 -59 5 -66 8 -62 25 3 10 11 19 18 19 8 0 17 9
20 20 7 22 37 25 133 14z m-575 -21 c52 -5 57 -8 57 -30 0 -23 -1 -23 -64 -17
-42 4 -66 3 -70 -4 -7 -12 11 -18 82 -26 50 -5 57 -9 48 -31 -5 -13 -21 -15
-88 -13 -73 3 -83 5 -86 22 -3 11 4 25 13 32 16 12 16 14 1 29 -9 9 -16 20
-16 24 0 16 26 32 45 26 11 -3 46 -9 78 -12z m-2615 -79 l112 -6 0 -93 0 -94
-542 6 c-299 3 -547 9 -552 13 -4 5 -5 50 -1 100 l7 92 432 -6 c237 -4 482 -9
544 -12z m528 -142 c5 -5 28 -14 52 -21 33 -9 42 -16 38 -29 -3 -9 -10 -37
-16 -61 -11 -42 -12 -43 -45 -38 -18 3 -44 13 -58 22 l-25 16 15 59 c15 60 21
67 39 52z m-677 -279 c23 -6 23 -8 17 -70 -5 -44 -3 -63 4 -58 5 3 10 17 10
29 0 13 3 38 7 56 l6 33 96 -7 c143 -10 141 -9 136 -66 -2 -26 -7 -63 -10 -82
l-6 -34 -92 8 c-69 6 -93 5 -99 -4 -6 -10 -11 -9 -19 5 -5 9 -18 17 -27 17
-15 0 -15 2 -2 11 13 9 13 10 0 5 -8 -3 -23 -9 -32 -12 -10 -4 -18 -10 -18
-15 0 -12 -47 -12 -54 0 -4 5 0 11 6 14 7 3 -6 8 -29 12 l-43 8 0 85 0 85 63
-7 c34 -4 73 -10 86 -13z m791 -151 c0 -5 -3 -11 -6 -15 -4 -3 -8 -32 -10 -64
-16 -261 -23 -416 -18 -424 3 -5 -18 -9 -46 -9 l-51 0 5 48 c3 26 8 108 11
182 3 74 8 167 11 205 l6 70 39 -3 c24 -3 39 0 39 7 0 6 5 11 10 11 6 0 10 -4
10 -8z m220 -72 c0 -5 23 -10 50 -10 38 0 50 -4 50 -15 0 -12 -16 -15 -81 -15
-51 0 -78 -4 -74 -10 3 -5 15 -10 26 -10 22 0 39 -32 21 -38 -15 -5 -16 -32
-2 -32 6 0 10 -7 10 -15 0 -10 -11 -15 -35 -15 -19 0 -35 -4 -35 -10 0 -5 10
-10 23 -10 12 0 28 -4 36 -9 11 -7 10 -11 -5 -20 -17 -9 -16 -10 9 -11 l27 0
0 85 0 85 35 0 c19 0 35 -4 35 -10 0 -5 7 -10 15 -10 8 0 15 -2 15 -4 0 -2 3
-11 6 -20 4 -12 0 -16 -17 -17 -17 -1 -19 -3 -6 -6 19 -5 23 -33 5 -34 -10 0
-10 -2 0 -6 18 -7 15 -23 -5 -23 -15 0 -16 -2 -3 -10 13 -8 12 -10 -3 -10 -16
0 -17 -2 -3 -15 8 -8 32 -15 55 -15 31 0 41 4 46 20 3 11 10 20 15 20 5 0 12
-9 15 -20 4 -12 15 -20 28 -20 12 0 29 -6 38 -13 13 -10 -7 -11 -100 -8 -64 1
-114 1 -111 -2 6 -5 151 -16 220 -17 31 0 40 -3 30 -9 -9 -5 -102 -5 -220 1
-113 5 -234 7 -268 4 -55 -5 -63 -3 -58 10 3 9 6 63 6 120 l0 104 28 0 c19 0
30 -7 39 -25 7 -17 8 -27 1 -31 -6 -4 -8 -21 -5 -39 3 -21 0 -40 -8 -52 -20
-26 -18 -33 10 -33 25 0 25 1 25 90 0 73 3 90 15 90 9 0 15 9 15 25 0 23 4 25
45 25 25 0 45 -4 45 -10z m599 -342 c1 14 73 16 184 5 66 -6 67 -6 67 -34 0
-29 0 -29 -64 -29 -106 0 -186 11 -186 26 0 8 -6 14 -14 14 -10 0 -12 7 -8 22
5 21 6 21 13 2 4 -10 8 -13 8 -6z m2486 -120 c12 -12 8 -291 -4 -284 -5 4 -12
0 -15 -6 -4 -8 -8 -9 -11 -3 -3 6 -23 9 -45 7 l-40 -4 0 152 0 153 56 -6 c31
-3 57 -7 59 -9z m-2711 -64 c10 -4 16 -19 17 -38 1 -32 3 -29 13 17 5 20 12
27 31 27 24 0 25 -3 25 -55 0 -43 3 -55 16 -55 8 0 13 4 9 9 -3 5 -1 12 4 15
5 3 11 -3 14 -14 3 -13 14 -20 31 -20 26 0 25 -1 39 90 4 20 5 18 6 -7 0 -18
6 -33 12 -33 6 0 9 6 6 14 -3 8 -1 17 6 20 9 3 8 8 -3 15 -13 9 -13 11 3 11 9
0 17 -4 17 -8 0 -5 18 -7 41 -6 69 3 80 -3 77 -46 -1 -20 -7 -37 -12 -38 -6 0
-30 -4 -53 -8 -29 -4 -48 -2 -58 6 -21 17 -49 4 -42 -20 5 -18 0 -20 -61 -22
-83 -3 -184 1 -190 6 -2 3 -1 10 3 16 5 8 23 10 54 6 25 -4 71 -9 101 -10 30
-2 39 -1 20 1 -19 2 -42 10 -50 18 -8 7 -37 13 -64 14 -27 0 -52 5 -55 10 -4
5 -37 10 -75 10 -38 0 -72 3 -77 8 -4 4 28 6 71 4 75 -3 80 -2 80 17 0 45 13
58 44 46z m-2038 -342 c7 -2 7 -22 0 -67 -7 -51 -13 -65 -26 -65 -10 0 -38 -3
-64 -6 l-46 -7 0 75 0 76 63 -3 c34 -1 67 -3 73 -3z m1334 -151 l85 -78 -33
-7 c-22 -5 -37 -17 -47 -37 -14 -26 -20 -29 -65 -29 l-50 0 0 115 c0 87 3 115
13 115 7 0 51 -35 97 -79z"/>
<path d="M1110 3433 c-8 -2 -25 -9 -36 -15 -15 -7 -28 -7 -44 2 -12 6 -23 10
-25 8 -5 -6 -11 -148 -5 -148 3 0 73 -9 155 -20 222 -29 201 -35 208 62 3 46
3 85 0 88 -4 4 -80 9 -183 11 -19 1 -39 4 -45 9 -5 4 -17 5 -25 3z"/>
<path d="M1395 3321 c-5 -4 -7 -70 -2 -72 1 0 62 -8 134 -18 l133 -17 6 34 c4
18 3 36 -1 40 -8 8 -264 40 -270 33z"/>
</g>
</svg>
