<?xml version="1.0" standalone="no"?>
<!DOCTYPE svg PUBLIC "-//W3C//DTD SVG 20010904//EN"
 "http://www.w3.org/TR/2001/REC-SVG-20010904/DTD/svg10.dtd">
<svg version="1.0" xmlns="http://www.w3.org/2000/svg"
 width="251.000000pt" height="380.000000pt" viewBox="0 0 251.000000 380.000000"
 preserveAspectRatio="xMidYMid meet">

<g transform="translate(0.000000,380.000000) scale(0.100000,-0.100000)"
fill="#000000" stroke="none">
<path d="M0 2386 l0 -1413 62 -28 c35 -15 58 -29 51 -32 -6 -2 -34 7 -62 22
l-51 25 0 -480 0 -480 1255 0 1255 0 0 375 c-1 278 -4 375 -12 375 -9 0 -9 3
0 12 9 9 12 84 12 275 0 221 -2 262 -14 257 -8 -3 -17 0 -21 5 -20 33 -131 50
-192 30 -33 -11 -34 -12 -28 -49 5 -31 3 -42 -16 -59 -23 -22 -59 -28 -59 -11
0 16 -39 31 -65 24 -18 -4 -28 -15 -32 -35 -6 -29 -23 -41 -23 -15 0 19 -40
107 -59 131 -16 19 -16 19 11 2 60 -38 112 -9 101 56 -6 37 -5 37 29 37 26 0
42 -8 67 -34 l34 -35 36 26 c100 74 116 100 97 159 -5 15 0 24 18 34 23 12 29
10 58 -12 18 -13 39 -28 46 -32 9 -6 12 96 12 493 l0 501 -25 0 c-14 0 -28 7
-32 15 -7 20 0 27 31 29 l26 1 0 623 0 622 -205 0 c-119 0 -205 -4 -205 -9 0
-5 6 -16 13 -23 29 -32 12 -78 -27 -71 -14 3 -27 10 -29 17 -2 6 -2 1 0 -11 2
-17 -1 -21 -12 -17 -8 4 -15 14 -15 23 0 9 -3 12 -8 6 -10 -14 -64 -17 -56 -3
4 7 2 8 -4 4 -12 -7 -52 14 -52 28 0 4 6 3 14 -3 12 -10 17 -8 26 8 7 14 7 21
0 21 -5 0 -10 -5 -10 -11 0 -5 -5 -7 -10 -4 -7 4 -2 14 11 26 l22 19 -26 0
c-14 0 -28 -6 -30 -12 -4 -10 -6 -10 -6 0 -1 8 -21 12 -68 12 -61 -1 -66 -2
-49 -15 11 -8 30 -12 45 -9 20 4 33 -1 54 -22 15 -14 27 -34 28 -43 0 -9 2
-29 4 -46 13 -93 -85 -187 -169 -164 -57 16 -92 53 -106 110 -10 40 -10 56 0
74 7 13 10 31 7 39 -4 9 -2 16 4 16 5 0 0 14 -13 30 -12 17 -25 30 -28 30 -4
0 -6 -19 -6 -42 1 -37 -3 -44 -33 -65 -40 -27 -50 -21 -58 34 -4 29 -1 44 12
56 15 16 12 17 -57 17 -51 0 -68 -3 -58 -10 8 -5 27 -10 43 -10 16 0 27 -5 27
-14 0 -9 -8 -12 -25 -8 -14 2 -25 1 -23 -4 4 -15 -33 -64 -48 -64 -22 0 -16
37 6 43 26 7 25 19 -5 47 -29 28 -42 22 -24 -12 11 -21 11 -22 -4 -9 -10 7
-17 20 -17 27 0 12 -108 14 -670 14 l-670 0 0 -1414z m2365 1321 c-6 -28 -2
-35 24 -55 24 -17 31 -30 31 -55 0 -18 -5 -38 -12 -45 -9 -9 -9 -12 1 -12 7 0
10 -4 6 -9 -3 -6 4 -15 15 -21 11 -6 20 -14 20 -18 0 -10 -38 -33 -71 -42 -25
-8 -27 -6 -27 24 0 23 -9 42 -32 65 -33 32 -35 50 -14 105 5 14 4 17 -4 12 -8
-5 -12 0 -12 13 0 10 -5 21 -12 23 -19 7 2 30 23 25 10 -3 18 -2 17 2 -2 16 4
21 27 21 24 0 25 -3 20 -33z m-1390 -24 c-6 -24 -8 -26 -16 -10 -6 10 -7 27
-4 38 10 32 29 6 20 -28z m203 11 c24 -7 1 -24 -33 -24 -38 0 -65 8 -65 20 0
17 51 19 98 4z m191 -18 c20 -24 -21 -40 -64 -26 -54 18 -43 38 21 39 17 1 37
-5 43 -13z m221 -73 c11 -37 11 -45 -4 -68 -30 -46 -86 -28 -86 30 0 23 8 35
35 53 19 12 35 28 36 35 0 6 2 8 4 2 1 -5 8 -29 15 -52z m425 17 c0 -16 -28
-25 -52 -16 -12 5 -13 9 -3 22 16 18 55 15 55 -6z m-870 -70 c19 -21 19 -21
-1 -14 -24 9 -54 34 -54 46 0 12 31 -6 55 -32z m947 3 c36 -43 28 -92 -19
-116 -69 -35 -122 43 -72 107 24 31 68 35 91 9z m-675 -48 c0 -8 -4 -12 -9 -9
-5 3 -6 10 -3 15 9 13 12 11 12 -6z m470 -29 c0 -19 -5 -33 -9 -30 -14 9 -8
64 8 64 1 0 2 -15 1 -34z m-631 5 c-8 -12 -46 -21 -46 -11 0 9 18 18 38 19 7
1 11 -3 8 -8z m158 -16 c-4 -8 -10 -15 -15 -15 -5 0 -9 7 -9 15 0 8 7 15 15
15 9 0 12 -6 9 -15z m41 -5 c3 -5 -1 -10 -9 -10 -9 0 -16 5 -16 10 0 6 4 10 9
10 6 0 13 -4 16 -10z m185 -27 c0 -20 -3 -24 -11 -16 -7 7 -9 19 -6 27 10 24
17 19 17 -11z m-80 -3 c0 -5 -4 -10 -10 -10 -5 0 -10 5 -10 10 0 6 5 10 10 10
6 0 10 -4 10 -10z m-1000 -95 c0 -7 -5 -15 -11 -17 -6 -2 -12 -19 -13 -38 -2
-46 -21 -49 -22 -3 0 20 -6 39 -12 41 -27 9 -11 30 23 30 22 0 35 -5 35 -13z
m-90 -10 c0 -18 -57 -48 -77 -41 -22 9 -11 39 17 47 41 12 60 10 60 -6z m620
-11 c6 -14 10 -32 10 -39 0 -19 -40 -55 -60 -55 -9 0 -22 -12 -29 -26 -9 -21
-14 -24 -26 -14 -13 10 -13 17 0 46 8 20 10 36 4 39 -30 19 15 75 61 75 24 0
33 -6 40 -26z m994 18 c2 -4 2 -13 -2 -18 -8 -13 -44 -15 -36 -2 3 4 -1 8 -8
8 -9 0 -9 3 2 10 18 12 37 13 44 2z m11 -67 c28 -27 32 -66 11 -88 -9 -9 -11
-19 -5 -28 24 -39 -17 -71 -71 -54 -19 6 -19 7 -1 26 18 20 18 21 -5 44 -31
31 -30 62 3 97 33 34 37 34 68 3z m-1710 -21 c11 -17 12 -23 4 -18 -8 5 -18 9
-24 9 -5 0 -11 8 -13 18 -5 26 13 21 33 -9z m199 -9 c-4 -8 -8 -15 -10 -15 -2
0 -4 7 -4 15 0 8 4 15 10 15 5 0 7 -7 4 -15z m70 -19 c7 -28 -2 -58 -15 -50
-12 7 -12 74 0 74 5 0 12 -11 15 -24z m-258 -28 c0 -10 -6 -18 -13 -18 -7 0
-13 2 -13 4 0 2 -3 11 -6 20 -4 10 0 14 13 13 11 0 19 -9 19 -19z m41 6 c-3
-3 -12 -4 -19 -1 -8 3 -5 6 6 6 11 1 17 -2 13 -5z m-187 -40 c0 -21 -27 -47
-35 -34 -3 5 -1 10 5 10 8 0 8 6 0 20 -9 17 -8 20 10 20 11 0 20 -7 20 -16z
m260 5 c0 -14 -25 -39 -39 -39 -14 0 -14 6 1 30 14 21 38 27 38 9z m189 -15
c17 -4 28 -10 26 -15 -3 -4 -1 -10 5 -14 5 -3 10 1 10 9 0 13 12 16 58 16 72
0 92 -11 71 -37 -12 -16 -12 -17 2 -6 8 7 26 9 39 6 22 -6 23 -7 4 -14 -10 -4
-53 -9 -94 -10 l-75 -2 75 -6 c41 -4 91 -2 111 3 38 10 89 2 89 -14 0 -6 -17
-10 -38 -10 -58 0 -113 -45 -148 -119 -16 -33 -31 -60 -34 -60 -3 -1 -16 20
-30 46 -14 27 -55 80 -92 119 -38 39 -68 74 -68 77 0 2 8 4 18 3 10 0 16 6 16
17 -2 18 7 20 55 11z m-424 -14 c3 -5 1 -10 -4 -10 -6 0 -11 5 -11 10 0 6 2
10 4 10 3 0 8 -4 11 -10z m1249 -166 c-6 -142 -20 -271 -23 -201 0 21 -6 48
-12 59 -8 15 -8 22 1 28 7 4 11 33 10 76 0 38 1 80 4 94 2 14 5 45 6 70 1 35
3 41 10 25 5 -11 6 -79 4 -151z m-328 127 c8 -10 38 -17 88 -22 140 -14 182
-63 172 -205 -3 -46 -8 -95 -12 -110 -7 -26 -8 -26 -20 -9 -18 24 -18 6 -1
-20 22 -33 26 -52 11 -52 -7 0 -10 5 -7 11 4 6 0 5 -9 -1 -8 -7 -18 -10 -21
-6 -4 3 -9 -2 -13 -11 -3 -9 -10 -13 -15 -10 -12 7 -30 -42 -23 -61 4 -8 1
-15 -5 -15 -7 0 -9 -9 -6 -23 4 -15 1 -28 -8 -36 -13 -10 -15 -5 -19 34 -2 29
1 46 9 50 7 2 13 20 13 38 0 29 -5 37 -30 47 -32 13 -38 37 -20 84 8 21 2 39
-31 106 -22 44 -44 80 -50 80 -5 0 -9 9 -9 19 0 11 -13 44 -30 74 -16 30 -30
58 -30 61 0 12 55 -7 66 -23z m-895 4 c19 -8 28 -14 21 -15 -7 0 -22 5 -34 11
-17 9 -19 8 -14 -9 4 -12 1 -22 -8 -25 -19 -7 -26 1 -26 30 0 27 14 29 61 8z
m206 -72 c-2 -16 -4 -5 -4 22 0 28 2 40 4 28 2 -13 2 -35 0 -50z m-117 17 c0
-11 -4 -20 -10 -20 -5 0 -10 9 -10 20 0 11 5 20 10 20 6 0 10 -9 10 -20z m310
-66 c0 -8 -7 -14 -15 -14 -15 0 -21 21 -9 33 10 9 24 -2 24 -19z m271 -26
c-34 -9 -47 -6 -37 10 3 5 20 6 38 4 l33 -5 -34 -9z m-207 -38 c21 -39 25 -54
17 -69 -7 -13 -7 -21 -1 -23 17 -5 -19 -48 -41 -48 -17 0 -19 7 -18 95 0 52 4
95 8 95 4 0 20 -22 35 -50z m321 23 c-2 -10 -4 -20 -4 -22 -1 -3 -7 1 -13 7
-10 10 -10 15 2 22 19 12 19 13 15 -7z m-780 -53 c-3 -5 -13 -10 -21 -10 -8 0
-14 5 -14 10 0 6 9 10 21 10 11 0 17 -4 14 -10z m683 -9 c3 -8 -1 -12 -9 -9
-7 2 -15 10 -17 17 -3 8 1 12 9 9 7 -2 15 -10 17 -17z m216 1 c2 -4 -11 -6
-30 -4 -19 2 -34 6 -34 8 0 8 59 4 64 -4z m-264 -42 c0 -5 -4 -10 -10 -10 -5
0 -10 5 -10 10 0 6 5 10 10 10 6 0 10 -4 10 -10z m144 1 c3 -5 -1 -11 -9 -15
-9 -3 -15 0 -15 9 0 16 16 20 24 6z m144 -32 c12 -19 12 -19 -18 -4 -33 17
-41 36 -12 28 10 -2 24 -13 30 -24z m-405 -16 c8 -16 22 -41 31 -58 9 -16 16
-35 16 -41 0 -16 -37 -60 -44 -53 -4 3 -13 32 -21 63 -26 99 -15 152 18 89z
m152 17 c3 -5 3 -15 -1 -21 -6 -11 -23 6 -24 24 0 10 18 9 25 -3z m-265 -9 c0
-14 -18 -23 -30 -16 -6 4 -8 11 -5 16 8 12 35 12 35 0z m192 -58 c18 -19 20
-25 9 -35 -11 -11 -14 -11 -18 0 -3 7 -10 18 -17 25 -18 17 -36 53 -36 69 1 7
9 2 20 -12 11 -14 30 -35 42 -47z m276 15 c7 -7 12 -24 12 -38 0 -14 -5 -31
-12 -38 -17 -17 -53 -15 -69 4 -11 13 -10 21 6 50 19 35 42 43 63 22z m-848
-83 c0 -46 -3 -86 -7 -88 -11 -7 -141 8 -150 17 -4 4 -9 38 -11 76 -5 78 -10
75 106 77 l62 1 0 -83z m408 32 c15 -43 15 -47 -3 -47 -11 0 -8 -9 10 -36 34
-50 33 -97 -2 -132 -22 -22 -28 -39 -32 -92 l-6 -65 -45 4 c-25 1 -46 4 -48 6
-9 8 20 45 30 39 8 -5 9 2 5 23 -3 17 -1 35 6 42 8 8 6 11 -10 11 -27 0 -46
24 -38 50 4 13 2 20 -7 20 -8 0 -22 6 -32 13 -16 12 -17 18 -7 50 15 45 53 77
95 78 l31 1 -29 7 c-42 9 -43 29 -4 46 54 23 72 19 86 -18z m262 -57 c-1 -16
-19 -30 -33 -24 -17 6 -22 16 -12 25 6 7 45 6 45 -1z m497 -12 c-3 -8 -6 -5
-6 6 -1 11 2 17 5 13 3 -3 4 -12 1 -19z m-419 -61 c64 -17 53 -41 -18 -39 -54
1 -158 30 -114 31 12 1 27 8 35 17 8 10 20 13 33 9 12 -4 40 -12 64 -18z
m-198 -19 c0 -27 -16 -55 -25 -46 -9 9 5 68 16 68 5 0 9 -10 9 -22z m380 -14
c0 -17 -22 -14 -28 4 -2 7 3 12 12 12 9 0 16 -7 16 -16z m170 -31 c0 -27 -4
-53 -8 -59 -9 -14 -52 -25 -52 -13 0 5 -5 9 -11 9 -5 0 -8 -4 -4 -10 5 -9 -67
-5 -122 6 -27 5 -20 34 8 34 11 0 22 7 26 16 4 11 17 15 52 12 41 -2 46 0 49
19 3 19 10 24 55 32 4 0 7 -20 7 -46z m42 34 c0 -4 -3 -37 -7 -74 -8 -75 -27
-68 -21 8 2 24 4 52 5 62 1 17 22 21 23 4z m145 -99 c-3 -8 -6 -5 -6 6 -1 11
2 17 5 13 3 -3 4 -12 1 -19z m60 -35 c-3 -10 -5 -2 -5 17 0 19 2 27 5 18 2
-10 2 -26 0 -35z m-237 -22 c0 -20 -6 -30 -20 -34 -13 -3 -20 0 -20 8 0 7 -3
20 -6 29 -3 9 -1 16 5 16 6 0 11 -8 12 -17 0 -14 2 -13 9 5 13 30 20 28 20 -7z
m-80 -17 c0 -8 -4 -12 -10 -9 -5 3 -10 10 -10 16 0 5 5 9 10 9 6 0 10 -7 10
-16z m-840 -57 c0 -30 3 -121 6 -203 l7 -149 -35 1 c-26 1 -35 -2 -34 -12 3
-17 36 -43 56 -44 11 0 15 -13 15 -54 0 -30 -3 -58 -7 -61 -4 -4 -4 -13 -1
-21 3 -9 -2 -14 -17 -14 -17 0 -21 4 -17 20 3 11 0 18 -7 17 -6 -1 -10 6 -8
16 2 9 -2 17 -8 17 -5 0 -10 14 -10 31 0 24 4 30 15 25 8 -3 15 -1 15 3 0 5
-6 11 -14 14 -8 3 -17 19 -21 36 -5 22 -12 31 -27 31 -11 0 -18 5 -15 13 2 6
14 11 27 9 19 -2 21 1 16 20 -3 13 -6 31 -6 40 0 10 -10 20 -25 24 l-25 6 23
18 c20 16 22 25 19 89 -3 59 -7 71 -18 67 -9 -3 -14 -1 -12 7 2 6 -1 13 -6 14
-14 2 -26 26 -26 50 0 30 25 42 88 43 l52 0 0 -53z m1126 2 c3 -5 -2 -16 -10
-24 -13 -14 -16 -13 -26 4 -5 11 -10 24 -10 29 0 12 38 4 46 -9z m-196 -74
l-7 -50 -1 65 c-1 39 2 59 7 50 4 -8 5 -37 1 -65z m-190 35 c0 -13 -7 -13 -31
1 -11 5 -17 14 -14 20 7 11 45 -7 45 -21z m23 -34 c4 -10 1 -13 -8 -9 -8 3
-12 9 -9 14 7 12 11 11 17 -5z m1005 -7 c-2 -6 -7 -10 -11 -10 -4 1 -14 1 -22
1 -8 0 -15 5 -15 10 0 6 12 10 26 10 14 0 24 -5 22 -11z m-998 -40 c0 -13 -12
-11 -32 5 -29 21 -22 39 7 20 14 -9 25 -20 25 -25z m-710 21 c0 -5 -5 -10 -11
-10 -5 0 -7 5 -4 10 3 6 8 10 11 10 2 0 4 -4 4 -10z m382 -2 c-9 -9 -15 -9
-24 0 -9 9 -7 12 12 12 19 0 21 -3 12 -12z m112 -24 c31 -1 56 2 56 6 0 4 9
10 19 13 14 3 18 1 14 -9 -3 -8 -10 -14 -16 -14 -6 0 10 -13 35 -29 25 -16 49
-34 52 -40 5 -8 14 -8 29 0 20 9 20 9 5 -4 -10 -8 -18 -19 -18 -26 0 -6 -23 4
-51 24 -27 19 -66 37 -84 41 -33 6 -103 2 -135 -7 -9 -2 -14 2 -12 10 1 7 -3
19 -9 27 -9 11 -8 14 5 14 9 0 16 -4 16 -10 0 -5 5 -10 11 -10 6 0 9 6 6 14
-7 18 4 30 14 14 5 -7 32 -13 63 -14z m-14 16 c0 -5 -7 -10 -15 -10 -8 0 -15
5 -15 10 0 6 7 10 15 10 8 0 15 -4 15 -10z m205 -30 c3 -5 -1 -10 -9 -10 -8 0
-18 5 -21 10 -3 6 1 10 9 10 8 0 18 -4 21 -10z m-325 -21 c0 -10 -12 -11 -34
-3 -9 3 -14 10 -11 14 6 10 45 1 45 -11z m-360 5 c0 -3 -5 -14 -10 -25 -16
-28 -30 -23 -17 6 11 22 27 34 27 19z m670 -16 c0 -13 -23 -5 -28 10 -2 7 2
10 12 6 9 -3 16 -11 16 -16z m107 -34 c-10 -10 -37 16 -37 34 0 13 4 12 22 -5
12 -13 19 -25 15 -29z m-942 -4 c3 -5 1 -10 -4 -10 -6 0 -11 5 -11 10 0 6 2
10 4 10 3 0 8 -4 11 -10z m890 -20 c3 -5 -1 -10 -9 -10 -9 0 -16 5 -16 10 0 6
4 10 9 10 6 0 13 -4 16 -10z m-515 -60 c0 -5 -4 -10 -9 -10 -6 0 -13 5 -16 10
-3 6 1 10 9 10 9 0 16 -4 16 -10z m1669 -4 c9 -11 8 -15 -5 -20 -26 -10 -32
-7 -27 14 6 23 16 25 32 6z m-1029 -23 c0 -19 -3 -24 -10 -17 -6 6 -8 18 -4
27 9 24 14 21 14 -10z m439 -98 c14 -50 14 -65 1 -65 -5 0 -10 7 -10 16 0 10
-5 14 -15 10 -20 -7 -65 14 -65 31 0 8 11 24 25 37 14 13 25 29 25 37 0 23 27
-23 39 -66z m58 29 c3 -7 -2 -20 -10 -28 -18 -18 -37 -3 -37 30 0 18 4 21 21
17 11 -3 23 -12 26 -19z m-982 -48 c34 -34 46 -54 23 -40 -8 5 -9 2 -5 -10 4
-10 -12 -1 -37 21 -24 21 -41 43 -39 50 8 20 20 16 58 -21z m795 -25 c-1 -25
-1 -25 -15 -7 -8 11 -15 29 -15 39 0 16 3 17 15 7 8 -7 15 -24 15 -39z m-97
-21 c3 -11 2 -20 -3 -20 -4 0 -10 11 -12 25 -6 29 7 25 15 -5z m827 16 c0 -3
-4 -8 -10 -11 -5 -3 -10 -1 -10 4 0 6 5 11 10 11 6 0 10 -2 10 -4z m-410 -27
c0 -5 -9 -9 -20 -9 -11 0 -20 4 -20 8 0 4 9 8 20 9 11 1 20 -2 20 -8z m180 -3
c0 -8 -8 -13 -17 -11 -10 2 -20 4 -23 4 -7 2 23 21 33 21 4 0 7 -6 7 -14z
m-1936 -151 c9 -77 18 -161 21 -186 6 -56 0 -60 -75 -48 -107 17 -105 14 -68
54 29 32 58 49 43 25 -3 -5 -1 -10 4 -10 16 0 13 18 -7 38 -17 16 -16 20 6 75
13 32 28 84 34 115 13 72 17 86 23 81 2 -3 11 -68 19 -144z m704 120 c-3 -3
-9 2 -12 12 -6 14 -5 15 5 6 7 -7 10 -15 7 -18z m483 6 c-10 -11 -19 -13 -23
-7 -13 18 -9 24 16 24 22 0 22 -2 7 -17z m-508 -5 c4 -10 1 -13 -8 -9 -8 3
-12 9 -9 14 7 12 11 11 17 -5z m1310 -42 c7 -7 -36 -44 -51 -44 -5 0 -13 7
-16 15 -8 21 50 46 67 29z m-1691 -111 c-6 -20 -21 -15 -17 5 2 9 4 26 5 37 2
17 3 16 9 -5 4 -14 6 -31 3 -37z m1838 42 c0 -2 -3 -11 -6 -19 -5 -13 -9 -14
-20 -5 -19 16 -17 24 6 26 11 1 20 0 20 -2z m-530 -23 c0 -4 -9 -8 -20 -9 -11
-1 -18 2 -15 8 7 11 35 12 35 1z m250 -12 c0 -5 -10 -10 -22 -10 -19 0 -20 2
-8 10 19 13 30 13 30 0z m-466 -8 c3 -5 -1 -9 -9 -9 -8 0 -12 4 -9 9 3 4 7 8
9 8 2 0 6 -4 9 -8z m-738 -68 c-3 -8 1 -14 9 -14 22 0 18 -14 -7 -25 -14 -6
-24 -21 -26 -37 -2 -16 -8 -28 -13 -28 -10 0 -7 33 7 83 3 10 0 17 -8 17 -8 1
-6 6 6 15 22 16 40 10 32 -11z m87 -4 c3 -11 1 -18 -4 -14 -5 3 -9 12 -9 20 0
20 7 17 13 -6z m765 9 c-2 -6 -8 -10 -13 -10 -5 0 -11 4 -13 10 -2 6 4 11 13
11 9 0 15 -5 13 -11z m-1258 -134 c-4 -66 -7 -106 -8 -88 -1 17 -8 33 -14 36
-10 4 -10 7 0 18 15 16 16 65 2 74 -6 4 -8 11 -5 16 4 5 1 9 -5 9 -6 0 -2 10
10 22 11 12 20 26 20 32 0 5 1 7 3 5 2 -2 1 -58 -3 -124z m147 88 c-3 -3 -14
0 -24 6 -17 10 -17 10 0 11 9 0 18 6 18 13 1 6 3 4 6 -6 3 -10 2 -21 0 -24z
m683 3 c0 -3 -4 -8 -10 -11 -5 -3 -10 -1 -10 4 0 6 5 11 10 11 6 0 10 -2 10
-4z m-545 -16 c3 -5 1 -10 -4 -10 -6 0 -11 5 -11 10 0 6 2 10 4 10 3 0 8 -4
11 -10z m691 -66 c-24 -27 -48 -45 -52 -42 -4 4 15 28 42 52 27 25 50 43 52
41 2 -1 -17 -25 -42 -51z m253 36 c34 0 32 -16 -4 -27 -32 -10 -34 -9 -44 18
-9 27 -8 28 9 19 10 -5 28 -10 39 -10z m-752 -31 c12 -25 7 -79 -8 -79 -5 0
-9 19 -9 43 0 24 -6 49 -12 56 -11 11 -10 13 2 9 8 -2 20 -15 27 -29z m-533
-71 c-3 -5 -11 -5 -18 1 -9 7 -16 7 -24 -1 -9 -9 -12 -7 -12 9 0 12 6 23 13
26 15 6 49 -22 41 -35z m1161 1 c5 -5 -5 -4 -23 2 -17 6 -32 13 -32 16 0 7 43
-8 55 -18z m-1167 -31 c-6 -18 -28 -21 -28 -4 0 9 7 16 16 16 9 0 14 -5 12
-12z m39 -10 c-3 -8 -6 -5 -6 6 -1 11 2 17 5 13 3 -3 4 -12 1 -19z m183 -18
c0 -5 -4 -10 -10 -10 -5 0 -10 5 -10 10 0 6 5 10 10 10 6 0 10 -4 10 -10z
m1270 -25 c7 -9 8 -15 2 -15 -5 0 -12 7 -16 15 -3 8 -4 15 -2 15 2 0 9 -7 16
-15z m-257 -55 c-8 -8 -33 32 -27 42 4 6 12 -1 18 -14 7 -12 11 -25 9 -28z
m302 3 c4 -14 2 -23 -4 -23 -6 0 -11 3 -11 8 0 4 -3 18 -6 32 -8 31 11 16 21
-17z m-690 -3 c7 -11 -9 -11 -45 0 -24 8 -24 8 7 9 17 1 35 -3 38 -9z m312
-29 c-2 -3 26 -35 61 -71 51 -52 58 -57 36 -25 -22 32 -14 27 44 -30 75 -72
83 -85 56 -85 -21 0 -224 206 -224 227 0 13 3 13 15 3 8 -7 13 -15 12 -19z
m310 12 c3 -7 -7 -17 -22 -23 -22 -8 -24 -13 -15 -30 6 -11 8 -20 6 -20 -7 0
-36 56 -36 69 0 6 7 8 15 5 8 -4 15 -1 15 6 0 15 32 9 37 -7z m-1429 -15 c19
-19 14 -28 -13 -28 -27 0 -28 1 -19 24 7 19 16 20 32 4z m1182 -28 c6 -11 8
-20 6 -20 -3 0 -10 9 -16 20 -6 11 -8 20 -6 20 3 0 10 -9 16 -20z m-1032 -40
c-7 -10 -14 -18 -15 -16 -6 6 9 36 18 36 5 0 4 -9 -3 -20z m1142 -24 c0 -9
-30 -14 -35 -6 -4 6 3 10 14 10 12 0 21 -2 21 -4z m-1350 -26 c11 -7 12 -12 3
-21 -15 -15 -43 -5 -43 16 0 17 18 19 40 5z m170 -44 c0 -3 -4 -8 -10 -11 -5
-3 -10 -1 -10 4 0 6 5 11 10 11 6 0 10 -2 10 -4z m-210 -41 c0 -8 -7 -15 -15
-15 -16 0 -20 12 -8 23 11 12 23 8 23 -8z m1507 -36 c46 -29 103 -119 75 -119
-5 0 -16 17 -25 38 -9 21 -31 46 -49 57 -33 19 -33 19 10 -29 39 -46 53 -72
33 -64 -20 7 -112 118 -106 128 9 15 24 12 62 -11z m-505 -44 c6 -28 -6 -34
-16 -9 -8 22 -7 34 3 34 5 0 11 -11 13 -25z m-575 -5 c10 -15 10 -18 0 -14
-16 6 -52 -67 -45 -93 2 -10 -4 -25 -13 -35 -16 -15 -18 -15 -22 4 -3 11 0 27
7 34 17 16 31 85 19 93 -4 3 -9 12 -10 19 -5 20 51 14 64 -8z m243 -10 c0 -5
-4 -10 -10 -10 -5 0 -10 5 -10 10 0 6 5 10 10 10 6 0 10 -4 10 -10z m1241 -39
c46 -22 77 -40 69 -40 -14 0 -172 78 -159 79 4 0 44 -18 90 -39z m-911 0 c0
-4 -11 -6 -25 -3 -14 2 -25 6 -25 8 0 2 11 4 25 4 14 0 25 -4 25 -9z m-7 -53
c-6 -30 -23 -39 -23 -13 0 13 21 46 27 41 1 0 -1 -13 -4 -28z m-914 6 c4 -5 0
-17 -10 -26 -15 -14 -19 -15 -19 -4 0 8 -3 21 -6 29 -6 17 20 18 35 1z m696
-64 c3 -5 -1 -10 -10 -10 -9 0 -13 5 -10 10 3 6 8 10 10 10 2 0 7 -4 10 -10z
m1209 -6 c9 -22 -3 -32 -14 -14 -12 19 -12 30 -1 30 5 0 12 -7 15 -16z m-1942
-9 c0 -5 -5 -11 -11 -13 -6 -2 -11 4 -11 13 0 9 5 15 11 13 6 -2 11 -8 11 -13z
m308 -25 c0 -5 -7 -10 -15 -10 -8 0 -15 5 -15 10 0 6 7 10 15 10 8 0 15 -4 15
-10z m1680 -57 c-1 -11 -40 37 -40 49 0 6 9 -1 20 -15 11 -14 20 -29 20 -34z
m-1966 -189 c21 -8 22 -64 2 -64 -8 0 -18 5 -22 11 -5 8 -10 6 -16 -5 -10 -17
-53 -22 -63 -6 -10 16 37 61 57 54 10 -3 18 -1 18 5 0 13 3 13 24 5z m216
-154 c0 -5 -4 -10 -10 -10 -5 0 -10 5 -10 10 0 6 5 10 10 10 6 0 10 -4 10 -10z
m80 -20 c0 -5 -4 -10 -10 -10 -5 0 -10 5 -10 10 0 6 5 10 10 10 6 0 10 -4 10
-10z"/>
<path d="M2320 3565 c0 -8 7 -15 16 -15 14 0 14 3 4 15 -7 8 -14 15 -16 15 -2
0 -4 -7 -4 -15z"/>
<path d="M2037 3504 c-8 -8 1 -24 14 -24 5 0 9 7 9 15 0 15 -12 20 -23 9z"/>
<path d="M2020 3201 c0 -5 7 -15 17 -22 15 -13 15 -12 4 9 -12 23 -21 28 -21
13z"/>
<path d="M650 3109 c0 -5 5 -7 10 -4 6 3 10 8 10 11 0 2 -4 4 -10 4 -5 0 -10
-5 -10 -11z"/>
<path d="M805 3110 c-3 -5 -1 -10 4 -10 6 0 11 5 11 10 0 6 -2 10 -4 10 -3 0
-8 -4 -11 -10z"/>
<path d="M683 3083 c9 -2 25 -2 35 0 9 3 1 5 -18 5 -19 0 -27 -2 -17 -5z"/>
<path d="M1310 2938 c0 -10 91 -168 96 -168 3 0 -11 30 -32 68 -40 73 -64 110
-64 100z"/>
<path d="M238 2613 c7 -3 16 -2 19 1 4 3 -2 6 -13 5 -11 0 -14 -3 -6 -6z"/>
<path d="M1681 3784 c8 -10 16 -11 30 -3 26 14 24 18 -11 17 -24 -1 -28 -4
-19 -14z"/>
<path d="M1755 3650 c-4 -7 -3 -16 3 -22 14 -14 45 -2 40 15 -6 16 -34 21 -43
7z"/>
</g>
</svg>
