<?xml version="1.0" standalone="no"?>
<!DOCTYPE svg PUBLIC "-//W3C//DTD SVG 20010904//EN"
 "http://www.w3.org/TR/2001/REC-SVG-20010904/DTD/svg10.dtd">
<svg version="1.0" xmlns="http://www.w3.org/2000/svg"
 width="491.000000pt" height="340.000000pt" viewBox="0 0 491.000000 340.000000"
 preserveAspectRatio="xMidYMid meet">

<g transform="translate(0.000000,340.000000) scale(0.100000,-0.100000)"
fill="#000000" stroke="none">
<path d="M2310 3159 c-37 -15 -69 -48 -89 -94 -23 -53 -73 -100 -122 -114 -22
-7 -40 -20 -44 -31 -6 -20 -101 -110 -116 -110 -4 0 -11 -16 -15 -35 -6 -33
-9 -35 -45 -35 -28 0 -39 4 -39 15 0 8 -4 15 -10 15 -6 0 -10 -28 -11 -62 0
-35 -2 -81 -3 -103 -2 -22 -7 -224 -12 -450 -4 -225 -8 -414 -9 -420 -1 -5 -3
-58 -3 -117 l-2 -108 -90 0 -91 0 6 213 c3 116 8 264 10 327 2 63 7 252 10
420 l6 305 -28 -52 c-40 -75 -103 -138 -168 -167 -31 -15 -55 -32 -55 -41 0
-10 -10 -15 -30 -15 l-30 0 0 -67 c0 -38 -2 -117 -4 -178 -12 -294 -19 -472
-21 -495 -1 -14 -3 -76 -3 -137 l-2 -113 -60 0 c-33 0 -60 -1 -61 -2 0 -2 -3
-72 -6 -155 -4 -110 -2 -153 6 -153 21 0 11 -20 -14 -30 -16 -6 -23 -14 -19
-25 3 -8 10 -15 15 -15 13 0 11 18 -3 23 -8 3 -6 6 4 6 9 1 22 -7 27 -17 10
-16 10 -16 11 1 0 10 7 17 18 16 10 0 12 -3 4 -6 -13 -5 -7 -23 9 -23 18 0 9
38 -11 43 -11 3 -20 10 -20 16 0 12 33 15 44 4 4 -5 13 -8 19 -8 9 0 13 -41
15 -137 l3 -138 33 0 c19 0 36 -6 39 -12 2 -7 2 -118 -1 -245 l-5 -233 94 4
c52 2 104 4 117 5 l22 1 0 193 c0 224 5 267 30 267 10 0 21 -10 24 -22 l7 -23
9 23 c5 12 17 22 26 22 15 0 16 -23 10 -247 -6 -295 -6 -292 -23 -286 -15 6
-17 16 -6 27 11 10 10 40 -1 48 -5 3 -16 0 -23 -8 -8 -8 -19 -11 -25 -8 -7 4
-8 2 -4 -4 4 -7 15 -12 24 -12 16 -1 15 -1 -1 -11 -9 -5 -22 -7 -27 -4 -13 8
-13 -1 0 -25 7 -12 6 -18 -3 -17 -39 1 -58 -4 -55 -15 3 -7 -7 -19 -21 -27
-25 -13 -38 -16 -121 -21 l-35 -3 40 -6 c50 -8 283 -6 350 3 32 4 43 3 30 -2
-37 -16 529 -20 960 -7 138 5 266 8 285 7 292 -10 410 -11 410 -3 0 5 -16 8
-36 6 -27 -2 -34 0 -30 11 4 10 -4 14 -32 15 -28 0 -32 2 -17 8 19 8 19 8 -3
20 -15 8 -22 8 -22 1 0 -6 -4 -9 -9 -6 -5 3 -7 15 -4 27 7 27 -12 39 -47 29
-23 -7 -29 -4 -38 14 -8 19 -7 22 12 24 14 1 17 -1 7 -7 -9 -6 -5 -10 13 -13
26 -5 36 6 14 15 -7 3 29 6 81 6 l94 1 -4 242 -4 243 39 3 38 3 -7 140 c-7
137 -7 139 14 139 11 0 21 5 21 11 0 7 12 9 30 7 17 -3 33 -1 36 4 10 15 4
292 -6 302 -5 5 -24 11 -42 13 -17 2 -36 9 -40 16 -5 8 -8 7 -8 -5 0 -20 -16
-25 -18 -5 -5 39 -21 382 -27 562 -4 116 -9 228 -11 250 -1 22 -3 73 -3 114
-1 63 -3 72 -16 61 -20 -16 -50 -8 -50 14 0 12 -15 24 -49 37 -64 24 -119 78
-162 159 l-34 65 5 -180 c2 -99 7 -272 10 -385 3 -113 8 -270 11 -350 3 -80 5
-186 5 -236 -2 -114 2 -127 35 -112 17 8 28 8 35 1 6 -6 50 -9 107 -7 84 2 91
1 52 -7 -25 -6 -101 -8 -170 -5 -69 3 -150 6 -181 6 l-56 0 -8 384 c-4 212 -8
411 -10 443 -2 32 -5 142 -6 245 -3 142 -7 188 -16 188 -7 0 -13 -4 -13 -10 0
-5 -19 -10 -43 -10 -42 0 -43 1 -40 28 4 24 -2 30 -44 52 -26 14 -61 44 -78
66 -33 46 -77 63 -104 42 -14 -11 -14 -11 -3 4 11 14 8 19 -19 39 -17 12 -40
41 -50 63 -18 42 -58 85 -96 105 -26 13 -99 13 -133 0z m102 -100 c13 -5 34
-30 47 -55 25 -47 54 -84 65 -84 4 0 22 -16 42 -35 19 -19 44 -35 55 -35 18 0
20 -6 19 -57 -1 -32 -1 -145 -1 -250 l1 -193 30 0 c20 0 30 -5 30 -15 0 -18
-46 -21 -53 -2 -3 6 -4 -39 -3 -102 2 -103 4 -115 22 -122 16 -6 16 -8 2 -8
-29 -2 -30 -101 0 -101 8 0 12 -3 8 -7 -4 -5 -12 -8 -18 -8 -11 0 -13 -318 -2
-336 5 -8 -24 -14 -53 -10 -8 1 -13 -10 -14 -26 -1 -28 -1 -28 -8 -3 l-7 24
-189 -2 c-105 -1 -209 1 -232 4 l-43 5 0 50 c0 45 -2 49 -23 49 -14 0 -24 6
-24 14 0 11 4 12 18 3 10 -6 21 -8 25 -4 4 4 9 86 10 182 l3 175 -32 2 -32 1
33 4 32 4 0 67 c0 37 0 198 0 358 l-1 292 28 10 c41 15 128 100 152 149 21 41
54 73 78 73 7 0 23 -5 35 -11z m-127 -37 c-3 -3 -11 0 -18 7 -9 10 -8 11 6 5
10 -3 15 -9 12 -12z m405 -135 c0 -2 -10 -12 -22 -23 l-23 -19 19 23 c18 21
26 27 26 19z m-614 -33 c-5 16 -4 17 9 6 16 -13 20 -32 6 -27 -4 1 -18 -9 -29
-23 -19 -23 -22 -24 -38 -8 -15 15 -15 17 6 28 14 7 19 17 15 28 -5 13 -1 12
16 -4 22 -18 22 -18 15 0z m658 -13 c3 -5 -1 -14 -8 -20 -16 -13 -32 2 -21 19
8 12 22 13 29 1z m-725 -75 c-2 -2 -13 8 -23 22 l-19 27 24 -22 c12 -12 21
-24 18 -27z m685 -45 c3 -4 -6 -6 -19 -3 -14 2 -25 6 -25 8 0 8 39 4 44 -5z
m-670 -16 c3 -8 1 -15 -4 -15 -6 0 -10 7 -10 15 0 8 2 15 4 15 2 0 6 -7 10
-15z m83 -28 c0 -7 -8 -14 -18 -14 -15 -1 -16 1 -6 12 15 18 24 19 24 2z
m-533 -78 c-3 -5 -10 -7 -15 -3 -5 3 -7 10 -3 15 3 5 10 7 15 3 5 -3 7 -10 3
-15z m23 -6 c-4 -3 1 -11 10 -18 15 -11 15 -12 0 -18 -10 -4 -16 -2 -14 6 1 7
-4 11 -12 9 -12 -3 -12 0 -1 12 7 9 15 16 18 16 3 0 2 -3 -1 -7z m1583 -8 c-7
-8 -17 -15 -23 -15 -6 0 -2 7 9 15 25 19 30 19 14 0z m-1663 -47 c-3 -8 -6 -5
-6 6 -1 11 2 17 5 13 3 -3 4 -12 1 -19z m1722 -21 c0 -9 -2 -8 -6 1 -2 6 -10
9 -15 6 -7 -4 -8 -2 -4 5 9 13 26 5 25 -12z m-1677 -5 c-6 -2 -14 -3 -18 -2
-4 1 -11 -4 -16 -12 -8 -10 -9 -10 -5 2 2 8 10 14 16 13 6 -2 11 2 11 8 0 5 5
7 12 3 9 -6 9 -9 0 -12z m-87 -32 c3 -5 1 -10 -4 -10 -6 0 -11 5 -11 10 0 6 2
10 4 10 3 0 8 -4 11 -10z m1212 4 c-3 -3 -12 -4 -19 -1 -8 3 -5 6 6 6 11 1 17
-2 13 -5z m-1130 -166 c-3 -8 -6 -5 -6 6 -1 11 2 17 5 13 3 -3 4 -12 1 -19z
m1190 -40 c-3 -7 -5 -2 -5 12 0 14 2 19 5 13 2 -7 2 -19 0 -25z m510 10 c-3
-8 -6 -5 -6 6 -1 11 2 17 5 13 3 -3 4 -12 1 -19z m-1170 -4 c-3 -3 -12 -4 -19
-1 -8 3 -5 6 6 6 11 1 17 -2 13 -5z m600 -20 c-3 -3 -12 -4 -19 -1 -8 3 -5 6
6 6 11 1 17 -2 13 -5z m-650 -46 c-3 -7 -5 -2 -5 12 0 14 2 19 5 13 2 -7 2
-19 0 -25z m680 0 c-3 -7 -5 -2 -5 12 0 14 2 19 5 13 2 -7 2 -19 0 -25z m533
-39 c0 -11 -4 -18 -10 -14 -5 3 -7 12 -3 20 7 21 13 19 13 -6z m-1147 -6 c-7
-2 -21 -2 -30 0 -10 3 -4 5 12 5 17 0 24 -2 18 -5z m-93 -113 c0 -13 -6 -20
-17 -19 -11 0 -13 3 -5 6 6 2 12 11 12 19 0 8 2 14 5 14 3 0 5 -9 5 -20z m707
-2 c-3 -8 -6 -5 -6 6 -1 11 2 17 5 13 3 -3 4 -12 1 -19z m-614 -15 c-7 -2 -21
-2 -30 0 -10 3 -4 5 12 5 17 0 24 -2 18 -5z m-500 -10 c-7 -2 -19 -2 -25 0 -7
3 -2 5 12 5 14 0 19 -2 13 -5z m-156 -35 c-3 -8 -6 -5 -6 6 -1 11 2 17 5 13 3
-3 4 -12 1 -19z m603 -47 c0 -22 -16 -36 -24 -22 -4 5 -2 12 4 16 6 4 8 11 5
16 -4 5 -1 9 4 9 6 0 11 -9 11 -19z m-507 -6 c4 -8 2 -17 -3 -20 -6 -4 -10 3
-10 14 0 25 6 27 13 6z m1154 -20 c0 -8 -6 -15 -13 -15 -8 0 -11 6 -8 15 4 8
9 15 13 15 4 0 8 -7 8 -15z m-810 -87 c-3 -8 -6 -5 -6 6 -1 11 2 17 5 13 3 -3
4 -12 1 -19z m80 0 c-3 -8 -6 -5 -6 6 -1 11 2 17 5 13 3 -3 4 -12 1 -19z
m-410 -10 c-3 -8 -6 -5 -6 6 -1 11 2 17 5 13 3 -3 4 -12 1 -19z m430 -10 c-3
-7 -5 -2 -5 12 0 14 2 19 5 13 2 -7 2 -19 0 -25z m40 0 c-3 -7 -5 -2 -5 12 0
14 2 19 5 13 2 -7 2 -19 0 -25z m-57 -38 c0 -11 -7 -20 -15 -20 -8 0 -15 5
-15 11 0 5 5 7 10 4 6 -3 10 1 10 9 0 9 2 16 5 16 3 0 5 -9 5 -20z m-489 -3
c-6 -8 -8 -17 -4 -20 3 -4 1 -7 -5 -7 -14 0 -14 2 -6 24 3 9 11 16 16 16 7 0
6 -5 -1 -13z m73 -12 c-4 -8 -8 -15 -10 -15 -2 0 -4 7 -4 15 0 8 4 15 10 15 5
0 7 -7 4 -15z m293 -11 c-3 -3 -12 -4 -19 -1 -8 3 -5 6 6 6 11 1 17 -2 13 -5z
m20 -41 c-3 -10 -5 -4 -5 12 0 17 2 24 5 18 2 -7 2 -21 0 -30z m-407 23 c0 -3
-4 -8 -10 -11 -5 -3 -10 -1 -10 4 0 6 5 11 10 11 6 0 10 -2 10 -4z m85 -15
c-1 -9 -9 -17 -19 -17 -13 -2 -14 -1 -1 3 12 3 13 8 6 17 -8 9 -7 13 3 13 8 0
13 -7 11 -16z m342 -3 c-3 -8 -6 -5 -6 6 -1 11 2 17 5 13 3 -3 4 -12 1 -19z
m1310 -24 c-3 -3 -12 -4 -19 -1 -8 3 -5 6 6 6 11 1 17 -2 13 -5z m-1250 -41
c-3 -10 -5 -4 -5 12 0 17 2 24 5 18 2 -7 2 -21 0 -30z m79 0 c-11 -11 -19 6
-11 24 8 17 8 17 12 0 3 -10 2 -21 -1 -24z m661 31 c-3 -3 -12 -4 -19 -1 -8 3
-5 6 6 6 11 1 17 -2 13 -5z m-1156 -31 c-8 -15 -10 -15 -11 -2 0 17 10 32 18
25 2 -3 -1 -13 -7 -23z m-64 -5 c-3 -8 -6 -5 -6 6 -1 11 2 17 5 13 3 -3 4 -12
1 -19z m1890 -30 c-3 -8 -6 -5 -6 6 -1 11 2 17 5 13 3 -3 4 -12 1 -19z m-1837
8 c0 -3 -4 -8 -10 -11 -5 -3 -10 -1 -10 4 0 6 5 11 10 11 6 0 10 -2 10 -4z
m507 -28 c-3 -7 -5 -2 -5 12 0 14 2 19 5 13 2 -7 2 -19 0 -25z m-620 0 c-3 -8
-6 -5 -6 6 -1 11 2 17 5 13 3 -3 4 -12 1 -19z m686 15 c-7 -2 -19 -2 -25 0 -7
3 -2 5 12 5 14 0 19 -2 13 -5z m797 -96 c30 -2 -204 -3 -520 -3 -559 1 -564 1
-165 6 384 5 553 4 685 -3z m-1472 -4 c-15 -2 -42 -2 -60 0 -18 2 -6 4 27 4
33 0 48 -2 33 -4z m150 0 c-21 -2 -57 -2 -80 0 -24 2 -7 4 37 4 44 0 63 -2 43
-4z m952 -623 c0 -11 4 -20 10 -20 5 0 10 -29 12 -65 4 -76 20 -87 29 -18 3
27 7 -44 7 -156 2 -177 0 -202 -13 -197 -11 4 -15 -2 -15 -22 0 -16 -5 -33
-12 -40 -9 -9 -9 -12 -1 -12 7 0 11 -9 10 -20 -2 -25 -25 -29 -167 -29 -118 1
-150 10 -129 35 9 11 8 14 -1 14 -7 0 -10 7 -6 15 3 8 1 15 -4 15 -5 0 -8 -14
-8 -30 1 -17 -2 -33 -5 -37 -4 -3 -7 17 -7 45 0 35 4 52 13 53 6 0 2 4 -10 9
-21 8 -23 16 -22 72 1 56 2 59 11 33 10 -33 50 -59 66 -43 6 6 15 3 26 -7 12
-12 16 -13 16 -3 0 9 18 13 65 14 59 1 65 -1 66 -20 0 -21 1 -21 8 -1 8 20 11
22 56 24 34 1 32 21 -2 22 -29 1 -25 3 19 13 l27 6 -6 88 c-7 108 -13 119 -13
24 l0 -72 -45 0 c-29 0 -45 4 -46 13 0 6 -2 51 -4 98 -3 74 -7 93 -30 128 -15
23 -31 41 -36 41 -4 0 -17 -16 -29 -35 -12 -19 -26 -35 -31 -35 -5 0 -9 -47
-9 -105 0 -98 -1 -105 -20 -105 -19 0 -25 15 -21 49 2 8 -3 10 -11 6 -10 -6
-11 -5 0 6 7 8 12 42 12 91 0 55 -4 78 -12 79 -10 0 -10 2 0 6 7 3 12 23 12
49 l0 44 125 0 c118 0 125 -1 125 -20z m609 -25 l4 -30 6 30 c7 33 44 48 54
21 6 -14 9 -168 8 -366 l-1 -85 -32 0 c-29 0 -32 -3 -33 -30 0 -16 -4 -36 -8
-42 -5 -8 -4 -13 2 -13 6 0 11 -7 11 -16 0 -8 -5 -12 -11 -8 -6 3 -15 0 -20
-7 -5 -9 -9 17 -9 66 0 44 -3 178 -7 299 -6 211 -6 218 13 214 12 -2 20 -14
23 -33z m-396 -56 c-7 -25 -23 -35 -33 -19 -12 19 -3 36 19 37 14 1 17 -3 14
-18z m221 3 c3 -5 2 -18 -1 -31 -6 -22 -6 -22 -20 -1 -14 20 -10 40 7 40 5 0
11 -4 14 -8z m-1140 -72 c-1 -29 1 -48 5 -44 11 15 31 15 31 -1 0 -8 -3 -15
-7 -15 -5 0 -9 -25 -9 -55 -1 -30 3 -55 7 -55 5 0 9 4 9 10 0 20 26 -2 37 -31
14 -37 7 -60 -14 -52 -10 4 -14 2 -9 -5 3 -6 2 -13 -4 -17 -5 -3 -10 2 -10 12
0 14 -2 15 -9 4 -5 -8 -7 -21 -3 -29 3 -10 1 -13 -6 -8 -6 3 -12 -3 -15 -16
-3 -15 -5 -8 -7 17 -2 39 -3 39 -10 10 l-8 -30 -1 30 c-1 22 -4 26 -10 15 -6
-8 -7 -19 -4 -25 4 -5 2 -7 -2 -2 -8 7 -16 40 -15 62 3 55 14 122 22 133 8 9
6 12 -6 12 -10 0 -14 5 -11 11 4 6 14 8 22 4 13 -4 14 -3 3 10 -8 9 -10 31 -7
60 11 87 33 83 31 -5z m31 24 c1 -45 -3 -57 -15 -49 -5 3 -5 16 0 31 7 17 6
32 -1 46 -9 16 -8 19 3 16 8 -3 13 -20 13 -44z m415 0 c0 -8 -4 -14 -10 -14
-5 0 -10 9 -10 21 0 11 5 17 10 14 6 -3 10 -13 10 -21z m160 -10 c0 -32 -2
-34 -35 -34 -28 0 -35 -4 -35 -20 0 -11 -4 -20 -10 -20 -11 0 -12 19 -4 72 6
35 8 37 45 36 38 0 39 -2 39 -34z m970 -14 c0 -29 -5 -50 -11 -50 -17 0 -41
29 -33 41 4 8 3 9 -4 5 -7 -4 -12 0 -13 11 0 10 -3 13 -6 6 -6 -16 -33 -17
-33 -2 0 6 -9 8 -20 4 -16 -5 -20 -2 -20 14 0 19 6 21 70 21 l70 0 0 -50z
m-1170 -15 c0 -7 7 -15 15 -19 8 -3 15 -13 15 -23 0 -15 -2 -15 -15 3 -14 18
-15 16 -14 -26 0 -25 0 -48 -1 -52 -2 -5 -3 -12 -4 -17 0 -5 -4 -13 -8 -17 -5
-4 -8 34 -8 85 0 59 4 90 10 86 6 -3 10 -12 10 -20z m-796 -31 c8 -21 8 -24
-3 -24 -5 0 -11 9 -14 20 -6 24 8 27 17 4z m42 -7 c-4 6 -2 14 4 18 5 3 10 -3
10 -14 0 -24 -4 -25 -31 -10 -11 5 -17 15 -13 20 3 6 12 3 21 -8 8 -10 12 -13
9 -6z m1791 1 c-3 -8 -6 -5 -6 6 -1 11 2 17 5 13 3 -3 4 -12 1 -19z m-300 -86
c2 -99 2 -99 11 -87 11 15 52 14 52 -1 0 -8 -4 -14 -10 -14 -5 0 -10 -10 -11
-22 0 -22 -1 -22 -9 -3 l-9 20 -1 -20 -1 -20 -9 20 c-6 17 -9 14 -15 -19 -13
-68 -25 -16 -22 99 1 58 -1 109 -6 112 -5 3 -3 9 4 14 21 12 24 3 26 -79z
m-242 -82 c12 10 15 10 15 0 0 -9 4 -9 17 1 9 8 18 13 21 12 8 -2 22 -27 22
-38 0 -5 -5 -3 -10 5 -7 12 -11 10 -19 -10 -7 -18 -10 -20 -10 -7 -1 21 -21
23 -21 2 0 -18 -16 -20 -23 -2 -3 6 -6 0 -6 -15 -1 -16 -5 -28 -9 -28 -4 0 -6
17 -4 38 2 28 1 33 -7 22 -7 -9 -11 -10 -11 -3 0 6 5 15 10 18 6 3 11 43 12
88 l2 82 3 -88 c3 -77 6 -87 18 -77z m196 117 c-10 -9 -11 -8 -5 6 3 10 9 15
12 12 3 -3 0 -11 -7 -18z m5 -104 c2 -32 -1 -64 -6 -73 -8 -13 -10 -13 -12 0
-5 39 -2 118 5 113 10 -6 9 11 -3 25 -7 9 -7 9 2 2 6 -5 13 -36 14 -67z m391
64 c3 -4 -5 -7 -20 -7 -14 0 -28 4 -31 8 -5 9 41 8 51 -1z m-1284 -64 c-3 -7
2 -13 11 -13 21 0 21 -16 0 -24 -8 -3 -13 -9 -11 -13 3 -5 1 -17 -4 -28 -6
-16 -8 -14 -8 13 -1 19 -5 31 -11 27 -5 -3 -10 3 -10 15 0 12 5 18 10 15 6 -4
10 8 11 27 0 27 2 29 8 13 5 -11 6 -26 4 -32z m707 17 c0 -5 -5 -10 -11 -10
-5 0 -7 5 -4 10 3 6 8 10 11 10 2 0 4 -4 4 -10z m-654 -40 c0 -12 -4 -16 -9
-11 -5 5 -6 14 -3 20 10 15 12 14 12 -9z m220 12 c-5 -8 -66 -4 -66 4 0 2 16
4 36 4 19 0 33 -4 30 -8z m-189 -24 c-3 -8 -6 -5 -6 6 -1 11 2 17 5 13 3 -3 4
-12 1 -19z m1136 -154 c-3 -8 -12 -13 -20 -10 -8 3 -20 7 -26 7 -7 1 2 5 18 9
17 4 31 8 32 9 1 0 0 -6 -4 -15z m37 12 c0 -3 -4 -8 -10 -11 -5 -3 -10 -1 -10
4 0 6 5 11 10 11 6 0 10 -2 10 -4z m-1684 -38 c3 -4 -1 -5 -10 -4 -8 1 -18 5
-22 8 -3 4 1 5 10 4 8 -1 18 -5 22 -8z"/>
<path d="M2049 2833 c-1 -5 -1 -12 0 -17 1 -5 -5 -6 -14 -2 -10 3 -14 2 -10
-5 9 -14 28 -6 31 14 1 9 0 17 -2 17 -2 0 -5 -3 -5 -7z"/>
<path d="M2317 863 c-12 -12 -7 -22 8 -17 8 4 15 10 15 15 0 11 -14 12 -23 2z"/>
<path d="M2420 860 c0 -5 5 -10 11 -10 5 0 7 5 4 10 -3 6 -8 10 -11 10 -2 0
-4 -4 -4 -10z"/>
<path d="M2500 649 c0 -5 5 -7 10 -4 6 3 10 8 10 11 0 2 -4 4 -10 4 -5 0 -10
-5 -10 -11z"/>
<path d="M2412 455 c0 -16 2 -22 5 -12 2 9 2 23 0 30 -3 6 -5 -1 -5 -18z"/>
<path d="M2225 450 c3 -5 8 -10 11 -10 2 0 4 5 4 10 0 6 -5 10 -11 10 -5 0 -7
-4 -4 -10z"/>
<path d="M2506 415 c-3 -8 -1 -15 4 -15 6 0 10 7 10 15 0 8 -2 15 -4 15 -2 0
-6 -7 -10 -15z"/>
<path d="M1782 620 c0 -14 2 -19 5 -12 2 6 2 18 0 25 -3 6 -5 1 -5 -13z"/>
<path d="M1810 591 c0 -23 4 -40 9 -37 8 6 5 65 -4 74 -3 3 -5 -14 -5 -37z"/>
<path d="M1846 562 c-3 -5 1 -9 9 -9 8 0 15 4 15 9 0 4 -4 8 -9 8 -6 0 -12 -4
-15 -8z"/>
<path d="M3012 2933 c-6 -2 -9 -10 -5 -16 4 -7 8 -16 8 -22 0 -5 7 -10 15 -10
8 0 15 5 15 10 0 6 4 15 8 21 5 9 -16 28 -26 23 -1 0 -8 -3 -15 -6z"/>
<path d="M1715 2911 c-3 -6 -3 -11 2 -11 4 0 2 -4 -6 -9 -17 -11 -24 -41 -9
-41 6 0 7 7 4 16 -4 12 -1 14 14 9 11 -3 28 -2 37 4 10 6 12 11 6 11 -7 0 -12
5 -10 12 3 15 -29 23 -38 9z"/>
<path d="M2999 2908 c-6 -21 -5 -38 1 -38 5 0 8 9 7 20 -1 17 -5 26 -8 18z"/>
<path d="M3053 2890 c-1 -13 4 -20 15 -20 15 0 15 2 2 10 -11 7 -11 10 -2 10
7 0 10 5 7 10 -10 16 -21 11 -22 -10z"/>
<path d="M3006 2828 c21 -36 26 -39 45 -16 11 11 17 24 14 27 -4 3 -10 -1 -15
-9 -8 -13 -13 -13 -31 -2 -17 11 -20 11 -13 0z"/>
<path d="M1703 2805 c9 -8 17 -20 20 -27 3 -9 11 -5 25 12 23 28 21 40 -3 20
-12 -10 -19 -10 -27 -2 -7 7 -16 12 -21 12 -5 0 -2 -7 6 -15z"/>
<path d="M3015 2750 c17 -19 19 -19 37 -3 21 19 16 32 -6 14 -10 -8 -16 -9
-21 -1 -3 5 -11 10 -17 10 -6 0 -3 -9 7 -20z"/>
<path d="M1700 2740 c6 -11 16 -20 23 -20 16 0 37 20 37 35 0 5 -4 4 -9 -4 -8
-12 -14 -13 -36 -3 -24 11 -25 11 -15 -8z"/>
<path d="M3006 2695 c4 -8 10 -15 15 -15 5 0 9 -8 10 -17 0 -14 2 -15 6 -3 4
8 12 21 20 29 18 17 8 28 -11 12 -10 -8 -16 -9 -21 -1 -10 16 -25 12 -19 -5z"/>
<path d="M1703 2672 c8 -9 17 -24 20 -32 4 -10 6 -11 6 -2 1 7 8 20 16 29 9 8
13 18 9 22 -4 3 -9 0 -11 -6 -3 -7 -9 -13 -14 -13 -6 0 -8 4 -5 8 2 4 -5 9
-16 9 -18 2 -19 0 -5 -15z"/>
<path d="M3981 2629 c-36 -38 -51 -61 -51 -81 0 -27 -5 -30 -45 -30 -35 0 -45
3 -42 13 3 17 -174 18 -180 2 -3 -7 -18 -13 -34 -13 -25 0 -29 -3 -25 -22 3
-13 8 -90 11 -173 3 -82 7 -188 10 -235 3 -47 7 -148 10 -225 3 -77 8 -191 11
-252 l7 -113 123 0 c117 0 124 -1 124 -20 0 -19 -7 -20 -125 -20 l-125 0 4
-72 c2 -40 4 -76 5 -80 2 -18 49 -5 86 23 39 29 119 59 159 59 17 0 18 -2 6
-10 -13 -8 -13 -10 2 -10 9 0 19 6 22 13 3 9 9 7 19 -6 11 -13 16 -15 20 -5 4
10 8 10 18 -3 8 -8 27 -24 43 -33 26 -17 28 -17 23 -2 -7 18 -2 17 46 -16 15
-11 25 -24 22 -29 -10 -16 1 -10 41 22 94 75 182 94 276 61 31 -11 72 -32 91
-46 19 -14 46 -26 62 -26 l28 0 -7 61 c-3 34 -6 70 -6 80 0 17 -10 19 -120 19
-114 0 -120 1 -120 21 0 19 5 20 120 17 l120 -3 -5 50 c-5 46 -48 653 -62 875
l-6 95 -31 0 c-19 0 -30 5 -28 13 1 9 -22 12 -93 12 -78 0 -95 -3 -95 -15 0
-11 -11 -15 -40 -15 -37 0 -40 2 -40 28 0 40 -93 131 -142 138 -34 6 -40 3
-87 -47z m112 -100 c37 -18 117 -111 117 -135 0 -12 5 -24 10 -26 6 -2 12 -39
14 -83 3 -44 8 -124 12 -177 l7 -98 -67 0 c-64 0 -66 -1 -66 -25 0 -37 -39
-35 -46 3 -5 27 -7 27 -70 24 -60 -4 -64 -5 -64 -28 0 -20 -5 -24 -29 -24 -21
0 -32 6 -36 20 -9 27 1 40 32 40 l25 0 -7 158 c-3 86 -9 165 -11 175 -3 9 1
20 9 23 8 3 12 14 10 27 -3 16 6 35 31 62 20 21 36 42 36 46 0 7 44 26 63 28
5 1 18 -4 30 -10z m-276 -45 c-3 -3 -12 -4 -19 -1 -8 3 -5 6 6 6 11 1 17 -2
13 -5z m-50 -276 c-3 -8 -6 -5 -6 6 -1 11 2 17 5 13 3 -3 4 -12 1 -19z m551
-220 c3 -25 0 -28 -27 -28 -26 0 -31 4 -31 23 0 30 9 39 35 35 13 -2 21 -12
23 -30z m-324 -204 c13 -33 7 -64 -13 -64 -18 0 -31 25 -31 63 0 22 36 23 44
1z m50 0 c11 -28 6 -52 -10 -58 -24 -9 -24 -9 -24 34 0 41 21 57 34 24z m74 4
c-2 -7 3 -12 10 -10 7 1 12 -8 12 -23 0 -18 -5 -25 -20 -25 -16 0 -20 7 -20
35 0 19 5 35 10 35 6 0 9 -6 8 -12z m65 -38 c3 -13 0 -20 -9 -20 -8 0 -14 9
-14 20 0 11 4 20 9 20 5 0 11 -9 14 -20z m-148 -49 c-3 -5 -1 -12 5 -16 16
-10 12 -45 -5 -45 -10 0 -15 11 -15 35 0 19 5 35 11 35 5 0 8 -4 4 -9z m92 3
c-3 -3 -12 -4 -19 -1 -8 3 -5 6 6 6 11 1 17 -2 13 -5z m-127 -41 c0 -16 -6
-23 -20 -23 -18 0 -29 28 -15 42 14 14 35 2 35 -19z m150 -4 c0 -4 -8 -10 -17
-13 -18 -7 -34 10 -26 30 4 10 9 11 24 1 10 -6 19 -15 19 -18z m40 1 c0 -5 -5
-10 -11 -10 -5 0 -7 5 -4 10 3 6 8 10 11 10 2 0 4 -4 4 -10z m-54 -90 c8 0 14
-8 14 -18 0 -11 -7 -18 -20 -18 -17 0 -20 6 -19 41 1 23 4 30 6 18 2 -13 11
-23 19 -23z m-145 -2 l2 -23 4 23 c5 23 23 31 23 10 0 -9 4 -8 10 2 9 13 13
12 30 -9 33 -38 26 -57 -20 -58 -24 0 -40 4 -40 11 0 6 -5 4 -10 -4 -14 -23
-29 0 -23 38 6 37 22 43 24 10z m213 -13 c3 -8 1 -15 -4 -15 -6 0 -10 7 -10
15 0 8 2 15 4 15 2 0 6 -7 10 -15z m-243 -72 c0 -11 3 -13 6 -5 7 18 63 16 63
-3 0 -12 -13 -15 -60 -15 -43 0 -60 4 -60 13 0 31 49 39 51 10z m349 -5 c0
-19 -2 -20 -10 -8 -6 10 -10 11 -10 3 0 -7 -9 -13 -20 -13 -11 0 -20 6 -21 13
0 9 -2 9 -6 -1 -4 -10 -8 -10 -19 -1 -11 9 -14 9 -14 0 0 -7 -4 -9 -10 -6 -23
14 -7 24 43 28 28 2 55 4 60 5 4 1 7 -8 7 -20z m43 1 c4 -16 3 -18 -9 -8 -11
9 -14 9 -14 -1 0 -8 -3 -11 -6 -7 -9 8 3 37 15 37 5 0 11 -9 14 -21z m-203 -4
c0 -7 -21 -11 -55 -12 -41 0 -55 3 -55 14 0 11 13 14 55 12 33 -2 55 -7 55
-14z m27 -7 c-3 -8 -6 -5 -6 6 -1 11 2 17 5 13 3 -3 4 -12 1 -19z m-147 -108
c8 -5 11 -10 5 -10 -5 0 -17 5 -25 10 -8 5 -10 10 -5 10 6 0 17 -5 25 -10z"/>
<path d="M3893 1984 c0 -8 6 -14 14 -14 7 0 13 4 13 9 0 5 -6 11 -13 14 -8 3
-14 -1 -14 -9z"/>
<path d="M4277 1994 c-13 -13 -7 -24 14 -24 11 0 19 5 17 12 -5 14 -22 21 -31
12z"/>
<path d="M3480 2661 c0 -5 6 -12 13 -14 6 -3 3 -6 -8 -6 -18 -1 -17 -3 5 -14
14 -7 27 -10 30 -7 3 4 12 10 20 13 12 4 12 6 -2 6 -11 1 -15 6 -12 16 5 11
-1 15 -20 15 -14 0 -26 -4 -26 -9z"/>
<path d="M3833 2625 c-38 -51 -39 -55 -14 -55 10 0 26 11 35 25 12 18 25 25
47 25 22 0 30 4 26 14 -4 9 0 12 12 9 11 -3 21 2 24 11 5 13 -2 16 -46 16 -50
-1 -53 -3 -84 -45z"/>
<path d="M4590 2660 c-8 -5 -11 -12 -7 -16 4 -4 0 -16 -9 -25 -16 -17 -15 -19
1 -25 10 -4 21 -1 26 7 6 10 9 6 9 -13 0 -19 -5 -28 -16 -28 -13 0 -12 -5 5
-26 25 -31 27 -46 6 -38 -22 9 -18 -10 5 -31 20 -18 21 -18 43 3 l21 22 -22 0
c-26 0 -29 24 -7 47 19 18 12 31 -8 15 -10 -9 -12 -4 -12 24 2 34 15 62 15 30
0 -19 21 -17 28 3 2 7 -5 15 -17 18 -11 3 -18 10 -15 15 4 6 0 14 -7 19 -17
11 -21 11 -39 -1z"/>
<path d="M688 2642 c-10 -4 -40 -29 -68 -56 -37 -36 -50 -56 -50 -77 0 -27 -3
-29 -40 -29 -29 0 -40 4 -40 15 0 12 -16 15 -85 15 -71 0 -85 -3 -85 -16 0
-12 -8 -15 -33 -12 -32 3 -33 3 -33 -37 0 -22 -4 -83 -8 -135 -4 -52 -9 -124
-11 -160 -3 -36 -7 -96 -9 -135 -3 -38 -7 -115 -11 -170 -11 -202 -14 -223
-42 -245 -14 -11 -29 -17 -34 -14 -21 13 -3 -97 27 -163 10 -22 13 -50 9 -90
-10 -95 -12 -101 -43 -105 -24 -3 -27 -8 -30 -43 l-3 -40 77 -3 c83 -4 94 2
94 49 0 29 18 48 75 77 22 12 36 21 32 22 -13 0 -83 -38 -95 -53 -7 -8 -23
-12 -42 -9 -27 4 -29 7 -24 31 4 14 7 26 8 27 27 22 100 64 125 72 45 16 135
16 125 1 -4 -7 0 -9 14 -5 33 11 169 -64 156 -86 -4 -6 1 -6 14 1 12 6 24 17
28 24 5 9 4 9 -7 0 -7 -7 -17 -13 -23 -13 -5 0 5 11 24 25 19 14 36 21 39 17
3 -5 27 1 53 13 26 12 44 26 40 30 -4 4 8 5 26 2 21 -4 31 -3 27 3 -17 28 109
-10 163 -50 23 -16 51 -30 61 -30 17 0 20 9 23 75 l3 75 -121 0 c-100 0 -123
3 -128 15 -9 24 19 30 142 29 l112 -1 0 81 c1 74 3 134 15 346 2 41 4 121 4
177 1 78 5 105 17 117 10 10 11 16 3 16 -9 0 -10 33 -6 134 l6 135 -27 3 c-15
2 -26 8 -24 16 3 19 -164 17 -172 -3 -3 -10 -19 -15 -46 -15 -38 0 -40 2 -40
30 0 17 -7 33 -17 39 -10 6 -14 11 -9 11 4 0 -10 18 -33 40 -40 39 -65 47
-103 32z m68 -147 c12 -8 25 -11 29 -7 5 4 5 2 1 -5 -4 -7 2 -21 14 -33 11
-11 20 -25 20 -30 0 -6 6 -13 14 -16 8 -3 11 -15 8 -30 -3 -15 0 -24 8 -24 12
0 10 -105 -6 -282 l-7 -68 32 0 c28 0 31 -3 31 -30 0 -28 -3 -30 -35 -30 -32
0 -35 2 -31 25 5 26 5 26 -62 23 -61 -3 -67 -5 -70 -25 -2 -15 -10 -23 -22
-23 -12 0 -20 8 -22 23 -3 20 -8 22 -60 19 -31 -1 -59 2 -62 6 -8 14 14 313
27 360 7 26 29 61 57 91 68 72 97 84 136 56z m291 -427 c-3 -8 -6 -5 -6 6 -1
11 2 17 5 13 3 -3 4 -12 1 -19z m-10 -60 c-3 -8 -6 -5 -6 6 -1 11 2 17 5 13 3
-3 4 -12 1 -19z m-507 -32 c0 -29 -13 -46 -35 -46 -29 0 -38 13 -30 40 8 24
65 29 65 6z m-300 -470 c0 -44 -33 -42 -37 2 -2 16 2 22 17 22 15 0 20 -7 20
-24z m30 -27 c-8 -29 -7 -32 4 -16 10 13 28 17 80 17 60 0 66 -2 66 -20 0 -20
-5 -21 -82 -18 -78 3 -83 4 -86 26 -2 13 2 30 9 38 17 21 20 13 9 -27z m244
-7 c2 -4 1 -14 -5 -22 -7 -12 -9 -11 -9 5 0 17 -2 17 -10 5 -8 -13 -10 -12
-10 3 0 17 24 24 34 9z m346 -13 c0 -18 -2 -19 -15 -9 -8 7 -15 8 -15 3 0 -13
-67 -16 -75 -3 -5 7 -11 5 -19 -6 -10 -14 -16 -14 -34 -5 -13 7 -26 10 -31 7
-5 -3 -14 0 -20 8 -10 12 3 14 81 15 50 1 94 4 97 6 12 13 31 3 31 -16z m-290
2 c0 -6 -4 -13 -10 -16 -5 -3 -10 1 -10 9 0 9 5 16 10 16 6 0 10 -4 10 -9z
m220 -111 c-8 -5 -19 -10 -25 -10 -5 0 -3 5 5 10 8 5 20 10 25 10 6 0 3 -5 -5
-10z m-555 -150 c-16 -3 -39 -4 -49 -1 -19 4 -19 5 -2 11 10 3 33 4 50 1 l31
-5 -30 -6z"/>
<path d="M850 1963 c0 -7 6 -13 13 -13 8 0 14 6 14 13 0 8 -6 14 -14 14 -7 0
-13 -6 -13 -14z"/>
<path d="M480 1959 c0 -24 23 -21 28 4 2 10 -3 17 -12 17 -10 0 -16 -9 -16
-21z"/>
<path d="M1225 2641 c-3 -5 -1 -12 5 -16 6 -4 9 -9 6 -13 -2 -4 0 -16 5 -27 6
-16 8 -17 8 -3 1 9 9 22 19 27 9 6 12 11 5 11 -7 0 -10 7 -7 15 7 17 -31 22
-41 6z"/>
<path d="M3002 2630 c0 -14 2 -19 5 -12 2 6 2 18 0 25 -3 6 -5 1 -5 -13z"/>
<path d="M3060 2634 c0 -8 5 -12 10 -9 6 3 10 10 10 16 0 5 -4 9 -10 9 -5 0
-10 -7 -10 -16z"/>
<path d="M155 2620 c-3 -5 -3 -15 0 -20 4 -6 1 -9 -6 -8 -7 2 -15 -5 -17 -14
-2 -10 1 -18 7 -18 6 0 11 6 11 13 0 7 7 4 15 -7 15 -20 15 -20 16 0 0 10 3
13 6 7 5 -14 33 -18 33 -5 0 40 -48 79 -65 52z"/>
<path d="M1691 2614 c0 -11 3 -14 6 -6 3 7 2 16 -1 19 -3 4 -6 -2 -5 -13z"/>
<path d="M1751 2614 c0 -11 3 -14 6 -6 3 7 2 16 -1 19 -3 4 -6 -2 -5 -13z"/>
<path d="M1206 2612 c-2 -4 0 -14 6 -22 8 -12 9 -12 5 2 -3 9 -1 19 6 22 9 3
9 5 0 5 -6 1 -14 -3 -17 -7z"/>
<path d="M3475 2610 c-3 -5 -1 -10 4 -10 6 0 11 5 11 10 0 6 -2 10 -4 10 -3 0
-8 -4 -11 -10z"/>
<path d="M3535 2610 c3 -5 8 -10 11 -10 2 0 4 5 4 10 0 6 -5 10 -11 10 -5 0
-7 -4 -4 -10z"/>
<path d="M3486 2555 c4 -8 10 -15 15 -15 5 0 9 -9 9 -20 0 -12 -7 -20 -17 -20
-15 0 -14 -3 5 -22 l22 -22 22 22 c12 12 17 22 11 22 -7 0 -15 -4 -18 -10 -3
-5 -11 -10 -16 -10 -13 0 1 51 18 69 8 7 11 16 8 19 -3 4 -10 0 -15 -8 -7 -12
-12 -12 -22 -2 -17 17 -29 15 -22 -3z"/>
<path d="M1216 2535 c4 -8 10 -15 15 -15 5 0 9 -8 10 -17 0 -14 2 -15 6 -3 3
8 12 23 21 33 10 11 11 17 4 17 -7 0 -12 -4 -12 -10 0 -5 -7 -10 -15 -10 -8 0
-15 5 -15 10 0 6 -4 10 -10 10 -5 0 -7 -7 -4 -15z"/>
<path d="M4705 2540 c-3 -5 3 -10 14 -10 12 0 21 5 21 10 0 6 -6 10 -14 10 -8
0 -18 -4 -21 -10z"/>
<path d="M165 2529 c-3 -4 -12 -6 -20 -2 -8 3 -15 0 -15 -6 0 -7 6 -14 14 -17
22 -9 15 -44 -8 -44 -20 0 -20 0 0 -20 12 -12 27 -18 36 -15 22 9 31 35 13 35
-20 0 -19 13 5 43 20 25 20 25 0 30 -11 3 -22 1 -25 -4z"/>
<path d="M4760 2525 c0 -9 -8 -14 -22 -12 -22 2 -23 -1 -21 -73 2 -41 12 -187
23 -325 29 -357 59 -747 70 -915 6 -80 12 -172 15 -205 7 -95 14 -211 20 -320
3 -55 7 -133 10 -173 l4 -72 -102 0 -102 0 -2 -41 c-2 -23 -8 -48 -14 -55 -8
-10 -8 -14 0 -14 6 0 11 -5 11 -11 0 -5 -4 -7 -10 -4 -5 3 -10 2 -10 -3 0 -6
7 -13 16 -16 20 -8 212 -8 242 0 l22 6 0 689 0 689 -41 -2 c-29 -2 -43 1 -47
11 -4 11 5 12 42 7 l46 -7 0 430 0 431 -75 0 c-60 0 -75 -3 -75 -15z"/>
<path d="M1715 2500 c-3 -5 -1 -10 4 -10 6 0 11 5 11 10 0 6 -2 10 -4 10 -3 0
-8 -4 -11 -10z"/>
<path d="M1218 2458 l22 -22 22 22 22 22 -29 0 c-23 0 -27 -3 -15 -10 13 -8
12 -10 -2 -10 -10 0 -18 5 -18 10 0 6 -5 10 -12 10 -7 0 -2 -10 10 -22z"/>
<path d="M3491 2433 c-1 -6 4 -15 10 -18 6 -4 14 -17 19 -29 8 -19 9 -19 9 -2
1 10 9 25 18 32 10 7 14 16 9 21 -5 4 -11 2 -13 -4 -3 -7 -13 -13 -23 -13 -10
0 -21 6 -23 13 -4 9 -6 9 -6 0z"/>
<path d="M4600 2423 c0 -4 7 -14 15 -23 11 -12 18 -58 26 -156 5 -76 11 -146
13 -154 8 -34 5 73 -5 184 -9 105 -8 121 5 128 26 15 18 25 -19 26 -19 1 -35
-1 -35 -5z"/>
<path d="M1200 2411 c0 -5 7 -14 15 -21 8 -7 15 -19 15 -27 0 -8 5 -11 10 -8
6 4 8 10 5 15 -3 4 2 13 10 20 8 7 15 17 15 22 0 6 -7 5 -16 -3 -12 -10 -20
-10 -35 -1 -10 7 -19 8 -19 3z"/>
<path d="M150 2399 c0 -4 -7 -6 -15 -3 -19 8 -20 -10 -1 -25 12 -10 14 -37 11
-134 l-3 -122 10 120 c6 77 15 126 24 136 19 21 18 26 -6 32 -11 3 -20 1 -20
-4z"/>
<path d="M3036 2394 c-4 -10 -2 -22 3 -27 7 -7 13 -5 17 7 4 10 2 22 -3 27 -7
7 -13 5 -17 -7z"/>
<path d="M1713 2368 c-6 -8 -8 -32 -4 -58 l7 -45 7 54 c7 59 5 68 -10 49z"/>
<path d="M3492 2360 c0 -14 2 -19 5 -12 2 6 2 18 0 25 -3 6 -5 1 -5 -13z"/>
<path d="M3552 2360 c0 -14 2 -19 5 -12 2 6 2 18 0 25 -3 6 -5 1 -5 -13z"/>
<path d="M4600 2345 c1 -26 2 -28 11 -12 8 14 8 22 0 30 -8 8 -11 3 -11 -18z"/>
<path d="M4660 2356 c0 -8 5 -18 10 -21 6 -3 10 3 10 14 0 12 -4 21 -10 21 -5
0 -10 -6 -10 -14z"/>
<path d="M212 2335 c0 -16 2 -22 5 -12 2 9 2 23 0 30 -3 6 -5 -1 -5 -18z"/>
<path d="M1202 2340 c0 -14 2 -19 5 -12 2 6 2 18 0 25 -3 6 -5 1 -5 -13z"/>
<path d="M1260 2341 c0 -25 6 -27 13 -6 4 8 2 17 -3 20 -6 4 -10 -3 -10 -14z"/>
<path d="M93 2333 c9 -2 17 -11 17 -18 0 -8 5 -17 10 -20 6 -4 10 5 10 19 0
22 -4 26 -27 25 -17 -1 -21 -3 -10 -6z"/>
<path d="M170 2328 c0 -7 4 -19 9 -26 6 -10 10 -7 13 12 4 18 1 26 -8 26 -8 0
-14 -6 -14 -12z"/>
<path d="M3533 2105 c0 -27 2 -38 4 -22 2 15 2 37 0 50 -2 12 -4 0 -4 -28z"/>
<path d="M133 2045 c0 -38 2 -53 4 -32 2 20 2 52 0 70 -2 17 -4 1 -4 -38z"/>
<path d="M1221 2074 c0 -11 3 -14 6 -6 3 7 2 16 -1 19 -3 4 -6 -2 -5 -13z"/>
<path d="M4663 2010 c0 -25 2 -35 4 -22 2 12 2 32 0 45 -2 12 -4 2 -4 -23z"/>
<path d="M37 1974 c-4 -4 -7 -14 -7 -23 0 -11 3 -12 11 -4 6 6 10 16 7 23 -2
6 -7 8 -11 4z"/>
<path d="M123 1900 c0 -36 2 -50 4 -32 2 17 2 47 0 65 -2 17 -4 3 -4 -33z"/>
<path d="M3543 1855 c0 -33 2 -45 4 -27 2 18 2 45 0 60 -2 15 -4 0 -4 -33z"/>
<path d="M4672 1880 c0 -19 2 -27 5 -17 2 9 2 25 0 35 -3 9 -5 1 -5 -18z"/>
<path d="M113 1755 c0 -38 2 -53 4 -32 2 20 2 52 0 70 -2 17 -4 1 -4 -38z"/>
<path d="M4687 1685 c3 -66 7 -122 9 -124 6 -7 2 109 -6 179 -6 45 -7 29 -3
-55z"/>
<path d="M103 1610 c0 -36 2 -50 4 -32 2 17 2 47 0 65 -2 17 -4 3 -4 -33z"/>
<path d="M3055 1620 c3 -5 8 -10 11 -10 2 0 4 5 4 10 0 6 -5 10 -11 10 -5 0
-7 -4 -4 -10z"/>
<path d="M1201 1604 c0 -11 3 -14 6 -6 3 7 2 16 -1 19 -3 4 -6 -2 -5 -13z"/>
<path d="M1695 1610 c3 -5 8 -10 11 -10 2 0 4 5 4 10 0 6 -5 10 -11 10 -5 0
-7 -4 -4 -10z"/>
<path d="M4703 1480 c-1 -30 2 -93 6 -140 l8 -85 0 75 c0 41 -3 104 -7 140
l-7 65 0 -55z"/>
<path d="M93 1460 c0 -30 2 -43 4 -27 2 15 2 39 0 55 -2 15 -4 2 -4 -28z"/>
<path d="M4343 1373 c9 -2 23 -2 30 0 6 3 -1 5 -18 5 -16 0 -22 -2 -12 -5z"/>
<path d="M80 1344 c0 -17 -7 -131 -15 -255 -8 -123 -19 -300 -25 -394 -6 -93
-13 -185 -16 -204 -4 -22 -2 -32 6 -29 8 2 13 40 16 103 2 55 6 138 9 185 3
47 8 119 10 160 2 41 10 160 16 263 6 103 9 191 5 194 -3 4 -6 -7 -6 -23z"/>
<path d="M3918 1313 c7 -3 16 -2 19 1 4 3 -2 6 -13 5 -11 0 -14 -3 -6 -6z"/>
<path d="M4330 1316 c0 -2 14 -6 30 -8 17 -3 30 -1 30 4 0 4 -13 8 -30 8 -16
0 -30 -2 -30 -4z"/>
<path d="M398 1293 c7 -3 16 -2 19 1 4 3 -2 6 -13 5 -11 0 -14 -3 -6 -6z"/>
<path d="M4015 1280 c3 -5 11 -10 16 -10 6 0 7 5 4 10 -3 6 -11 10 -16 10 -6
0 -7 -4 -4 -10z"/>
<path d="M750 1270 c-9 -6 -10 -10 -3 -10 6 0 15 5 18 10 8 12 4 12 -15 0z"/>
<path d="M4500 1256 c0 -2 8 -10 18 -17 15 -13 16 -12 3 4 -13 16 -21 21 -21
13z"/>
<path d="M690 1230 c-8 -5 -12 -12 -9 -15 4 -3 12 1 19 10 14 17 11 19 -10 5z"/>
<path d="M4721 1200 c0 -25 3 -106 8 -180 12 -167 21 -313 27 -449 2 -58 7
-107 10 -110 11 -12 21 23 13 48 -4 14 -15 148 -25 296 -20 331 -31 456 -33
395z"/>
<path d="M4575 1210 c10 -11 20 -18 23 -16 5 6 -23 36 -34 36 -4 0 1 -9 11
-20z"/>
<path d="M3877 1185 c-52 -58 -105 -105 -119 -105 -5 0 -8 -12 -6 -27 2 -16 8
-27 15 -26 9 2 10 -4 4 -20 -8 -20 -8 -214 0 -473 l3 -110 179 0 179 1 -6 100
c-3 55 -8 183 -11 285 -6 224 -12 270 -30 270 -8 0 -20 8 -27 19 -7 10 -23 21
-36 25 -12 4 -29 20 -37 36 -28 54 -73 64 -108 25z m-43 -154 c11 -4 15 -10
10 -13 -5 -4 -18 0 -29 8 -20 15 -12 17 19 5z m203 -15 c5 -4 -32 -6 -80 -5
-49 2 -91 7 -94 12 -6 11 164 4 174 -7z m53 4 c0 -5 -7 -7 -15 -4 -8 4 -15 8
-15 10 0 2 7 4 15 4 8 0 15 -4 15 -10z m9 -152 l-2 -43 -6 35 c-7 33 -5 50 5
50 2 0 3 -19 3 -42z m-69 -10 c0 -10 -7 -18 -15 -18 -8 0 -15 6 -15 13 0 9 -2
9 -8 0 -4 -7 -16 -12 -27 -11 -11 1 -46 -2 -77 -7 -54 -7 -58 -6 -58 13 0 24
13 27 122 27 68 0 78 -2 78 -17z"/>
<path d="M4100 1201 c0 -5 7 -12 16 -15 14 -5 15 -4 4 9 -14 17 -20 19 -20 6z"/>
<path d="M4315 1193 c-9 -9 -21 -27 -25 -39 -5 -13 -20 -26 -34 -30 -13 -3
-26 -14 -29 -25 -3 -10 -13 -19 -22 -19 -15 0 -16 -13 -10 -122 4 -68 8 -157
10 -198 2 -41 6 -135 10 -208 l7 -132 179 1 178 1 -5 41 c-5 42 -34 549 -34
594 0 16 -8 26 -24 32 -13 5 -26 17 -29 25 -4 9 -12 16 -19 16 -7 0 -29 18
-49 40 -40 44 -76 52 -104 23z m32 -330 c3 -7 0 -13 -6 -13 -6 0 -11 6 -11 13
0 8 -4 7 -10 -3 -9 -13 -10 -13 -10 0 0 12 -2 13 -9 1 -9 -13 -31 -8 -31 8 0
13 73 7 77 -6z m28 7 c-3 -5 -1 -10 4 -10 6 0 11 5 11 10 0 6 18 10 40 10 29
0 40 -4 40 -15 0 -18 -26 -20 -33 -2 -4 8 -8 9 -14 2 -13 -17 -60 -16 -67 0
-3 9 1 15 10 15 8 0 12 -4 9 -10z m43 -133 c6 3 12 0 12 -7 0 -6 -4 -9 -9 -5
-5 3 -12 1 -16 -5 -3 -5 -1 -10 4 -10 6 0 11 -7 11 -15 0 -9 -9 -15 -24 -15
-19 0 -23 4 -19 20 3 11 0 27 -7 35 -11 14 -10 14 11 7 13 -5 30 -7 37 -5z
m-98 -61 c0 -3 -4 -8 -10 -11 -5 -3 -10 -1 -10 4 0 6 5 11 10 11 6 0 10 -2 10
-4z"/>
<path d="M403 1188 c-13 -6 -25 -19 -29 -30 -3 -10 -22 -30 -42 -43 -78 -52
-72 -29 -88 -297 -8 -133 -16 -298 -18 -366 l-4 -122 110 4 c119 4 128 8 128
59 0 26 2 27 55 27 l55 0 1 103 c0 56 2 122 4 147 4 52 18 346 17 372 0 9 -15
30 -32 45 -32 28 -38 34 -84 86 -27 29 -39 32 -73 15z m-46 -335 c2 -6 -3 -13
-12 -16 -10 -5 -15 0 -15 14 0 21 21 22 27 2z m90 -5 c-3 -8 -6 -5 -6 6 -1 11
2 17 5 13 3 -3 4 -12 1 -19z m53 16 c0 -8 -19 -13 -24 -6 -3 5 1 9 9 9 8 0 15
-2 15 -3z m20 -9 c0 -8 -4 -15 -10 -15 -5 0 -7 7 -4 15 4 8 8 15 10 15 2 0 4
-7 4 -15z m-29 -124 c-9 -6 -10 -11 -2 -15 12 -8 16 -162 5 -190 -4 -10 -18
-16 -40 -16 -27 0 -36 5 -44 24 -9 26 -10 66 0 66 3 0 7 14 8 32 3 32 68 125
80 113 4 -3 0 -10 -7 -14z m-116 -1 c-3 -5 3 -10 14 -10 25 0 25 1 7 -40 -7
-18 -24 -39 -37 -46 l-24 -13 23 -1 c12 0 22 -6 22 -14 0 -8 3 -22 7 -32 5
-13 -3 -11 -30 10 -35 27 -37 32 -37 82 0 41 4 54 15 54 8 0 15 5 15 10 0 6 7
10 16 10 8 0 12 -4 9 -10z"/>
<path d="M450 660 c0 -5 4 -10 9 -10 6 0 13 5 16 10 3 6 -1 10 -9 10 -9 0 -16
-4 -16 -10z"/>
<path d="M348 663 c7 -3 16 -2 19 1 4 3 -2 6 -13 5 -11 0 -14 -3 -6 -6z"/>
<path d="M796 1155 c-23 -25 -46 -45 -51 -45 -6 0 -22 -12 -38 -25 -30 -27
-30 -26 -42 -315 -3 -80 -8 -190 -11 -246 l-6 -101 175 -2 174 -1 2 92 c2 153
11 378 17 464 5 79 5 81 -24 112 -17 18 -33 32 -38 32 -4 0 -24 18 -44 40 -20
22 -45 40 -55 40 -10 0 -37 -20 -59 -45z m144 -305 c0 -19 -7 -20 -99 -20 -94
0 -99 1 -94 20 5 18 14 20 99 20 87 0 94 -1 94 -20z m-106 -116 c8 -3 12 -12
9 -20 -4 -11 -7 -11 -19 1 -23 22 -19 30 10 19z m-34 -19 c0 -10 -44 -65 -51
-65 -5 0 -7 13 -6 28 2 23 6 28 21 24 13 -3 17 -1 12 6 -4 7 -1 12 8 12 9 0
16 -2 16 -5z"/>
<path d="M3540 1180 c-23 -18 -22 -59 1 -44 8 4 7 9 -2 15 -7 4 -10 11 -6 15
3 4 14 1 22 -6 12 -10 19 -10 27 -2 17 17 33 15 18 -3 -10 -12 -10 -15 4 -15
26 0 18 27 -13 43 -25 13 -31 12 -51 -3z"/>
<path d="M4621 1154 c0 -11 3 -14 6 -6 3 7 2 16 -1 19 -3 4 -6 -2 -5 -13z"/>
<path d="M1180 1090 c0 -5 -8 -6 -17 -3 -14 5 -12 2 4 -17 19 -19 25 -21 38
-10 8 7 15 17 15 23 0 7 -4 7 -12 -1 -17 -17 -29 -15 -22 3 4 8 3 15 0 15 -3
0 -6 -4 -6 -10z"/>
<path d="M3553 1076 c9 -13 18 -52 20 -87 l3 -64 2 68 c1 46 7 73 17 84 9 8
13 18 9 22 -4 3 -9 0 -11 -6 -5 -15 -33 -17 -33 -3 0 6 -5 10 -11 10 -7 0 -5
-9 4 -24z"/>
<path d="M4625 1050 c-3 -5 -1 -10 4 -10 6 0 11 5 11 10 0 6 -2 10 -4 10 -3 0
-8 -4 -11 -10z"/>
<path d="M3535 1030 c-3 -5 -1 -18 4 -27 9 -16 10 -14 11 10 0 28 -5 34 -15
17z"/>
<path d="M123 1023 c29 -4 29 -5 23 -61 -3 -31 -10 -145 -16 -252 -13 -223
-18 -280 -28 -279 -4 1 -28 1 -54 0 l-48 -1 0 -101 0 -101 26 6 c25 7 26 5 20
-21 -17 -69 -19 -68 74 -73 56 -4 75 -7 55 -11 -24 -5 -20 -6 20 -8 64 -2 99
-21 39 -21 -28 0 -44 -5 -48 -15 -3 -8 -13 -15 -23 -16 -16 0 -16 -1 2 -9 17
-7 16 -9 -10 -9 -17 -1 -41 -8 -53 -17 -15 -10 -37 -15 -63 -12 -27 2 -39 0
-39 -9 0 -19 489 -19 512 -1 18 14 27 66 15 86 -6 8 -40 13 -105 14 -53 0 -81
3 -62 5 79 8 80 9 80 63 l0 50 -110 0 -110 0 0 -42 c0 -51 -6 -47 -13 9 -2 24
-10 50 -17 58 -10 12 -10 19 -1 28 9 9 14 9 21 -3 8 -13 10 -13 10 1 0 10 -11
20 -25 23 l-24 6 4 203 c2 111 9 258 14 327 17 201 20 186 -41 187 -29 0 -40
-1 -25 -4z"/>
<path d="M1152 1010 c0 -14 2 -19 5 -12 2 6 2 18 0 25 -3 6 -5 1 -5 -13z"/>
<path d="M1210 1015 c0 -8 5 -15 10 -15 6 0 10 7 10 15 0 8 -4 15 -10 15 -5 0
-10 -7 -10 -15z"/>
<path d="M3600 1015 c0 -8 5 -15 10 -15 6 0 10 7 10 15 0 8 -4 15 -10 15 -5 0
-10 -7 -10 -15z"/>
<path d="M1182 930 c0 -19 2 -27 5 -17 2 9 2 25 0 35 -3 9 -5 1 -5 -18z"/>
<path d="M3583 795 c0 -44 2 -61 4 -37 2 23 2 59 0 80 -2 20 -4 1 -4 -43z"/>
<path d="M12 720 c0 -14 2 -19 5 -12 2 6 2 18 0 25 -3 6 -5 1 -5 -13z"/>
<path d="M4653 665 c0 -27 2 -38 4 -22 2 15 2 37 0 50 -2 12 -4 0 -4 -28z"/>
<path d="M2 560 c0 -19 2 -27 5 -17 2 9 2 25 0 35 -3 9 -5 1 -5 -18z"/>
<path d="M4655 580 c3 -5 8 -10 11 -10 2 0 4 5 4 10 0 6 -5 10 -11 10 -5 0 -7
-4 -4 -10z"/>
<path d="M1173 540 c0 -25 2 -35 4 -22 2 12 2 32 0 45 -2 12 -4 2 -4 -23z"/>
<path d="M1160 481 c0 -6 5 -13 10 -16 6 -3 10 1 10 9 0 9 -4 16 -10 16 -5 0
-10 -4 -10 -9z"/>
<path d="M3585 470 c3 -5 8 -10 11 -10 2 0 4 5 4 10 0 6 -5 10 -11 10 -5 0 -7
-4 -4 -10z"/>
<path d="M1076 374 c-3 -26 -6 -62 -6 -80 l0 -34 99 0 99 0 1 80 1 80 -94 0
-93 0 -7 -46z"/>
<path d="M3500 410 c-1 -3 -2 -38 -3 -78 l-2 -72 66 0 c37 0 81 3 98 6 l32 7
-3 70 -3 70 -93 1 c-50 1 -92 -1 -92 -4z"/>
<path d="M642 343 c-6 -2 -10 -9 -6 -14 3 -5 0 -9 -5 -9 -6 0 -11 -11 -11 -25
0 -14 -5 -25 -11 -25 -5 0 -8 4 -4 9 3 5 1 12 -5 16 -5 3 -10 -3 -10 -14 0
-12 -4 -21 -10 -21 -5 0 -10 7 -10 16 0 10 -6 14 -15 10 -8 -3 -15 -1 -15 4 0
15 -59 8 -65 -9 -5 -13 -7 -14 -15 -1 -8 12 -10 11 -10 -6 0 -20 5 -21 148
-22 81 -1 165 1 187 4 35 6 37 8 18 15 -13 5 -23 15 -23 24 0 16 -26 21 -32 5
-1 -5 -24 1 -51 13 -26 13 -44 26 -40 30 7 8 4 8 -15 0z"/>
<path d="M4331 306 c-9 -11 -8 -15 5 -20 22 -8 24 -8 24 8 0 21 -16 28 -29 12z"/>
<path d="M190 272 c0 -5 7 -15 15 -22 8 -7 15 -9 15 -6 0 4 -7 14 -15 22 -8 9
-15 11 -15 6z"/>
<path d="M4710 108 c-47 -3 -190 -7 -317 -9 -128 -2 -233 -6 -233 -10 0 -4
169 -7 375 -8 315 -1 375 2 375 13 0 18 -81 24 -200 14z"/>
<path d="M4090 85 c0 -5 5 -17 10 -25 5 -8 10 -10 10 -5 0 6 -5 17 -10 25 -5
8 -10 11 -10 5z"/>
<path d="M20 70 c0 -5 5 -10 10 -10 6 0 10 5 10 10 0 6 -4 10 -10 10 -5 0 -10
-4 -10 -10z"/>
<path d="M2095 70 c-99 -5 -89 -6 89 -8 110 -1 197 0 195 2 -9 8 -181 12 -284
6z"/>
<path d="M2525 70 c-46 -4 -3 -7 125 -7 107 0 209 3 225 7 36 9 -250 9 -350 0z"/>
<path d="M2970 70 c-8 -5 -10 -10 -5 -10 6 0 17 5 25 10 8 5 11 10 5 10 -5 0
-17 -5 -25 -10z"/>
<path d="M3093 73 c9 -2 23 -2 30 0 6 3 -1 5 -18 5 -16 0 -22 -2 -12 -5z"/>
<path d="M1218 63 c7 -3 16 -2 19 1 4 3 -2 6 -13 5 -11 0 -14 -3 -6 -6z"/>
<path d="M1353 63 c9 -2 25 -2 35 0 9 3 1 5 -18 5 -19 0 -27 -2 -17 -5z"/>
<path d="M1803 63 c15 -2 37 -2 50 0 12 2 0 4 -28 4 -27 0 -38 -2 -22 -4z"/>
<path d="M2396 63 c5 -5 12 -12 15 -16 3 -5 9 -2 12 7 5 12 0 16 -15 16 -12 0
-17 -3 -12 -7z"/>
<path d="M4819 46 c-2 -2 -150 -6 -329 -10 -179 -3 -479 -9 -667 -13 -188 -3
-340 -10 -337 -15 3 -4 324 -8 715 -8 l709 0 0 25 c0 23 -4 25 -43 25 -24 0
-46 -2 -48 -4z"/>
<path d="M578 8 c-13 -3 625 -6 1416 -7 792 -1 1437 2 1434 5 -9 8 -2821 11
-2850 2z"/>
</g>
</svg>
