<?xml version="1.0" standalone="no"?>
<!DOCTYPE svg PUBLIC "-//W3C//DTD SVG 20010904//EN"
 "http://www.w3.org/TR/2001/REC-SVG-20010904/DTD/svg10.dtd">
<svg version="1.0" xmlns="http://www.w3.org/2000/svg"
 width="330.000000pt" height="730.000000pt" viewBox="0 0 330.000000 730.000000"
 preserveAspectRatio="xMidYMid meet">

<g transform="translate(0.000000,730.000000) scale(0.100000,-0.100000)"
fill="#000000" stroke="none">
<path d="M0 7251 c0 -30 5 -52 13 -55 10 -5 10 -7 0 -12 -10 -4 -13 -43 -13
-143 0 -126 2 -140 20 -156 15 -14 17 -20 8 -26 -7 -4 -9 -11 -5 -16 4 -4 17
-2 27 5 16 10 20 10 20 -2 0 -7 -6 -19 -13 -25 -20 -16 -52 10 -44 38 3 11 1
21 -4 21 -15 0 -11 -367 4 -373 9 -4 9 -8 -2 -15 -13 -9 -13 -13 0 -28 11 -13
11 -18 1 -21 -13 -5 -17 -59 -4 -67 5 -3 7 -18 4 -34 -2 -18 2 -33 12 -41 14
-12 15 -10 10 16 -4 19 -1 33 9 42 21 17 33 -5 13 -24 -8 -9 -13 -22 -9 -30 3
-8 -4 -23 -15 -33 -18 -15 -41 -92 -28 -92 3 0 12 15 20 34 17 42 56 56 56 20
0 -13 -4 -24 -10 -24 -5 0 -10 5 -10 12 0 15 -13 1 -16 -17 -2 -10 7 -15 27
-15 23 0 29 -4 29 -21 0 -15 4 -19 16 -15 10 4 14 1 11 -6 -2 -7 -10 -13 -18
-13 -8 0 -20 -4 -26 -8 -7 -5 -17 -6 -21 -3 -4 2 -14 1 -22 -5 -13 -7 -12 -9
2 -9 20 0 60 -39 55 -54 -2 -6 -14 -13 -28 -17 -13 -3 -23 -11 -22 -17 2 -7
-5 -12 -15 -12 -16 -1 -16 -2 2 -15 10 -7 15 -18 12 -23 -7 -12 13 -72 25 -72
18 0 8 -28 -12 -33 -17 -5 -20 -11 -15 -30 7 -28 -21 -47 -36 -25 -6 9 -8 7
-6 -7 2 -12 10 -19 20 -17 12 2 16 -5 15 -30 0 -18 6 -48 15 -66 9 -18 12 -34
7 -38 -12 -7 -12 -44 0 -44 5 0 8 6 7 13 0 6 3 12 9 12 5 0 9 -6 7 -12 -2 -7
2 -13 8 -13 5 0 10 5 10 10 0 6 9 10 20 10 17 0 20 7 20 49 0 31 -5 53 -15 61
-8 7 -15 20 -14 29 0 12 2 12 8 -3 7 -18 8 -18 14 -2 11 29 -3 39 -29 21 -24
-15 -24 -15 -13 3 13 21 5 57 -11 47 -14 -9 -12 7 4 28 16 21 27 22 20 2 -4
-9 0 -15 10 -15 9 0 16 -8 16 -19 0 -10 7 -21 15 -25 8 -3 15 -1 15 4 0 6 5
10 11 10 7 0 9 -10 5 -25 -4 -15 -2 -25 4 -25 6 0 9 -8 6 -17 -6 -20 -6 -111
-1 -215 2 -37 -1 -70 -6 -73 -15 -10 -10 -42 11 -77 17 -28 20 -30 20 -11 0
12 -6 28 -14 36 -9 9 -12 23 -9 38 5 19 7 20 12 6 4 -10 6 59 4 153 -1 97 2
172 8 175 5 4 9 -15 10 -42 0 -26 2 -113 5 -192 4 -92 1 -160 -6 -192 -7 -27
-8 -54 -3 -61 4 -7 8 -148 9 -313 1 -257 -2 -304 -15 -324 -17 -27 -24 -81
-11 -81 5 0 11 -10 13 -22 2 -13 5 4 6 36 2 107 14 49 18 -91 5 -169 -9 -481
-17 -388 l-6 60 -8 -56 c-8 -58 -1 -104 14 -94 5 3 8 -107 8 -257 -1 -145 -5
-240 -9 -213 -4 34 -6 15 -5 -62 0 -73 -3 -116 -11 -124 -6 -6 -9 -17 -7 -24
3 -7 1 -16 -5 -20 -7 -4 -11 6 -11 29 0 19 5 36 11 38 7 2 7 12 0 30 -5 14 -7
28 -5 31 3 3 6 53 6 111 1 69 5 106 12 106 6 0 5 4 -2 9 -8 5 -12 21 -11 38 2
17 -3 39 -11 49 -8 10 -10 15 -4 11 7 -4 17 0 24 8 11 13 10 31 -4 99 -10 45
-22 89 -28 97 -11 16 -8 1 17 -99 15 -60 13 -88 -5 -77 -5 3 -11 1 -15 -5 -18
-29 -23 2 -19 121 4 143 8 169 30 169 8 0 14 8 13 18 0 10 -3 12 -6 5 -2 -7
-11 -13 -18 -13 -18 0 -26 38 -11 53 7 6 11 19 8 29 -3 12 1 18 13 18 13 0 15
3 6 13 -6 8 -8 17 -3 21 4 4 -1 12 -11 18 -17 9 -18 22 -13 154 3 78 2 145 -3
148 -5 3 -11 -3 -14 -14 -3 -11 -11 -20 -17 -20 -8 0 -10 8 -7 22 4 12 1 29
-6 37 -10 12 -7 13 20 8 31 -6 31 -6 22 26 -5 18 -16 37 -24 43 -11 9 -14 20
-9 40 14 58 46 75 37 20 -4 -23 0 -42 11 -58 16 -22 17 -20 10 47 -3 39 -7 99
-9 135 -5 136 -18 260 -26 260 -4 0 -10 -9 -14 -19 -6 -20 2 -246 11 -292 4
-19 -1 -28 -19 -38 -29 -15 -55 -75 -55 -125 0 -21 -5 -42 -12 -46 -6 -4 -10
-20 -8 -36 2 -23 -1 -29 -17 -29 -11 0 -21 -8 -23 -18 -3 -15 0 -18 17 -12 17
5 21 2 21 -18 0 -20 -4 -24 -20 -20 -18 5 -20 1 -18 -38 1 -35 2 -37 5 -13 3
27 7 30 28 26 14 -2 30 -11 37 -20 11 -13 10 -15 -9 -10 -18 5 -21 2 -18 -21
1 -14 -1 -33 -6 -42 -5 -10 -3 -23 5 -34 7 -10 11 -27 8 -37 -4 -18 -5 -18
-19 -1 -13 17 -14 16 -7 -6 5 -19 3 -23 -10 -18 -24 9 -20 -8 6 -25 17 -11 25
-31 33 -81 6 -37 7 -67 3 -67 -4 0 -8 -6 -8 -14 0 -8 -5 -18 -12 -22 -8 -5 -9
0 -6 14 6 23 1 27 -20 14 -9 -6 -7 -13 8 -30 11 -12 16 -23 10 -27 -6 -3 -10
-13 -10 -21 0 -9 5 -12 12 -8 8 5 9 0 4 -17 -4 -13 -7 -50 -6 -83 1 -49 -1
-58 -14 -53 -10 4 -16 1 -16 -8 0 -8 8 -15 18 -15 14 0 18 -9 20 -45 1 -25 -3
-45 -8 -45 -6 0 -10 -11 -10 -24 0 -14 -4 -28 -10 -31 -14 -8 -13 -82 1 -87 7
-2 8 -20 1 -58 -6 -33 -10 -701 -11 -1777 l-2 -1723 1651 0 1650 0 0 3059 c0
2694 -2 3062 -15 3087 -17 33 -20 64 -6 64 5 0 12 -8 14 -17 3 -10 5 235 6
545 l1 562 -1650 0 -1650 0 0 -49z m750 29 c0 -5 -2 -10 -4 -10 -3 0 -8 5 -11
10 -3 6 -1 10 4 10 6 0 11 -4 11 -10z m-725 -10 c3 -5 1 -10 -4 -10 -6 0 -11
5 -11 10 0 6 2 10 4 10 3 0 8 -4 11 -10z m812 4 c-3 -3 -12 -4 -19 -1 -8 3 -5
6 6 6 11 1 17 -2 13 -5z m-657 -19 c19 -23 8 -25 -14 -4 -11 11 -15 19 -9 19
6 0 16 -7 23 -15z m157 -7 c-3 -8 -6 -5 -6 6 -1 11 2 17 5 13 3 -3 4 -12 1
-19z m48 2 c3 -5 1 -10 -4 -10 -6 0 -11 5 -11 10 0 6 2 10 4 10 3 0 8 -4 11
-10z m226 -23 c-13 -13 -26 -3 -16 12 3 6 11 8 17 5 6 -4 6 -10 -1 -17z m116
-9 c-3 -8 -6 -5 -6 6 -1 11 2 17 5 13 3 -3 4 -12 1 -19z m226 -8 c3 -11 1 -20
-4 -20 -5 0 -9 4 -9 9 0 5 -3 17 -7 27 -4 11 -3 15 4 11 6 -4 13 -16 16 -27z
m-913 10 c8 -5 11 -10 5 -10 -5 0 -17 5 -25 10 -8 5 -10 10 -5 10 6 0 17 -5
25 -10z m844 -30 c-6 -5 -24 21 -24 34 0 6 6 1 14 -10 8 -10 12 -21 10 -24z
m2221 30 c3 -5 2 -10 -4 -10 -5 0 -13 5 -16 10 -3 6 -2 10 4 10 5 0 13 -4 16
-10z m-910 -11 c11 -17 -1 -21 -15 -4 -8 9 -8 15 -2 15 6 0 14 -5 17 -11z
m-1985 -19 c0 -5 -4 -10 -10 -10 -5 0 -10 5 -10 10 0 6 5 10 10 10 6 0 10 -4
10 -10z m2894 -13 c15 -24 -3 -35 -20 -13 -8 11 -14 24 -14 29 0 13 22 3 34
-16z m-3034 -7 c0 -5 -5 -10 -11 -10 -5 0 -7 5 -4 10 3 6 8 10 11 10 2 0 4 -4
4 -10z m85 0 c3 -5 2 -10 -4 -10 -5 0 -13 5 -16 10 -3 6 -2 10 4 10 5 0 13 -4
16 -10z m2195 -11 c0 -5 -4 -9 -10 -9 -5 0 -10 7 -10 16 0 8 5 12 10 9 6 -3
10 -10 10 -16z m-2280 -29 c0 -5 -2 -10 -4 -10 -3 0 -8 5 -11 10 -3 6 -1 10 4
10 6 0 11 -4 11 -10z m240 -21 c0 -5 -4 -9 -10 -9 -5 0 -10 7 -10 16 0 8 5 12
10 9 6 -3 10 -10 10 -16z m90 1 c11 -6 17 -17 14 -25 -4 -10 0 -15 15 -15 12
0 21 -4 21 -10 0 -11 -11 -13 -34 -4 -9 3 -16 12 -16 19 0 8 -7 21 -16 29 -18
18 -11 21 16 6z m455 1 c3 -5 1 -12 -5 -16 -5 -3 -10 1 -10 9 0 18 6 21 15 7z
m-775 -11 c0 -13 -38 -32 -53 -26 -7 2 -4 5 6 5 9 1 17 8 17 16 0 8 7 15 15
15 8 0 15 -4 15 -10z m238 -29 c3 -8 -1 -12 -9 -9 -7 2 -15 10 -17 17 -3 8 1
12 9 9 7 -2 15 -10 17 -17z m-78 5 c0 -3 -4 -8 -10 -11 -5 -3 -10 -1 -10 4 0
6 5 11 10 11 6 0 10 -2 10 -4z m150 -43 c0 -12 5 -25 10 -28 16 -10 12 -25 -7
-25 -15 0 -15 -2 -4 -9 8 -5 21 -7 29 -3 11 4 13 1 7 -7 -5 -10 -2 -11 14 -6
16 5 30 -3 61 -33 37 -36 54 -82 30 -82 -5 0 -10 8 -10 18 0 27 -66 99 -80 86
-8 -8 -7 -14 5 -24 16 -14 21 -40 6 -40 -5 0 -21 14 -36 31 -20 24 -29 29 -38
20 -19 -19 -25 -12 -18 22 4 17 7 50 6 72 -1 22 0 44 3 49 7 12 22 -15 22 -41z
m-298 15 c-7 -7 -12 -8 -12 -2 0 14 12 26 19 19 2 -3 -1 -11 -7 -17z m158 -24
c0 -16 -16 -19 -25 -4 -8 13 4 32 16 25 5 -4 9 -13 9 -21z m1015 15 c11 -17
-1 -21 -15 -4 -8 9 -8 15 -2 15 6 0 14 -5 17 -11z m-1192 -80 c-4 -20 0 -32
16 -45 22 -19 28 -44 11 -44 -6 0 -13 6 -16 14 -3 8 -16 17 -29 20 -17 4 -22
11 -18 25 3 10 0 22 -6 25 -19 12 -12 28 9 21 11 -4 20 -2 20 4 0 6 -4 11 -10
11 -5 0 -10 12 -10 28 l0 27 19 -29 c13 -19 18 -39 14 -57z m67 71 c0 -5 -4
-10 -10 -10 -5 0 -10 5 -10 10 0 6 5 10 10 10 6 0 10 -4 10 -10z m30 -12 c0
-13 -10 -40 -23 -60 -17 -29 -26 -35 -37 -28 -13 8 -11 12 8 26 16 11 21 21
16 36 -4 13 -2 18 4 14 5 -3 12 3 15 14 7 27 17 25 17 -2z m510 12 c0 -5 -4
-10 -10 -10 -5 0 -10 5 -10 10 0 6 5 10 10 10 6 0 10 -4 10 -10z m2547 -32
c-3 -8 -6 -5 -6 6 -1 11 2 17 5 13 3 -3 4 -12 1 -19z m-3002 -8 c3 -5 1 -10
-4 -10 -6 0 -11 5 -11 10 0 6 2 10 4 10 3 0 8 -4 11 -10z m250 0 c18 -8 17 -9
-7 -9 -16 -1 -28 4 -28 9 0 12 8 12 35 0z m-219 -99 c-12 -19 -22 -13 -39 24
-24 50 -21 54 14 18 17 -17 28 -36 25 -42z m58 54 c11 -8 15 -15 10 -15 -6 0
-15 5 -22 12 -6 6 -14 9 -18 6 -3 -4 4 -15 16 -25 12 -10 26 -27 31 -38 6 -11
-6 -3 -26 18 -20 21 -33 42 -30 47 8 13 16 12 39 -5z m244 -5 c7 -12 10 -25 6
-31 -5 -8 -34 32 -34 47 0 11 17 1 28 -16z m132 -42 c0 -6 -7 -5 -15 2 -8 7
-15 17 -15 22 0 6 7 5 15 -2 8 -7 15 -17 15 -22z m1921 5 c13 -16 12 -17 -3
-4 -10 7 -18 15 -18 17 0 8 8 3 21 -13z m-2231 -14 c0 -11 -4 -17 -10 -14 -5
3 -10 13 -10 21 0 8 5 14 10 14 6 0 10 -9 10 -21z m-204 -38 c5 -40 -8 -46
-37 -15 l-23 25 22 6 c12 3 22 10 22 16 0 22 13 -4 16 -32z m248 13 c8 -29 3
-39 -13 -29 -13 8 -15 55 -2 55 5 0 12 -12 15 -26z m76 21 c0 -3 -9 -14 -21
-26 -26 -26 -39 -16 -14 11 17 19 35 26 35 15z m120 -37 c0 -14 -19 1 -31 25
-12 22 -12 22 10 3 11 -11 21 -23 21 -28z m220 6 c0 -8 -4 -14 -10 -14 -5 0
-10 9 -10 21 0 11 5 17 10 14 6 -3 10 -13 10 -21z m-570 -4 c0 -23 -10 -26
-28 -8 -9 9 -12 8 -12 -5 0 -9 5 -17 10 -17 6 0 10 -5 10 -11 0 -6 -9 -8 -20
-4 -19 6 -20 4 -14 -22 7 -26 6 -27 -10 -14 -19 16 -16 62 5 88 18 21 59 17
59 -7z m323 -26 c30 -35 31 -47 2 -18 -9 9 -19 14 -22 10 -4 -3 -1 -12 5 -18
21 -21 13 -27 -18 -12 -16 9 -30 23 -29 32 0 11 2 12 6 5 9 -24 23 -13 17 12
-8 34 5 30 39 -11z m-185 -29 c-7 -8 -48 35 -48 49 0 6 12 -2 27 -16 15 -15
24 -30 21 -33z m-285 14 c5 -4 6 -12 2 -19 -6 -9 -11 -6 -21 11 -7 13 -10 28
-6 33 3 6 8 3 10 -4 3 -8 9 -18 15 -21z m188 -39 c10 -6 19 -7 19 -2 0 4 9 8
19 8 15 0 20 -9 23 -37 2 -27 0 -35 -10 -31 -7 2 -11 12 -8 21 4 11 2 10 -9
-3 -12 -16 -12 -22 -3 -27 10 -7 10 -11 0 -21 -9 -9 -12 -9 -12 0 0 7 -4 12
-10 12 -24 0 -50 41 -50 78 0 43 13 66 18 33 2 -12 12 -26 23 -31z m19 46 c0
-3 -4 -8 -10 -11 -5 -3 -10 -1 -10 4 0 6 5 11 10 11 6 0 10 -2 10 -4z m178
-22 c12 -8 20 -20 17 -25 -10 -14 -25 -11 -25 7 0 8 -5 12 -10 9 -6 -4 -17 -1
-25 5 -12 10 -15 10 -15 -2 0 -8 5 -19 11 -25 9 -9 8 -16 -4 -27 -9 -9 -17
-16 -19 -16 -3 0 -3 32 0 73 2 22 39 23 70 1z m-419 -25 c18 -17 31 -41 31
-55 0 -26 -9 -31 -28 -12 -9 9 -12 9 -12 0 0 -7 -4 -12 -9 -12 -11 0 -32 90
-25 102 8 12 10 11 43 -23z m71 -9 c10 0 20 -10 23 -22 9 -33 -3 -41 -24 -16
-10 13 -23 28 -28 34 -5 7 -7 15 -3 19 4 3 8 1 10 -4 2 -6 12 -11 22 -11z
m505 -10 c3 -5 -1 -10 -10 -10 -9 0 -13 5 -10 10 3 6 8 10 10 10 2 0 7 -4 10
-10z m-447 -18 c6 -18 -15 -14 -22 4 -4 10 -1 14 6 12 6 -2 14 -10 16 -16z
m542 9 c0 -6 -4 -13 -10 -16 -5 -3 -10 1 -10 9 0 9 5 16 10 16 6 0 10 -4 10
-9z m-160 -5 c0 -2 -7 -7 -16 -10 -8 -3 -12 -2 -9 4 6 10 25 14 25 6z m-35
-56 c-8 -13 -35 -13 -35 -1 0 5 3 16 6 25 5 14 8 14 21 1 8 -8 11 -19 8 -25z
m42 3 c-3 -10 -5 -4 -5 12 0 17 2 24 5 18 2 -7 2 -21 0 -30z m-112 -12 c2 -27
1 -28 -16 -18 -22 14 -24 28 -7 45 15 15 20 9 23 -27z m-310 9 c3 -5 1 -10 -4
-10 -6 0 -11 5 -11 10 0 6 2 10 4 10 3 0 8 -4 11 -10z m75 -5 c17 -20 5 -32
-15 -15 -9 7 -19 10 -22 6 -4 -4 -1 -11 6 -15 7 -5 10 -14 7 -20 -16 -26 -26
3 -17 52 2 13 28 8 41 -8z m3018 -70 c0 -15 -3 -13 -13 10 -8 17 -14 41 -14
55 0 22 2 21 14 -10 7 -19 13 -44 13 -55z m-151 53 c-3 -8 -6 -5 -6 6 -1 11 2
17 5 13 3 -3 4 -12 1 -19z m-3057 -34 c0 -8 -3 -14 -7 -14 -12 0 -43 33 -43
47 0 11 5 10 25 -3 14 -9 25 -23 25 -30z m135 -6 c13 -28 13 -30 -5 -35 -11
-3 -20 -10 -20 -15 0 -5 4 -6 10 -3 5 3 18 1 27 -5 15 -9 14 -10 -6 -4 -19 5
-23 3 -18 -10 9 -23 0 -20 -13 4 -7 14 -8 26 0 39 7 13 7 22 0 26 -5 3 -14 14
-20 25 -8 15 -7 17 10 13 11 -3 26 -19 35 -35z m305 8 c0 -3 -4 -8 -10 -11 -5
-3 -10 -1 -10 4 0 6 5 11 10 11 6 0 10 -2 10 -4z m-190 -16 c0 -5 -5 -10 -11
-10 -5 0 -7 5 -4 10 3 6 8 10 11 10 2 0 4 -4 4 -10z m-246 -25 c3 -8 12 -12
20 -9 9 3 17 -2 20 -14 9 -26 36 -37 36 -15 0 11 6 8 21 -11 11 -14 18 -30 14
-35 -3 -5 -1 -12 5 -16 6 -4 7 -12 1 -22 -10 -20 1 -62 29 -110 23 -39 25 -53
9 -53 -7 0 -22 -11 -35 -25 -32 -34 -44 -31 -44 10 0 19 -5 35 -11 35 -7 0 -9
19 -5 58 3 31 5 62 6 69 0 8 7 10 18 6 15 -6 16 -5 2 12 -8 11 -33 36 -55 57
-29 27 -41 33 -43 23 -7 -30 -22 -14 -18 18 3 17 5 33 5 35 3 8 20 -1 25 -13z
m278 -20 c-2 -14 -8 -28 -13 -31 -19 -11 -9 -49 16 -60 21 -10 26 -9 42 15 10
14 21 35 24 46 6 20 6 20 14 1 6 -13 4 -21 -3 -24 -7 -2 -12 -16 -12 -31 0
-39 -28 -91 -45 -85 -10 4 -12 0 -8 -15 3 -12 1 -21 -6 -21 -6 0 -11 10 -12
23 0 12 -3 16 -6 9 -4 -9 -8 -10 -18 -2 -10 8 -15 8 -20 0 -7 -12 22 -39 43
-40 6 0 12 -9 12 -20 0 -21 15 -27 23 -10 3 6 4 5 3 -2 -2 -7 1 -21 6 -30 6
-12 3 -28 -7 -48 -17 -32 -35 -40 -35 -15 0 8 4 15 9 15 5 0 7 9 4 20 -3 12
-14 20 -26 20 -16 0 -18 -3 -9 -12 19 -19 14 -29 -8 -16 -14 9 -20 24 -20 51
0 31 -3 38 -15 33 -9 -3 -25 4 -36 15 -22 22 -22 30 2 162 13 68 28 84 48 50
10 -17 10 -17 11 -1 0 17 29 40 41 32 3 -2 4 -15 1 -29z m100 13 c-7 -7 -12
-8 -12 -2 0 14 12 26 19 19 2 -3 -1 -11 -7 -17z m2838 -53 c0 -8 -4 -15 -10
-15 -5 0 -10 7 -10 15 0 8 5 15 10 15 6 0 10 -7 10 -15z m-2916 -17 c-4 -34
-5 -35 -13 -13 -9 21 -5 35 8 35 4 0 7 -10 5 -22z m-154 -10 c0 -19 -2 -20
-10 -8 -13 19 -13 30 0 30 6 0 10 -10 10 -22z m250 -8 c0 -5 -5 -10 -11 -10
-5 0 -7 5 -4 10 3 6 8 10 11 10 2 0 4 -4 4 -10z m-400 -71 c0 -15 -4 -19 -16
-15 -9 3 -18 6 -20 6 -2 0 -4 7 -4 15 0 8 9 15 20 15 14 0 20 -7 20 -21z
m1260 -31 c0 -18 -2 -20 -9 -8 -6 8 -7 18 -5 22 9 14 14 9 14 -14z m478 -16
c6 -18 -15 -14 -22 4 -4 10 -1 14 6 12 6 -2 14 -10 16 -16z m-1528 -68 c0 -8
-4 -12 -10 -9 -5 3 -10 10 -10 16 0 5 5 9 10 9 6 0 10 -7 10 -16z m2947 -6
c-3 -8 -6 -5 -6 6 -1 11 2 17 5 13 3 -3 4 -12 1 -19z m-2986 -34 c15 -19 0
-51 -23 -47 -8 2 -14 -7 -16 -25 -1 -18 1 -23 7 -13 15 23 24 -7 25 -83 1 -52
-3 -74 -14 -83 -8 -6 -11 -15 -7 -20 5 -4 17 2 27 15 15 18 18 37 16 98 -2 41
0 70 4 64 4 -7 9 -1 12 14 3 14 3 28 0 31 -3 2 -6 18 -7 35 l-3 30 29 -21 c24
-17 29 -27 29 -63 0 -23 6 -48 13 -55 10 -11 9 -12 -2 -6 -10 6 -12 2 -7 -13
4 -11 2 -23 -4 -27 -5 -3 -10 1 -10 10 0 15 -1 15 -16 1 -16 -16 -10 -41 7
-31 13 9 11 -18 -5 -67 -8 -24 -20 -69 -27 -100 -14 -60 -29 -77 -29 -33 0 14
-5 25 -11 25 -6 0 -9 6 -6 14 3 8 -2 16 -13 19 -17 4 -19 12 -14 58 5 52 5 53
-10 29 -20 -32 -20 -67 -1 -104 19 -36 19 -36 -8 -36 -13 0 -28 -5 -35 -12 -9
-9 -12 -7 -12 9 0 11 -8 23 -18 25 -12 3 -22 21 -28 51 -9 37 -8 44 3 40 7 -3
13 -9 13 -14 0 -23 20 -6 21 19 1 17 3 21 6 9 6 -22 29 -16 25 7 -2 9 2 16 8
16 7 0 9 8 5 20 -5 14 -2 20 9 20 9 0 16 5 16 10 0 6 -4 10 -9 10 -5 0 -8 8
-7 18 0 9 -5 16 -11 15 -7 -2 -13 4 -13 12 0 8 5 15 10 15 6 0 10 5 10 10 0 6
-11 10 -24 10 -13 0 -27 7 -30 16 -5 12 -1 14 16 8 20 -6 21 -5 9 10 -12 14
-11 16 5 17 11 0 30 13 44 29 30 34 33 35 51 14z m-121 -29 c0 -8 -4 -15 -10
-15 -5 0 -10 7 -10 15 0 8 5 15 10 15 6 0 10 -7 10 -15z m3099 -78 c0 -21 -1
-21 -9 -2 -12 28 -12 37 0 30 6 -3 10 -16 9 -28z m27 -94 c8 -8 14 -19 14 -26
0 -6 -9 -1 -20 11 -13 13 -19 33 -19 54 2 32 2 33 6 4 3 -16 11 -35 19 -43z
m-3091 37 c3 -5 2 -10 -4 -10 -5 0 -13 5 -16 10 -3 6 -2 10 4 10 5 0 13 -4 16
-10z m-15 -55 c0 -8 -4 -15 -10 -15 -5 0 -10 7 -10 15 0 8 5 15 10 15 6 0 10
-7 10 -15z m70 -185 c0 -5 -4 -10 -10 -10 -5 0 -10 5 -10 10 0 6 5 10 10 10 6
0 10 -4 10 -10z m-40 -10 c0 -5 -5 -10 -11 -10 -5 0 -7 5 -4 10 3 6 8 10 11
10 2 0 4 -4 4 -10z m44 -38 c-22 -5 -31 7 -14 18 9 6 17 5 22 -3 4 -7 1 -13
-8 -15z m-124 -2 c0 -5 -4 -10 -10 -10 -5 0 -10 5 -10 10 0 6 5 10 10 10 6 0
10 -4 10 -10z m33 -102 c3 -11 1 -28 -5 -38 -11 -17 -13 -17 -30 5 -21 27 -22
37 -7 52 15 15 36 6 42 -19z m1624 -430 c-3 -8 -6 -5 -6 6 -1 11 2 17 5 13 3
-3 4 -12 1 -19z m623 -12 c0 -3 -4 -8 -10 -11 -5 -3 -10 -1 -10 4 0 6 5 11 10
11 6 0 10 -2 10 -4z m-350 -26 c13 -8 13 -10 -2 -10 -9 0 -20 5 -23 10 -8 13
5 13 25 0z m83 -10 c3 -11 1 -20 -4 -20 -5 0 -9 9 -9 20 0 11 2 20 4 20 2 0 6
-9 9 -20z m-163 -57 c0 -13 5 -23 10 -23 6 0 10 -12 10 -27 -1 -26 -1 -27 -13
-8 -6 11 -17 42 -24 70 -10 43 -9 47 3 30 8 -10 14 -29 14 -42z m93 7 c14 0
18 -3 11 -10 -11 -11 -64 3 -64 16 0 3 7 3 16 0 9 -3 25 -6 37 -6z m41 -79
l-7 -26 -7 25 c-4 14 -3 30 2 37 6 7 7 17 3 23 -3 5 -3 16 2 23 11 16 17 -48
7 -82z m36 69 c0 -5 -5 -10 -11 -10 -5 0 -7 5 -4 10 3 6 8 10 11 10 2 0 4 -4
4 -10z m-122 -38 c8 -23 7 -29 -5 -29 -8 0 -12 6 -8 14 3 8 0 24 -6 35 -7 12
-7 18 -1 14 6 -3 14 -19 20 -34z m159 -14 c-3 -8 -6 -5 -6 6 -1 11 2 17 5 13
3 -3 4 -12 1 -19z m-826 -55 c-9 -15 -10 -12 -10 17 0 29 1 32 10 18 7 -12 7
-24 0 -35z m98 17 c3 -3 11 -21 18 -40 11 -31 11 -33 -2 -16 -8 11 -15 24 -15
29 0 5 -11 7 -25 4 -24 -4 -24 -3 -10 13 8 9 15 23 16 31 0 11 2 11 6 -1 3 -8
9 -17 12 -20z m951 21 c0 -6 -4 -13 -10 -16 -5 -3 -10 1 -10 9 0 9 5 16 10 16
6 0 10 -4 10 -9z m-1020 -122 c0 -6 -4 -7 -10 -4 -5 3 -10 11 -10 16 0 6 5 7
10 4 6 -3 10 -11 10 -16z m-480 -74 c0 -25 -4 -45 -8 -45 -4 0 -9 20 -10 45
-1 25 3 45 8 45 6 0 10 -20 10 -45z m1504 30 c-7 -16 -24 -21 -24 -6 0 8 7 13
27 20 1 1 0 -6 -3 -14z m-1414 -87 c0 -6 -7 -5 -15 2 -8 7 -15 17 -15 22 0 6
7 5 15 -2 8 -7 15 -17 15 -22z m-98 -40 c-8 -8 -9 -4 -5 13 4 13 8 18 11 10 2
-7 -1 -18 -6 -23z m1500 -50 c-7 -7 -12 -8 -12 -2 0 14 12 26 19 19 2 -3 -1
-11 -7 -17z m-1505 -30 c-3 -8 -6 -5 -6 6 -1 11 2 17 5 13 3 -3 4 -12 1 -19z
m-722 -116 c-7 -8 -45 35 -45 50 0 7 11 0 25 -16 14 -16 23 -32 20 -34z m2235
-11 c0 -6 -4 -13 -10 -16 -5 -3 -10 1 -10 9 0 9 5 16 10 16 6 0 10 -4 10 -9z
m-1425 -61 c3 -5 1 -10 -4 -10 -6 0 -11 5 -11 10 0 6 2 10 4 10 3 0 8 -4 11
-10z m840 -25 c69 -13 148 -49 195 -88 31 -25 89 -100 84 -108 -3 -5 4 -19 15
-31 12 -12 21 -25 21 -28 0 -4 11 -5 25 -2 l25 4 0 -458 c0 -421 -12 -1334
-25 -1949 -3 -137 -7 -374 -10 -525 -2 -151 -4 -278 -5 -282 0 -12 -60 -5 -68
8 -6 10 -14 10 -45 -1 -42 -15 -42 -15 -52 43 -6 38 -5 42 14 42 12 0 21 -5
21 -10 0 -6 12 -15 26 -21 21 -7 31 -6 44 6 10 9 24 13 35 9 17 -7 18 0 12
137 -4 79 -12 164 -18 189 -7 29 -9 103 -4 213 5 146 4 168 -9 173 -9 3 -16
14 -16 23 0 28 -30 61 -55 61 -13 0 -26 6 -29 13 -3 6 -4 3 -3 -8 1 -11 -8
-31 -21 -45 -12 -14 -25 -35 -28 -47 -4 -13 -9 -21 -13 -19 -4 3 -23 -8 -42
-25 -44 -38 -114 -60 -201 -65 -79 -4 -131 12 -191 58 -21 17 -40 28 -42 27
-2 -2 -1 -107 2 -233 5 -182 9 -226 18 -212 7 9 19 16 27 16 9 0 23 11 32 25
16 24 50 34 60 16 3 -4 27 -6 53 -3 66 7 103 7 134 -1 23 -6 26 -11 25 -49 -2
-50 -11 -68 -32 -68 -8 0 -28 -7 -45 -15 -62 -33 -216 -36 -243 -6 -7 9 -16
23 -19 31 -3 8 -6 -39 -7 -105 -3 -169 -1 -160 -34 -163 -16 -2 -33 1 -39 7
-14 14 -21 1948 -8 1965 10 14 22 774 11 781 -4 2 -8 119 -8 260 -1 141 -4
260 -7 265 -9 15 -25 2 -25 -21 0 -10 -2 -19 -4 -19 -2 0 -11 -3 -20 -6 -28
-11 -18 28 20 79 64 88 186 153 319 170 58 8 74 7 150 -8z m-1650 -32 c-4 -10
-8 -33 -9 -52 -1 -21 -7 -36 -16 -38 -11 -4 -12 -2 -2 5 9 6 10 16 4 33 -7 17
-5 31 6 46 17 27 27 30 17 6z m2217 -63 c-12 -12 -22 -18 -22 -14 0 12 33 45
38 39 3 -3 -4 -14 -16 -25z m-2228 -317 c-2 -142 -7 -296 -10 -343 -6 -74 -8
-81 -16 -50 -4 19 -5 85 -2 145 3 61 7 200 9 310 1 110 3 201 4 203 0 2 5 1
10 -2 5 -3 7 -122 5 -263z m2233 151 c-19 -18 -27 -21 -27 -10 0 16 40 49 49
40 3 -2 -7 -16 -22 -30z m-1073 -11 c4 -9 2 -21 -3 -26 -7 -7 -7 -16 -1 -28 7
-11 6 -28 -1 -46 -6 -16 -8 -50 -4 -80 5 -37 3 -53 -5 -53 -9 0 -11 32 -9 113
2 61 0 118 -4 125 -5 7 -3 12 6 12 8 0 18 -8 21 -17z m-1129 -23 c3 -5 1 -10
-4 -10 -6 0 -11 5 -11 10 0 6 2 10 4 10 3 0 8 -4 11 -10z m2225 -98 c0 -5 -11
-19 -25 -32 -28 -26 -33 -16 -9 18 15 22 34 30 34 14z m0 -170 c0 -5 -11 -19
-25 -32 -28 -27 -36 -8 -8 22 17 19 33 24 33 10z m-1442 -67 c-3 -3 -9 2 -12
12 -6 14 -5 15 5 6 7 -7 10 -15 7 -18z m340 -215 c0 -123 21 -439 32 -481 7
-24 6 -52 -1 -85 -6 -27 -15 -100 -19 -162 -9 -126 -15 -151 -31 -135 -8 8
-13 50 -19 183 0 13 -1 13 -10 0 -5 -8 -10 -71 -11 -140 -1 -79 -4 -109 -8
-80 -3 25 -4 236 -1 470 3 234 7 376 9 315 5 -170 16 -190 26 -50 13 181 13
184 16 265 1 71 2 72 9 30 5 -25 8 -83 8 -130z m1080 92 c-13 -16 -25 -25 -27
-20 -4 11 28 48 41 48 5 0 -1 -13 -14 -28z m-2219 -116 c-9 -8 -10 -7 -5 7 3
10 7 24 7 30 1 7 3 4 6 -7 3 -10 -1 -23 -8 -30z m2231 -34 c0 -5 -9 -17 -20
-27 -22 -20 -26 -14 -10 16 11 19 30 26 30 11z m-2249 -49 c-9 -16 -10 -15
-11 8 0 14 3 29 8 33 12 12 14 -22 3 -41z m819 6 c0 -6 -4 -7 -10 -4 -5 3 -10
11 -10 16 0 6 5 7 10 4 6 -3 10 -11 10 -16z m-785 -19 c3 -5 1 -10 -4 -10 -6
0 -11 5 -11 10 0 6 2 10 4 10 3 0 8 -4 11 -10z m-72 -45 c-3 -9 -8 -14 -10
-11 -3 3 -2 9 2 15 9 16 15 13 8 -4z m17 -55 c0 -5 -4 -10 -10 -10 -5 0 -10 5
-10 10 0 6 5 10 10 10 6 0 10 -4 10 -10z m2254 -25 c-26 -19 -31 -9 -8 16 11
12 20 16 22 9 2 -6 -4 -17 -14 -25z m-2124 -109 c0 -19 -4 -38 -10 -41 -6 -4
-10 10 -10 34 0 23 5 41 10 41 6 0 10 -15 10 -34z m2138 -38 c-2 -6 -10 -14
-16 -16 -7 -2 -10 2 -6 12 7 18 28 22 22 4z m-2146 -58 c-2 -22 -6 -40 -8 -40
-2 0 -4 18 -4 40 0 22 3 40 8 40 4 0 6 -18 4 -40z m-73 -27 c0 -5 -4 -17 -9
-28 -8 -18 -9 -17 -9 8 -1 15 4 27 9 27 6 0 10 -3 9 -7z m38 -50 c-3 -10 -5
-4 -5 12 0 17 2 24 5 18 2 -7 2 -21 0 -30z m-61 -29 c-3 -9 -6 -18 -6 -20 0
-2 -8 -4 -17 -3 -11 0 -13 3 -5 6 6 2 12 11 12 19 0 8 5 14 11 14 6 0 8 -7 5
-16z m2244 8 c0 -4 -9 -15 -20 -25 -22 -19 -25 -15 -10 14 11 19 30 26 30 11z
m-2183 -34 c2 -17 0 -19 -7 -8 -5 8 -6 18 -4 22 8 12 10 10 11 -14z m-87 -29
c0 -6 -4 -7 -10 -4 -5 3 -10 11 -10 16 0 6 5 7 10 4 6 -3 10 -11 10 -16z m70
1 c0 -5 -5 -10 -11 -10 -5 0 -7 5 -4 10 3 6 8 10 11 10 2 0 4 -4 4 -10z m-100
-54 c-7 -7 -10 1 -9 25 0 32 1 33 10 10 6 -16 6 -28 -1 -35z m149 -111 c1 -79
-3 -136 -9 -140 -6 -3 -10 -30 -10 -60 0 -30 -4 -57 -10 -60 -12 -8 -13 25 -1
96 14 78 21 270 10 263 -5 -3 -9 6 -9 20 0 18 4 24 14 20 11 -4 14 -34 15
-139z m-104 95 c-3 -54 -15 -64 -15 -13 0 33 6 53 15 53 1 0 1 -18 0 -40z m41
4 c-4 -14 -9 -24 -12 -21 -3 2 -2 17 2 31 3 15 9 25 11 22 3 -3 2 -17 -1 -32z
m1161 -76 c-2 -24 -4 -7 -4 37 0 44 2 63 4 43 2 -21 2 -57 0 -80z m1058 31
c-4 -5 -13 -9 -22 -9 -13 0 -13 3 -3 15 13 15 35 11 25 -6z m-2308 -61 c-3 -7
-5 -2 -5 12 0 14 2 19 5 13 2 -7 2 -19 0 -25z m33 -4 c0 -8 -5 -12 -10 -9 -6
4 -8 11 -5 16 9 14 15 11 15 -7z m80 -85 c0 -5 -4 -9 -10 -9 -5 0 -10 7 -10
16 0 8 5 12 10 9 6 -3 10 -10 10 -16z m2175 -19 c-10 -11 -20 -18 -23 -15 -7
6 18 35 31 35 5 0 2 -9 -8 -20z m-2285 -4 c0 -3 -4 -8 -10 -11 -5 -3 -10 -1
-10 4 0 6 5 11 10 11 6 0 10 -2 10 -4z m1209 -45 c-15 -5 -22 6 -14 19 6 9 10
9 16 -1 5 -8 4 -15 -2 -18z m-1122 -26 c1 -19 -2 -37 -7 -40 -9 -6 -22 53 -14
66 11 19 20 8 21 -26z m1170 -7 c-3 -7 -5 -2 -5 12 0 14 2 19 5 13 2 -7 2 -19
0 -25z m-108 -115 c-1 -54 -3 -69 -8 -48 -7 29 -3 125 5 125 2 0 4 -35 3 -77z
m51 37 c0 -22 5 -40 10 -40 6 0 10 -9 10 -20 0 -11 -6 -19 -12 -17 -7 1 -14
-9 -16 -22 -3 -18 0 -22 12 -18 13 5 16 -1 16 -34 0 -24 -4 -38 -10 -34 -6 4
-10 -14 -10 -46 0 -45 -2 -50 -15 -39 -12 10 -15 41 -15 161 0 126 2 149 15
149 11 0 15 -11 15 -40z m-1123 -12 c-3 -7 -5 -2 -5 12 0 14 2 19 5 13 2 -7 2
-19 0 -25z m2215 10 c-7 -7 -12 -8 -12 -2 0 14 12 26 19 19 2 -3 -1 -11 -7
-17z m-1055 -60 c-2 -13 -4 -5 -4 17 -1 22 1 32 4 23 2 -10 2 -28 0 -40z
m-1120 10 c-3 -7 -5 -2 -5 12 0 14 2 19 5 13 2 -7 2 -19 0 -25z m-147 -98 c0
-5 -5 -10 -11 -10 -5 0 -7 5 -4 10 3 6 8 10 11 10 2 0 4 -4 4 -10z m2330 0 c0
-5 -5 -10 -11 -10 -5 0 -7 5 -4 10 3 6 8 10 11 10 2 0 4 -4 4 -10z m-1153
-162 c-2 -18 -4 -6 -4 27 0 33 2 48 4 33 2 -15 2 -42 0 -60z m1153 -2 c0 -3
-4 -8 -10 -11 -5 -3 -10 -1 -10 4 0 6 5 11 10 11 6 0 10 -2 10 -4z m-1106 -52
c4 -9 3 -26 0 -38 -7 -21 -7 -21 -15 -1 -11 28 -11 55 0 55 5 0 12 -7 15 -16z
m-47 -136 c-3 -8 -6 -5 -6 6 -1 11 2 17 5 13 3 -3 4 -12 1 -19z m35 -173 c-2
-19 -7 -33 -11 -30 -9 5 -1 65 8 65 4 0 5 -16 3 -35z m798 -151 c0 -37 -4 -47
-20 -51 -25 -7 -25 -12 -2 -29 12 -10 14 -16 6 -21 -7 -5 -14 -49 -17 -103 -8
-150 -16 -166 -41 -86 -9 29 -24 62 -31 72 -8 11 -15 28 -15 40 0 11 -5 25
-12 32 -8 8 -8 30 2 89 7 43 16 83 21 88 4 6 30 11 58 12 l51 3 0 -46z m320
26 c0 -5 -5 -10 -11 -10 -5 0 -7 5 -4 10 3 6 8 10 11 10 2 0 4 -4 4 -10z
m-1121 -197 c1 -17 5 -34 10 -37 5 -3 9 -27 9 -53 0 -27 9 -72 21 -101 37 -94
23 -162 -34 -162 -30 0 -31 6 -27 240 3 112 7 177 12 165 5 -11 9 -34 9 -52z
m656 -45 c-3 -13 -9 -59 -14 -103 l-8 -80 -2 80 c-1 85 6 125 20 125 5 0 7
-10 4 -22z m-688 -20 c-3 -7 -5 -2 -5 12 0 14 2 19 5 13 2 -7 2 -19 0 -25z
m732 -47 c6 -37 5 -54 -5 -62 -13 -11 -15 -7 -28 54 -6 25 10 75 20 64 3 -2 8
-28 13 -56z m100 13 c-7 -18 -13 -24 -16 -16 -3 8 1 25 8 39 17 32 23 15 8
-23z m-449 -50 c0 -8 -5 -12 -10 -9 -6 4 -8 11 -5 16 9 14 15 11 15 -7z m-383
-56 c-2 -13 -4 -5 -4 17 -1 22 1 32 4 23 2 -10 2 -28 0 -40z m-5 -80 c-9 -9
-12 -4 -11 23 0 32 1 33 11 11 8 -17 8 -26 0 -34z m11 -265 c5 -7 17 -13 27
-13 10 0 22 -4 25 -10 4 -6 -10 -10 -33 -10 l-40 0 -3 73 c-2 39 -2 104 1 142
4 63 5 59 10 -50 3 -66 9 -126 13 -132z m863 181 c-3 -9 -6 -25 -6 -37 0 -20
0 -20 -14 -2 -10 15 -11 23 -2 37 13 22 30 24 22 2z m-89 -76 c-3 -7 -5 -2 -5
12 0 14 2 19 5 13 2 -7 2 -19 0 -25z m-127 -23 c-7 -9 -15 -13 -18 -10 -3 2 1
11 8 20 7 9 15 13 18 10 3 -2 -1 -11 -8 -20z m-107 -292 c-35 -2 -91 -2 -125
0 -35 2 -7 3 62 3 69 0 97 -1 63 -3z"/>
<path d="M165 6390 c20 -22 31 -20 22 5 -4 8 -14 15 -23 15 -16 0 -16 -2 1
-20z"/>
<path d="M337 6431 c-4 -17 -3 -21 5 -13 5 5 8 16 6 23 -3 8 -7 3 -11 -10z"/>
<path d="M365 6430 c-3 -5 -2 -10 4 -10 5 0 13 5 16 10 3 6 2 10 -4 10 -5 0
-13 -4 -16 -10z"/>
<path d="M257 5993 c-4 -3 -7 -11 -7 -17 0 -6 5 -5 12 2 6 6 9 14 7 17 -3 3
-9 2 -12 -2z"/>
<path d="M101 5924 c0 -11 3 -14 6 -6 3 7 2 16 -1 19 -3 4 -6 -2 -5 -13z"/>
<path d="M1712 4483 c-19 -17 -21 -30 -24 -185 l-2 -166 27 -27 c40 -41 43
-62 12 -91 -33 -30 -33 -30 -28 4 4 24 3 25 -8 8 -7 -11 -9 -36 -5 -62 3 -24
2 -45 -2 -48 -5 -3 -6 -24 -3 -47 5 -38 10 -44 39 -51 32 -8 32 -9 33 -71 4
-243 -11 -729 -22 -702 -7 19 -8 19 -8 -2 -1 -14 -7 -23 -16 -23 -13 0 -15
-43 -17 -317 -1 -175 -2 -325 -2 -333 1 -8 4 -25 8 -37 7 -21 4 -23 -36 -23
-45 -1 -73 -16 -92 -49 -6 -11 -23 -40 -38 -64 -24 -39 -28 -59 -34 -157 -6
-88 -4 -114 6 -120 11 -7 11 -11 1 -24 -11 -13 -11 -22 -1 -45 16 -38 58 -58
146 -66 87 -9 133 10 133 54 -1 14 4 45 9 68 6 29 6 46 -2 54 -8 8 -8 13 2 16
16 6 15 50 -4 131 -29 126 -36 149 -62 205 -2 5 8 7 24 5 26 -3 28 0 30 29 1
22 -2 30 -11 26 -23 -8 -28 73 -22 365 6 278 12 358 28 368 5 3 9 -13 9 -35 0
-40 5 -48 25 -33 6 4 10 145 10 387 0 379 0 380 -22 402 -22 21 -22 26 -23
305 -2 334 -1 308 -14 308 -6 0 -5 4 3 9 11 7 10 13 -6 30 -19 21 -21 21 -41
4z m48 -2543 c0 -5 -4 -10 -9 -10 -6 0 -13 5 -16 10 -3 6 1 10 9 10 9 0 16 -4
16 -10z"/>
<path d="M1545 4480 c-18 -8 -18 -9 -1 -9 16 -1 16 -3 -5 -26 -18 -18 -25 -21
-27 -10 -2 8 -10 15 -19 15 -13 0 -13 -3 -3 -15 7 -9 10 -18 6 -22 -3 -3 -6
-1 -6 6 0 7 -6 11 -14 8 -7 -3 -19 0 -25 6 -23 23 -29 -15 -28 -169 l0 -153
27 -6 c15 -3 38 -17 50 -30 30 -32 21 -88 -18 -113 -19 -12 -26 -24 -24 -40 3
-17 -2 -25 -17 -29 -24 -6 -28 -23 -5 -23 9 0 14 -7 13 -17 -6 -37 11 -62 36
-57 13 2 27 -2 32 -8 12 -19 3 -760 -9 -775 -15 -19 -38 -16 -40 5 0 9 0 185
2 390 2 370 2 372 -18 372 l-21 0 0 -716 c0 -524 -3 -730 -12 -770 -7 -30 -10
-56 -7 -59 3 -3 29 10 58 30 29 19 64 38 79 41 14 3 31 7 38 9 17 5 17 693 0
713 -19 24 -10 761 10 783 15 18 25 189 11 189 -4 0 -4 7 -1 17 4 11 3 14 -5
9 -8 -5 -12 0 -12 14 0 12 4 19 9 16 16 -10 21 38 21 234 l0 195 -28 1 c-15 1
-36 -2 -47 -6z"/>
<path d="M1861 4443 c0 -10 -4 -36 -10 -58 -6 -22 -11 -65 -13 -95 -1 -46 -3
-42 -8 30 l-6 85 -2 -90 c-1 -61 2 -95 11 -104 6 -8 7 -11 2 -8 -7 4 -12 -59
-14 -194 l-3 -199 42 0 41 0 -3 78 c-2 52 -8 85 -19 102 -30 44 -32 67 -7 92
22 22 23 32 26 173 4 144 -5 205 -27 205 -5 0 -10 -8 -10 -17z"/>
<path d="M1976 4248 c2 -150 2 -148 13 -148 10 0 2 251 -9 263 -3 4 -6 -48 -4
-115z"/>
<path d="M2050 4126 c0 -39 -25 -95 -33 -74 -4 10 -6 10 -6 0 -1 -7 6 -15 14
-18 25 -10 17 -39 -14 -51 -32 -12 -41 -38 -30 -90 4 -20 3 -34 -5 -37 -7 -3
-6 -8 4 -15 13 -10 13 -11 0 -11 -12 -1 -11 -3 3 -11 34 -20 39 -2 21 74 -4
16 -2 27 4 27 24 0 46 -332 33 -508 -9 -121 -6 -176 9 -152 4 6 7 82 8 168 1
86 5 198 9 247 6 88 6 89 19 55 l12 -35 1 37 c1 20 -3 38 -8 40 -4 2 -4 32 1
68 14 97 18 209 8 234 -8 20 -9 20 -10 1 l-1 -20 -9 20 c-5 11 -9 35 -9 53 -1
43 -21 42 -21 -2z"/>
<path d="M1661 3763 c0 -31 2 -34 9 -18 12 28 12 55 0 55 -5 0 -10 -17 -9 -37z"/>
<path d="M1660 3484 c-1 -115 -3 -264 -6 -331 -6 -120 -6 -123 15 -123 14 0
23 8 27 27 11 44 -15 615 -29 629 -4 4 -7 -87 -7 -202z"/>
<path d="M1911 3414 c0 -11 3 -14 6 -6 3 7 2 16 -1 19 -3 4 -6 -2 -5 -13z"/>
<path d="M2111 3200 c-1 -63 2 -99 8 -95 10 6 9 180 -1 190 -3 4 -7 -39 -7
-95z"/>
<path d="M2040 3202 c0 -10 -5 -23 -11 -29 -6 -6 -11 -45 -10 -91 1 -53 -4
-90 -14 -109 -13 -25 -13 -28 1 -31 8 -2 22 -1 31 2 12 5 13 9 4 20 -7 8 -9
26 -5 42 9 41 17 214 10 214 -3 0 -6 -8 -6 -18z"/>
<path d="M1922 3100 c0 -19 2 -27 5 -17 2 9 2 25 0 35 -3 9 -5 1 -5 -18z"/>
<path d="M2065 3110 c-3 -5 -1 -10 4 -10 6 0 11 5 11 10 0 6 -2 10 -4 10 -3 0
-8 -4 -11 -10z"/>
<path d="M1910 3034 c0 -8 5 -12 10 -9 6 4 8 11 5 16 -9 14 -15 11 -15 -7z"/>
<path d="M1818 3015 c-3 -3 -4 -122 -1 -263 2 -141 0 -300 -5 -352 l-10 -95
26 -20 c15 -11 39 -33 54 -50 15 -16 39 -42 53 -56 14 -15 25 -35 25 -44 0
-14 3 -15 15 -5 8 7 15 20 15 30 0 24 11 32 24 16 6 -7 23 -16 37 -20 26 -6
26 -5 32 62 11 112 8 280 -5 301 -9 15 -9 25 0 46 7 15 10 31 7 36 -9 14 -33
11 -43 -7 -5 -9 -23 -16 -44 -17 -34 -1 -35 -1 -36 -46 -4 -114 -16 -136 -63
-110 -19 10 -20 21 -18 294 0 156 -2 288 -6 294 -6 11 -48 15 -57 6z m176
-535 c13 0 40 -86 30 -101 -3 -5 0 -17 7 -25 14 -17 14 -18 -29 -32 -41 -14
-47 -3 -38 65 4 27 7 64 8 83 1 19 3 29 5 23 3 -7 10 -13 17 -13z m-14 -202
c0 -16 -3 -19 -11 -11 -6 6 -8 16 -5 22 11 17 16 13 16 -11z m80 -8 c0 -5 -2
-10 -4 -10 -3 0 -8 5 -11 10 -3 6 -1 10 4 10 6 0 11 -4 11 -10z m-50 -50 c0
-5 -4 -10 -10 -10 -5 0 -10 5 -10 10 0 6 5 10 10 10 6 0 10 -4 10 -10z"/>
<path d="M2112 2970 c0 -19 2 -27 5 -17 2 9 2 25 0 35 -3 9 -5 1 -5 -18z"/>
<path d="M2060 1093 c0 -5 5 -15 10 -23 8 -12 10 -11 10 8 0 12 -4 22 -10 22
-5 0 -10 -3 -10 -7z"/>
<path d="M1225 3318 c-9 -59 -3 -79 10 -35 6 18 8 44 4 57 -5 21 -7 17 -14
-22z"/>
<path d="M1222 3040 c0 -14 2 -19 5 -12 2 6 2 18 0 25 -3 6 -5 1 -5 -13z"/>
<path d="M50 6150 c0 -5 7 -10 15 -10 8 0 15 5 15 10 0 6 -7 10 -15 10 -8 0
-15 -4 -15 -10z"/>
<path d="M1 6119 c-1 -26 4 -39 15 -43 13 -5 14 -3 6 6 -5 7 -12 27 -15 43 -4
28 -4 28 -6 -6z"/>
<path d="M2 5983 c-2 -53 11 -75 31 -53 9 10 8 12 -5 7 -14 -5 -18 2 -21 46
l-3 52 -2 -52z"/>
<path d="M10 5730 c0 -19 3 -21 12 -12 9 9 9 15 0 24 -9 9 -12 7 -12 -12z"/>
<path d="M150 5659 c0 -5 5 -7 10 -4 6 3 10 8 10 11 0 2 -4 4 -10 4 -5 0 -10
-5 -10 -11z"/>
<path d="M11 5603 c-1 -12 4 -25 9 -28 12 -7 12 2 0 30 -8 19 -9 19 -9 -2z"/>
<path d="M65 5588 c-11 -30 -9 -61 4 -66 10 -3 12 0 7 13 -4 13 -2 16 9 11 11
-4 15 2 15 24 0 31 -26 43 -35 18z"/>
<path d="M65 5440 c-3 -5 -1 -10 4 -10 6 0 11 5 11 10 0 6 -2 10 -4 10 -3 0
-8 -4 -11 -10z"/>
<path d="M30 5401 c0 -25 6 -27 13 -6 4 8 2 17 -3 20 -6 4 -10 -3 -10 -14z"/>
<path d="M1 5368 c0 -27 4 -48 9 -48 6 0 10 -7 10 -15 0 -8 5 -15 10 -15 6 0
10 9 10 20 0 11 -4 20 -9 20 -4 0 -13 19 -18 43 l-11 42 -1 -47z"/>
<path d="M50 5358 c0 -7 5 -20 10 -28 8 -12 10 -11 10 7 0 12 -4 25 -10 28 -5
3 -10 0 -10 -7z"/>
<path d="M85 5360 c3 -5 8 -10 11 -10 2 0 4 5 4 10 0 6 -5 10 -11 10 -5 0 -7
-4 -4 -10z"/>
<path d="M90 5321 c-13 -26 -13 -38 1 -24 6 6 18 9 26 6 13 -5 13 -2 4 15 -14
27 -18 27 -31 3z"/>
<path d="M158 5293 c-19 -5 -25 -33 -8 -33 6 0 10 5 10 10 0 6 9 10 21 10 11
0 17 5 14 10 -6 10 -9 11 -37 3z"/>
<path d="M0 5246 c0 -14 5 -28 10 -31 6 -4 10 7 10 24 0 17 -4 31 -10 31 -5 0
-10 -11 -10 -24z"/>
<path d="M135 5196 c-4 -24 -5 -52 -3 -62 2 -11 8 9 14 44 5 34 7 62 3 62 -4
0 -11 -20 -14 -44z"/>
<path d="M70 5223 c0 -5 5 -15 10 -23 8 -12 10 -11 10 8 0 12 -4 22 -10 22 -5
0 -10 -3 -10 -7z"/>
<path d="M50 5138 c0 -23 3 -38 7 -35 9 10 10 77 1 77 -4 0 -8 -19 -8 -42z"/>
<path d="M0 5126 c0 -25 16 -43 28 -31 3 3 1 10 -6 14 -7 4 -10 15 -6 24 3 10
1 17 -5 17 -6 0 -11 -11 -11 -24z"/>
<path d="M0 5025 c0 -20 4 -26 17 -23 10 2 19 12 21 23 3 11 1 17 -3 13 -5 -4
-14 -3 -22 3 -10 9 -13 6 -13 -16z"/>
<path d="M36 4934 c-11 -28 -6 -49 14 -64 29 -21 25 -30 -10 -20 -17 5 -30 5
-30 1 0 -11 56 -41 64 -34 14 15 5 63 -14 73 -15 8 -19 17 -14 35 7 28 0 34
-10 9z"/>
<path d="M0 4806 c0 -24 2 -26 21 -16 11 7 19 13 17 14 -1 1 -11 8 -20 15 -16
12 -18 11 -18 -13z"/>
<path d="M91 4804 c0 -11 3 -14 6 -6 3 7 2 16 -1 19 -3 4 -6 -2 -5 -13z"/>
<path d="M57 4778 c-6 -23 -1 -38 12 -38 11 0 11 49 1 55 -4 3 -10 -5 -13 -17z"/>
<path d="M85 4770 c-3 -5 1 -10 9 -10 9 0 16 5 16 10 0 6 -4 10 -9 10 -6 0
-13 -4 -16 -10z"/>
<path d="M17 4744 c12 -3 24 -13 27 -22 3 -12 4 -11 3 3 -2 14 -10 21 -27 22
-21 1 -21 1 -3 -3z"/>
<path d="M6 4704 c-11 -27 -7 -37 9 -24 16 14 20 40 6 40 -5 0 -12 -7 -15 -16z"/>
<path d="M41 4684 c0 -11 3 -14 6 -6 3 7 2 16 -1 19 -3 4 -6 -2 -5 -13z"/>
<path d="M9 4643 c-10 -12 -11 -17 -2 -20 7 -2 9 -11 6 -20 -4 -11 -3 -14 6
-9 7 4 10 13 8 19 -2 7 0 20 5 30 11 22 -5 23 -23 0z"/>
<path d="M8 4173 c-10 -18 -8 -103 2 -103 11 0 13 15 11 69 -1 36 -6 48 -13
34z"/>
<path d="M167 4063 c-4 -3 -7 -20 -6 -37 l1 -31 9 34 c10 33 8 47 -4 34z"/>
<path d="M6 3845 c-3 -8 -1 -15 4 -15 6 0 10 7 10 15 0 8 -2 15 -4 15 -2 0 -6
-7 -10 -15z"/>
</g>
</svg>
