<?xml version="1.0" standalone="no"?>
<!DOCTYPE svg PUBLIC "-//W3C//DTD SVG 20010904//EN"
 "http://www.w3.org/TR/2001/REC-SVG-20010904/DTD/svg10.dtd">
<svg version="1.0" xmlns="http://www.w3.org/2000/svg"
 width="300.000000pt" height="300.000000pt" viewBox="0 0 300.000000 300.000000"
 preserveAspectRatio="xMidYMid meet">

<g transform="translate(0.000000,365.000000) scale(0.100000,-0.100000)"
fill="#000000" stroke="none">
<path d="M0 3485 c0 -140 2 -165 15 -165 8 0 15 9 15 20 0 15 7 20 25 20 l26
0 -2 -120 c-1 -117 -7 -139 -28 -102 -9 14 -10 13 -11 -11 0 -21 4 -27 18 -25
16 3 17 -8 13 -135 -4 -157 5 -242 21 -213 5 9 7 23 4 31 -2 7 6 21 19 29 24
16 24 16 15 -10 -6 -15 -20 -40 -31 -55 -11 -16 -18 -29 -14 -29 3 0 1 -9 -5
-20 -7 -13 -13 -108 -15 -239 l-4 -218 49 -12 c44 -11 48 -15 47 -39 -2 -25
-6 -27 -48 -30 l-46 -3 -7 -192 c-4 -106 -9 -252 -12 -324 -5 -118 -4 -133 10
-133 22 0 20 -17 -1 -23 -10 -3 -3 -5 15 -6 24 -1 31 2 25 12 -10 15 -11 157
0 157 11 0 27 -47 27 -80 0 -56 -2 -55 158 -52 81 2 149 6 152 9 3 3 -8 16
-25 29 l-30 24 26 0 c19 0 28 -6 32 -22 5 -18 8 -19 21 -9 13 11 17 9 26 -13
5 -14 16 -26 25 -26 12 0 15 13 15 62 0 85 12 66 14 -23 0 -46 5 -74 13 -76 7
-3 13 10 15 37 3 39 19 56 26 28 2 -9 0 -8 -7 2 -9 13 -11 13 -11 -1 0 -23 26
-31 40 -14 7 8 16 13 20 10 5 -3 6 5 4 17 l-5 23 13 -23 c8 -16 8 -26 1 -30
-7 -5 -6 -17 2 -36 12 -28 13 -29 19 -8 11 32 24 27 28 -10 l3 -32 160 0 160
1 5 44 c4 32 7 39 12 26 5 -10 8 -30 8 -43 0 -18 5 -24 21 -24 11 0 17 5 14
10 -3 6 -2 10 4 10 5 0 13 -4 16 -10 3 -5 17 -10 30 -10 l24 0 -2 170 c-2 120
1 170 9 170 8 0 11 -71 12 -242 1 -134 1 -248 2 -254 0 -15 60 -24 82 -12 13
6 18 5 18 -6 0 -17 -58 -49 -72 -40 -5 3 -1 12 9 20 24 18 9 18 -27 -1 -27
-14 -32 -12 -29 11 2 16 -28 20 -108 16 -64 -3 -88 0 -94 10 -7 10 -9 10 -9 1
0 -18 -167 -18 -173 0 -3 9 -9 8 -23 -4 -14 -12 -49 -18 -128 -22 -59 -3 -111
-8 -114 -11 -4 -5 11 -52 45 -143 3 -6 -9 -14 -27 -18 -30 -7 -31 -8 -14 -26
9 -10 26 -21 38 -25 11 -4 47 -19 78 -35 32 -15 58 -23 58 -18 0 5 20 9 44 9
43 0 44 -1 50 -38 5 -36 9 -39 68 -60 35 -12 71 -22 81 -22 9 0 17 -5 17 -11
0 -8 4 -8 14 0 16 13 56 -1 56 -19 0 -5 7 -7 15 -4 8 4 12 10 9 16 -10 16 28
48 58 48 28 0 29 -2 26 -37 -2 -20 -9 -38 -16 -41 -11 -3 -14 4 -11 24 1 10
-24 23 -32 18 -12 -7 2 -44 17 -44 8 0 23 -9 33 -19 16 -16 22 -17 31 -6 8 10
8 14 -1 17 -16 5 25 48 46 48 21 0 19 -16 -5 -40 -25 -25 -25 -40 0 -40 11 0
20 -7 20 -15 0 -8 6 -12 14 -9 8 3 24 1 35 -6 17 -9 21 -8 21 4 0 10 -6 13
-17 9 -15 -5 -14 -3 2 10 19 15 19 16 2 23 -10 4 -16 13 -13 21 4 11 1 13 -14
8 -14 -5 -20 -2 -20 9 0 18 12 20 38 7 9 -6 30 -12 45 -16 28 -6 29 -7 23 -53
-4 -26 -2 -54 4 -62 5 -8 10 -10 11 -5 3 41 22 75 40 75 5 0 9 -25 9 -55 0
-55 19 -80 21 -27 0 15 3 21 6 15 2 -7 11 -13 19 -13 8 0 14 -8 15 -17 0 -11
3 -13 6 -5 13 33 21 3 22 -85 l1 -97 -25 24 c-27 26 -30 24 -16 -13 8 -21 6
-26 -10 -30 -10 -3 -19 0 -19 6 -1 7 -9 2 -19 -10 -15 -18 -29 -21 -81 -22
-34 0 -65 -3 -69 -7 -3 -3 13 -5 36 -2 l41 3 -19 -25 c-41 -55 -47 -60 -71
-60 -14 0 -38 7 -55 15 -17 8 -57 18 -91 21 -85 9 -85 10 -69 85 8 35 17 71
21 80 5 11 1 19 -11 24 -14 5 -30 -6 -66 -47 -27 -29 -54 -52 -60 -50 -6 2
-21 1 -34 -3 -28 -7 -31 -35 -3 -35 23 0 25 -9 8 -32 -12 -15 -26 -10 -138 44
-69 33 -126 64 -128 69 -2 5 -9 9 -15 9 -7 0 -32 14 -57 30 -25 17 -99 58
-165 91 -66 34 -127 67 -135 73 -8 7 -42 25 -75 40 -33 15 -67 32 -75 37 -70
42 -70 42 -70 12 0 -30 11 -38 112 -83 27 -11 48 -25 48 -31 0 -6 5 -7 11 -3
6 3 23 -3 38 -14 16 -11 48 -26 71 -32 24 -7 57 -22 74 -35 41 -30 127 -73
160 -79 27 -5 149 -74 154 -88 2 -4 9 -8 16 -8 7 0 20 -8 29 -17 8 -10 36 -27
61 -38 l46 -20 0 -102 c0 -75 -3 -103 -12 -104 -7 -1 -19 -2 -27 -3 -30 -2
-19 -22 29 -55 41 -28 72 -39 153 -54 56 -10 116 -20 132 -22 20 -2 30 -8 29
-19 -2 -14 46 -15 462 -16 275 0 464 4 464 9 0 5 25 11 55 13 40 2 55 0 55
-10 0 -10 28 -13 130 -11 l130 2 0 58 c0 39 -11 88 -34 155 -19 54 -32 102
-30 106 11 18 23 6 26 -24 2 -25 8 -33 23 -33 19 0 20 8 23 108 l3 107 -26 0
c-24 0 -25 -3 -25 -55 0 -67 -20 -74 -21 -7 -3 122 0 360 5 387 3 17 1 44 -3
60 l-9 30 -1 -27 c-1 -23 -6 -28 -25 -28 -13 0 -26 6 -29 13 -10 28 -22 -10
-28 -91 -3 -48 -7 -79 -7 -69 -1 12 -6 15 -14 11 -10 -6 -10 -5 -1 7 8 9 9 20
3 29 -8 13 -10 12 -10 -2 0 -13 -12 -17 -60 -20 l-60 -3 0 62 c0 34 5 65 10
68 6 3 10 2 10 -4 0 -10 14 -9 42 4 21 8 13 29 -8 21 -8 -3 -17 1 -20 8 -3 8
-19 19 -35 25 -16 5 -29 16 -29 24 0 18 117 34 133 18 37 -37 42 -1 53 409 3
129 8 238 10 241 9 16 6 422 -4 428 -5 3 -12 15 -15 26 -4 18 -5 18 -6 -2 0
-13 -6 -23 -12 -23 -7 0 -9 -10 -5 -25 4 -14 2 -25 -3 -25 -4 0 -9 -39 -10
-87 -1 -47 -4 -89 -6 -93 -2 -4 -5 -77 -5 -162 l-2 -156 -51 1 c-29 0 -69 -3
-89 -7 l-37 -8 0 54 0 54 30 -4 29 -4 0 328 c1 181 3 399 6 484 5 138 3 161
-15 210 -21 59 -35 67 -37 22 -1 -16 -4 -39 -8 -53 -3 -14 0 -10 10 10 8 18
17 31 20 28 3 -3 0 -15 -6 -27 -6 -12 -12 -53 -13 -91 -1 -38 -5 -69 -8 -69
-3 0 -5 -24 -6 -52 0 -32 -4 -53 -11 -54 -7 -1 -22 -2 -34 -3 -21 -1 -21 -2
-3 -14 10 -8 15 -19 11 -25 -6 -11 6 -16 27 -13 4 0 7 -88 7 -197 0 -186 1
-200 20 -217 39 -35 20 -85 -32 -85 -20 0 -26 -4 -22 -15 4 -9 0 -15 -10 -15
-9 0 -16 -5 -16 -10 0 -6 6 -9 13 -8 9 2 13 -29 15 -124 2 -83 -1 -128 -8
-128 -9 0 -15 50 -12 105 0 11 -2 14 -4 8 -3 -7 -23 -13 -45 -13 l-39 0 -1 53
c0 81 3 258 6 295 2 17 -1 34 -6 37 -4 3 -6 12 -2 20 3 10 -2 15 -16 15 -20 0
-21 5 -21 90 l0 90 -42 1 c-87 3 -93 4 -93 19 0 25 119 36 168 15 16 -7 17 6
19 171 3 292 3 295 -11 304 -11 6 -11 15 -2 40 9 28 9 31 -4 20 -13 -11 -14
-10 -9 4 5 13 2 17 -12 16 -10 -1 -28 -2 -39 -1 -16 1 -13 5 13 18 20 10 31
21 28 29 -5 13 6 18 27 15 4 0 7 3 7 8 0 13 -151 17 -445 11 l-251 -5 -3 -90
c-6 -203 -11 -299 -16 -304 -3 -2 -10 0 -16 6 -7 7 -9 82 -7 220 l3 211 -81
12 c-80 11 -141 32 -73 24 19 -2 59 -6 90 -10 61 -7 75 1 64 36 -6 19 -15 20
-219 20 -117 0 -216 3 -219 7 -4 3 1 12 11 19 11 9 13 13 4 14 -7 0 -10 5 -7
10 3 6 26 10 51 10 24 0 45 3 45 8 1 4 2 35 3 69 2 49 6 66 21 78 34 25 50 14
53 -38 l3 -47 39 0 c21 0 45 -3 54 -6 13 -5 16 1 16 25 0 34 3 36 49 20 29
-10 31 -14 31 -60 0 -55 15 -64 50 -29 19 19 20 33 20 204 0 154 -2 185 -15
190 -8 3 -15 0 -15 -5 0 -7 -10 -5 -25 5 -13 9 -32 16 -40 16 -12 0 -15 6 -10
19 3 11 1 22 -5 26 -18 11 -12 55 8 55 28 -1 52 -25 52 -54 0 -22 4 -26 30
-26 25 0 30 4 30 25 0 17 6 25 16 25 15 0 16 -18 12 -185 -5 -179 -5 -185 14
-185 11 0 22 9 25 20 3 13 13 19 28 18 16 -2 21 -7 17 -20 -2 -10 1 -18 7 -18
6 0 11 6 11 13 0 8 3 8 8 1 4 -6 15 -13 24 -17 10 -3 20 -17 24 -31 5 -21 12
-25 55 -28 27 -1 49 -2 49 0 0 2 -8 11 -17 20 -16 16 -16 17 0 20 9 2 17 8 17
13 0 6 -4 8 -8 5 -4 -2 -14 -1 -22 5 -12 7 -10 9 7 9 18 0 22 7 26 43 2 23 4
-11 5 -77 2 -101 0 -117 -13 -112 -8 3 -25 1 -37 -4 -20 -8 -18 -9 14 -9 29
-1 36 -4 32 -16 -5 -12 3 -15 40 -15 27 0 46 -5 46 -11 0 -7 -20 -10 -52 -9
-89 4 -130 1 -123 -10 3 -6 -1 -7 -9 -4 -33 13 -17 34 25 34 24 0 38 4 34 10
-4 6 -55 10 -121 10 -107 0 -114 -1 -114 -20 0 -18 7 -20 75 -20 41 0 75 -4
75 -8 0 -5 -33 -8 -72 -8 -67 1 -73 -1 -73 -19 0 -19 9 -20 225 -26 124 -4
248 -8 275 -9 112 -6 197 0 193 13 -3 6 -22 14 -44 17 l-39 5 42 8 c44 7 60
27 22 27 -11 0 -18 3 -16 8 6 9 -209 9 -219 -1 -11 -11 -74 -8 -74 3 0 6 17
10 38 11 31 0 33 2 16 9 -32 13 -37 27 -15 47 11 10 21 32 24 48 7 52 17 65
49 65 23 0 29 4 24 15 -3 9 0 15 9 15 11 0 10 5 -5 20 -12 12 -18 25 -15 30
10 16 33 12 44 -7 6 -10 11 -13 11 -6 0 7 29 14 78 18 l79 7 2 48 c2 46 1 48
-30 54 -46 9 -107 7 -113 -3 -3 -5 -32 -12 -63 -16 -32 -4 -65 -13 -74 -21
-38 -34 -102 -19 -118 28 -6 15 -17 31 -26 34 -8 3 -15 10 -15 16 0 5 4 6 10
3 5 -3 24 2 41 10 27 15 40 15 94 5 35 -7 73 -9 84 -5 12 4 21 2 21 -4 0 -23
82 -32 226 -25 79 4 144 11 144 15 0 5 7 9 16 9 8 0 12 -5 9 -11 -5 -7 7 -8
39 -4 25 4 57 4 71 1 22 -6 23 -9 13 -26 -7 -10 -20 -21 -30 -23 -11 -3 -16
-11 -12 -20 3 -9 -4 -21 -18 -31 -12 -9 -17 -16 -11 -16 6 0 23 14 36 30 14
17 29 26 32 20 3 -5 1 -10 -6 -10 -6 0 0 -11 15 -25 26 -24 46 -32 46 -19 0 4
-7 12 -16 19 -21 15 -26 64 -8 82 8 8 14 11 14 7 0 -4 6 0 13 9 10 14 17 14
50 4 37 -12 42 -20 38 -67 -1 -20 1 -22 9 -10 8 12 10 9 10 -15 0 -37 17 -22
22 20 l3 30 136 -4 c132 -3 136 -3 142 18 5 20 1 21 -59 21 -41 0 -64 4 -64
11 0 9 22 10 75 6 l75 -5 0 37 c0 20 -5 42 -12 49 -19 19 -2 25 36 11 41 -15
51 -9 60 40 6 31 5 33 -19 27 -14 -4 -25 -2 -25 4 0 5 13 10 28 10 26 0 30 5
39 45 l10 45 -31 1 -31 1 28 11 c15 6 27 14 27 19 0 4 -104 8 -230 8 l-231 0
2 -107 c1 -68 6 -111 13 -115 8 -6 7 -8 -1 -8 -20 0 -15 -28 5 -33 16 -4 16
-5 -1 -6 -12 -1 -15 -5 -11 -13 4 -7 9 -22 10 -34 2 -22 2 -22 -17 -3 -10 10
-27 19 -36 19 -10 0 -14 4 -8 8 6 4 11 15 11 25 1 12 -6 17 -24 17 -25 0 -25
-1 -6 -14 10 -8 16 -18 12 -22 -4 -4 -14 -2 -21 5 -12 9 -13 38 -9 146 l5 135
-547 0 -546 0 0 -55 c0 -42 -4 -55 -15 -55 -17 0 -18 47 -1 69 8 10 8 15 -2
18 -6 3 -10 9 -6 14 3 5 -235 9 -595 9 l-601 0 0 -165z m2740 141 c0 -11 -19
-15 -25 -6 -3 5 1 10 9 10 9 0 16 -2 16 -4z m47 -12 c-3 -3 -12 -4 -19 -1 -8
3 -5 6 6 6 11 1 17 -2 13 -5z m-1847 -24 c0 -5 -5 -10 -11 -10 -5 0 -7 5 -4
10 3 6 8 10 11 10 2 0 4 -4 4 -10z m1835 -5 c6 -2 -30 -3 -80 -4 -49 0 -82 4
-71 8 17 7 129 4 151 -4z m62 -1 c-3 -3 -12 -4 -19 -1 -8 3 -5 6 6 6 11 1 17
-2 13 -5z m-232 -24 c-3 -5 -14 -10 -23 -9 -14 0 -13 2 3 9 27 11 27 11 20 0z
m173 -8 c7 -5 -12 -8 -43 -8 -30 1 -55 4 -55 9 0 9 82 9 98 -1z m-1838 -52 c0
-31 -4 -39 -17 -38 -10 0 -25 -2 -34 -6 -10 -5 -19 -1 -22 8 -5 12 0 16 21 16
26 0 28 3 26 35 -2 26 0 33 11 28 10 -3 15 -19 15 -43z m277 14 c-3 -3 -12 -4
-19 -1 -8 3 -5 6 6 6 11 1 17 -2 13 -5z m223 -24 c-8 -5 -17 -6 -20 -3 -3 3 1
8 8 10 6 3 9 10 6 16 -4 7 -1 7 7 -1 12 -11 12 -14 -1 -22z m1288 23 c-10 -2
-26 -2 -35 0 -10 3 -2 5 17 5 19 0 27 -2 18 -5z m-1246 -33 c-6 -16 -11 -20
-16 -11 -4 6 -2 19 5 27 16 20 21 12 11 -16z m960 4 c-13 -9 -26 -13 -30 -9
-8 8 17 25 38 25 9 0 6 -6 -8 -16z m176 -1 c-10 -2 -26 -2 -35 0 -10 3 -2 5
17 5 19 0 27 -2 18 -5z m146 -5 c-7 -11 -56 -10 -74 2 -11 7 -2 9 32 8 26 -1
45 -5 42 -10z m-1746 -34 c-4 -3 -12 5 -18 18 -12 22 -12 22 6 6 10 -10 15
-20 12 -24z m1200 29 c-16 -2 -40 -2 -55 0 -16 2 -3 4 27 4 30 0 43 -2 28 -4z
m-864 -37 c2 -14 -1 -23 -5 -20 -5 3 -9 17 -9 31 0 32 11 24 14 -11z m106 30
c0 -2 3 -11 6 -20 5 -13 -1 -16 -25 -16 -33 0 -39 8 -19 28 11 11 38 17 38 8z
m638 -3 c-10 -2 -28 -2 -40 0 -13 2 -5 4 17 4 22 1 32 -1 23 -4z m452 -7 c0
-2 -9 -6 -20 -9 -11 -3 -20 -1 -20 4 0 5 9 9 20 9 11 0 20 -2 20 -4z m47 -2
c-3 -3 -12 -4 -19 -1 -8 3 -5 6 6 6 11 1 17 -2 13 -5z m-1667 -27 c10 -4 8 -6
-7 -6 -16 -1 -23 5 -23 17 0 10 3 13 8 6 4 -6 14 -14 22 -17z m1773 16 c-7 -2
-19 -2 -25 0 -7 3 -2 5 12 5 14 0 19 -2 13 -5z m-1698 -13 c3 -5 1 -10 -4 -10
-6 0 -11 5 -11 10 0 6 2 10 4 10 3 0 8 -4 11 -10z m457 -17 c-6 -2 -9 -9 -6
-14 3 -6 -10 -9 -30 -7 -58 4 -42 26 19 26 17 0 24 -2 17 -5z m-299 -53 c-3
-11 -9 -20 -14 -20 -11 0 -11 3 -3 24 9 23 23 20 17 -4z m132 10 c3 -5 1 -10
-4 -10 -6 0 -11 5 -11 10 0 6 2 10 4 10 3 0 8 -4 11 -10z m942 -6 c-3 -3 -12
-4 -19 -1 -8 3 -5 6 6 6 11 1 17 -2 13 -5z m-1120 -45 c-5 -4 -6 -12 -3 -18 4
-6 3 -11 -2 -11 -17 0 -22 30 -9 50 11 18 12 19 18 2 3 -9 2 -20 -4 -23z m230
-21 c-3 -8 -6 -5 -6 6 -1 11 2 17 5 13 3 -3 4 -12 1 -19z m-207 -33 c0 -8 -4
-15 -9 -15 -13 0 -22 16 -14 24 11 11 23 6 23 -9z m350 -15 c0 -4 -16 -4 -35
-2 -35 4 -46 17 -23 24 13 5 58 -13 58 -22z m-400 10 c0 -6 -21 -10 -47 -9
-37 1 -42 3 -23 8 40 11 70 12 70 1z m6 -105 c15 -11 16 -14 3 -15 -8 0 -24 7
-35 15 -15 11 -16 14 -3 15 8 0 24 -7 35 -15z m1 -43 c-18 -4 -57 15 -57 27 0
5 16 1 36 -8 22 -10 30 -17 21 -19z m-979 -17 c-3 -3 -9 2 -12 12 -6 14 -5 15
5 6 7 -7 10 -15 7 -18z m1284 -17 c-7 -7 -12 -8 -12 -2 0 14 12 26 19 19 2 -3
-1 -11 -7 -17z m-1262 -31 c0 -5 -4 -5 -10 -2 -5 3 -10 14 -10 23 0 15 2 15
10 2 5 -8 10 -19 10 -23z m550 -17 c0 -17 6 -33 14 -36 23 -9 7 -33 -20 -30
-25 3 -46 16 -26 16 7 0 12 16 12 40 0 22 5 40 10 40 6 0 10 -14 10 -30z
m-420 -30 c0 -5 -5 -10 -11 -10 -5 0 -7 5 -4 10 3 6 8 10 11 10 2 0 4 -4 4
-10z m450 -59 c0 -6 -16 -11 -35 -11 -21 0 -37 -6 -43 -16 -6 -11 -11 -13 -16
-5 -10 15 -29 14 -20 -1 5 -10 4 -10 -5 -2 -6 6 -9 17 -6 25 7 17 125 27 125
10z m613 -8 c-7 -2 -21 -2 -30 0 -10 3 -4 5 12 5 17 0 24 -2 18 -5z m-637 -28
c-8 -8 -19 -15 -25 -15 -6 0 -11 7 -11 15 0 9 10 15 26 15 23 0 24 -2 10 -15z
m-496 -5 c0 -5 -2 -10 -4 -10 -3 0 -8 5 -11 10 -3 6 -1 10 4 10 6 0 11 -4 11
-10z m758 -17 c-10 -2 -26 -2 -35 0 -10 3 -2 5 17 5 19 0 27 -2 18 -5z m-817
-26 c-10 -9 -11 -8 -5 6 3 10 9 15 12 12 3 -3 0 -11 -7 -18z m319 -26 c0 -5 3
-17 7 -27 5 -14 2 -16 -15 -12 -18 5 -22 2 -22 -17 0 -23 -25 -41 -35 -25 -3
5 -12 7 -20 3 -8 -3 -15 0 -15 6 0 6 4 11 8 11 5 0 17 7 28 15 18 14 17 14
-10 5 -22 -8 -32 -8 -39 2 -6 9 -7 7 -3 -6 6 -19 -9 -46 -25 -46 -5 0 -9 7 -9
15 0 8 -5 15 -11 15 -6 0 -3 7 5 16 9 8 16 20 16 25 0 6 14 8 32 5 18 -3 37
-1 43 3 9 8 34 16 58 20 4 0 7 -3 7 -8z m1030 -51 c0 -5 -2 -10 -4 -10 -3 0
-8 5 -11 10 -3 6 -1 10 4 10 6 0 11 -4 11 -10z m265 -20 c3 -5 15 -10 26 -10
12 0 17 -4 13 -11 -3 -6 -1 -22 6 -35 10 -18 16 -21 27 -13 9 8 13 8 13 0 0
-6 9 -11 20 -11 24 0 27 -32 5 -50 -9 -8 -15 -8 -15 -2 0 6 6 13 13 15 6 3 -6
6 -28 6 -30 1 -36 4 -25 11 13 8 12 10 -4 10 -12 0 -16 5 -12 15 4 11 -1 15
-17 15 -16 0 -18 3 -8 9 11 7 11 10 0 17 -8 5 -23 9 -33 9 -10 0 -20 8 -22 18
-2 19 30 25 41 7z m-1451 -40 c-6 -5 -24 21 -24 34 0 6 6 1 14 -10 8 -10 12
-21 10 -24z m996 20 c-12 -22 -30 -27 -30 -8 0 6 -10 3 -22 -8 -12 -10 -19
-14 -16 -9 3 6 8 18 11 28 4 11 17 17 37 17 28 0 30 -2 20 -20z m110 10 c0 -5
8 -7 18 -3 9 3 14 2 10 -2 -10 -10 -68 -14 -68 -5 0 11 12 20 27 20 7 0 13 -4
13 -10z m-1190 -10 c0 -5 -4 -10 -9 -10 -6 0 -13 5 -16 10 -3 6 1 10 9 10 9 0
16 -4 16 -10z m1273 -4 c4 -10 1 -13 -8 -9 -8 3 -12 9 -9 14 7 12 11 11 17 -5z
m97 3 c0 -6 -4 -8 -9 -5 -5 4 -11 1 -13 -6 -3 -8 -6 -7 -10 3 -4 10 1 15 13
16 10 1 19 -3 19 -8z m108 -10 c2 -5 13 -9 25 -10 20 0 20 -1 4 -8 -10 -4 -18
-10 -18 -14 1 -4 0 -19 0 -34 l-1 -28 -8 30 c-6 24 -8 26 -9 8 0 -13 -6 -23
-12 -23 -5 0 -8 4 -4 9 3 5 -2 16 -10 25 -14 13 -13 16 2 25 17 10 17 10 -2
12 -11 1 -28 0 -39 -1 -11 -1 -16 3 -11 9 3 6 10 9 15 6 5 -3 12 -1 15 5 7 12
48 3 53 -11z m-351 5 c-3 -3 -12 -4 -19 -1 -8 3 -5 6 6 6 11 1 17 -2 13 -5z
m-914 -16 c31 -1 57 -6 57 -9 0 -14 -31 -39 -47 -39 -9 0 -25 -7 -35 -16 -14
-14 -20 -14 -33 -4 -18 15 -20 40 -2 41 6 0 2 4 -10 9 -27 11 -31 34 -5 26 9
-3 43 -7 75 -8z m1022 -17 c-6 -5 -25 10 -25 20 0 5 6 4 14 -3 8 -7 12 -15 11
-17z m50 -1 c3 -5 2 -10 -4 -10 -5 0 -13 5 -16 10 -3 6 -2 10 4 10 5 0 13 -4
16 -10z m31 -25 c-11 -8 -15 -15 -10 -15 6 0 11 -7 11 -15 0 -8 -4 -15 -9 -15
-4 0 -8 5 -8 10 0 6 -10 10 -22 10 -19 0 -17 3 12 19 42 24 52 26 26 6z m114
5 c13 -9 13 -10 0 -10 -13 0 -13 -1 0 -10 13 -8 12 -10 -2 -10 -10 0 -18 2
-18 4 0 2 -3 11 -6 20 -7 18 4 20 26 6z m-82 -14 c-7 -8 -15 -12 -17 -11 -5 6
10 25 20 25 5 0 4 -6 -3 -14z m-1098 -15 c0 -5 -7 -14 -15 -21 -12 -10 -15
-10 -15 2 0 8 3 18 7 21 9 10 23 9 23 -2z m1267 -33 c-3 -8 -6 -5 -6 6 -1 11
2 17 5 13 3 -3 4 -12 1 -19z m-1407 -128 c0 -5 -5 -10 -11 -10 -5 0 -7 5 -4
10 3 6 8 10 11 10 2 0 4 -4 4 -10z m950 -10 c0 -5 -4 -10 -10 -10 -5 0 -10 5
-10 10 0 6 5 10 10 10 6 0 10 -4 10 -10z m240 -17 c0 -29 -2 -29 -19 5 -10 18
-9 22 4 22 10 0 15 -9 15 -27z m325 -73 c3 -5 1 -10 -4 -10 -6 0 -11 5 -11 10
0 6 2 10 4 10 3 0 8 -4 11 -10z m-655 -20 c0 -16 7 -20 33 -21 l32 -1 -30 -7
-30 -6 -6 -95 c-3 -52 -7 -79 -8 -60 -2 19 -3 41 -2 48 1 6 -2 12 -6 12 -7 0
-8 33 -4 128 1 27 21 30 21 2z m615 10 c-3 -5 -10 -10 -16 -10 -5 0 -9 5 -9
10 0 6 7 10 16 10 8 0 12 -4 9 -10z m-257 -17 c-10 -2 -28 -2 -40 0 -13 2 -5
4 17 4 22 1 32 -1 23 -4z m-1090 -30 c-10 -2 -28 -2 -40 0 -13 2 -5 4 17 4 22
1 32 -1 23 -4z m615 0 c-13 -2 -33 -2 -45 0 -13 2 -3 4 22 4 25 0 35 -2 23 -4z
m-953 -38 c11 -13 8 -15 -14 -15 -16 0 -26 5 -26 15 0 8 6 15 14 15 7 0 19 -7
26 -15z m290 -5 c0 -5 -7 -7 -15 -4 -8 4 -15 8 -15 10 0 2 7 4 15 4 8 0 15 -4
15 -10z m45 -12 c39 -18 32 -38 -14 -38 -22 0 -43 5 -46 11 -4 6 0 9 11 7 13
-2 18 2 16 15 -3 20 -1 21 33 5z m980 -18 c8 -13 -5 -13 -25 0 -13 8 -13 10 2
10 9 0 20 -4 23 -10z m-995 -40 c0 -13 -20 -13 -40 0 -12 8 -9 10 13 10 15 0
27 -4 27 -10z m-234 -49 c-13 -20 -26 -11 -26 16 0 25 1 26 16 11 9 -9 13 -21
10 -27z m1299 -11 c-3 -5 -12 -10 -18 -10 -7 0 -6 4 3 10 19 12 23 12 15 0z
m-50 -27 c5 -13 15 -23 21 -23 13 0 24 -23 24 -51 0 -12 -5 -16 -14 -13 -8 3
-17 1 -21 -5 -9 -16 -75 -14 -75 2 0 14 -35 47 -49 47 -5 0 -11 -5 -13 -12 -2
-6 -10 -8 -16 -4 -20 12 -30 40 -22 61 7 18 17 20 81 20 67 0 75 -2 84 -22z
m168 -13 c-3 -10 -11 -25 -19 -31 -8 -6 -14 -22 -14 -35 0 -13 -4 -24 -10 -24
-12 0 -13 37 -1 44 4 3 6 18 3 32 -3 16 -1 25 5 21 5 -3 15 -2 23 4 8 5 16 9
17 9 0 0 -1 -9 -4 -20z m91 -28 c-1 -21 2 -30 10 -25 6 3 8 3 4 -1 -3 -4 -9
-7 -13 -7 -3 1 -17 -12 -32 -29 -18 -21 -31 -29 -44 -25 -15 5 -17 3 -12 -11
4 -12 2 -15 -8 -10 -8 3 -22 9 -31 12 -10 4 -18 11 -18 16 0 6 7 8 15 4 8 -3
15 0 15 7 0 25 25 67 40 67 8 0 21 9 28 21 20 31 47 20 46 -19z m72 5 c1 -17
-1 -26 -3 -19 -6 17 -23 15 -23 -3 0 -8 -4 -15 -10 -15 -5 0 -10 2 -10 5 0 9
25 50 35 57 6 4 10 8 10 8 0 0 0 -15 1 -33z m0 -105 c2 -56 14 -68 14 -14 0
23 5 42 10 42 6 0 10 -20 10 -45 0 -40 3 -45 23 -46 l22 -2 -22 -4 c-15 -3
-23 -12 -23 -24 0 -11 5 -17 10 -14 6 3 10 3 11 -2 0 -4 2 -16 4 -25 2 -11 -2
-15 -11 -11 -10 3 -14 -2 -14 -18 -1 -21 -2 -22 -11 -6 -6 9 -11 33 -12 52 -2
18 -5 36 -8 39 -9 9 -109 12 -109 3 0 -5 -6 -4 -14 2 -11 9 -15 9 -19 -1 -3
-10 -9 -9 -23 5 -18 17 -18 18 9 45 21 21 30 24 36 14 6 -10 17 -5 46 23 50
47 70 43 71 -13z m-411 14 c11 -7 37 -12 58 -12 33 2 41 -3 58 -31 21 -33 19
-72 -4 -74 -7 -1 -19 -2 -27 -3 -8 -1 -23 5 -32 12 -9 8 -22 11 -27 7 -17 -10
-51 5 -51 22 0 10 -6 14 -19 10 -17 -4 -18 -1 -11 25 7 22 5 30 -6 35 -7 3
-14 9 -14 14 0 14 53 11 75 -5z m-828 -28 c-3 -7 -5 -2 -5 12 0 14 2 19 5 13
2 -7 2 -19 0 -25z m1043 -8 c0 -5 -4 -10 -10 -10 -5 0 -10 5 -10 10 0 6 5 10
10 10 6 0 10 -4 10 -10z m-423 -32 c-3 -8 -6 -5 -6 6 -1 11 2 17 5 13 3 -3 4
-12 1 -19z m-620 -50 c-3 -7 -5 -2 -5 12 0 14 2 19 5 13 2 -7 2 -19 0 -25z
m620 -45 c-2 -16 -4 -5 -4 22 0 28 2 40 4 28 2 -13 2 -35 0 -50z m511 18 c4
-43 -5 -52 -50 -45 -30 5 -35 10 -31 28 11 48 12 49 30 35 14 -12 16 -12 11 2
-5 12 -1 16 15 15 17 -1 23 -8 25 -35z m79 23 c-3 -3 -12 -4 -19 -1 -8 3 -5 6
6 6 11 1 17 -2 13 -5z m-167 -18 c0 -11 -19 -15 -25 -6 -3 5 1 10 9 10 9 0 16
-2 16 -4z m-1041 -23 c0 -10 -4 -36 -9 -58 -8 -38 -8 -37 -7 18 1 31 5 57 9
57 5 0 8 -8 7 -17z m1271 -145 c0 -63 -4 -98 -9 -92 -16 16 -17 194 -1 194 6
0 10 -41 10 -102z m-790 57 c0 -14 -4 -25 -10 -25 -5 0 -10 11 -10 25 0 14 5
25 10 25 6 0 10 -11 10 -25z m100 11 c0 -2 -7 -9 -15 -16 -13 -11 -14 -10 -9
4 5 14 24 23 24 12z m370 -55 c0 -6 -4 -12 -8 -15 -5 -3 -9 1 -9 9 0 8 4 15 9
15 4 0 8 -4 8 -9z m747 -63 c-3 -7 -5 -2 -5 12 0 14 2 19 5 13 2 -7 2 -19 0
-25z m-1914 -16 c-2 -6 6 -12 16 -12 21 0 37 -17 27 -27 -6 -6 -86 43 -86 53
0 3 10 4 23 2 12 -2 21 -9 20 -16z m874 -24 c-3 -8 -6 -5 -6 6 -1 11 2 17 5
13 3 -3 4 -12 1 -19z m470 -40 c-3 -7 -5 -2 -5 12 0 14 2 19 5 13 2 -7 2 -19
0 -25z m-216 0 l0 -23 9 23 c7 16 18 22 38 22 39 0 51 -17 40 -58 -8 -29 -11
-31 -29 -21 -11 6 -23 8 -26 5 -3 -3 -12 2 -20 12 -12 16 -13 16 -7 -3 4 -15
3 -16 -4 -5 -15 25 -23 70 -12 70 5 0 10 -10 11 -22z m-361 -10 c0 -6 -6 -5
-15 2 -8 7 -15 14 -15 16 0 2 7 1 15 -2 8 -4 15 -11 15 -16z m110 12 c0 -5 -5
-10 -11 -10 -5 0 -7 5 -4 10 3 6 8 10 11 10 2 0 4 -4 4 -10z m610 -20 c0 -5
-5 -10 -11 -10 -5 0 -7 5 -4 10 3 6 8 10 11 10 2 0 4 -4 4 -10z m140 -52 c0
-13 -7 -18 -30 -18 -23 0 -30 5 -30 19 0 15 7 19 30 19 22 -1 30 -6 30 -20z
m-140 -3 c0 -8 -4 -15 -10 -15 -5 0 -10 7 -10 15 0 8 5 15 10 15 6 0 10 -7 10
-15z m108 -43 c2 -7 -3 -12 -12 -12 -9 0 -16 7 -16 16 0 17 22 14 28 -4z m24
-4 c-7 -7 -12 -8 -12 -2 0 6 3 14 7 17 3 4 9 5 12 2 2 -3 -1 -11 -7 -17z m255
-10 c-3 -8 -6 -5 -6 6 -1 11 2 17 5 13 3 -3 4 -12 1 -19z m-107 -3 c0 -8 5
-15 10 -15 6 0 10 -16 10 -36 l0 -36 -27 18 c-39 25 -53 40 -53 58 0 13 9 17
53 25 4 0 7 -6 7 -14z m-742 -5 c9 -1 0 -10 -21 -21 -44 -23 -54 -20 -37 11 7
13 17 19 27 16 8 -3 22 -6 31 -6z m803 -12 c1 -13 1 -29 0 -35 -1 -8 10 -13
26 -13 16 0 39 -7 51 -16 20 -14 22 -23 22 -106 0 -89 0 -90 -22 -85 -90 20
-87 20 -84 1 2 -11 11 -20 22 -22 32 -5 74 -24 74 -33 0 -5 -4 -9 -10 -9 -5 0
-10 -7 -10 -16 0 -10 -6 -14 -15 -11 -8 4 -17 2 -20 -3 -4 -6 1 -10 10 -10 9
0 23 -6 31 -14 15 -16 19 -30 6 -22 -4 2 -14 1 -22 -4 -8 -5 -22 -4 -33 2 -14
7 -22 7 -27 -2 -6 -9 -10 -8 -17 5 -11 19 -19 20 -161 15 -53 -2 -87 -7 -80
-12 18 -11 -107 -10 -155 1 -47 11 -48 12 -41 36 4 17 12 19 50 17 40 -4 44
-2 45 19 1 20 2 21 6 5 4 -15 7 -16 14 -5 7 11 9 11 9 1 0 -7 4 -11 9 -8 4 3
40 -3 80 -14 39 -11 100 -20 136 -20 63 0 65 1 65 25 0 16 6 25 15 25 8 0 15
-9 15 -20 0 -11 6 -20 14 -20 24 0 6 50 -20 56 -19 5 -24 13 -25 40 -1 19 -2
40 -3 46 -1 7 7 14 17 16 11 2 17 -3 17 -14 0 -13 3 -15 11 -7 6 6 11 39 12
74 2 56 0 64 -15 61 -15 -2 -18 5 -18 48 0 48 19 73 21 28z m-891 -8 c-6 -11
-15 -20 -20 -20 -16 0 -11 18 8 29 24 14 24 14 12 -9z m315 3 c34 3 26 -22
-16 -53 -44 -32 -57 -33 -44 -3 5 10 9 22 9 27 1 5 8 11 16 13 13 4 13 3 0 -6
-22 -16 1 -13 30 4 24 13 24 14 -17 10 -32 -3 -43 0 -43 10 0 11 6 12 23 6 13
-5 32 -9 42 -8z m371 -10 c-10 -10 -19 5 -10 18 6 11 8 11 12 0 2 -7 1 -15 -2
-18z m-516 4 c0 -7 -6 -19 -12 -26 -10 -11 -10 -13 0 -7 14 8 15 5 6 -19 -4
-9 -24 -25 -46 -36 -23 -12 -36 -24 -32 -31 4 -6 3 -8 -4 -4 -6 3 -22 2 -36
-4 -51 -19 -27 14 34 48 33 18 60 35 60 38 0 3 -34 -13 -75 -35 -41 -23 -77
-41 -80 -41 -11 0 -4 48 10 60 14 11 152 69 168 70 4 0 7 -6 7 -13z m210 -1
c0 -2 -7 -6 -15 -10 -8 -3 -15 -1 -15 4 0 6 7 10 15 10 8 0 15 -2 15 -4z m270
-17 c-7 -11 -14 -18 -17 -15 -8 8 5 36 17 36 7 0 7 -6 0 -21z m288 -4 c-3 -3
-9 2 -12 12 -6 14 -5 15 5 6 7 -7 10 -15 7 -18z m-724 0 c-4 -8 -8 -15 -10
-15 -2 0 -4 7 -4 15 0 8 4 15 10 15 5 0 7 -7 4 -15z m589 -27 c-5 -10 -33 10
-33 23 0 5 9 4 19 -3 11 -7 17 -16 14 -20z m-423 8 c0 -8 -4 -17 -9 -21 -12
-7 -24 12 -16 25 9 15 25 12 25 -4z m45 4 c-3 -5 -13 -10 -21 -10 -8 0 -12 5
-9 10 3 6 13 10 21 10 8 0 12 -4 9 -10z m65 -1 c0 -6 -6 -9 -14 -6 -7 3 -19 0
-25 -6 -8 -8 -11 -8 -11 0 0 12 16 21 38 22 6 1 12 -4 12 -10z m200 -14 c0
-14 -4 -25 -10 -25 -5 0 -10 11 -10 25 0 14 5 25 10 25 6 0 10 -11 10 -25z
m-41 -2 c0 -5 -4 -17 -9 -28 -8 -18 -9 -17 -9 8 -1 15 4 27 9 27 6 0 10 -3 9
-7z m-353 -35 c-1 -14 -9 -24 -20 -26 -10 -2 -16 0 -14 5 3 4 8 16 11 26 9 24
24 21 23 -5z m588 -13 c-4 -8 -8 -15 -10 -15 -2 0 -4 7 -4 15 0 8 4 15 10 15
5 0 7 -7 4 -15z m-770 -44 c3 -5 -1 -11 -9 -15 -9 -3 -15 0 -15 9 0 16 16 20
24 6z m126 -12 c0 -5 -13 -9 -30 -9 -18 0 -30 5 -30 13 0 9 10 12 30 9 17 -2
30 -8 30 -13z m420 17 c0 -2 -7 -7 -16 -10 -8 -3 -12 -2 -9 4 6 10 25 14 25 6z
m210 -17 c0 -6 -4 -7 -10 -4 -5 3 -10 11 -10 16 0 6 5 7 10 4 6 -3 10 -11 10
-16z m-703 -5 c-3 -3 -12 -4 -19 -1 -8 3 -5 6 6 6 11 1 17 -2 13 -5z m283 -24
c0 -31 -16 -41 -26 -15 -5 13 11 45 22 45 2 0 4 -13 4 -30z m43 16 c3 -8 0
-17 -8 -19 -17 -7 -25 1 -18 19 7 18 19 18 26 0z m87 -5 c0 -11 -100 -64 -107
-57 -3 2 4 9 14 15 10 5 34 19 53 30 42 24 40 23 40 12z m-336 -23 c3 -13 6
-33 6 -45 0 -13 5 -23 10 -23 16 0 12 -40 -5 -57 -9 -9 -26 -13 -40 -11 -17 4
-25 0 -28 -14 -3 -10 -10 -18 -16 -18 -12 0 -15 78 -5 130 6 29 10 32 40 28
18 -2 30 0 28 4 -3 4 -18 8 -35 8 -16 0 -29 5 -29 10 0 6 15 10 34 10 26 0 35
-5 40 -22z m436 8 c0 -2 -7 -7 -16 -10 -8 -3 -12 -2 -9 4 6 10 25 14 25 6z
m43 -15 c2 -10 1 -25 -4 -32 -6 -10 -9 -4 -9 19 0 36 5 42 13 13z m-828 -1
c-3 -5 -11 -10 -16 -10 -6 0 -7 5 -4 10 3 6 11 10 16 10 6 0 7 -4 4 -10z m802
-12 c-3 -8 -6 -5 -6 6 -1 11 2 17 5 13 3 -3 4 -12 1 -19z m-332 -38 c-9 -15
-22 -12 -29 7 -9 21 16 37 27 17 4 -8 5 -19 2 -24z m-405 21 c0 -5 -7 -11 -15
-15 -15 -5 -20 5 -8 17 9 10 23 9 23 -2z m686 -16 c5 -12 10 -13 20 -4 11 9
14 7 14 -11 0 -16 -4 -20 -16 -16 -9 3 -22 6 -30 6 -8 0 -14 9 -14 20 0 24 18
27 26 5z m-726 -5 c0 -5 -2 -10 -4 -10 -3 0 -8 5 -11 10 -3 6 -1 10 4 10 6 0
11 -4 11 -10z m520 0 c0 -5 -5 -10 -11 -10 -5 0 -7 5 -4 10 3 6 8 10 11 10 2
0 4 -4 4 -10z m-40 -20 c0 -5 -5 -10 -11 -10 -5 0 -7 5 -4 10 3 6 8 10 11 10
2 0 4 -4 4 -10z m-463 -32 c-3 -7 -5 -2 -5 12 0 14 2 19 5 13 2 -7 2 -19 0
-25z m368 22 c3 -5 1 -10 -4 -10 -6 0 -11 5 -11 10 0 6 2 10 4 10 3 0 8 -4 11
-10z m41 -25 c-11 -8 -25 -15 -30 -15 -6 0 -2 7 8 15 11 8 25 15 30 15 6 0 2
-7 -8 -15z m469 -5 c3 -6 -1 -7 -9 -4 -18 7 -21 14 -7 14 6 0 13 -4 16 -10z
m-945 -30 c0 -13 -11 -13 -30 0 -12 8 -11 10 8 10 12 0 22 -4 22 -10z m400 -4
c0 -3 -4 -8 -10 -11 -5 -3 -10 -1 -10 4 0 6 5 11 10 11 6 0 10 -2 10 -4z
m-170 -36 c0 -11 -7 -20 -15 -20 -18 0 -19 6 -2 25 16 19 17 18 17 -5z m30 0
c0 -5 -4 -10 -10 -10 -5 0 -10 5 -10 10 0 6 5 10 10 10 6 0 10 -4 10 -10z
m220 6 c0 -2 -7 -7 -16 -10 -8 -3 -12 -2 -9 4 6 10 25 14 25 6z m49 -33 c-1
-21 -3 -30 -6 -20 -2 9 -8 15 -13 12 -4 -3 -13 2 -19 9 -9 11 -9 16 0 21 6 4
15 1 20 -6 7 -11 9 -10 9 4 0 9 2 17 5 17 3 0 4 -17 4 -37z m42 -6 c-17 -17
-24 -1 -9 22 11 18 14 19 16 5 2 -9 -1 -21 -7 -27z m-261 18 c0 -2 -15 -12
-32 -20 l-33 -16 25 20 c24 20 40 26 40 16z m349 -11 c5 -5 11 -39 14 -77 7
-77 7 -79 47 -107 l30 -21 -6 33 c-6 32 -6 33 10 11 20 -27 11 -56 -15 -48
-11 3 -29 8 -41 11 -28 7 -100 54 -111 71 -4 7 -16 13 -25 14 -14 0 -13 3 6
16 25 17 30 53 7 53 -20 0 -19 4 7 33 22 25 59 30 77 11z m-549 2 c0 -2 -7 -7
-16 -10 -8 -3 -12 -2 -9 4 6 10 25 14 25 6z m40 -21 c0 -8 -4 -15 -9 -15 -5 0
-12 -8 -14 -17 -3 -10 -5 -3 -6 15 -1 22 4 32 14 32 8 0 15 -7 15 -15z m25 6
c3 -5 1 -12 -5 -16 -5 -3 -10 1 -10 9 0 18 6 21 15 7z m265 -21 c0 -5 3 -9 8
-9 4 1 16 1 27 0 20 -2 20 -2 1 -16 -11 -8 -28 -13 -37 -10 -11 4 -19 0 -22
-12 -3 -12 -5 -8 -6 10 0 15 4 27 10 27 5 0 7 5 4 10 -3 6 -1 10 4 10 6 0 11
-4 11 -10z m-460 -10 c0 -5 -4 -10 -9 -10 -6 0 -13 5 -16 10 -3 6 1 10 9 10 9
0 16 -4 16 -10z m245 0 c-3 -5 -10 -10 -16 -10 -5 0 -9 5 -9 10 0 6 7 10 16
10 8 0 12 -4 9 -10z m-165 -25 c0 -8 -4 -17 -10 -20 -6 -4 -10 5 -10 20 0 15
4 24 10 20 6 -3 10 -12 10 -20z m200 21 c0 -3 -4 -8 -10 -11 -5 -3 -10 -1 -10
4 0 6 5 11 10 11 6 0 10 -2 10 -4z m-253 -28 c-3 -8 -6 -5 -6 6 -1 11 2 17 5
13 3 -3 4 -12 1 -19z m91 -9 c-21 -14 -26 -10 -21 11 4 16 8 18 20 9 11 -10
11 -14 1 -20z m432 4 c0 -20 -3 -24 -9 -14 -5 7 -14 10 -20 7 -6 -4 -16 -4
-23 0 -8 5 -2 12 17 20 17 7 31 13 33 14 1 0 2 -12 2 -27z m31 4 c-10 -9 -11
-8 -5 6 3 10 9 15 12 12 3 -3 0 -11 -7 -18z m-251 9 c0 -2 -7 -7 -16 -10 -8
-3 -12 -2 -9 4 6 10 25 14 25 6z m17 -38 c-3 -7 -5 -2 -5 12 0 14 2 19 5 13 2
-7 2 -19 0 -25z m-460 16 c-3 -3 -12 -4 -19 -1 -8 3 -5 6 6 6 11 1 17 -2 13
-5z m38 -4 c-3 -5 -10 -10 -16 -10 -5 0 -9 5 -9 10 0 6 7 10 16 10 8 0 12 -4
9 -10z m229 -11 c-3 -5 -13 -8 -22 -7 -10 2 -16 -3 -14 -10 1 -8 -2 -11 -9 -6
-9 5 -5 13 10 26 23 18 47 16 35 -3z m258 -1 c-7 -7 -12 -8 -12 -2 0 14 12 26
19 19 2 -3 -1 -11 -7 -17z m-212 4 c0 -13 -12 -22 -22 -16 -10 6 -1 24 13 24
5 0 9 -4 9 -8z m280 -37 c-7 -8 -17 -12 -24 -8 -6 4 -17 8 -24 9 -27 4 -24 13
9 27 29 12 35 12 42 0 5 -8 4 -20 -3 -28z m-443 18 c2 -6 -3 -13 -12 -16 -10
-5 -15 0 -15 14 0 21 21 22 27 2z m221 -22 c4 -28 -13 -20 -21 9 -3 14 -1 20
6 17 7 -2 14 -14 15 -26z m57 -17 c-25 -19 -35 -17 -35 5 0 14 6 17 27 13 25
-5 25 -6 8 -18z m215 16 c0 -5 -4 -10 -10 -10 -5 0 -10 5 -10 10 0 6 5 10 10
10 6 0 10 -4 10 -10z m-190 -40 c0 -5 -4 -10 -10 -10 -5 0 -10 5 -10 10 0 6 5
10 10 10 6 0 10 -4 10 -10z m-116 -15 c3 -8 1 -15 -4 -15 -6 0 -10 7 -10 15 0
8 2 15 4 15 2 0 6 -7 10 -15z m82 -41 c-3 -8 -10 -14 -16 -14 -14 0 -13 26 3
51 12 20 12 20 15 -1 2 -12 1 -28 -2 -36z m44 -19 c0 -23 -2 -25 -22 -14 -21
11 -21 12 -3 25 25 18 25 18 25 -11z m738 -36 c-13 -7 -18 -24 -20 -62 l-1
-52 -7 45 -6 45 -9 -42 c-4 -24 -11 -43 -16 -43 -9 0 -13 103 -5 111 3 2 22 5
43 6 30 2 34 0 21 -8z m9 -86 c-2 -16 -4 -5 -4 22 0 28 2 40 4 28 2 -13 2 -35
0 -50z m50 20 c-3 -10 -5 -4 -5 12 0 17 2 24 5 18 2 -7 2 -21 0 -30z m-141
-27 c0 -15 -5 -21 -10 -16 -5 5 -6 16 -3 24 9 23 15 19 13 -8z m-470 -67 c71
-33 136 -64 145 -68 8 -5 91 -10 185 -12 l169 -4 -3 23 c-2 14 2 22 12 22 10
0 14 10 12 35 -4 40 -3 41 24 18 24 -21 28 -83 5 -83 -8 0 -15 -4 -15 -10 0
-14 37 -12 43 3 3 6 6 2 6 -10 1 -13 -5 -24 -11 -24 -13 -1 -188 -6 -274 -8
-34 -1 -43 -5 -49 -23 -6 -20 -8 -20 -12 -5 -3 12 -15 17 -38 17 -19 0 -37 5
-40 10 -4 6 -14 9 -23 8 -10 -2 -16 3 -14 10 3 15 -21 42 -37 42 -6 0 -11 -6
-12 -12 0 -10 -2 -10 -6 0 -6 15 -33 16 -33 1 0 -6 -8 -8 -18 -5 -10 4 -43 7
-73 8 -77 1 -89 12 -89 75 0 29 4 53 9 53 5 0 66 -27 137 -61z m500 15 c-3 -9
-6 -21 -6 -26 0 -12 -15 -1 -15 10 0 4 -4 13 -8 20 -6 8 -1 12 13 12 16 0 20
-4 16 -16z m-697 -112 c8 -2 18 3 22 10 7 10 9 10 9 1 0 -8 13 -13 33 -13 24
0 28 3 17 10 -12 8 -11 10 7 10 12 0 25 -5 29 -11 4 -8 9 -7 15 2 7 12 12 12
30 1 17 -11 23 -11 29 -2 6 9 13 9 28 1 11 -6 30 -11 41 -11 11 0 22 -3 24 -7
6 -10 -310 -6 -332 3 -13 5 -13 7 4 14 11 4 22 5 25 1 3 -3 11 -7 19 -9z m-49
-46 c0 -7 -7 -13 -15 -13 -17 0 -17 0 -9 21 7 18 24 12 24 -8z m-536 -5 c3 -5
-1 -11 -9 -15 -9 -3 -15 0 -15 9 0 16 16 20 24 6z m754 3 c67 -5 92 -11 92
-20 0 -10 -13 -14 -40 -14 -36 0 -40 -2 -38 -25 2 -16 8 -25 20 -25 11 0 15
-5 12 -14 -4 -11 -15 -11 -67 0 -76 16 -114 17 -119 3 -2 -5 -11 -7 -21 -3
-15 5 -17 15 -13 53 2 25 5 47 5 49 2 4 75 2 169 -4z m252 -17 c19 0 85 2 147
4 61 2 109 1 106 -3 -2 -5 15 -8 39 -8 24 0 48 -4 54 -8 7 -4 -78 -8 -187 -9
-120 -1 -199 2 -199 8 0 5 -8 9 -17 9 -10 0 -25 5 -33 10 -10 7 -4 8 20 3 19
-4 51 -7 70 -6z m-770 -67 c0 -5 -8 -11 -17 -12 -10 -1 7 -4 37 -7 49 -5 53
-7 34 -18 -19 -11 -34 -10 -131 12 -27 6 -30 22 -5 28 33 9 82 7 82 -3z m1016
-21 c11 -9 18 -9 26 -1 17 17 58 15 64 -3 4 -8 15 -15 26 -15 19 0 108 -37
108 -45 0 -16 -25 -55 -36 -55 -7 0 -14 -5 -16 -11 -3 -8 -14 -7 -35 5 -18 9
-39 16 -48 16 -8 0 -15 5 -15 10 0 6 -8 10 -17 10 -9 0 -25 8 -35 17 -24 22
-85 43 -124 43 -19 0 -34 6 -38 15 -3 8 -14 15 -25 15 -11 0 -23 5 -26 10 -9
15 173 4 191 -11z m-723 -24 c0 -6 -7 -11 -16 -13 -12 -3 -15 1 -11 13 7 17
25 17 27 0z m92 -16 c6 -6 -3 -9 -29 -7 -23 2 -41 9 -44 17 -4 11 3 13 29 7
18 -3 38 -11 44 -17z m33 -87 c3 -10 -8 -12 -47 -10 -28 2 -51 8 -51 13 0 16
92 13 98 -3z m-591 -14 c-3 -8 -6 -5 -6 6 -1 11 2 17 5 13 3 -3 4 -12 1 -19z
m693 0 c0 -5 -4 -7 -9 -4 -5 4 -12 0 -14 -6 -3 -7 -6 -3 -6 9 -1 16 3 21 14
17 8 -4 15 -10 15 -16z m-195 -27 c6 -21 31 -30 90 -32 27 -1 32 -3 15 -6 -13
-3 -30 -12 -37 -21 -12 -16 -14 -16 -26 -1 -7 9 -28 20 -47 24 -35 7 -70 31
-70 47 0 4 15 8 34 8 25 0 36 -5 41 -19z m695 10 c0 -5 -7 -12 -16 -15 -22 -9
-24 -8 -24 9 0 8 9 15 20 15 11 0 20 -4 20 -9z m-390 -11 c0 -5 -4 -10 -10
-10 -5 0 -10 5 -10 10 0 6 5 10 10 10 6 0 10 -4 10 -10z m83 3 c-7 -2 -21 -2
-30 0 -10 3 -4 5 12 5 17 0 24 -2 18 -5z m120 -10 c-13 -2 -33 -2 -45 0 -13 2
-3 4 22 4 25 0 35 -2 23 -4z m-103 -7 c0 -3 -4 -8 -10 -11 -5 -3 -10 -1 -10 4
0 6 5 11 10 11 6 0 10 -2 10 -4z m-543 -48 c-3 -8 -6 -5 -6 6 -1 11 2 17 5 13
3 -3 4 -12 1 -19z m513 -38 c12 -8 11 -10 -7 -10 -13 0 -23 5 -23 10 0 13 11
13 30 0z"/>
<path d="M1394 2118 c3 -13 6 -32 6 -42 0 -14 3 -17 10 -10 12 12 2 74 -12 74
-6 0 -8 -10 -4 -22z"/>
<path d="M2233 1235 c0 -33 2 -45 4 -27 2 18 2 45 0 60 -2 15 -4 0 -4 -33z"/>
<path d="M2115 260 c-3 -5 -2 -10 4 -10 5 0 13 5 16 10 3 6 2 10 -4 10 -5 0
-13 -4 -16 -10z"/>
<path d="M2865 3598 c-4 -29 -11 -69 -17 -88 -18 -64 -56 -273 -52 -285 3 -6
-1 -17 -9 -23 -8 -7 -12 -27 -10 -53 2 -23 -3 -55 -11 -70 -8 -16 -10 -29 -5
-29 5 0 9 -38 9 -85 0 -56 -4 -85 -11 -85 -8 0 -8 -4 -2 -12 13 -17 23 -58 15
-58 -11 0 -8 -90 3 -90 6 0 2 -5 -8 -11 -9 -6 -26 -7 -37 -4 -18 6 -20 15 -20
86 0 47 4 78 9 74 5 -3 12 -1 16 5 3 5 -1 10 -9 10 -13 0 -16 12 -16 59 0 33
5 63 10 66 6 3 10 21 10 38 0 26 -5 19 -25 -38 -14 -38 -25 -78 -25 -87 0 -12
-8 -18 -22 -18 -21 -1 -21 -2 -5 -11 14 -8 17 -24 17 -83 0 -78 -12 -97 -48
-76 -10 5 -12 10 -4 10 6 0 12 9 12 21 0 11 -4 17 -10 14 -6 -4 -10 7 -10 24
0 17 5 31 10 31 6 0 10 7 10 16 0 8 -4 13 -9 10 -16 -10 -18 17 -4 44 7 14 13
34 12 45 0 11 -3 14 -6 8 -2 -7 -10 -13 -16 -13 -26 0 -36 -54 -32 -175 4 -98
8 -497 6 -542 -1 -7 -5 -13 -11 -13 -5 0 -10 16 -10 35 0 19 -4 35 -10 35 -5
0 -10 -13 -10 -30 0 -45 -16 -36 -23 13 -7 53 10 568 21 623 5 22 13 47 17 55
11 16 14 49 6 49 -3 0 -7 12 -7 28 -4 67 -8 92 -14 92 -9 0 -30 -116 -30 -164
0 -20 -4 -36 -10 -36 -5 0 -10 9 -10 20 0 11 -7 20 -15 20 -8 0 -15 -7 -15
-15 0 -8 -7 -15 -16 -15 -8 0 -13 -4 -10 -9 9 -15 10 -146 2 -160 -5 -7 -17
-11 -27 -8 -16 4 -19 0 -18 -26 1 -24 3 -26 6 -9 3 14 12 22 24 22 17 0 19 -8
19 -75 0 -69 -2 -76 -22 -84 l-22 -8 22 -5 c20 -6 22 -12 22 -82 0 -66 -2 -76
-17 -76 -17 -1 -17 -1 0 -14 13 -11 17 -29 17 -90 0 -54 -4 -76 -12 -76 -10 0
-10 -2 0 -9 15 -9 15 -138 0 -158 -5 -7 -5 -14 2 -18 12 -7 14 -155 1 -155 -5
0 -8 -12 -8 -27 0 -15 -6 -29 -12 -31 -7 -2 -11 -42 -11 -117 0 -95 3 -114 16
-119 12 -5 15 -14 11 -35 -8 -40 3 -46 29 -14 l21 27 22 -42 c11 -22 21 -54
22 -69 0 -22 4 -16 19 27 l19 55 0 -47 c1 -26 -3 -49 -8 -52 -4 -3 -11 -23
-15 -43 -3 -21 -9 -48 -12 -60 -4 -14 -2 -23 5 -23 6 0 11 15 12 33 0 17 5 41
10 52 6 14 7 6 3 -27 -3 -27 -1 -48 4 -48 5 0 5 -19 0 -48 -12 -67 -17 -173
-22 -524 -4 -299 -3 -307 16 -314 27 -8 34 2 18 30 -16 32 -10 300 8 318 18
18 15 115 -3 122 -12 4 -15 23 -14 91 1 88 12 112 35 80 12 -17 14 -17 20 -1
4 10 -1 25 -12 38 -14 15 -16 22 -6 25 6 3 12 16 12 29 0 14 -4 23 -9 19 -6
-3 -9 4 -8 15 1 11 7 20 13 20 7 0 15 6 17 13 3 6 6 -104 6 -245 1 -165 5
-258 11 -258 6 0 11 41 11 100 1 55 2 106 3 113 1 15 55 22 69 8 7 -7 10 -111
9 -301 -1 -159 2 -290 7 -290 5 0 9 -11 9 -25 0 -16 -6 -25 -15 -25 -12 0 -13
-3 -4 -14 14 -16 6 -23 -29 -26 -49 -4 -52 -2 -50 48 3 79 2 82 -25 82 -20 0
-25 -5 -25 -24 0 -13 -7 -26 -15 -30 -8 -3 -15 -12 -15 -21 0 -8 7 -15 15 -15
8 0 15 -9 15 -20 0 -12 -7 -20 -16 -20 -11 0 -14 -5 -10 -16 3 -9 6 -19 6 -22
0 -4 5 0 10 8 8 13 10 12 10 -2 0 -14 8 -18 36 -18 36 0 222 -88 245 -116 20
-24 2 -44 -39 -44 -41 0 -62 -14 -62 -42 0 -17 13 -18 165 -18 156 0 165 1
165 19 0 11 4 21 9 23 5 1 11 40 12 86 3 62 0 85 -10 91 -11 7 -13 33 -7 132
3 68 7 249 8 402 1 210 4 284 15 303 22 43 17 53 -20 47 -28 -4 -35 -1 -45 21
-7 15 -12 40 -12 56 0 27 3 30 34 30 50 0 66 -9 67 -39 1 -22 3 -20 13 14 7
22 16 54 20 70 6 27 5 28 -7 13 -13 -16 -15 -16 -35 2 -12 11 -26 20 -32 20
-5 0 -10 11 -10 25 0 14 -4 25 -10 25 -6 0 -10 44 -10 111 0 106 -1 111 -20
106 -11 -3 -18 -1 -14 4 3 5 0 9 -5 9 -6 0 -11 4 -11 10 0 5 7 7 15 4 12 -5
15 4 15 45 0 34 4 51 13 51 9 0 8 3 -2 9 -9 6 -12 18 -7 36 4 15 7 103 7 196
0 126 3 169 12 169 8 0 7 3 -2 9 -11 7 -13 26 -7 93 3 45 6 158 6 251 -1 109
3 167 10 167 13 0 13 47 0 52 -6 2 -12 62 -14 143 -5 202 -18 273 -41 235 -3
-5 -1 -10 5 -10 15 0 2 -162 -14 -172 -7 -5 -8 -11 -1 -15 6 -5 12 -43 14 -86
3 -73 2 -79 -18 -84 l-22 -6 21 -14 c20 -14 21 -21 15 -87 -4 -39 -7 -75 -6
-81 8 -143 6 -177 -8 -185 -10 -6 -11 -10 -3 -10 8 0 12 -24 12 -85 0 -47 -3
-85 -7 -85 -7 0 -9 -264 -3 -280 7 -20 8 -50 2 -50 -5 0 -9 -8 -9 -17 1 -10 0
-58 -1 -107 l-2 -89 -35 6 c-21 3 -33 2 -30 -4 4 -5 1 -9 -4 -9 -6 0 -11 6
-11 14 0 7 -18 18 -42 24 -91 23 -138 32 -165 32 -15 0 -36 7 -46 14 -15 12
-16 14 -2 20 10 3 15 19 15 44 0 21 5 43 12 50 9 9 9 12 0 12 -9 0 -12 49 -12
190 0 145 3 190 13 190 8 0 9 3 1 8 -14 9 -15 172 -1 172 5 0 5 6 -2 14 -8 9
-10 40 -7 87 2 41 5 110 5 154 1 56 4 75 11 65 8 -12 10 -10 10 8 0 17 5 23
18 20 14 -3 17 -15 17 -78 0 -41 -4 -78 -10 -82 -6 -5 -6 -11 0 -17 11 -11 11
-383 1 -400 -4 -5 -2 -13 4 -16 6 -4 8 -14 6 -23 -3 -10 -7 -71 -8 -137 -2
-66 -7 -124 -13 -128 -7 -6 -6 -10 1 -13 11 -5 10 -56 -1 -74 -3 -4 -2 -22 1
-39 5 -22 12 -31 25 -31 11 0 52 -9 91 -20 105 -29 108 -28 108 24 0 26 5 46
13 49 9 4 9 7 -1 15 -9 6 -12 38 -11 110 1 56 4 102 8 102 3 0 5 160 3 355 -2
238 1 355 8 355 5 0 9 21 9 48 -1 42 -2 44 -9 17 -5 -18 -8 30 -9 121 -1 127
2 153 14 158 8 3 15 14 15 25 0 11 6 22 13 24 6 3 2 6 -10 6 -27 1 -40 19 -19
27 9 3 16 14 16 23 0 12 -2 13 -9 3 -7 -11 -9 -11 -14 0 -7 20 4 69 14 62 5
-3 9 4 9 15 0 12 -5 18 -13 16 -9 -4 -12 8 -13 42 0 27 -8 95 -18 153 -9 58
-20 126 -23 153 -3 26 -9 47 -13 47 -10 0 -2 -88 16 -181 7 -42 15 -87 15
-100 3 -46 -13 -1024 -17 -1030 -2 -3 -4 -119 -4 -258 l-1 -251 -22 1 c-12 1
-35 4 -50 8 l-29 6 1 195 c4 864 13 1338 27 1399 13 53 33 203 34 249 0 21 18
13 23 -10 3 -17 5 -14 6 10 1 29 -2 32 -28 32 -28 0 -29 -3 -36 -52z m-195
-968 c0 -62 -3 -82 -15 -86 -13 -5 -13 -8 0 -21 24 -23 20 -128 -5 -153 -15
-15 -17 -20 -5 -20 19 0 26 -32 21 -95 -3 -27 -5 -56 -5 -62 -1 -7 -9 -14 -18
-14 -17 -1 -17 -2 0 -6 15 -4 18 -15 16 -66 0 -34 2 -69 5 -78 5 -10 1 -19 -8
-22 -12 -5 -14 -12 -8 -29 5 -13 7 -32 6 -43 -6 -68 -7 -112 -2 -120 7 -13 2
-120 -6 -133 -3 -5 -15 -12 -26 -15 -20 -5 -21 -3 -16 246 3 139 7 363 8 499
2 136 7 250 11 254 4 4 7 16 7 26 0 11 7 18 20 18 18 0 20 -7 20 -80z m-170
-364 c0 -49 -15 -53 -17 -5 -1 21 2 39 8 39 5 0 9 -15 9 -34z m-36 -582 c9 -3
16 -16 16 -29 0 -18 -4 -22 -20 -18 -13 3 -20 14 -20 29 0 26 1 27 24 18z m33
-36 c-3 -7 -5 -2 -5 12 0 14 2 19 5 13 2 -7 2 -19 0 -25z m78 12 c18 -8 18 -9
-5 -9 -15 -1 -30 -5 -36 -11 -6 -6 -10 -3 -10 10 0 21 17 24 51 10z m26 -363
c-1 -4 -1 -14 -1 -22 0 -8 -4 -15 -10 -15 -5 0 -10 12 -10 26 0 14 5 24 11 22
6 -2 10 -7 10 -11z m453 -147 c4 -31 3 -40 -4 -29 -5 9 -12 36 -15 60 -4 29
-3 39 3 29 5 -8 12 -35 16 -60z m23 -162 c-3 -8 -6 -5 -6 6 -1 11 2 17 5 13 3
-3 4 -12 1 -19z m-217 -118 c0 -4 -3 -15 -6 -24 -9 -24 -34 -6 -34 25 0 27 2
29 20 19 11 -6 20 -15 20 -20z m-35 -74 c2 -18 -1 -23 -11 -19 -14 5 -19 35
-7 46 9 10 15 1 18 -27z m32 -148 c-2 -35 -3 -9 -3 57 0 66 1 94 3 63 2 -32 2
-86 0 -120z m-37 -53 c0 -8 -4 -15 -10 -15 -5 0 -10 7 -10 15 0 8 5 15 10 15
6 0 10 -7 10 -15z m81 -195 c16 0 29 -5 29 -11 0 -6 -9 -9 -20 -6 -11 3 -20 1
-20 -4 0 -5 6 -9 14 -9 8 0 18 -5 22 -12 4 -7 3 -8 -4 -4 -7 4 -12 3 -12 -3 0
-5 6 -12 13 -14 6 -3 2 -6 -10 -7 -13 -2 -29 -3 -35 -4 -19 -2 -22 -36 -4 -36
9 0 16 -4 16 -10 0 -5 -4 -10 -10 -10 -5 0 -10 -8 -9 -17 0 -11 3 -13 6 -5 6
16 33 15 33 -2 0 -9 8 -12 25 -8 28 5 32 -5 10 -34 -14 -19 -14 -19 -15 1 -1
12 -4 15 -7 7 -4 -10 -9 -9 -20 5 -14 17 -14 17 -10 -4 3 -12 2 -22 -2 -21 -3
0 -14 0 -25 -1 -15 -1 -16 -4 -6 -16 21 -25 3 -17 -26 12 -25 25 -27 34 -27
103 1 131 -1 123 34 116 17 -3 44 -6 60 -6z m28 -112 c0 -16 -2 -18 -6 -8 -3
8 -11 18 -17 22 -7 5 -4 8 7 8 11 0 17 -7 16 -22z m51 -78 c0 -5 -5 -10 -11
-10 -5 0 -7 5 -4 10 3 6 8 10 11 10 2 0 4 -4 4 -10z m80 -10 c0 -11 -2 -20 -4
-20 -2 0 -6 9 -9 20 -3 11 -1 20 4 20 5 0 9 -9 9 -20z"/>
<path d="M3098 3644 c-30 -9 -21 -32 10 -28 l27 4 -27 -11 c-16 -6 -28 -14
-28 -19 0 -5 12 -11 28 -13 l27 -4 -29 -2 c-21 -1 -27 -5 -22 -17 3 -9 6 -23
6 -33 0 -14 7 -17 33 -14 l32 3 -28 -11 c-34 -13 -26 -29 16 -30 27 -1 28 -2
7 -6 -48 -8 -52 -11 -40 -33 7 -13 21 -20 39 -20 28 0 29 -2 36 -64 6 -60 8
-65 33 -69 l27 -4 -27 -2 c-25 -1 -26 -3 -21 -38 3 -21 8 -40 10 -43 3 -3 143
-6 311 -8 234 -2 318 -6 354 -17 26 -8 66 -14 90 -13 l43 1 -50 8 c-27 4 172
6 443 4 476 -3 492 -3 492 15 0 22 -36 23 -785 28 -249 1 -434 7 -439 12 -6 6
61 8 175 5 101 -3 379 -7 617 -10 375 -4 432 -2 432 10 0 11 -13 15 -47 16
-35 0 -43 3 -28 9 11 4 32 5 48 3 16 -3 27 -1 27 6 0 6 -8 12 -17 12 -21 2
-236 7 -335 8 -38 1 -68 5 -68 10 0 6 84 7 210 4 142 -3 210 -2 210 5 0 6 -10
12 -22 15 -23 4 -23 4 2 15 23 10 22 11 -17 11 -24 1 -43 6 -43 11 0 6 18 10
39 10 37 0 40 2 39 29 l-1 30 -151 0 c-132 1 -446 8 -469 10 -5 1 -5 5 -2 11
4 6 59 7 143 4 249 -9 482 -10 482 -2 0 4 -19 8 -42 8 -148 1 -395 14 -403 22
-6 6 75 7 218 3 153 -4 227 -2 227 5 0 9 -130 15 -245 10 -22 -1 -51 3 -65 9
-18 7 20 10 143 8 120 -1 167 1 167 9 0 8 -39 12 -127 13 -77 1 -132 6 -138
13 -7 7 22 9 100 6 61 -3 124 -2 140 2 27 7 25 8 -16 9 -60 1 -109 11 -109 22
0 5 34 6 75 3 49 -3 75 -1 75 6 0 6 -40 10 -107 10 -60 1 -158 3 -220 6 -61 3
-224 6 -362 7 -137 2 -253 6 -257 9 -14 15 77 19 287 13 405 -11 544 -15 559
-17 8 -1 34 0 58 0 47 2 58 16 15 19 -77 5 -1751 11 -1765 7z m495 -11 c-7 -2
-19 -2 -25 0 -7 3 -2 5 12 5 14 0 19 -2 13 -5z m327 -3 c0 -5 -7 -7 -15 -4 -8
4 -15 8 -15 10 0 2 7 4 15 4 8 0 15 -4 15 -10z m-40 -20 c0 -5 -7 -10 -16 -10
-8 0 -12 5 -9 10 3 6 10 10 16 10 5 0 9 -4 9 -10z m-643 -6 c-3 -3 -12 -4 -19
-1 -8 3 -5 6 6 6 11 1 17 -2 13 -5z m228 -4 c-27 -12 -43 -12 -25 0 8 5 22 9
30 9 10 0 8 -3 -5 -9z m349 -6 c28 -11 17 -20 -19 -16 -19 2 -32 8 -29 13 6
10 26 12 48 3z m853 -9 c44 -2 72 -14 37 -16 -47 -2 -274 2 -436 7 -127 4
-178 3 -178 -5 0 -7 38 -11 114 -11 68 0 117 -4 121 -10 4 -7 -61 -10 -202 -8
-213 2 -344 15 -180 17 50 1 87 5 87 11 0 6 -28 10 -65 10 -41 0 -65 4 -65 11
0 8 100 9 363 4 199 -4 381 -9 404 -10z m-1352 -15 c-3 -5 -17 -10 -31 -10
-14 0 -22 4 -19 10 3 6 17 10 31 10 14 0 22 -4 19 -10z m183 -7 c-10 -2 -28
-2 -40 0 -13 2 -5 4 17 4 22 1 32 -1 23 -4z m147 -3 c-3 -5 -14 -10 -23 -10
-15 0 -15 2 -2 10 20 13 33 13 25 0z m100 -10 c-27 -12 -35 -12 -35 0 0 6 12
10 28 9 24 0 25 -1 7 -9z m820 0 c30 -2 30 -2 5 -10 -54 -17 -249 -8 -220 10
10 6 100 6 215 0z m-1395 -10 c-8 -5 -22 -10 -30 -10 -13 0 -13 1 0 10 8 5 22
10 30 10 13 0 13 -1 0 -10z m440 -20 c-8 -5 -19 -10 -25 -10 -5 0 -3 5 5 10 8
5 20 10 25 10 6 0 3 -5 -5 -10z m753 1 c4 -1 7 -5 7 -10 0 -11 -281 -14 -447
-5 -210 12 -114 24 160 19 149 -2 275 -4 280 -4z m174 -15 c4 -3 -28 -6 -70
-6 -49 0 -77 4 -77 11 0 11 135 7 147 -5z m-1337 -6 c-8 -5 -22 -10 -30 -10
-13 0 -13 1 0 10 8 5 22 10 30 10 13 0 13 -1 0 -10z m505 -10 c3 -5 1 -10 -4
-10 -6 0 -11 5 -11 10 0 6 2 10 4 10 3 0 8 -4 11 -10z m158 -12 c-7 -12 -73
-9 -73 2 0 6 17 9 39 8 21 -2 37 -6 34 -10z m227 2 c0 -12 -34 -15 -117 -12
-106 5 -90 19 22 19 52 1 95 -3 95 -7z m245 0 l30 -2 -31 -8 c-18 -4 -65 -6
-105 -4 -41 1 -84 3 -96 3 -13 1 -23 6 -23 11 0 9 79 9 225 0z m80 -10 c3 -5
-3 -10 -14 -10 -11 0 -23 5 -26 10 -3 6 3 10 14 10 11 0 23 -4 26 -10z m-742
-7 c-7 -2 -19 -2 -25 0 -7 3 -2 5 12 5 14 0 19 -2 13 -5z m444 -13 c75 -1 130
-6 127 -11 -5 -9 -486 -11 -510 -2 -37 14 -2 19 119 17 72 -2 192 -4 264 -4z
m-557 -4 c0 -3 -4 -8 -10 -11 -5 -3 -10 -1 -10 4 0 6 5 11 10 11 6 0 10 -2 10
-4z m-113 -32 c-3 -3 -12 -4 -19 -1 -8 3 -5 6 6 6 11 1 17 -2 13 -5z m68 -4
c-3 -5 -14 -10 -23 -10 -15 0 -15 2 -2 10 20 13 33 13 25 0z m220 0 c4 -6 -16
-10 -52 -9 -42 0 -52 3 -38 9 28 12 83 12 90 0z m160 -1 c12 -5 -11 -8 -63 -8
-54 -1 -81 3 -77 9 7 12 110 11 140 -1z m178 2 c20 -1 37 -6 37 -12 0 -16
-172 -7 -178 9 -3 10 8 12 49 8 30 -2 71 -5 92 -5z m316 -1 c99 0 182 -4 185
-9 9 -13 -31 -20 -94 -16 -30 2 -121 4 -202 5 -82 1 -148 5 -148 10 0 9 58 18
73 12 4 -2 88 -3 186 -2z m465 -21 c-7 -12 -205 -11 -224 1 -10 7 25 9 107 9
67 -1 120 -6 117 -10z m-1374 -19 c0 -5 -5 -10 -11 -10 -5 0 -7 5 -4 10 3 6 8
10 11 10 2 0 4 -4 4 -10z m410 1 c0 -4 -65 -8 -145 -9 -80 0 -145 4 -145 9 0
5 65 9 145 9 80 0 145 -4 145 -9z m145 0 c25 -8 17 -9 -42 -10 -40 -1 -73 3
-73 7 0 12 79 14 115 3z m214 -6 c2 -3 -26 -5 -63 -5 -37 0 -65 4 -62 9 6 8
115 5 125 -4z m331 -5 c18 -13 -273 -11 -292 2 -7 4 52 8 132 8 82 0 152 -5
160 -10z m159 4 c77 -9 80 -19 3 -18 -126 3 -142 4 -142 14 0 12 50 13 139 4z
m-1457 -26 c-14 -7 -26 -8 -32 -2 -5 5 4 10 23 11 30 1 31 1 9 -9z m68 8 c0
-11 -19 -15 -25 -6 -3 5 1 10 9 10 9 0 16 -2 16 -4z m668 -5 c34 0 62 -5 62
-10 0 -6 -71 -7 -180 -4 -131 4 -180 3 -180 -6 0 -8 42 -11 138 -11 75 0 144
-5 152 -10 10 -7 -65 -9 -222 -8 -130 0 -243 5 -250 10 -8 5 12 8 52 8 36 -1
79 -1 95 0 25 2 22 4 -15 11 -25 4 -67 8 -95 9 -30 1 -43 4 -33 8 15 6 260 8
476 3z m-563 -19 c-3 -3 -11 0 -18 7 -9 10 -8 11 6 5 10 -3 15 -9 12 -12z
m740 8 c4 -6 -7 -10 -25 -10 -18 0 -29 4 -25 10 3 6 15 10 25 10 10 0 22 -4
25 -10z m153 1 c10 -6 5 -10 -17 -14 -34 -7 -64 0 -55 14 7 11 55 11 72 0z
m52 -1 c0 -5 -7 -10 -15 -10 -8 0 -15 5 -15 10 0 6 7 10 15 10 8 0 15 -4 15
-10z m293 -2 c71 -2 134 -6 140 -10 14 -9 -393 -7 -408 1 -13 7 81 19 115 15
14 -2 83 -5 153 -6z m-1373 -28 c-9 -4 -31 -5 -50 0 -34 8 -33 8 15 9 34 0 45
-3 35 -9z m115 0 c-3 -5 -12 -10 -20 -10 -8 0 -17 5 -20 10 -4 6 5 10 20 10
15 0 24 -4 20 -10z m82 4 c-3 -3 -12 -4 -19 -1 -8 3 -5 6 6 6 11 1 17 -2 13
-5z m625 -13 c-13 -8 -113 -1 -108 7 2 4 30 5 61 3 32 -1 53 -6 47 -10z m88
-1 c0 -5 -16 -9 -35 -8 -19 1 -35 5 -35 10 0 4 16 8 35 8 19 0 35 -4 35 -10z
m55 0 c3 -5 -3 -10 -14 -10 -11 0 -23 5 -26 10 -3 6 3 10 14 10 11 0 23 -4 26
-10z m95 0 c0 -5 -18 -10 -40 -10 -22 0 -40 5 -40 10 0 6 18 10 40 10 22 0 40
-4 40 -10z m-685 -20 c4 -7 -39 -10 -124 -10 -73 0 -131 4 -131 9 0 13 247 14
255 1z m288 1 c59 0 107 -5 107 -9 0 -5 -57 -8 -127 -7 -203 2 -251 5 -228 14
11 5 47 7 80 6 33 -2 108 -3 168 -4z m177 -11 c0 -5 -4 -10 -9 -10 -6 0 -13 5
-16 10 -3 6 1 10 9 10 9 0 16 -4 16 -10z m50 0 c0 -5 -7 -10 -15 -10 -8 0 -15
5 -15 10 0 6 7 10 15 10 8 0 15 -4 15 -10z m269 -6 c2 -2 -40 -3 -95 -3 -66 1
-87 4 -64 8 34 7 151 3 159 -5z m48 0 c-3 -3 -12 -4 -19 -1 -8 3 -5 6 6 6 11
1 17 -2 13 -5z m60 0 c-3 -3 -12 -4 -19 -1 -8 3 -5 6 6 6 11 1 17 -2 13 -5z
m86 -1 c-13 -2 -33 -2 -45 0 -13 2 -3 4 22 4 25 0 35 -2 23 -4z m72 -2 c-3 -6
-14 -9 -25 -8 -24 2 -15 17 11 17 11 0 18 -4 14 -9z m-1140 -31 c6 -9 -234 -3
-244 6 -2 2 50 4 117 4 69 0 123 -4 127 -10z"/>
<path d="M4045 3570 c3 -5 13 -10 21 -10 8 0 14 5 14 10 0 6 -9 10 -21 10 -11
0 -17 -4 -14 -10z"/>
<path d="M2997 3376 c-5 -23 -4 -43 1 -48 14 -14 19 2 12 47 l-6 40 -7 -39z"/>
<path d="M0 3290 c0 -17 2 -19 14 -8 14 13 12 28 -5 28 -5 0 -9 -9 -9 -20z"/>
<path d="M2720 3275 c0 -8 5 -15 10 -15 6 0 10 7 10 15 0 8 -4 15 -10 15 -5 0
-10 -7 -10 -15z"/>
<path d="M3002 3250 c0 -19 2 -27 5 -17 2 9 2 25 0 35 -3 9 -5 1 -5 -18z"/>
<path d="M2616 3244 c-3 -9 -6 -30 -6 -47 0 -40 19 -24 25 21 4 34 -9 52 -19
26z"/>
<path d="M0 2743 c0 -278 2 -504 4 -502 2 2 6 157 10 344 3 187 9 410 12 496
6 139 5 157 -10 162 -15 6 -16 -35 -16 -500z"/>
<path d="M2140 3190 c-9 -6 -10 -10 -3 -10 6 0 15 5 18 10 8 12 4 12 -15 0z"/>
<path d="M2720 3184 c0 -8 5 -12 10 -9 6 3 10 10 10 16 0 5 -4 9 -10 9 -5 0
-10 -7 -10 -16z"/>
<path d="M1778 3173 c6 -2 18 -2 25 0 6 3 1 5 -13 5 -14 0 -19 -2 -12 -5z"/>
<path d="M2110 3159 c0 -5 5 -7 10 -4 6 3 10 8 10 11 0 2 -4 4 -10 4 -5 0 -10
-5 -10 -11z"/>
<path d="M1796 3149 c3 -5 28 -9 55 -9 28 0 59 -5 71 -11 21 -11 38 -4 22 10
-12 11 -155 21 -148 10z"/>
<path d="M2255 3140 c3 -5 17 -10 31 -10 14 0 22 4 19 10 -3 6 -17 10 -31 10
-14 0 -22 -4 -19 -10z"/>
<path d="M4030 3141 c14 -4 43 -10 65 -13 l40 -6 -30 13 c-16 8 -46 14 -65 14
-31 -1 -32 -2 -10 -8z"/>
<path d="M4423 3143 c9 -2 25 -2 35 0 9 3 1 5 -18 5 -19 0 -27 -2 -17 -5z"/>
<path d="M4705 3140 c-4 -6 7 -10 24 -10 17 0 31 5 31 10 0 6 -11 10 -24 10
-14 0 -28 -4 -31 -10z"/>
<path d="M4825 3140 c3 -5 11 -10 16 -10 6 0 7 5 4 10 -3 6 -11 10 -16 10 -6
0 -7 -4 -4 -10z"/>
<path d="M2010 3128 c0 -4 11 -10 25 -14 l24 -6 -29 -25 c-28 -23 -35 -24 -97
-17 l-67 7 21 -33 c15 -24 29 -33 52 -35 17 -2 34 1 37 6 3 5 15 7 27 4 12 -3
69 -7 127 -9 58 -3 119 -8 136 -11 30 -7 32 -5 37 27 2 18 1 40 -4 48 -6 11
-8 9 -9 -10 0 -25 -5 -27 -62 -30 -7 0 -40 4 -73 10 -33 6 -77 11 -97 11 -21
0 -38 4 -38 7 0 13 57 42 66 34 5 -4 6 -3 2 2 -4 5 -3 16 2 25 7 14 2 17 -36
17 -24 0 -44 -4 -44 -8z"/>
<path d="M2125 3120 c3 -5 8 -10 11 -10 2 0 4 5 4 10 0 6 -5 10 -11 10 -5 0
-7 -4 -4 -10z"/>
<path d="M2150 3126 c0 -2 7 -6 15 -10 8 -3 15 -1 15 4 0 6 -7 10 -15 10 -8 0
-15 -2 -15 -4z"/>
<path d="M2227 3109 c8 -8 16 -8 30 0 16 9 14 10 -11 11 -22 0 -27 -3 -19 -11z"/>
<path d="M4193 3113 c9 -2 25 -2 35 0 9 3 1 5 -18 5 -19 0 -27 -2 -17 -5z"/>
<path d="M4438 3100 c-18 -20 -17 -20 105 -20 67 -1 173 -3 235 -6 76 -4 112
-2 112 5 0 8 -66 11 -206 11 -174 0 -209 2 -218 15 -10 14 -13 13 -28 -5z"/>
<path d="M868 3102 c-11 -2 -17 -12 -16 -27 1 -14 7 -21 16 -18 7 3 11 11 8
19 -3 7 0 15 7 17 18 6 5 14 -15 9z"/>
<path d="M2721 3094 c0 -11 3 -14 6 -6 3 7 2 16 -1 19 -3 4 -6 -2 -5 -13z"/>
<path d="M4265 3100 c11 -5 31 -9 45 -9 23 0 23 1 5 9 -11 5 -31 9 -45 9 -23
0 -23 -1 -5 -9z"/>
<path d="M2390 3049 c0 -29 3 -49 6 -46 10 10 12 87 3 93 -5 3 -9 -18 -9 -47z"/>
<path d="M2623 3045 c0 -27 2 -38 4 -22 2 15 2 37 0 50 -2 12 -4 0 -4 -28z"/>
<path d="M3258 3050 c-8 -20 -29 -136 -27 -147 5 -29 -3 -63 -15 -63 -9 0 -12
7 -9 20 4 15 0 20 -16 20 -12 0 -21 -6 -21 -15 0 -8 -7 -15 -16 -15 -13 0 -14
-3 -5 -14 8 -9 10 -38 6 -87 -3 -41 -5 -116 -5 -167 1 -59 -3 -99 -11 -108 -9
-11 -8 -14 4 -14 13 0 14 -13 10 -82 -3 -46 -11 -87 -17 -91 -8 -6 -7 -10 2
-14 8 -3 12 -31 12 -88 0 -58 -4 -85 -12 -88 -10 -3 -10 -8 -2 -18 14 -20 17
-76 4 -84 -8 -5 -8 -10 0 -20 7 -8 7 -21 0 -39 -5 -14 -6 -36 -1 -48 10 -30 4
-162 -8 -166 -5 -2 -6 -12 -4 -24 3 -11 0 -24 -7 -28 -10 -6 -14 -42 -15 -131
-1 -110 1 -122 17 -127 21 -5 25 -57 6 -66 -10 -5 -10 -7 0 -12 6 -3 12 -14
12 -25 0 -19 19 -27 21 -9 4 32 20 70 29 70 13 0 40 -77 41 -118 1 -41 -1 -45
20 38 2 8 11 21 19 28 13 12 13 13 0 6 -13 -7 -13 -6 -1 10 10 11 22 15 38 11
21 -5 23 -2 23 35 0 33 -4 42 -25 52 -14 6 -26 20 -26 32 -1 17 -2 18 -6 4 -7
-27 -23 -22 -23 7 0 26 12 28 53 10 10 -4 19 -6 21 -4 2 2 6 171 10 374 10
602 14 709 25 713 14 5 14 42 1 42 -5 0 -10 9 -10 20 0 11 5 20 10 20 15 0 12
27 -4 33 -15 6 -10 57 5 57 5 0 9 8 9 18 0 14 -2 15 -10 2 -7 -11 -10 -3 -10
28 0 26 4 41 10 37 6 -3 10 3 10 15 0 12 -4 19 -9 15 -5 -3 -12 -1 -16 5 -10
17 -25 11 -25 -10 0 -12 -7 -20 -16 -20 -12 0 -14 -5 -8 -17 10 -23 12 -733 2
-733 -5 0 -8 12 -8 28 0 15 -4 34 -9 41 -8 12 -11 8 -16 -15 -11 -49 -13 -51
-14 -11 -1 47 -31 54 -31 7 0 -21 -5 -30 -16 -30 -10 0 -12 5 -7 12 4 7 6 26
4 42 -2 23 0 28 13 23 14 -6 16 4 16 71 0 102 9 391 15 468 5 80 25 155 37
148 7 -4 8 14 4 52 -9 91 -22 151 -28 134z m-91 -1567 c-3 -10 -5 -4 -5 12 0
17 2 24 5 18 2 -7 2 -21 0 -30z m33 7 c0 -16 -4 -30 -10 -30 -11 0 -14 43 -3
53 11 12 13 8 13 -23z m17 -17 c-3 -10 -5 -4 -5 12 0 17 2 24 5 18 2 -7 2 -21
0 -30z"/>
<path d="M3453 3049 c11 -7 23 -7 35 0 14 9 11 10 -18 10 -29 0 -32 -1 -17
-10z"/>
<path d="M3510 3056 c0 -9 40 -13 46 -5 3 5 -6 9 -20 9 -14 0 -26 -2 -26 -4z"/>
<path d="M3750 3049 c0 -6 6 -9 14 -6 7 3 19 0 25 -6 8 -8 16 -7 28 6 16 16
15 17 -25 17 -24 0 -42 -5 -42 -11z"/>
<path d="M3898 3053 c6 -2 18 -2 25 0 6 3 1 5 -13 5 -14 0 -19 -2 -12 -5z"/>
<path d="M3958 3053 c7 -3 16 -2 19 1 4 3 -2 6 -13 5 -11 0 -14 -3 -6 -6z"/>
<path d="M3100 3031 c0 -6 5 -13 10 -16 6 -3 10 1 10 9 0 9 -4 16 -10 16 -5 0
-10 -4 -10 -9z"/>
<path d="M928 3023 c6 -2 18 -2 25 0 6 3 1 5 -13 5 -14 0 -19 -2 -12 -5z"/>
<path d="M1440 3026 c0 -2 9 -6 20 -9 11 -3 20 -1 20 4 0 5 -9 9 -20 9 -11 0
-20 -2 -20 -4z"/>
<path d="M3586 3019 c-11 -34 -36 -147 -36 -163 0 -17 -6 -18 -59 -12 -54 6
-59 5 -64 -15 -3 -11 -9 -19 -14 -16 -4 3 -6 -39 -5 -94 3 -73 1 -99 -8 -99
-9 0 -9 -4 -2 -13 13 -15 13 -165 0 -173 -5 -3 -4 -11 2 -19 12 -15 9 -152 -4
-174 -5 -8 -4 -16 2 -20 6 -3 8 -36 5 -81 -2 -41 -4 -79 -4 -85 -1 -5 0 -52 1
-104 1 -64 -2 -96 -10 -101 -9 -6 -9 -9 1 -12 10 -3 13 -22 11 -65 l-2 -60 47
-9 c38 -7 49 -14 51 -31 3 -20 0 -21 -60 -16 -35 2 -58 1 -52 -4 9 -6 12 -88
11 -288 -1 -243 -3 -281 -17 -287 -13 -6 -13 -7 1 -7 12 -1 15 -12 13 -53 -5
-100 -8 -118 -24 -123 -13 -6 -12 -8 4 -20 16 -12 19 -26 17 -76 -1 -41 3 -65
11 -70 7 -4 13 -27 14 -51 2 -40 2 -41 -7 -12 -5 17 -15 31 -24 31 -11 0 -14
-6 -9 -16 4 -9 9 -26 12 -39 3 -14 10 -21 18 -18 8 3 14 2 14 -3 0 -15 -13
-20 -29 -12 -14 8 -16 1 -14 -52 1 -34 4 -69 7 -77 3 -8 7 -26 9 -40 4 -24 4
-24 6 3 0 16 5 26 11 22 17 -11 11 -50 -10 -63 -15 -9 -18 -19 -14 -40 4 -19
1 -34 -10 -44 -8 -9 -12 -18 -9 -22 4 -3 8 -44 10 -91 4 -83 4 -85 -19 -86
-13 -1 -27 -1 -32 0 -5 1 -6 -12 -2 -30 3 -17 6 -44 6 -60 0 -27 3 -29 36 -29
l37 0 -6 53 -5 52 34 1 c23 0 34 -4 34 -13 0 -10 7 -12 20 -8 12 4 20 2 20 -5
0 -6 21 -20 48 -31 26 -11 54 -24 62 -28 9 -5 30 -12 48 -16 28 -6 32 -4 32
15 0 12 5 18 10 15 6 -3 10 -1 10 4 0 6 -5 11 -11 11 -7 0 -8 169 -2 573 12
900 13 931 25 938 20 13 -30 49 -67 49 -31 0 -35 3 -35 25 0 28 26 34 60 13
13 -8 23 -9 29 -3 6 6 11 67 12 137 l1 126 43 0 c30 0 45 -5 49 -15 4 -11 2
-13 -9 -9 -8 3 -15 1 -15 -3 0 -10 -19 -9 -37 2 -18 11 -27 -90 -19 -217 4
-61 7 -189 6 -284 -1 -169 0 -174 22 -192 13 -11 17 -19 11 -20 -7 0 -13 -5
-13 -10 0 -6 5 -9 11 -8 17 4 11 -151 -6 -168 -10 -11 -11 -20 -2 -44 16 -43
35 -46 43 -5 7 40 33 54 51 29 11 -15 13 -8 14 47 2 67 6 170 8 180 1 3 34 6
74 6 59 1 64 0 27 -6 -32 -4 -46 -11 -48 -23 -2 -10 2 -18 8 -18 9 0 9 -4 -1
-16 -10 -12 -10 -17 0 -23 15 -9 12 -191 -3 -191 -5 0 -6 -30 -2 -68 5 -50 3
-77 -9 -104 -14 -36 -12 -68 6 -68 5 0 9 -36 9 -80 0 -47 -4 -80 -10 -80 -5 0
-10 -7 -10 -15 0 -8 5 -15 10 -15 6 0 10 -37 10 -90 0 -49 -4 -90 -9 -90 -14
0 -21 -174 -8 -182 9 -6 9 -8 0 -8 -7 0 -13 -7 -13 -15 0 -8 5 -15 10 -15 6 0
10 -21 10 -46 0 -44 1 -45 27 -42 25 3 29 8 35 53 5 28 6 83 3 123 -3 45 -1
72 5 72 5 0 10 14 10 31 0 17 7 37 15 46 14 14 15 -2 10 -156 l-6 -171 390 0
c340 0 391 2 391 15 0 8 5 15 11 15 5 0 17 16 25 35 8 19 21 35 29 35 13 0 15
30 15 199 l0 200 -37 3 c-37 3 -60 28 -27 28 16 0 15 2 -4 16 -12 8 -27 12
-32 9 -6 -3 -10 -1 -10 4 0 7 23 11 55 11 l55 0 -1 303 c0 166 -3 296 -6 289
-4 -10 -8 -10 -19 -1 -11 9 -14 8 -14 -2 0 -11 -2 -11 -10 1 -13 21 -13 591 0
626 7 18 7 30 0 40 -8 9 -8 19 0 34 16 30 33 13 27 -26 -4 -26 -3 -32 9 -27
12 5 14 43 10 262 -2 141 -5 268 -7 284 -3 40 -19 33 -20 -10 -1 -26 -3 -31
-6 -14 -8 40 6 91 25 91 14 0 15 2 2 9 -8 6 -17 8 -21 5 -4 -2 -6 7 -5 20 1
23 2 23 19 9 16 -15 17 -14 17 15 0 24 -5 32 -22 35 l-23 4 23 2 c16 1 22 7
22 26 0 14 -6 25 -12 25 -10 0 -10 2 -1 8 6 4 11 22 11 40 l-1 32 -68 0 c-56
0 -68 3 -72 18 -3 11 -5 9 -6 -8 -1 -24 1 -25 55 -22 32 2 61 -1 67 -7 8 -8
-10 -11 -66 -11 -60 0 -79 -3 -83 -15 -9 -22 -34 -18 -34 4 0 32 11 51 30 51
10 0 18 6 17 13 -1 43 4 54 26 51 12 -1 28 -3 35 -3 6 -1 12 -5 12 -10 0 -4
-11 -6 -25 -3 -15 2 -25 0 -25 -7 0 -6 8 -11 18 -11 13 0 14 -2 3 -9 -18 -11
6 -18 72 -20 l47 -2 0 41 0 40 -85 0 c-78 0 -85 -2 -85 -20 0 -17 -7 -20 -44
-20 -25 0 -47 -4 -50 -8 -7 -12 7 -29 29 -35 18 -4 18 -5 -2 -6 -19 -1 -23 -7
-23 -36 0 -21 5 -35 13 -35 8 0 7 -4 -3 -10 -13 -9 -13 -11 0 -20 10 -6 11
-10 3 -10 -22 0 -14 -18 10 -23 l22 -4 -22 -2 c-16 -1 -21 -6 -17 -16 4 -8 2
-15 -3 -15 -5 0 -9 -10 -7 -22 1 -13 3 -73 3 -134 1 -94 4 -113 17 -118 9 -4
18 -5 19 -4 5 5 15 203 15 288 l0 85 50 2 c49 3 51 2 57 -27 4 -22 11 -30 27
-31 20 0 20 -1 -3 -12 -19 -9 -25 -9 -29 1 -2 8 -16 11 -35 9 -18 -2 -24 -2
-14 0 24 6 22 33 -3 33 -31 0 -37 -30 -39 -199 l-2 -153 24 6 c17 4 29 0 41
-13 11 -12 13 -20 6 -23 -6 -2 -12 -17 -14 -33 -2 -17 -9 -29 -16 -27 -8 2
-10 -3 -7 -13 4 -8 3 -15 -1 -15 -4 0 -16 -14 -26 -30 -21 -36 -9 -60 30 -60
36 0 29 18 -8 23 -32 4 -32 4 5 5 37 2 37 2 37 -37 0 -33 -3 -39 -25 -43 -16
-4 -25 -1 -25 7 0 8 -8 11 -21 8 -12 -4 -25 0 -30 8 -6 10 -9 10 -9 2 0 -20
-29 -15 -42 7 -7 11 -23 20 -35 20 -19 0 -23 6 -24 30 -1 17 -3 39 -4 50 -1
11 -3 27 -4 35 0 8 -7 15 -15 15 -11 0 -13 -16 -9 -82 6 -77 5 -81 -13 -73
-10 4 -34 13 -51 19 -28 9 -33 16 -33 44 0 19 -4 31 -10 27 -5 -3 -7 -12 -3
-20 3 -10 -2 -15 -16 -15 -17 0 -21 -6 -21 -32 0 -26 -3 -30 -11 -18 -8 11
-12 12 -16 3 -6 -16 -63 -17 -63 -2 0 6 -14 9 -32 7 -31 -3 -33 -1 -34 32 -1
41 14 89 33 108 7 8 10 18 7 24 -5 7 2 9 20 4 14 -3 26 -3 26 2 0 8 43 32 55
32 3 0 5 -7 5 -15 0 -20 41 -36 57 -23 6 5 9 16 6 24 -3 9 2 14 16 14 41 0 20
20 -21 21 -73 2 -92 -2 -123 -22 l-30 -20 28 25 c15 14 27 36 27 49 0 20 4 23
25 19 15 -2 25 0 25 7 0 6 -11 11 -25 11 -26 0 -26 1 -23 67 2 54 6 68 20 71
11 2 18 -5 21 -20 3 -17 5 -15 6 10 1 25 5 32 21 32 11 0 20 -5 20 -11 0 -8 4
-8 14 0 11 9 15 8 21 -6 7 -16 9 -15 15 7 13 41 11 48 -12 56 -13 4 -26 11
-29 17 -5 6 -18 6 -39 -2 -45 -15 -50 -14 -50 12 0 18 2 19 10 7 7 -11 10 -7
10 18 0 20 -4 31 -10 27 -6 -4 -10 8 -10 30 0 22 4 34 10 30 6 -3 10 4 9 17 0
13 -3 17 -6 11 -7 -19 -22 -15 -18 5 2 9 4 30 4 45 1 16 5 26 10 23 5 -3 11 2
13 12 4 12 0 18 -11 18 -99 1 -121 5 -121 22 0 13 -2 14 -9 4 -5 -9 -10 5 -15
40 -21 173 -21 173 -35 150 -4 -8 -14 -51 -21 -98 -8 -52 -17 -80 -22 -72 -5
9 -8 6 -8 -9 0 -13 5 -23 10 -23 6 0 10 -7 10 -15 0 -8 -7 -15 -15 -15 -8 0
-15 9 -15 20 0 23 -7 26 -67 33 -37 4 -43 3 -43 -14 0 -21 -15 -26 -24 -6 -3
6 -3 -1 0 -18 12 -62 20 -175 11 -175 -4 0 -5 -4 -2 -10 3 -5 3 -10 -2 -10 -4
0 -7 -41 -5 -91 3 -64 0 -95 -10 -106 -10 -13 -10 -17 0 -20 14 -5 17 -94 3
-109 -6 -5 -12 -21 -15 -36 -2 -15 -7 -32 -10 -37 -3 -5 4 -7 16 -4 14 3 19 1
12 -4 -6 -4 -12 -37 -13 -73 -3 -104 -2 -102 -83 -98 -46 3 -73 9 -79 19 -7
11 -9 11 -9 -3 0 -10 -6 -18 -12 -18 -9 0 -8 -4 2 -10 9 -6 10 -10 3 -10 -6 0
-18 -3 -27 -6 -10 -4 -15 0 -15 13 -2 151 1 198 12 205 9 6 9 8 0 8 -10 0 -13
42 -13 175 0 149 2 175 15 175 9 0 15 10 15 26 0 14 -4 23 -10 19 -6 -4 -10
11 -11 37 -2 110 0 160 6 188 6 29 6 30 -33 30 -22 0 -47 3 -56 6 -12 4 -16 0
-16 -15 0 -12 -4 -21 -10 -21 -5 0 -10 24 -11 53 0 28 -2 61 -4 72 -2 11 -5
39 -8 63 -6 47 -14 63 -21 41z m-36 -204 c0 -8 -4 -15 -10 -15 -5 0 -10 7 -10
15 0 8 5 15 10 15 6 0 10 -7 10 -15z m674 -80 c3 -9 0 -15 -9 -15 -8 0 -15 7
-15 15 0 8 4 15 9 15 5 0 11 -7 15 -15z m476 -55 c0 -5 -2 -10 -4 -10 -3 0 -8
5 -11 10 -3 6 -1 10 4 10 6 0 11 -4 11 -10z m127 4 c-3 -3 -12 -4 -19 -1 -8 3
-5 6 6 6 11 1 17 -2 13 -5z m-167 -54 c0 -5 -5 -10 -11 -10 -5 0 -7 5 -4 10 3
6 8 10 11 10 2 0 4 -4 4 -10z m200 -58 c0 -4 -16 -8 -35 -9 -19 -1 -35 2 -35
6 0 4 16 8 35 9 19 1 35 -2 35 -6z m-26 -147 c-4 -8 -10 -15 -15 -15 -4 0 -6
7 -3 15 4 8 10 15 15 15 4 0 6 -7 3 -15z m-32 -73 c3 -9 1 -26 -3 -37 -6 -15
-8 -11 -8 18 -1 40 4 48 11 19z m-45 -24 c-3 -7 -5 -2 -5 12 0 14 2 19 5 13 2
-7 2 -19 0 -25z m70 0 c-3 -8 -6 -5 -6 6 -1 11 2 17 5 13 3 -3 4 -12 1 -19z
m-57 -40 c0 -4 -7 -8 -15 -8 -8 0 -15 4 -15 8 0 5 7 9 15 9 8 0 15 -4 15 -9z
m-27 -55 c-7 -2 -21 -2 -30 0 -10 3 -4 5 12 5 17 0 24 -2 18 -5z m-628 -23
c-3 -5 -2 -10 3 -10 15 0 53 -101 59 -156 4 -37 2 -54 -8 -60 -20 -12 -49 -12
-49 0 0 6 -5 4 -10 -4 -6 -9 -10 -10 -10 -3 0 14 -87 16 -96 2 -12 -20 -24 5
-24 51 0 58 32 148 62 173 21 18 84 24 73 7z m672 -6 c-3 -3 -12 -4 -19 -1 -8
3 -5 6 6 6 11 1 17 -2 13 -5z m-377 -44 c0 -5 -4 -10 -10 -10 -5 0 -10 5 -10
10 0 6 5 10 10 10 6 0 10 -4 10 -10z m437 -66 c-3 -3 -12 -4 -19 -1 -8 3 -5 6
6 6 11 1 17 -2 13 -5z m-354 -151 c-7 -2 -19 -2 -25 0 -7 3 -2 5 12 5 14 0 19
-2 13 -5z m-589 -60 c-4 10 -1 17 6 17 6 0 8 -4 5 -10 -3 -5 -1 -10 4 -10 6 0
11 6 12 13 0 8 2 8 6 -2 5 -11 7 -11 14 0 6 10 9 11 9 2 0 -7 5 -13 11 -13 5
0 7 5 4 10 -3 6 -1 10 4 10 16 0 13 -20 -4 -26 -8 -4 -12 -10 -9 -15 3 -5 0
-9 -5 -9 -6 0 -11 6 -11 13 0 8 -4 7 -10 -3 -6 -10 -10 -11 -10 -2 0 6 -5 12
-11 12 -5 0 -7 -4 -4 -10 3 -5 3 -10 0 -10 -11 0 -35 28 -35 41 0 7 7 4 15 -7
13 -16 14 -16 9 -1z m155 -15 c0 -18 -3 -27 -6 -20 -2 6 -10 9 -16 5 -7 -4 -6
1 2 10 8 10 11 20 7 24 -3 3 -6 1 -6 -5 0 -7 -4 -12 -8 -12 -5 0 -9 7 -9 15 0
8 9 15 19 15 14 0 18 -7 17 -32z m71 22 c11 -7 12 -12 3 -21 -13 -13 -33 -4
-33 17 0 16 9 18 30 4z m40 0 c1 12 4 11 15 -3 7 -11 11 -25 9 -32 -7 -18 -44
12 -44 35 0 13 1 13 10 0 9 -13 10 -13 10 0z m43 -13 c3 -8 2 -20 -3 -26 -5
-9 -7 -4 -7 13 0 29 2 32 10 13z m224 -9 c-3 -8 -6 -5 -6 6 -1 11 2 17 5 13 3
-3 4 -12 1 -19z m-97 2 c0 -5 -5 -10 -11 -10 -5 0 -7 5 -4 10 3 6 8 10 11 10
2 0 4 -4 4 -10z m75 0 c3 -5 1 -10 -4 -10 -6 0 -11 5 -11 10 0 6 2 10 4 10 3
0 8 -4 11 -10z m-148 -22 c-3 -8 -6 -5 -6 6 -1 11 2 17 5 13 3 -3 4 -12 1 -19z
m403 12 c0 -5 -5 -10 -11 -10 -5 0 -7 5 -4 10 3 6 8 10 11 10 2 0 4 -4 4 -10z
m100 -17 c0 -21 -3 -24 -9 -14 -5 8 -7 20 -4 28 8 21 13 15 13 -14z m54 12
c-4 -8 -7 -15 -9 -15 -2 0 -5 7 -9 15 -3 9 0 15 9 15 9 0 12 -6 9 -15z m-870
-47 c-7 -11 7 -10 45 3 22 8 35 8 44 0 13 -11 82 -9 94 3 3 3 13 1 20 -6 9 -7
61 -13 126 -16 363 -13 412 -13 402 -4 -5 6 -19 12 -30 15 -11 3 0 5 25 5 25
0 54 -3 65 -8 22 -10 13 -13 -25 -10 -14 1 -22 -1 -19 -5 4 -3 24 -8 45 -9 22
-2 44 -4 49 -5 10 -1 10 -550 0 -579 -3 -7 -13 -11 -22 -8 -10 2 -115 7 -233
11 -118 3 -231 8 -250 10 -19 2 -141 9 -270 15 -129 6 -241 13 -247 15 -10 3
-13 70 -13 289 l0 285 73 3 c114 5 126 4 121 -4z m-389 -139 c-16 -6 -17 -8
-3 -8 9 -1 20 4 23 9 10 17 25 1 25 -27 0 -22 -3 -24 -22 -19 -13 4 -35 9 -50
12 -20 5 -28 13 -28 28 0 19 4 21 38 18 30 -4 33 -6 17 -13z m-88 -255 c-3 -3
-12 -4 -19 -1 -8 3 -5 6 6 6 11 1 17 -2 13 -5z m606 -221 c-7 -2 -19 -2 -25 0
-7 3 -2 5 12 5 14 0 19 -2 13 -5z m-531 -35 c-9 -9 -12 -7 -12 12 0 19 3 21
12 12 9 -9 9 -15 0 -24z m-55 -20 c-3 -7 -5 -2 -5 12 0 14 2 19 5 13 2 -7 2
-19 0 -25z m1034 20 c0 -10 2 -10 6 0 5 13 31 16 57 6 14 -5 16 -29 16 -165 0
-148 -1 -160 -21 -180 -11 -11 -18 -27 -15 -35 3 -8 1 -14 -4 -14 -5 0 -9 30
-9 66 0 36 -5 71 -11 79 -12 14 -10 36 4 47 6 4 6 12 -1 20 -6 7 -7 22 -3 33
4 11 3 30 -3 42 -8 19 -13 21 -26 10 -14 -10 -14 -10 -5 3 12 17 25 60 17 60
-2 0 -13 -5 -24 -10 -17 -10 -19 -7 -19 20 0 23 4 30 20 30 11 0 20 -6 21 -12z
m-67 -34 c3 -8 2 -12 -4 -9 -6 3 -10 10 -10 16 0 14 7 11 14 -7z m-1007 -76
c-2 -13 -4 -3 -4 22 0 25 2 35 4 23 2 -13 2 -33 0 -45z m598 22 c18 -8 17 -9
-7 -9 -15 -1 -30 4 -33 9 -7 12 12 12 40 0z m95 -30 c13 -9 13 -10 0 -10 -8 0
-22 5 -30 10 -13 9 -13 10 0 10 8 0 22 -5 30 -10z m-646 -25 c-4 -8 -8 -15
-10 -15 -2 0 -4 7 -4 15 0 8 4 15 10 15 5 0 7 -7 4 -15z m185 8 c0 -5 -4 -17
-9 -28 -8 -18 -9 -17 -9 8 -1 15 4 27 9 27 6 0 10 -3 9 -7z m408 1 c-3 -3 -12
-4 -19 -1 -8 3 -5 6 6 6 11 1 17 -2 13 -5z m160 -10 c-3 -3 -12 -4 -19 -1 -8
3 -5 6 6 6 11 1 17 -2 13 -5z m100 -20 c-3 -3 -12 -4 -19 -1 -8 3 -5 6 6 6 11
1 17 -2 13 -5z m-847 -64 c0 -35 -25 -32 -32 4 -3 16 1 22 14 23 14 1 18 -5
18 -27z m731 -6 l7 -29 1 28 c1 28 31 51 39 29 2 -7 10 -12 17 -12 7 0 16 -10
20 -22 6 -20 8 -20 12 -5 5 19 12 21 31 9 9 -6 10 -15 3 -33 -5 -13 -10 -19
-11 -14 0 6 -5 3 -10 -5 -8 -13 -10 -12 -10 3 0 9 -4 17 -10 17 -5 0 -7 -7 -4
-15 5 -11 2 -13 -11 -9 -15 6 -16 4 -6 -14 9 -18 8 -19 -12 -15 -18 4 -19 3
-7 -6 9 -7 10 -11 3 -11 -6 0 -14 4 -18 10 -3 5 -11 7 -19 4 -15 -6 -33 32
-42 88 -6 32 -4 40 7 36 8 -3 17 -18 20 -34z m142 -79 c0 -6 -8 -11 -19 -12
-10 -2 -13 0 -6 3 6 3 9 10 6 16 -4 6 -1 9 5 7 7 -3 13 -9 14 -14z m-966 -57
c-3 -8 -6 -5 -6 6 -1 11 2 17 5 13 3 -3 4 -12 1 -19z m233 -42 c0 -8 -7 -16
-15 -20 -8 -3 -15 -4 -15 -2 0 3 -3 11 -6 20 -4 12 0 16 15 16 12 0 21 -6 21
-14z m820 -1 c7 -9 8 -15 2 -15 -5 0 -12 7 -16 15 -3 8 -4 15 -2 15 2 0 9 -7
16 -15z m135 -27 c-4 -33 -6 -35 -14 -13 -9 21 -5 35 8 35 5 0 7 -10 6 -22z
m-172 -15 c4 -3 2 -12 -4 -19 -18 -22 -7 -69 16 -69 29 0 25 -28 -5 -35 -18
-5 -24 -12 -22 -26 2 -14 0 -15 -6 -6 -7 10 -10 147 -3 160 2 4 18 2 24 -5z
m-806 -25 c-3 -8 -6 -5 -6 6 -1 11 2 17 5 13 3 -3 4 -12 1 -19z m412 -154 c2
-139 0 -156 -17 -174 -19 -21 -19 -21 -30 20 -6 24 -6 42 -1 46 5 3 8 8 5 12
-2 4 -7 60 -11 125 -5 85 -4 117 5 117 6 0 9 4 6 9 -3 4 5 6 18 4 24 -5 24 -5
25 -159z m563 114 c-9 -9 -12 -7 -12 12 0 19 3 21 12 12 9 -9 9 -15 0 -24z
m-1099 2 c-3 -12 -8 -19 -11 -16 -5 6 5 36 12 36 2 0 2 -9 -1 -20z m647 -2
c10 -6 6 -7 -15 -3 -16 4 -34 11 -40 17 -12 12 31 1 55 -14z m13 -135 c-2 -43
-3 -109 -4 -148 -1 -62 -2 -68 -15 -50 -8 10 -14 13 -14 6 0 -7 -4 -10 -8 -7
-4 2 -9 57 -10 120 -3 104 -1 116 14 116 16 0 16 2 -2 14 -18 14 -18 15 6 24
14 5 27 8 30 7 3 -2 5 -39 3 -82z m-743 44 c0 -8 -7 -14 -15 -14 -25 0 -17 17
13 26 1 1 2 -5 2 -12z m80 3 c0 -5 -2 -10 -4 -10 -3 0 -8 5 -11 10 -3 6 -1 10
4 10 6 0 11 -4 11 -10z m790 -5 c0 -2 -17 -13 -37 -24 -21 -11 -31 -20 -21
-21 29 0 30 -18 5 -55 -20 -29 -26 -33 -31 -20 -15 39 -3 95 20 95 8 0 14 4
14 9 0 5 8 12 18 14 26 7 32 7 32 2z m-655 -42 c18 -14 18 -15 2 -9 -10 3 -23
6 -28 6 -5 0 -9 5 -9 10 0 14 12 12 35 -7z m965 -3 c0 -5 -5 -10 -11 -10 -5 0
-7 5 -4 10 3 6 8 10 11 10 2 0 4 -4 4 -10z m191 -53 c-8 -8 -11 -2 -11 19 0
40 14 54 18 19 2 -15 -1 -32 -7 -38z m-361 17 c0 -8 -5 -12 -10 -9 -6 4 -8 11
-5 16 9 14 15 11 15 -7z m-934 -31 c-10 -10 -19 5 -10 18 6 11 8 11 12 0 2 -7
1 -15 -2 -18z m777 -43 c3 -13 0 -20 -9 -20 -8 0 -14 -7 -14 -15 0 -8 5 -15
10 -15 6 0 10 -11 10 -25 0 -16 6 -25 15 -25 8 0 15 -4 15 -10 0 -22 -32 -8
-50 23 -21 34 -26 72 -11 81 5 3 7 16 3 29 -5 19 -3 20 10 9 9 -7 18 -22 21
-32z m-853 0 c0 -5 -2 -10 -4 -10 -3 0 -8 5 -11 10 -3 6 -1 10 4 10 6 0 11 -4
11 -10z m797 -24 c-2 -6 0 -24 5 -41 5 -16 11 -43 13 -59 4 -28 4 -28 -15 -11
-11 10 -19 27 -19 39 0 11 -2 40 -4 64 -4 35 -2 40 10 31 7 -7 12 -17 10 -23z
m-740 2 c-3 -8 -6 -5 -6 6 -1 11 2 17 5 13 3 -3 4 -12 1 -19z m1088 12 c3 -5
3 -15 -1 -21 -6 -11 -23 6 -24 24 0 10 18 9 25 -3z m-197 -43 c6 3 12 -2 12
-11 0 -26 -17 -27 -34 -1 -19 28 -21 48 -3 24 7 -9 18 -14 25 -12z m-43 -28
c5 -20 3 -35 -5 -42 -10 -9 -12 -7 -7 10 3 13 0 21 -6 20 -9 -2 -13 24 -8 49
3 14 20 -10 26 -37z m85 -20 c0 -6 -4 -7 -10 -4 -5 3 -10 -2 -10 -11 0 -10 -3
-15 -6 -11 -9 9 6 48 17 42 5 -4 9 -11 9 -16z m-253 -164 c-1 -81 -5 -109 -16
-113 -11 -4 -12 18 -8 119 3 68 6 126 7 129 0 3 5 -2 10 -11 5 -9 8 -65 7
-124z m273 110 c0 -17 4 -23 14 -19 8 3 17 -1 22 -8 4 -7 4 -10 0 -6 -15 13
-35 -16 -24 -35 5 -9 6 -22 3 -27 -3 -6 -1 -10 4 -10 6 0 11 -4 11 -10 0 -5
-7 -10 -15 -10 -8 0 -15 5 -15 10 0 6 -6 10 -14 10 -9 0 -16 12 -18 28 -2 19
-8 26 -20 24 -13 -2 -16 2 -12 13 4 9 13 14 21 11 9 -4 16 4 20 24 7 36 23 40
23 5z m-1016 0 c-4 -8 -10 -12 -15 -9 -11 6 -2 24 11 24 5 0 7 -7 4 -15z m946
5 c0 -5 -17 -9 -37 -9 -38 1 -38 1 -8 9 43 11 45 11 45 0z m160 -9 c0 -5 3
-17 6 -26 5 -13 2 -16 -11 -14 -10 2 -21 14 -26 27 -7 18 -5 22 11 22 11 0 20
-4 20 -9z m275 -61 c3 -5 1 -10 -4 -10 -6 0 -11 5 -11 10 0 6 2 10 4 10 3 0 8
-4 11 -10z m-1300 -29 c-6 -5 -25 10 -25 20 0 5 6 4 14 -3 8 -7 12 -15 11 -17z
m942 -47 c-3 -3 -12 -4 -19 -1 -8 3 -5 6 6 6 11 1 17 -2 13 -5z m-817 -34 c0
-5 -4 -10 -10 -10 -5 0 -10 5 -10 10 0 6 5 10 10 10 6 0 10 -4 10 -10z m747
-12 c-3 -8 -6 -5 -6 6 -1 11 2 17 5 13 3 -3 4 -12 1 -19z m143 2 c0 -5 -4 -10
-10 -10 -5 0 -10 5 -10 10 0 6 5 10 10 10 6 0 10 -4 10 -10z"/>
<path d="M4047 2192 c-11 -12 -13 -22 -7 -32 8 -13 10 -12 10 3 0 10 5 15 10
12 6 -3 10 -1 10 4 0 6 7 11 16 11 8 0 12 5 9 10 -9 15 -30 12 -48 -8z"/>
<path d="M4050 2094 c-11 -37 -11 -47 0 -54 9 -6 8 -11 -6 -20 -16 -9 -16 -11
-2 -6 10 3 20 1 23 -4 9 -14 57 -8 63 8 3 8 0 17 -5 21 -6 3 -17 26 -25 50 -8
25 -19 46 -25 48 -5 2 -16 -17 -23 -43z"/>
<path d="M4033 1739 c14 -8 16 -14 6 -25 -8 -10 -8 -14 0 -14 6 0 11 -7 11
-15 0 -8 -7 -15 -16 -15 -14 0 -14 -3 -3 -16 11 -14 14 -13 24 6 6 11 9 36 7
55 -3 28 -9 35 -26 35 -19 -1 -20 -1 -3 -11z"/>
<path d="M4206 1728 c4 -13 9 -34 10 -48 1 -14 3 -29 3 -33 1 -5 5 -6 10 -3 5
3 7 21 4 40 -2 19 0 37 6 41 20 11 12 25 -15 25 -22 0 -24 -3 -18 -22z"/>
<path d="M4270 1683 c0 -55 11 -63 24 -18 3 12 4 9 2 -7 -3 -27 -2 -27 37 -22
51 6 56 10 31 29 -17 13 -17 14 -1 15 21 0 23 20 2 20 -8 0 -15 5 -15 10 0 6
7 10 15 10 8 0 15 5 15 10 0 6 -12 10 -26 10 -26 0 -27 -1 -21 -50 4 -29 2
-50 -3 -50 -6 0 -10 23 -10 50 0 51 -15 69 -23 28 l-4 -23 -2 23 c0 12 -5 22
-11 22 -5 0 -10 -26 -10 -57z"/>
<path d="M4401 1689 c-13 -58 -8 -72 14 -43 12 16 14 17 15 3 0 -9 6 -19 14
-22 11 -5 12 1 6 26 -4 18 -11 44 -14 60 -10 42 -23 32 -35 -24z"/>
<path d="M4460 1730 c0 -5 5 -10 10 -10 6 0 10 -23 10 -51 l0 -51 69 4 c73 4
95 13 71 29 -13 8 -13 10 0 20 11 8 12 12 3 16 -7 2 -13 11 -13 19 0 9 5 12
10 9 6 -3 10 1 10 9 0 9 -9 16 -20 16 -18 0 -20 -7 -20 -57 0 -44 -3 -54 -12
-45 -7 7 -11 28 -10 47 2 25 -3 37 -17 44 -30 16 -31 15 -31 -44 0 -30 -4 -55
-9 -55 -14 0 -24 71 -12 83 18 18 13 27 -14 27 -14 0 -25 -4 -25 -10z m94 -85
c3 -8 1 -15 -4 -15 -6 0 -10 7 -10 15 0 8 2 15 4 15 2 0 6 -7 10 -15z"/>
<path d="M4640 1713 c0 -9 10 -28 23 -41 l22 -24 -22 6 c-26 8 -30 -5 -8 -24
33 -27 47 18 18 60 -16 22 -16 23 0 17 11 -4 17 -1 17 8 0 9 -10 15 -25 15
-17 0 -25 -6 -25 -17z"/>
<path d="M3850 1580 c0 -51 12 -64 38 -38 25 25 11 88 -19 88 -16 0 -19 -8
-19 -50z m27 -17 c-3 -10 -5 -2 -5 17 0 19 2 27 5 18 2 -10 2 -26 0 -35z"/>
<path d="M3911 1613 c0 -10 4 -36 8 -58 9 -40 9 -39 10 18 0 32 -3 57 -9 57
-5 0 -10 -8 -9 -17z"/>
<path d="M3961 1616 c-17 -21 -9 -77 12 -90 14 -8 20 -8 27 4 13 20 8 52 -9
58 -10 3 -12 -1 -8 -17 3 -11 1 -21 -4 -21 -5 0 -9 14 -9 30 0 21 5 30 16 30
8 0 12 5 9 10 -9 14 -21 12 -34 -4z"/>
<path d="M4018 1571 c-2 -44 0 -57 10 -54 14 6 17 99 3 107 -5 4 -11 -20 -13
-53z"/>
<path d="M4058 1607 c6 -7 12 -30 15 -52 l4 -40 1 43 c1 23 7 42 12 42 6 0 10
5 10 10 0 6 -12 10 -26 10 -20 0 -24 -3 -16 -13z"/>
<path d="M4115 1574 c-7 -49 0 -68 16 -44 8 13 10 13 18 0 17 -25 20 -7 8 43
-13 60 -33 61 -42 1z"/>
<path d="M4180 1564 c0 -51 2 -55 22 -52 25 4 37 28 14 28 -12 0 -16 10 -16
40 0 22 -4 40 -10 40 -5 0 -10 -25 -10 -56z"/>
<path d="M4347 1614 c-13 -13 -7 -55 8 -60 8 -4 15 -10 15 -15 0 -5 -7 -9 -15
-9 -17 0 -20 -16 -5 -25 14 -9 40 13 40 33 0 8 -7 24 -17 34 -15 17 -15 18 1
18 10 0 16 6 14 13 -5 14 -31 21 -41 11z"/>
<path d="M4400 1572 c0 -56 7 -71 31 -65 17 5 20 13 17 52 -3 39 -6 46 -25 49
-21 3 -23 -1 -23 -36z m27 -29 c-3 -10 -5 -2 -5 17 0 19 2 27 5 18 2 -10 2
-26 0 -35z"/>
<path d="M4460 1573 c0 -71 8 -83 52 -83 22 0 37 4 33 9 -3 5 -1 12 5 16 5 3
10 -1 10 -9 0 -28 57 -20 76 10 22 33 9 78 -24 82 -20 3 -22 -1 -24 -50 l-2
-53 -3 50 c-2 28 -8 54 -14 60 -6 5 -9 4 -9 -4 0 -11 -3 -11 -15 -1 -13 11
-15 5 -15 -44 0 -38 -4 -56 -12 -56 -9 0 -12 16 -10 57 4 63 -13 66 -21 3 -4
-33 -4 -33 -5 8 -2 52 -22 56 -22 5z m162 -35 c-9 -9 -12 -7 -12 12 0 19 3 21
12 12 9 -9 9 -15 0 -24z"/>
<path d="M3895 1490 c-8 -13 4 -50 16 -50 5 0 9 -4 9 -10 0 -5 -7 -10 -16 -10
-9 0 -14 -5 -12 -11 2 -6 7 -10 11 -10 4 1 14 1 22 1 20 0 19 39 -2 62 -15 17
-15 18 0 18 10 0 17 5 17 10 0 13 -37 13 -45 0z"/>
<path d="M3960 1450 c0 -27 5 -50 10 -50 6 0 10 5 10 12 0 6 6 4 13 -6 11 -15
13 -10 13 38 -1 53 -8 71 -19 44 -4 -10 -6 -10 -6 0 -1 6 -5 12 -11 12 -5 0
-10 -22 -10 -50z"/>
<path d="M4035 1480 c3 -14 8 -40 12 -57 7 -38 23 -44 23 -9 0 14 4 36 10 50
5 14 5 28 1 31 -5 3 -12 -3 -15 -12 -6 -14 -8 -14 -22 3 -15 18 -15 18 -9 -6z"/>
<path d="M4155 1443 c8 -56 14 -68 26 -56 14 14 23 103 11 103 -6 0 -13 -8
-15 -17 -4 -17 -5 -17 -6 0 0 9 -6 17 -12 17 -8 0 -9 -15 -4 -47z"/>
<path d="M4220 1441 c0 -53 17 -80 38 -59 14 14 16 108 3 108 -6 0 -12 -19
-14 -42 l-4 -43 -1 43 c-3 59 -22 53 -22 -7z"/>
<path d="M4345 1450 c-9 -41 19 -88 41 -69 10 8 14 26 12 53 -2 33 -7 42 -25
44 -17 3 -23 -3 -28 -28z m34 -22 c0 -27 -2 -29 -8 -13 -5 11 -6 26 -4 33 8
21 13 13 12 -20z"/>
<path d="M4420 1425 c0 -35 4 -54 10 -50 6 3 10 12 10 20 0 7 7 16 16 19 25 9
14 60 -13 64 -22 3 -23 0 -23 -53z m27 13 c-3 -8 -6 -5 -6 6 -1 11 2 17 5 13
3 -3 4 -12 1 -19z"/>
<path d="M4482 1428 c3 -46 6 -53 26 -56 12 -2 22 1 22 7 0 6 -7 11 -15 11
-21 0 -19 30 3 30 16 1 16 1 0 14 -22 16 -23 26 -2 26 8 0 12 5 9 10 -3 6 -15
10 -26 10 -18 0 -20 -6 -17 -52z"/>
<path d="M4547 1473 c-11 -10 -8 -91 3 -98 6 -3 10 2 10 11 0 16 1 16 15 -2
13 -17 14 -14 14 41 0 33 -3 54 -6 47 -3 -9 -9 -10 -17 -3 -7 6 -16 8 -19 4z"/>
<path d="M905 2994 c-10 -8 -29 -14 -41 -14 -26 0 -39 -26 -18 -34 9 -3 57 -6
107 -6 81 1 90 2 74 14 -17 13 -15 14 20 11 21 -1 26 0 11 2 -16 2 -28 9 -28
14 0 6 -9 5 -22 -2 -17 -9 -24 -9 -32 3 -16 22 -50 27 -71 12z"/>
<path d="M3360 3005 c0 -5 5 -17 10 -25 5 -8 10 -10 10 -5 0 6 -5 17 -10 25
-5 8 -10 11 -10 5z"/>
<path d="M3100 2980 c0 -11 5 -20 10 -20 6 0 10 9 10 20 0 11 -4 20 -10 20 -5
0 -10 -9 -10 -20z"/>
<path d="M3860 2948 c-6 -29 -14 -81 -17 -115 -6 -62 -6 -63 -37 -63 -26 -1
-28 -2 -13 -11 15 -9 17 -23 16 -97 -1 -50 -7 -90 -13 -94 -8 -6 -8 -10 1 -16
16 -10 9 -172 -8 -182 -8 -6 -8 -9 0 -14 6 -4 8 -18 5 -32 -4 -16 -2 -24 6
-24 10 0 10 -3 0 -15 -15 -19 -19 -73 -6 -79 8 -2 7 -10 -1 -25 -16 -26 -16
-31 0 -31 6 0 25 13 40 29 15 17 36 33 47 36 19 6 20 16 20 141 0 83 4 134 10
134 6 0 10 16 10 36 0 21 -4 33 -10 29 -15 -9 -12 4 5 21 18 19 19 34 2 34 -9
0 -12 31 -14 118 0 64 -4 137 -7 162 -4 25 -7 60 -7 78 0 49 -16 38 -29 -20z"/>
<path d="M4050 2975 c0 -18 5 -25 20 -25 15 0 20 7 20 25 0 18 -5 25 -20 25
-15 0 -20 -7 -20 -25z"/>
<path d="M1916 2974 c-5 -14 -4 -15 9 -4 17 14 19 20 6 20 -5 0 -12 -7 -15
-16z"/>
<path d="M3759 2979 c-10 -53 -3 -113 11 -104 10 6 7 91 -3 101 -4 4 -7 5 -8
3z"/>
<path d="M2120 2962 c0 -4 10 -9 22 -9 18 -2 20 0 8 7 -18 12 -30 13 -30 2z"/>
<path d="M2392 2940 c0 -19 2 -27 5 -17 2 9 2 25 0 35 -3 9 -5 1 -5 -18z"/>
<path d="M788 2953 c6 -2 18 -2 25 0 6 3 1 5 -13 5 -14 0 -19 -2 -12 -5z"/>
<path d="M2085 2935 c0 -14 6 -25 13 -25 6 0 12 11 12 25 0 14 -6 25 -12 25
-7 0 -13 -11 -13 -25z"/>
<path d="M3360 2941 c0 -12 5 -21 10 -21 6 0 10 6 10 14 0 8 -4 18 -10 21 -5
3 -10 -3 -10 -14z"/>
<path d="M3916 2920 c-6 -41 -1 -64 13 -56 8 5 7 84 -1 92 -3 2 -8 -14 -12
-36z"/>
<path d="M2270 2928 c0 -10 4 -18 9 -18 5 0 11 8 13 18 3 11 0 19 -8 19 -8 0
-14 -9 -14 -19z"/>
<path d="M2152 2920 c0 -14 2 -19 5 -12 2 6 2 18 0 25 -3 6 -5 1 -5 -13z"/>
<path d="M2202 2910 c0 -14 2 -19 5 -12 2 6 2 18 0 25 -3 6 -5 1 -5 -13z"/>
<path d="M4500 2901 c0 -6 -7 -8 -16 -4 -14 5 -15 3 -5 -15 6 -12 11 -25 10
-29 -1 -4 3 -19 9 -33 10 -24 11 -24 11 -3 1 12 7 24 14 26 9 4 9 6 -1 6 -9 1
-10 6 -3 19 6 12 5 21 -5 30 -8 7 -14 8 -14 3z"/>
<path d="M3100 2870 c0 -16 2 -30 4 -30 2 0 6 14 8 30 3 17 1 30 -4 30 -4 0
-8 -13 -8 -30z"/>
<path d="M4351 2884 c0 -11 3 -14 6 -6 3 7 2 16 -1 19 -3 4 -6 -2 -5 -13z"/>
<path d="M2391 2864 c0 -11 3 -14 6 -6 3 7 2 16 -1 19 -3 4 -6 -2 -5 -13z"/>
<path d="M4316 2862 c-12 -11 -6 -72 7 -72 24 1 46 26 41 47 -6 20 -37 37 -48
25z"/>
<path d="M4455 2820 c3 -5 8 -10 11 -10 2 0 4 5 4 10 0 6 -5 10 -11 10 -5 0
-7 -4 -4 -10z"/>
<path d="M3761 2804 c0 -11 3 -14 6 -6 3 7 2 16 -1 19 -3 4 -6 -2 -5 -13z"/>
<path d="M3102 2790 c0 -14 2 -19 5 -12 2 6 2 18 0 25 -3 6 -5 1 -5 -13z"/>
<path d="M3922 2790 c0 -14 2 -19 5 -12 2 6 2 18 0 25 -3 6 -5 1 -5 -13z"/>
<path d="M3965 2800 c-3 -5 -1 -10 4 -10 6 0 11 5 11 10 0 6 -2 10 -4 10 -3 0
-8 -4 -11 -10z"/>
<path d="M2392 2780 c0 -14 2 -19 5 -12 2 6 2 18 0 25 -3 6 -5 1 -5 -13z"/>
<path d="M1988 2773 c-21 -5 -23 -31 -4 -55 19 -25 23 -23 28 18 4 38 2 42
-24 37z"/>
<path d="M4630 2760 c0 -13 7 -20 20 -20 18 0 19 3 10 20 -6 11 -15 20 -20 20
-6 0 -10 -9 -10 -20z"/>
<path d="M2044 2755 c-4 -10 -1 -21 7 -27 11 -8 10 -9 -4 -4 -14 4 -18 1 -15
-12 2 -9 13 -18 26 -20 21 -3 22 0 19 34 -4 41 -23 57 -33 29z"/>
<path d="M2167 2728 c3 -13 10 -28 15 -35 5 -7 7 -21 3 -32 -3 -10 -1 -22 5
-26 5 -3 10 -3 11 2 1 10 7 49 14 86 4 24 2 27 -24 27 -25 0 -28 -3 -24 -22z"/>
<path d="M1940 2730 c0 -5 5 -10 11 -10 5 0 7 5 4 10 -3 6 -8 10 -11 10 -2 0
-4 -4 -4 -10z"/>
<path d="M2247 2721 c-4 -17 -2 -18 13 -8 10 6 16 15 14 19 -9 14 -22 9 -27
-11z"/>
<path d="M3750 2703 c0 -22 2 -25 10 -13 13 20 13 40 0 40 -5 0 -10 -12 -10
-27z"/>
<path d="M4470 2726 c0 -3 9 -10 20 -16 11 -6 20 -8 20 -6 0 3 -9 10 -20 16
-11 6 -20 8 -20 6z"/>
<path d="M3101 2704 c0 -11 3 -14 6 -6 3 7 2 16 -1 19 -3 4 -6 -2 -5 -13z"/>
<path d="M2136 2695 c4 -8 8 -15 10 -15 2 0 4 7 4 15 0 8 -4 15 -10 15 -5 0
-7 -7 -4 -15z"/>
<path d="M3921 2694 c0 -11 3 -14 6 -6 3 7 2 16 -1 19 -3 4 -6 -2 -5 -13z"/>
<path d="M2251 2684 c-7 -8 -11 -17 -8 -20 8 -9 37 8 37 22 0 18 -11 17 -29
-2z"/>
<path d="M1988 2673 c7 -3 16 -2 19 1 4 3 -2 6 -13 5 -11 0 -14 -3 -6 -6z"/>
<path d="M4461 2633 c18 -23 43 -42 48 -37 5 4 -47 54 -56 54 -3 0 1 -8 8 -17z"/>
<path d="M3752 2615 c0 -16 2 -22 5 -12 2 9 2 23 0 30 -3 6 -5 -1 -5 -18z"/>
<path d="M2254 2583 c0 -16 -3 -44 -7 -63 -4 -19 -4 -28 -1 -20 4 8 13 30 21
47 15 32 12 63 -5 63 -5 0 -9 -12 -8 -27z"/>
<path d="M2272 2533 c-17 -31 -28 -143 -13 -143 6 0 11 -8 10 -17 0 -11 -3
-13 -6 -5 -8 20 -22 14 -16 -8 3 -11 0 -20 -6 -20 -6 0 -11 5 -11 11 0 6 -8 8
-19 4 -15 -4 -20 0 -23 17 -3 19 -5 17 -9 -10 -4 -25 -2 -32 8 -28 7 3 13 -1
13 -8 0 -17 27 -24 60 -16 24 6 25 10 28 92 2 47 2 101 0 119 -3 33 -3 33 -16
12z"/>
<path d="M4462 2530 c17 -27 39 -33 56 -16 14 13 13 14 -5 10 -11 -3 -25 1
-32 10 -19 23 -33 20 -19 -4z"/>
<path d="M4490 2470 c0 -5 5 -10 10 -10 6 0 10 5 10 10 0 6 -4 10 -10 10 -5 0
-10 -4 -10 -10z"/>
<path d="M4538 2459 c-3 -8 -2 -23 2 -33 5 -15 8 -16 12 -5 3 8 2 23 -2 33 -5
15 -8 16 -12 5z"/>
<path d="M2340 2430 c0 -5 5 -10 10 -10 6 0 10 5 10 10 0 6 -4 10 -10 10 -5 0
-10 -4 -10 -10z"/>
<path d="M2310 2266 c0 -8 5 -18 10 -21 6 -3 10 3 10 14 0 12 -4 21 -10 21 -5
0 -10 -6 -10 -14z"/>
<path d="M2225 2251 c-11 -3 -21 -10 -22 -16 -1 -5 -5 -19 -8 -30 -5 -15 -4
-16 3 -6 5 7 15 10 21 7 7 -4 11 1 11 13 0 10 6 21 13 24 20 7 4 14 -18 8z"/>
<path d="M2276 2223 c-9 -55 -8 -79 3 -67 10 10 19 104 10 104 -4 0 -9 -17
-13 -37z"/>
<path d="M2340 2250 c0 -5 5 -10 10 -10 6 0 10 5 10 10 0 6 -4 10 -10 10 -5 0
-10 -4 -10 -10z"/>
<path d="M4492 2240 c0 -14 2 -19 5 -12 2 6 2 18 0 25 -3 6 -5 1 -5 -13z"/>
<path d="M3874 2200 c-26 -10 -40 -40 -18 -40 9 0 12 5 8 12 -4 6 -3 8 3 5 10
-6 73 19 73 29 0 7 -44 3 -66 -6z"/>
<path d="M4474 2188 c-3 -4 15 -8 40 -8 25 0 46 2 46 4 0 8 -82 11 -86 4z"/>
<path d="M4575 2191 c-3 -2 -5 -17 -5 -32 0 -23 5 -28 28 -31 22 -2 27 -8 27
-30 -1 -35 4 -34 33 3 l24 29 -27 0 c-17 0 -24 4 -19 12 5 8 0 9 -14 6 -14 -4
-22 -2 -22 6 0 14 1 14 88 16 78 2 82 20 5 21 -32 1 -71 2 -86 3 -15 1 -30 0
-32 -3z"/>
<path d="M3893 2143 c-12 -2 -25 -12 -28 -21 -9 -21 -24 -104 -17 -98 2 3 15
1 28 -4 23 -9 24 -8 22 33 -3 38 -1 42 20 39 12 -2 22 2 22 7 0 6 -12 11 -26
11 -23 0 -24 1 -10 16 14 13 22 27 14 23 -2 -1 -13 -4 -25 -6z"/>
<path d="M4265 2130 c-3 -5 -1 -10 4 -10 6 0 11 5 11 10 0 6 -2 10 -4 10 -3 0
-8 -4 -11 -10z"/>
<path d="M4312 2117 c-15 -18 -4 -50 14 -43 9 3 14 -2 14 -13 0 -23 26 -48 32
-30 7 20 -4 69 -15 69 -5 0 -15 7 -21 16 -11 14 -14 14 -24 1z"/>
<path d="M4250 2100 c-13 -8 -12 -10 3 -10 9 0 17 5 17 10 0 12 -1 12 -20 0z"/>
<path d="M4245 2070 c-3 -5 -1 -10 4 -10 6 0 11 5 11 10 0 6 -2 10 -4 10 -3 0
-8 -4 -11 -10z"/>
<path d="M4288 2032 c-27 -5 -21 -21 10 -28 15 -3 32 -7 39 -9 18 -6 25 11 10
22 -18 14 -40 20 -59 15z"/>
<path d="M4624 2019 c-19 -22 -19 -22 4 -8 12 8 22 17 22 21 0 12 -6 9 -26
-13z"/>
<path d="M4298 1973 c6 -2 18 -2 25 0 6 3 1 5 -13 5 -14 0 -19 -2 -12 -5z"/>
<path d="M2326 1768 c-3 -13 -5 -36 -4 -53 2 -45 -9 -147 -18 -169 -6 -15 -4
-17 6 -11 9 5 11 4 6 -4 -7 -10 -13 -136 -20 -366 0 -22 -5 -46 -9 -52 -5 -8
-4 -13 3 -13 6 0 8 -5 5 -10 -12 -20 -15 -209 -3 -216 7 -5 9 1 4 19 -3 15 -1
29 6 33 7 4 8 3 4 -4 -4 -7 -1 -12 8 -12 9 0 15 -3 15 -7 -3 -20 2 -23 17 -9
8 9 12 20 9 26 -3 5 -3 16 2 23 8 12 9 42 11 337 1 126 -1 167 -12 175 -14 11
-30 88 -19 98 10 10 12 226 2 232 -5 3 -11 -4 -13 -17z"/>
<path d="M4850 1746 c0 -9 9 -14 20 -13 11 1 20 7 20 14 0 7 -9 13 -20 13 -11
0 -20 -6 -20 -14z"/>
<path d="M1983 1635 c0 -27 2 -38 4 -22 2 15 2 37 0 50 -2 12 -4 0 -4 -28z"/>
<path d="M382 1499 c7 -5 22 -9 34 -9 11 0 35 -11 54 -25 47 -35 53 -31 16 9
-26 28 -38 34 -74 33 -28 0 -39 -3 -30 -8z"/>
<path d="M130 1488 c0 -5 11 -8 25 -8 14 0 25 4 25 9 0 5 -11 8 -25 7 -14 0
-25 -4 -25 -8z"/>
<path d="M600 1489 c-11 -8 -12 -12 -2 -16 19 -8 14 -21 -10 -26 -17 -3 -15
-5 8 -6 25 -1 33 4 37 21 10 35 -5 47 -33 27z"/>
<path d="M5 1470 c-3 -5 -1 -10 4 -10 6 0 11 5 11 10 0 6 -2 10 -4 10 -3 0 -8
-4 -11 -10z"/>
<path d="M2466 1455 c-3 -9 -6 -22 -5 -28 0 -7 5 -1 10 12 5 13 8 26 5 28 -2
2 -6 -3 -10 -12z"/>
<path d="M3722 1415 c0 -16 2 -22 5 -12 2 9 2 23 0 30 -3 6 -5 -1 -5 -18z"/>
<path d="M0 1257 c0 -97 4 -177 9 -177 15 0 19 50 17 193 -2 89 -7 142 -14
149 -9 9 -12 -30 -12 -165z"/>
<path d="M2435 1359 c-4 -6 -5 -12 -2 -15 2 -3 7 2 10 11 7 17 1 20 -8 4z"/>
<path d="M2487 1330 c-18 -52 -27 -198 -32 -506 l-5 -352 30 -10 c26 -10 30
-9 30 7 0 11 -7 21 -15 24 -12 5 -14 34 -14 161 -1 148 0 154 19 149 18 -5 20
0 20 56 0 49 -3 59 -14 55 -8 -3 -17 -22 -19 -42 -2 -21 -2 24 1 98 4 139 7
154 23 145 5 -4 9 15 8 42 -1 62 -25 192 -32 173z"/>
<path d="M2520 1289 c0 -5 5 -7 10 -4 6 3 10 8 10 11 0 2 -4 4 -10 4 -5 0 -10
-5 -10 -11z"/>
<path d="M3276 1251 c-19 -29 -41 -130 -36 -161 6 -33 6 -32 14 20 9 67 26
123 39 131 6 4 5 9 -1 13 -6 3 -13 2 -16 -3z"/>
<path d="M3197 1102 c-3 -20 -10 -54 -15 -75 -6 -21 -13 -215 -17 -430 l-7
-392 30 -11 c27 -10 31 -9 35 7 3 12 -2 23 -14 29 -17 10 -18 23 -18 155 0 80
3 145 7 145 4 0 8 14 8 32 1 18 6 34 13 36 13 4 15 42 2 42 -5 0 -11 -8 -14
-17 -2 -10 -4 17 -5 60 -1 70 8 97 21 65 3 -8 6 -6 6 5 1 9 -3 17 -9 17 -15 0
-12 83 4 105 14 21 14 50 1 178 -9 86 -20 106 -28 49z"/>
<path d="M3287 1073 c-3 -21 -10 -56 -15 -78 -6 -23 -12 -207 -14 -438 l-3
-398 22 4 c12 2 24 -1 27 -7 2 -6 5 -3 5 7 1 10 -6 20 -14 23 -23 9 -22 134 1
134 14 0 14 3 4 15 -10 12 -10 19 -2 27 17 17 15 28 -4 28 -13 0 -15 7 -9 38
4 20 7 108 6 195 -1 134 1 157 14 157 19 0 19 19 0 26 -8 4 -15 17 -15 30 0
15 5 22 14 18 18 -7 29 113 16 191 -5 33 -10 61 -10 63 0 1 -4 2 -9 2 -5 0
-11 -17 -14 -37z"/>
<path d="M321 890 c-1 -85 2 -130 9 -130 6 0 10 46 10 130 0 72 -4 130 -9 130
-5 0 -10 -58 -10 -130z"/>
<path d="M3712 940 c0 -19 2 -27 5 -17 2 9 2 25 0 35 -3 9 -5 1 -5 -18z"/>
<path d="M727 926 c-4 -10 -1 -13 9 -9 15 6 19 23 5 23 -5 0 -11 -7 -14 -14z"/>
<path d="M2234 858 c9 -101 8 -97 16 -53 7 35 -1 85 -14 85 -2 0 -3 -15 -2
-32z"/>
<path d="M3814 859 c-4 -7 -12 -30 -19 -53 -7 -23 -18 -41 -25 -41 -15 0 -23
-32 -10 -40 5 -3 7 -12 3 -20 -3 -8 -1 -15 5 -15 14 0 4 -100 -11 -119 -9 -11
-9 -15 -1 -18 7 -2 9 -13 6 -25 -3 -13 1 -24 12 -30 21 -12 22 -86 1 -94 -20
-8 -19 -21 3 -27 13 -4 11 -5 -5 -6 -37 -2 -26 -21 11 -21 29 0 34 -4 33 -20
-1 -12 -8 -20 -19 -20 -13 0 -18 -8 -18 -27 0 -29 -15 -22 -23 12 -3 11 -5
-14 -6 -57 -1 -51 -5 -78 -13 -81 -7 -3 9 -6 36 -6 46 -1 48 -2 30 -16 -10 -8
-27 -15 -36 -15 -11 0 -18 -7 -17 -17 0 -11 3 -13 6 -5 11 29 23 8 23 -43 l0
-55 35 0 c26 0 35 4 36 18 3 54 9 330 9 405 0 56 4 86 10 82 6 -3 10 1 10 10
0 9 -3 14 -7 12 -5 -3 -6 48 -4 113 4 151 -25 267 -55 219z m-4 -829 c0 -5 -2
-10 -4 -10 -3 0 -8 5 -11 10 -3 6 -1 10 4 10 6 0 11 -4 11 -10z"/>
<path d="M720 721 c0 -77 -3 -146 -6 -155 -4 -10 -1 -16 7 -16 11 0 15 33 17
155 3 106 0 155 -7 155 -7 0 -11 -46 -11 -139z"/>
<path d="M3881 844 c0 -11 3 -14 6 -6 3 7 2 16 -1 19 -3 4 -6 -2 -5 -13z"/>
<path d="M3712 780 c0 -14 2 -19 5 -12 2 6 2 18 0 25 -3 6 -5 1 -5 -13z"/>
<path d="M3882 775 c0 -16 2 -22 5 -12 2 9 2 23 0 30 -3 6 -5 -1 -5 -18z"/>
<path d="M2637 585 c-4 -8 -2 -17 3 -20 6 -4 10 3 10 14 0 25 -6 27 -13 6z"/>
<path d="M2593 535 c0 -27 2 -38 4 -22 2 15 2 37 0 50 -2 12 -4 0 -4 -28z"/>
<path d="M4873 553 c-18 -7 -16 -23 2 -23 8 0 15 7 15 15 0 8 -1 15 -2 14 -2
0 -9 -3 -15 -6z"/>
<path d="M1026 504 c-9 -24 -7 -54 4 -54 6 0 10 16 10 35 0 38 -4 44 -14 19z"/>
<path d="M1088 473 c6 -2 18 -2 25 0 6 3 1 5 -13 5 -14 0 -19 -2 -12 -5z"/>
<path d="M2585 470 c3 -5 8 -10 11 -10 2 0 4 5 4 10 0 6 -5 10 -11 10 -5 0 -7
-4 -4 -10z"/>
<path d="M3771 424 c0 -11 3 -14 6 -6 3 7 2 16 -1 19 -3 4 -6 -2 -5 -13z"/>
<path d="M2690 366 c0 -2 7 -7 16 -10 8 -3 12 -2 9 4 -6 10 -25 14 -25 6z"/>
<path d="M3211 351 c-10 -6 -10 -10 -1 -16 13 -8 24 -1 19 14 -3 6 -10 7 -18
2z"/>
<path d="M3871 314 c0 -11 3 -14 6 -6 3 7 2 16 -1 19 -3 4 -6 -2 -5 -13z"/>
<path d="M3316 185 c4 -8 8 -15 10 -15 2 0 4 7 4 15 0 8 -4 15 -10 15 -5 0 -7
-7 -4 -15z"/>
<path d="M3702 150 c0 -14 2 -19 5 -12 2 6 2 18 0 25 -3 6 -5 1 -5 -13z"/>
<path d="M169 128 c-1 -13 -2 -34 -3 -48 -1 -18 -10 -29 -33 -39 -59 -26 -42
-41 48 -41 l82 0 -7 42 c-9 54 -19 69 -26 38 -8 -33 -35 -33 -36 0 -3 61 -5
70 -14 70 -5 0 -11 -10 -11 -22z"/>
<path d="M3751 38 c0 -33 2 -38 9 -23 12 28 12 65 0 65 -5 0 -10 -19 -9 -42z"/>
<path d="M1078 3 c6 -2 18 -2 25 0 6 3 1 5 -13 5 -14 0 -19 -2 -12 -5z"/>
</g>
</svg>
