<?xml version="1.0" standalone="no"?>
<!DOCTYPE svg PUBLIC "-//W3C//DTD SVG 20010904//EN"
 "http://www.w3.org/TR/2001/REC-SVG-20010904/DTD/svg10.dtd">
<svg version="1.0" xmlns="http://www.w3.org/2000/svg"
 width="490.000000pt" height="340.000000pt" viewBox="0 0 490.000000 340.000000"
 preserveAspectRatio="xMidYMid meet">

<g transform="translate(0.000000,340.000000) scale(0.100000,-0.100000)"
fill="#000000" stroke="none">
<path d="M1 3325 l3 -75 33 0 c23 0 33 -5 33 -15 0 -10 -10 -15 -33 -15 l-34
0 1 -62 c2 -61 3 -63 28 -63 15 0 30 -3 34 -7 4 -5 -8 -8 -27 -8 -31 0 -34 -3
-35 -30 -1 -19 4 -30 12 -30 8 0 14 -4 14 -10 0 -5 -6 -7 -12 -5 -8 3 -14 -4
-14 -20 -2 -22 3 -26 37 -31 21 -4 36 -11 33 -16 -4 -5 -15 -7 -26 -5 -31 8
-51 -2 -37 -19 8 -10 8 -14 0 -14 -6 0 -11 -4 -11 -10 0 -5 16 -10 35 -10 19
0 35 -4 35 -10 0 -5 -15 -10 -32 -10 -28 0 -33 -4 -34 -24 -2 -22 3 -25 35
-29 l36 -4 -37 -1 c-37 -2 -50 -15 -26 -25 10 -4 10 -6 1 -6 -10 -1 -13 -84
-13 -381 l0 -379 118 -4 117 -3 -117 -2 c-111 -2 -118 -3 -118 -22 0 -19 5
-21 77 -19 128 4 163 1 157 -14 -3 -9 -16 -12 -36 -9 -20 3 -29 1 -24 -6 10
-17 -21 -22 -99 -15 -70 6 -75 5 -75 -14 0 -18 6 -20 65 -16 57 3 65 1 65 -14
0 -11 3 -14 8 -7 4 5 16 11 27 11 11 1 30 4 43 8 19 6 22 4 22 -17 0 -27 -3
-28 -125 -28 -45 0 -81 4 -83 10 -6 18 -22 -1 -22 -27 0 -21 4 -25 24 -21 14
3 30 1 37 -3 7 -4 21 -3 31 2 11 6 18 6 18 0 0 -5 10 -7 22 -5 18 3 16 1 -6
-9 l-29 -14 26 -7 c14 -3 33 -3 43 1 12 4 15 2 12 -8 -4 -11 -25 -14 -91 -12
-81 2 -87 1 -87 -17 0 -12 7 -21 18 -22 9 -1 24 -2 32 -4 8 -1 24 -2 35 -3 15
-1 17 -3 7 -10 -10 -6 -7 -10 13 -13 19 -4 25 -2 21 7 -3 10 10 14 50 17 l54
3 0 -30 c0 -19 -3 -25 -8 -17 -12 18 -71 5 -68 -16 2 -9 8 -18 14 -20 18 -6
14 -22 -5 -23 -15 0 -15 -2 2 -9 34 -14 -5 -22 -89 -18 -72 3 -76 2 -76 -18 0
-26 16 -31 90 -29 30 1 58 -4 63 -9 5 -8 10 -6 16 3 8 12 14 12 42 1 l33 -14
-30 -8 c-16 -4 -71 -8 -122 -9 -81 -1 -93 -3 -90 -17 3 -13 16 -18 58 -19 30
-2 63 -3 72 -4 9 0 24 -12 33 -26 l17 -25 -91 3 c-68 3 -91 1 -91 -8 0 -10 31
-13 120 -13 73 0 120 -4 120 -10 0 -6 -47 -10 -120 -10 l-120 0 0 -680 0 -680
103 0 c82 1 99 3 86 13 -22 17 -32 62 -16 75 10 9 160 17 255 13 32 -1 32 -1
32 -51 0 -27 5 -50 10 -50 6 0 10 22 10 49 0 28 4 53 10 56 16 10 213 18 253
11 35 -7 37 -9 37 -46 0 -22 -4 -40 -10 -40 -5 0 -10 -5 -10 -11 0 -5 4 -8 9
-4 5 3 12 1 16 -5 3 -5 25 -10 49 -10 l42 0 0 54 c-1 30 2 57 5 61 12 12 239
19 239 7 0 -6 -7 -15 -17 -20 -14 -9 -14 -11 6 -21 11 -7 29 -11 38 -9 11 2
18 -4 18 -17 4 -56 3 -55 50 -55 46 0 54 7 33 28 -16 16 -28 15 -28 -3 0 -8
-9 -15 -20 -15 -17 0 -19 3 -10 19 6 12 6 22 1 25 -5 3 -9 22 -9 41 l0 35 144
0 144 0 1 -52 c1 -29 1 -59 0 -66 -3 -18 2215 -17 2237 1 12 9 16 9 19 0 4
-10 44 -13 155 -13 140 0 150 1 137 17 -13 16 -13 16 11 0 21 -15 56 -17 281
-17 l258 0 19 25 c25 31 35 31 52 0 13 -25 15 -25 137 -25 l123 0 0 123 c0
179 5 170 -99 163 -47 -4 -96 -9 -108 -13 -29 -7 -29 1 -1 27 12 11 34 20 50
20 33 0 37 17 6 23 -13 2 3 3 34 1 42 -2 62 -8 79 -25 17 -17 23 -19 30 -8 12
20 11 146 -2 188 -28 94 -28 89 -5 96 27 8 13 14 -48 17 -75 5 -73 28 3 28
l61 0 0 238 0 237 -55 -3 c-40 -3 -56 -8 -60 -21 -3 -11 -17 -17 -42 -18 -38
-1 -38 -1 -38 36 1 37 22 71 45 71 7 0 10 15 7 42 -4 41 -5 43 -37 43 l-32 0
1 -133 c1 -73 6 -145 12 -158 12 -32 11 -43 -1 -24 -5 8 -10 10 -10 4 0 -5 6
-18 13 -28 8 -10 12 -29 9 -42 -4 -20 -9 -22 -36 -18 l-31 5 33 -15 c18 -9 39
-15 45 -13 7 1 12 -8 12 -21 0 -17 -15 -33 -62 -63 -59 -37 -63 -38 -63 -18 0
12 8 28 18 35 33 26 -4 14 -51 -16 -53 -33 -60 -29 -21 13 24 26 26 33 19 85
-5 45 -13 64 -37 87 l-30 30 -3 156 c-2 135 0 156 13 155 8 0 17 5 20 13 3 10
-2 11 -19 7 -24 -7 -24 -7 1 8 24 15 24 17 -2 20 -9 1 -13 25 -13 83 1 45 3
84 5 87 11 10 60 -7 60 -22 0 -25 11 -7 14 24 3 28 30 42 32 17 3 -28 6 -27
17 7 13 38 57 57 57 25 0 -10 -5 -13 -12 -9 -7 5 -9 2 -5 -8 3 -9 0 -21 -6
-27 -7 -7 -2 -7 15 1 14 7 24 18 21 24 -2 7 5 22 17 34 26 26 20 35 -17 25
-15 -5 -38 -7 -50 -6 -11 1 -29 -6 -40 -17 -10 -11 -36 -22 -58 -26 -82 -14
-75 15 -68 -286 5 -253 4 -268 -12 -267 -10 1 -28 12 -40 24 -19 18 -21 27
-15 70 4 26 4 55 -1 64 -4 9 -5 19 -2 23 3 3 -95 7 -218 8 -174 2 -199 3 -114
7 61 4 109 9 108 14 -2 4 -3 16 -3 26 0 13 -8 21 -22 23 -13 2 -24 10 -26 19
-4 24 88 47 161 41 l57 -4 1 38 1 39 10 -37 c17 -66 44 -42 50 45 l3 57 -78 0
c-50 0 -76 4 -72 10 3 6 37 10 76 10 68 0 85 10 52 29 -16 9 -16 10 -2 11 12
0 15 7 12 25 -5 22 -1 25 36 31 23 4 41 10 41 14 0 4 -18 4 -40 0 l-40 -7 0
33 c0 19 2 34 4 34 34 0 115 25 126 39 11 14 59 27 187 51 l173 33 0 29 c0 15
-1 28 -2 28 -2 0 -100 -20 -218 -44 -118 -24 -217 -42 -219 -40 -8 7 25 30 37
26 6 -2 12 1 12 7 0 7 11 9 25 7 14 -3 25 0 25 6 0 6 9 8 20 5 11 -3 20 -1 20
3 0 5 8 9 18 9 58 2 92 7 92 13 0 9 45 18 98 20 23 1 42 5 42 9 0 5 11 11 25
15 40 10 29 22 -13 14 -20 -5 -93 -20 -162 -34 -69 -14 -135 -29 -147 -32 -19
-5 -23 -2 -23 16 0 17 -4 20 -20 15 -22 -7 -25 2 -10 25 9 13 11 13 20 0 8
-13 10 -12 11 5 1 11 1 29 0 41 -1 11 7 28 17 37 24 22 79 13 88 -15 6 -22 1
-22 167 15 l97 22 0 32 c0 36 -18 44 -43 18 -8 -8 -17 -11 -21 -8 -3 4 -13 -2
-21 -13 -8 -10 -15 -14 -15 -9 -5 42 -5 65 1 65 4 0 5 9 2 20 -7 26 -28 26
-46 0 -13 -19 -15 -19 -21 -4 -4 10 0 24 9 34 13 14 14 19 3 24 -10 4 -10 7
-1 12 7 3 9 12 6 21 -5 12 -3 14 6 8 10 -5 11 -2 7 13 -4 12 0 34 9 52 9 17
15 38 13 47 -2 8 -15 -16 -30 -53 -15 -39 -29 -62 -31 -54 -3 8 -11 36 -17 63
-7 26 -16 47 -21 47 -4 0 -2 -19 7 -41 8 -23 17 -73 20 -110 6 -58 4 -69 -8
-69 -9 0 -18 7 -22 15 -4 11 -19 15 -53 14 -26 0 -42 -3 -36 -6 23 -9 14 -25
-9 -17 -22 6 -23 6 -5 -14 20 -22 10 -36 -18 -26 -15 6 -16 4 -6 -14 7 -12 20
-22 31 -22 24 0 35 -16 15 -24 -8 -3 -15 -1 -15 4 0 14 -40 6 -51 -11 -7 -11
-13 -9 -29 11 -21 27 -27 21 -8 -9 9 -15 8 -28 -5 -62 -27 -70 -31 -73 -58
-58 -13 7 -30 12 -36 11 -8 -2 -10 3 -7 13 4 10 2 15 -7 13 -10 -2 -14 9 -14
41 0 24 -5 46 -11 48 -7 2 -10 -6 -7 -22 3 -14 1 -25 -5 -25 -6 0 -4 -17 5
-41 14 -42 10 -66 -7 -39 -6 8 -10 11 -10 6 0 -6 -5 -5 -11 1 -6 6 -18 9 -25
6 -17 -6 -19 20 -4 48 7 13 7 19 0 19 -5 0 -10 -5 -10 -12 0 -6 -3 -9 -6 -5
-3 3 3 19 15 35 12 17 21 35 21 42 0 7 6 10 14 7 10 -4 16 2 18 16 4 25 74 76
106 77 12 0 22 5 22 10 0 6 -18 10 -40 10 l-39 0 42 39 c23 22 39 42 36 45 -3
3 -28 -17 -56 -44 -37 -36 -56 -48 -68 -44 -12 5 -24 -1 -36 -17 -16 -20 -20
-22 -29 -9 -8 13 -10 12 -10 -2 0 -11 -8 -18 -19 -18 -11 0 -22 -4 -25 -9 -3
-5 -21 -12 -40 -15 -19 -4 -48 -14 -65 -22 -41 -20 -55 -15 -36 13 16 23 111
63 150 63 14 0 25 4 25 9 0 20 -22 22 -56 6 -19 -9 -40 -15 -47 -12 -6 2 3 10
21 18 18 7 32 20 32 27 0 7 3 11 8 9 4 -3 7 20 8 52 0 50 6 64 45 123 24 37
57 88 74 114 l29 48 15 -35 c39 -87 -7 -267 -78 -304 -17 -8 -31 -17 -31 -18
0 -2 19 -3 43 -2 31 0 49 7 67 24 16 16 19 22 8 18 -15 -5 -14 0 4 46 41 104
64 139 145 219 46 44 83 83 83 86 0 3 -5 1 -12 -6 -20 -20 -28 -13 -17 16 6
15 13 38 15 52 3 14 10 38 16 53 6 15 8 30 5 33 -3 4 -13 -20 -22 -52 -27 -97
-43 -126 -111 -198 -67 -72 -86 -78 -66 -23 6 18 12 64 13 102 1 39 6 78 11
89 7 13 7 16 -1 12 -17 -11 -30 28 -26 85 l3 54 -14 -32 c-10 -23 -21 -33 -37
-34 -17 -1 -18 -2 -4 -6 15 -4 17 -11 12 -36 -12 -55 -22 -51 -46 14 -13 36
-25 56 -27 47 -2 -10 8 -47 22 -82 32 -80 32 -93 1 -131 l-24 -30 -1 25 c0 14
-9 52 -20 85 -11 33 -17 47 -15 30 3 -16 8 -61 11 -100 5 -63 3 -74 -21 -110
-26 -39 -26 -39 -21 -10 5 32 -21 145 -34 145 -4 0 -2 -25 6 -56 14 -62 7
-138 -17 -171 -23 -33 -80 -95 -83 -92 -2 2 -12 38 -22 79 -10 41 -20 67 -22
57 -2 -10 2 -31 8 -47 14 -33 19 -125 7 -136 -4 -4 -13 -2 -19 4 -7 7 -17 12
-23 12 -5 0 -2 -5 8 -11 23 -13 17 -43 -18 -100 -14 -21 -25 -43 -25 -49 0 -6
-6 -10 -12 -9 -7 1 -32 1 -55 0 -39 -1 -42 -3 -56 -43 l-15 -43 -1 43 c-1 41
-2 42 -36 42 -53 0 -42 20 13 22 40 1 42 2 12 5 -52 7 -110 -13 -110 -37 0
-11 -5 -20 -11 -20 -8 0 -7 -5 1 -15 17 -20 15 -21 -52 -29 -51 -5 -57 -4 -63
14 -10 31 4 152 20 175 39 55 44 59 60 45 19 -16 32 -5 16 14 -9 11 -6 22 14
51 14 21 25 45 25 53 0 9 10 27 23 41 12 14 15 20 5 13 -24 -19 -27 -6 -18 73
4 39 6 72 4 74 -12 13 -20 -22 -25 -110 -7 -97 -24 -149 -50 -149 -6 0 -8 4
-5 8 3 5 8 42 11 83 7 88 29 180 38 159 3 -8 4 -1 1 15 -8 39 -27 85 -36 85
-4 0 -5 -8 -1 -17 5 -14 3 -15 -7 -6 -10 9 -8 27 10 90 12 43 28 93 36 111 8
18 14 40 14 50 0 9 7 30 15 46 9 16 13 31 11 33 -6 6 -30 -42 -45 -89 -7 -21
-16 -38 -21 -38 -4 0 -11 -10 -14 -22 l-7 -23 -11 23 c-6 12 -15 22 -21 22 -5
0 -2 -11 7 -25 9 -13 16 -33 16 -44 0 -22 -16 -36 -24 -22 -4 5 -3 11 1 14 5
2 3 3 -3 1 -6 -1 -18 3 -25 9 -7 7 -5 1 6 -12 23 -27 27 -119 7 -143 -6 -8 -8
-19 -4 -23 4 -5 -1 -5 -10 -2 -12 4 -15 2 -11 -9 3 -7 9 -14 13 -14 4 0 4 -19
-1 -42 -4 -24 -8 -67 -9 -95 0 -39 -4 -53 -14 -53 -19 0 -82 73 -67 78 6 2 2
11 -11 21 l-21 18 23 34 24 34 -26 -23 c-23 -21 -27 -22 -41 -8 -9 9 -21 16
-28 16 -10 0 -10 -3 -1 -12 21 -21 13 -44 -27 -76 l-38 -31 -7 52 c-3 29 -6
69 -6 89 0 20 -5 40 -10 43 -5 3 -10 12 -10 18 0 7 4 6 10 -3 8 -13 10 -13 10
2 0 9 3 25 6 35 6 16 5 16 -10 -2 -16 -19 -17 -17 -12 50 l5 70 -13 -50 -13
-50 -12 30 c-10 23 -14 26 -21 15 -13 -19 -13 -33 0 -25 5 3 14 -14 21 -37 12
-48 3 -225 -13 -245 -5 -7 -7 -26 -3 -43 4 -19 3 -30 -4 -30 -6 0 -11 17 -12
38 0 20 -3 31 -6 25 -3 -8 -22 -13 -51 -12 -44 2 -45 2 -13 8 21 4 37 14 42
26 4 11 8 14 8 8 1 -7 6 -13 12 -13 5 0 8 4 4 9 -3 5 -1 31 5 58 8 32 8 49 1
51 -6 2 -4 13 5 28 9 13 15 24 13 24 -2 0 -46 3 -97 5 -51 2 -97 7 -103 10
-26 17 0 25 91 27 132 4 132 22 0 26 l-100 3 -1 32 c-2 74 3 88 47 132 24 25
44 52 44 61 0 13 7 16 35 11 19 -3 37 -1 40 4 4 5 1 9 -4 9 -18 0 -12 18 7 23
9 3 1 5 -18 6 -48 2 -77 21 -32 21 21 0 31 4 27 10 -4 6 -14 10 -23 9 -54 -5
-142 2 -142 12 0 7 10 9 25 7 14 -3 25 -2 25 2 0 10 -30 21 -39 15 -5 -2 -8 9
-9 25 -1 28 2 30 29 25 16 -3 29 -1 29 5 0 5 -3 9 -7 9 -24 -4 -53 2 -53 11 0
13 107 13 115 0 4 -6 3 -9 -2 -8 -4 2 -9 -1 -11 -7 -3 -13 66 -16 74 -4 3 5
-1 9 -8 9 -7 1 -2 8 12 16 14 8 17 13 8 10 -22 -7 -35 13 -17 25 9 5 -9 9 -48
9 -56 0 -63 2 -63 20 0 16 -7 20 -30 20 -16 0 -30 5 -30 11 0 7 10 9 25 7 14
-3 28 -1 31 3 3 5 -5 9 -18 9 -13 0 -30 4 -38 10 -12 8 -12 10 3 16 9 3 23 4
31 1 9 -4 14 2 14 19 0 19 -6 24 -24 24 -13 0 -24 4 -24 9 0 5 36 7 81 5 45
-2 89 1 98 6 9 5 11 10 5 10 -7 0 -14 9 -17 21 -4 14 1 23 16 29 l22 9 -23 0
c-16 1 -22 6 -20 17 2 10 -2 19 -9 21 -7 3 -9 -3 -6 -16 4 -17 1 -21 -21 -21
-18 0 -24 -4 -20 -15 5 -12 -2 -15 -32 -14 -22 0 -48 4 -59 9 -16 7 -13 9 18
9 20 1 37 6 37 11 0 6 -4 10 -10 10 -5 0 -10 7 -10 15 0 8 -4 15 -10 15 -5 0
-10 5 -10 10 0 6 7 10 15 10 9 0 12 6 9 15 -4 11 1 15 17 16 13 0 2 6 -26 13
-42 11 -46 13 -25 18 14 3 -46 6 -132 7 -134 1 -158 -1 -158 -14 0 -12 -13
-15 -55 -15 -42 0 -55 3 -55 15 0 13 -31 15 -216 15 -141 0 -213 -3 -209 -10
3 -5 -1 -10 -10 -10 -9 0 -13 5 -10 10 4 6 -7 10 -24 10 -17 0 -31 -4 -31 -10
0 -14 -83 -13 -97 1 -6 6 -13 7 -16 2 -4 -6 -29 -6 -59 -2 -29 3 -507 7 -1061
8 l-1008 1 2 -75z m915 52 c4 -4 -5 -7 -20 -7 -15 0 -25 4 -22 9 7 10 31 9 42
-2z m2054 -3 c0 -2 -7 -4 -15 -4 -8 0 -15 4 -15 10 0 5 7 7 15 4 8 -4 15 -8
15 -10z m-737 -13 c20 -1 37 -5 37 -10 0 -11 -200 -3 -245 9 -20 6 4 8 70 5
55 -2 117 -4 138 -4z m87 -10 c0 -10 -26 -9 -36 2 -4 4 2 7 14 7 12 0 22 -4
22 -9z m730 -1 c13 -9 13 -10 0 -10 -8 0 -22 5 -30 10 -13 9 -13 10 0 10 8 0
22 -5 30 -10z m87 4 c-3 -3 -12 -4 -19 -1 -8 3 -5 6 6 6 11 1 17 -2 13 -5z
m-3017 -8 c0 -2 -7 -6 -15 -10 -8 -3 -15 -1 -15 4 0 6 7 10 15 10 8 0 15 -2
15 -4z m920 -12 c0 -2 -16 -4 -35 -4 -19 0 -35 4 -35 8 0 4 16 6 35 4 19 -2
35 -6 35 -8z m70 -4 c0 -5 -2 -10 -4 -10 -3 0 -8 5 -11 10 -3 6 -1 10 4 10 6
0 11 -4 11 -10z m40 0 c0 -5 -7 -10 -16 -10 -8 0 -12 5 -9 10 3 6 10 10 16 10
5 0 9 -4 9 -10z m860 0 c0 -5 -4 -10 -10 -10 -5 0 -10 5 -10 10 0 6 5 10 10
10 6 0 10 -4 10 -10z m178 -1 c29 0 52 -5 52 -11 0 -7 -30 -8 -87 -4 -49 3
-96 5 -106 6 -10 0 -16 4 -13 8 2 4 26 7 53 5 26 -1 72 -3 101 -4z m-951 -5
c-3 -3 -12 -4 -19 -1 -8 3 -5 6 6 6 11 1 17 -2 13 -5z m1083 -6 c0 -4 -16 -8
-36 -8 -19 0 -33 4 -30 8 3 5 19 9 36 9 16 0 30 -4 30 -9z m820 8 c0 -3 -4 -8
-10 -11 -5 -3 -10 -1 -10 4 0 6 5 11 10 11 6 0 10 -2 10 -4z m-2225 -16 c3 -5
-3 -10 -14 -10 -12 0 -21 5 -21 10 0 6 6 10 14 10 8 0 18 -4 21 -10z m2052 4
c-3 -3 -12 -4 -19 -1 -8 3 -5 6 6 6 11 1 17 -2 13 -5z m96 -1 c-7 -2 -21 -2
-30 0 -10 3 -4 5 12 5 17 0 24 -2 18 -5z m-3026 -9 c-3 -3 -12 -4 -19 -1 -8 3
-5 6 6 6 11 1 17 -2 13 -5z m103 -4 c0 -5 -13 -10 -30 -10 -16 0 -30 5 -30 10
0 6 14 10 30 10 17 0 30 -4 30 -10z m870 1 c0 -9 -69 -5 -79 4 -2 3 14 5 37 5
23 0 42 -4 42 -9z m77 -4 c3 -4 -8 -7 -25 -7 -18 0 -32 4 -32 9 0 11 46 8 57
-2z m43 3 c0 -5 -5 -10 -11 -10 -5 0 -7 5 -4 10 3 6 8 10 11 10 2 0 4 -4 4
-10z m918 0 c18 0 23 -3 16 -10 -7 -7 -28 -8 -53 -4 -29 5 -38 10 -29 15 7 5
19 7 26 4 8 -3 25 -5 40 -5z m-1818 -127 c0 -69 -2 -124 -4 -122 -2 2 -7 56
-10 120 -5 102 -3 129 11 129 2 0 3 -57 3 -127z m953 120 c-7 -2 -19 -2 -25 0
-7 3 -2 5 12 5 14 0 19 -2 13 -5z m954 1 c-3 -3 -12 -4 -19 -1 -8 3 -5 6 6 6
11 1 17 -2 13 -5z m43 -4 c0 -5 -2 -10 -4 -10 -3 0 -8 5 -11 10 -3 6 -1 10 4
10 6 0 11 -4 11 -10z m90 -11 c0 -5 -7 -9 -15 -9 -8 0 -15 -7 -15 -15 0 -12
-11 -15 -50 -14 -27 1 -50 6 -50 11 0 9 13 11 47 9 11 -1 24 3 28 8 3 6 0 12
-7 12 -7 1 1 5 17 8 32 8 45 5 45 -10z m865 11 c3 -5 1 -10 -4 -10 -6 0 -11 5
-11 10 0 6 2 10 4 10 3 0 8 -4 11 -10z m-815 -10 c0 -5 -6 -10 -14 -10 -8 0
-18 5 -21 10 -3 6 3 10 14 10 12 0 21 -4 21 -10z m742 -2 c-8 -8 -17 -8 -34 0
-22 10 -21 11 12 11 26 1 31 -2 22 -11z m-2936 -11 c4 -4 -16 -7 -44 -7 -30 0
-52 4 -52 11 0 11 84 8 96 -4z m814 3 c0 -5 -2 -10 -4 -10 -3 0 -8 5 -11 10
-3 6 -1 10 4 10 6 0 11 -4 11 -10z m128 -5 c3 -3 -18 -5 -46 -5 -29 0 -52 4
-52 9 0 10 89 6 98 -4z m82 -4 c0 -5 -11 -8 -25 -8 -14 0 -28 3 -31 8 -3 5 9
9 25 9 17 0 31 -4 31 -9z m40 -1 c0 -5 -4 -10 -10 -10 -5 0 -10 5 -10 10 0 6
5 10 10 10 6 0 10 -4 10 -10z m40 0 c0 -5 -4 -10 -10 -10 -5 0 -10 5 -10 10 0
6 5 10 10 10 6 0 10 -4 10 -10z m780 0 c0 -5 -9 -10 -20 -10 -11 0 -20 5 -20
10 0 6 9 10 20 10 11 0 20 -4 20 -10z m110 -2 c0 -5 -2 -8 -5 -8 -3 0 -23 0
-45 0 -22 0 -40 4 -40 8 0 4 20 7 45 7 25 0 45 -3 45 -7z m-1937 -5 c-7 -2
-19 -2 -25 0 -7 3 -2 5 12 5 14 0 19 -2 13 -5z m2137 -9 c0 -2 -13 -4 -30 -4
-16 0 -30 4 -30 8 0 5 14 7 30 4 17 -2 30 -6 30 -8z m723 9 c-7 -2 -21 -2 -30
0 -10 3 -4 5 12 5 17 0 24 -2 18 -5z m-2128 -13 c3 -5 -3 -10 -14 -10 -12 0
-21 5 -21 10 0 6 6 10 14 10 8 0 18 -4 21 -10z m-795 -10 c13 -9 13 -10 0 -10
-12 -1 -11 -3 3 -11 25 -14 12 -29 -26 -29 -76 0 -108 29 -34 31 23 0 36 3 30
6 -7 2 -13 9 -13 14 0 12 21 11 40 -1z m883 -1 c-8 -8 -19 -8 -40 -1 -28 10
-28 10 12 11 28 1 36 -2 28 -10z m127 -3 c0 -8 -6 -17 -12 -19 -7 -3 4 -6 25
-6 23 -1 36 3 32 9 -3 6 -13 10 -21 10 -8 0 -14 5 -14 11 0 6 7 8 16 5 9 -3
34 -6 55 -6 24 0 38 -4 34 -10 -3 -6 -17 -7 -31 -4 -20 5 -24 2 -24 -15 0 -19
-6 -21 -51 -21 -46 0 -50 2 -44 20 6 17 2 20 -29 20 -20 0 -36 5 -36 10 0 6
23 10 50 10 36 0 50 -4 50 -14z m918 -3 c-10 -2 -26 -2 -35 0 -10 3 -2 5 17 5
19 0 27 -2 18 -5z m130 -8 c3 -3 -9 -5 -27 -5 -18 0 -30 4 -26 9 5 10 43 7 53
-4z m92 5 c0 -5 -9 -10 -20 -10 -14 0 -20 -6 -18 -17 2 -10 -3 -18 -9 -17 -7
1 -29 2 -48 3 -19 0 -35 6 -35 12 0 8 12 10 36 6 31 -5 34 -4 29 14 -6 16 -1
19 29 19 20 0 36 -4 36 -10z m790 0 c11 -7 7 -10 -17 -10 -18 0 -33 5 -33 10
0 13 30 13 50 0z m130 0 c0 -5 -4 -10 -10 -10 -5 0 -10 5 -10 10 0 6 5 10 10
10 6 0 10 -4 10 -10z m74 2 c3 -5 -8 -9 -24 -10 -17 0 -30 4 -30 9 0 11 47 12
54 1z m-2314 -22 c0 -5 -9 -10 -19 -10 -11 0 -23 5 -26 10 -4 6 5 10 19 10 14
0 26 -4 26 -10z m120 -8 c0 -9 -6 -12 -16 -8 -9 3 -31 6 -50 6 -19 0 -34 5
-34 10 0 6 22 10 50 9 36 -2 50 -6 50 -17z m190 -2 c0 -5 -11 -10 -25 -10 -14
0 -25 5 -25 10 0 6 11 10 25 10 14 0 25 -4 25 -10z m750 0 c0 -13 -11 -13 -30
0 -12 8 -11 10 8 10 12 0 22 -4 22 -10z m115 0 c4 -6 -13 -10 -44 -10 -28 0
-51 5 -51 10 0 6 20 10 44 10 25 0 48 -4 51 -10z m200 -10 c4 -6 -10 -10 -34
-10 -23 0 -41 5 -41 10 0 6 15 10 34 10 19 0 38 -4 41 -10z m74 -177 c-1 -205
-4 -215 -14 -50 -7 100 -8 107 -28 108 -21 2 -21 2 1 6 27 5 29 23 2 23 -11 0
-20 5 -20 10 0 6 9 10 20 10 17 0 20 7 20 40 0 22 5 40 10 40 6 0 10 -68 9
-187z m638 181 c-3 -3 -12 -4 -19 -1 -8 3 -5 6 6 6 11 1 17 -2 13 -5z m-2057
-24 c0 -4 -11 -5 -25 -2 -14 2 -23 8 -20 12 6 10 45 1 45 -10z m1390 10 c0 -5
-7 -10 -16 -10 -8 0 -12 5 -9 10 3 6 10 10 16 10 5 0 9 -4 9 -10z m-2240 -10
c0 -5 -7 -10 -15 -10 -8 0 -15 5 -15 10 0 6 7 10 15 10 8 0 15 -4 15 -10z
m905 0 c3 -5 -3 -10 -14 -10 -11 0 -23 5 -26 10 -3 6 3 10 14 10 11 0 23 -4
26 -10z m115 -1 c0 -5 -22 -9 -50 -9 -27 0 -50 4 -50 9 0 6 23 10 50 9 28 0
50 -4 50 -9z m919 -5 c2 -2 -19 -4 -47 -4 -29 0 -52 4 -52 9 0 9 89 4 99 -5z
m1081 0 c0 -2 -9 -4 -21 -4 -11 0 -18 4 -14 10 5 8 35 3 35 -6z m-1897 -1 c-7
-2 -21 -2 -30 0 -10 3 -4 5 12 5 17 0 24 -2 18 -5z m937 -3 c0 -11 -31 -11
-75 0 -26 7 -22 8 23 9 29 0 52 -3 52 -9z m75 0 c4 -6 -8 -10 -29 -10 -20 0
-36 5 -36 10 0 6 13 10 29 10 17 0 33 -4 36 -10z m61 -26 c2 -22 -1 -24 -46
-24 -56 0 -77 17 -28 22 18 2 34 9 34 16 2 20 3 20 22 16 10 -3 18 -15 18 -30z
m729 26 c8 -13 -25 -13 -45 0 -12 8 -9 10 12 10 15 0 30 -4 33 -10z m-2105
-20 c0 -13 -40 -13 -60 0 -11 7 -5 10 23 10 20 0 37 -4 37 -10z m85 0 c3 -5 1
-10 -4 -10 -6 0 -11 5 -11 10 0 6 2 10 4 10 3 0 8 -4 11 -10z m-915 -10 c0 -5
-5 -10 -11 -10 -5 0 -7 5 -4 10 3 6 8 10 11 10 2 0 4 -4 4 -10z m1070 -3 c0
-9 -12 -11 -40 -9 -56 6 -61 22 -6 22 31 0 46 -4 46 -13z m45 3 c3 -5 -1 -10
-10 -10 -9 0 -13 5 -10 10 3 6 8 10 10 10 2 0 7 -4 10 -10z m775 0 c0 -5 -9
-10 -20 -10 -11 0 -20 5 -20 10 0 6 9 10 20 10 11 0 20 -4 20 -10z m80 0 c0
-5 -13 -10 -29 -10 -17 0 -33 5 -36 10 -4 6 8 10 29 10 20 0 36 -4 36 -10z
m120 -6 c0 -14 -7 -15 -37 -10 -21 3 -44 6 -50 6 -7 0 -13 5 -13 10 0 6 23 10
50 10 40 0 50 -3 50 -16z m835 6 c4 -6 -5 -10 -20 -10 -15 0 -24 4 -20 10 3 6
12 10 20 10 8 0 17 -4 20 -10z m-78 -6 c-3 -3 -12 -4 -19 -1 -8 3 -5 6 6 6 11
1 17 -2 13 -5z m-2054 -21 c-7 -2 -19 -2 -25 0 -7 3 -2 5 12 5 14 0 19 -2 13
-5z m157 -5 c0 -3 -9 -6 -20 -5 -11 1 -20 5 -20 9 0 3 9 6 20 5 11 -1 20 -5
20 -9z m1980 2 c11 -7 7 -10 -18 -10 -20 0 -31 4 -27 10 8 13 26 13 45 0z
m-2920 -9 c0 -5 3 -16 6 -25 5 -13 -3 -16 -50 -16 -31 0 -56 5 -56 10 0 6 21
10 47 10 43 0 45 1 27 15 -19 14 -18 14 4 15 12 0 22 -4 22 -9z m997 3 c-3 -3
-12 -4 -19 -1 -8 3 -5 6 6 6 11 1 17 -2 13 -5z m80 0 c-3 -3 -12 -4 -19 -1 -8
3 -5 6 6 6 11 1 17 -2 13 -5z m983 -4 c0 -5 -25 -10 -55 -10 -30 0 -55 5 -55
10 0 6 25 10 55 10 30 0 55 -4 55 -10z m136 -22 c2 -24 -1 -28 -24 -28 -25 0
-25 -1 -6 -15 18 -14 18 -14 -6 -16 -14 -1 -29 -1 -33 0 -5 1 -5 -3 -2 -9 4
-6 21 -10 37 -8 18 2 33 -2 35 -9 4 -10 -12 -12 -65 -8 -64 5 -71 4 -77 -15
-5 -16 -15 -20 -56 -20 -27 0 -49 5 -49 10 0 6 14 10 30 10 17 0 30 5 30 10 0
6 -25 10 -55 10 -35 0 -55 4 -55 11 0 8 23 10 78 7 84 -5 112 -2 112 13 0 6
-5 7 -11 4 -13 -9 -239 5 -239 14 0 4 27 6 59 4 33 -2 63 2 66 7 4 6 -9 10
-29 10 -20 0 -36 5 -36 11 0 7 18 10 48 9 100 -5 132 -1 125 16 -5 13 4 15 57
12 60 -3 63 -4 66 -30z m-1367 -4 c2 -2 -14 -4 -37 -4 -23 0 -42 5 -42 10 0
10 67 4 79 -6z m1046 -4 c-3 -5 -13 -6 -21 -3 -12 4 -13 8 -3 14 15 9 32 2 24
-11z m1150 -8 c0 -11 9 -17 25 -18 64 -2 83 -5 77 -11 -10 -9 -108 -4 -126 7
-14 8 -14 9 -1 10 13 0 13 1 0 10 -13 9 -13 11 0 19 17 12 25 6 25 -17z
m-2080 8 c-3 -5 -24 -10 -46 -10 -21 0 -39 5 -39 10 0 6 21 10 46 10 27 0 43
-4 39 -10z m115 -4 c0 -12 -10 -13 -72 -8 -38 4 -15 22 27 22 31 0 45 -4 45
-14z m60 4 c13 -8 12 -10 -2 -10 -10 0 -21 0 -25 -1 -4 0 -9 4 -11 10 -5 14
18 14 38 1z m1790 0 c0 -5 -6 -10 -14 -10 -8 0 -18 5 -21 10 -3 6 3 10 14 10
12 0 21 -4 21 -10z m-1735 -10 c3 -5 -1 -10 -9 -10 -9 0 -16 5 -16 10 0 6 4
10 9 10 6 0 13 -4 16 -10z m1662 4 c-3 -3 -12 -4 -19 -1 -8 3 -5 6 6 6 11 1
17 -2 13 -5z m-2740 -146 c-2 -29 -3 -8 -3 47 0 55 1 79 3 53 2 -26 2 -71 0
-100z m693 124 c0 -4 -9 -8 -20 -9 -11 -1 -20 2 -20 8 0 5 9 9 20 9 11 0 20
-4 20 -8z m100 -2 c0 -5 -18 -10 -40 -10 -22 0 -40 5 -40 10 0 6 18 10 40 10
22 0 40 -4 40 -10z m35 0 c3 -5 -1 -10 -10 -10 -9 0 -13 5 -10 10 3 6 8 10 10
10 2 0 7 -4 10 -10z m69 4 c9 -3 16 -10 16 -15 0 -10 -31 -12 -55 -3 -13 5
-14 8 -3 15 16 10 22 11 42 3z m-1000 -10 c9 -3 14 -9 11 -14 -2 -4 9 -20 25
-35 17 -16 30 -39 30 -52 0 -21 -4 -23 -50 -23 l-50 0 0 50 c0 28 4 50 10 50
5 0 7 7 4 15 -7 17 -3 18 20 9z m1203 -26 c-3 -7 -5 -2 -5 12 0 14 2 19 5 13
2 -7 2 -19 0 -25z m-1127 18 c0 -11 -19 -15 -25 -6 -3 5 1 10 9 10 9 0 16 -2
16 -4z m1100 0 c0 -3 -4 -8 -10 -11 -5 -3 -10 -1 -10 4 0 6 5 11 10 11 6 0 10
-2 10 -4z m-1225 -26 c4 -6 -5 -10 -19 -10 -14 0 -26 5 -26 10 0 6 9 10 19 10
11 0 23 -4 26 -10z m832 4 c-3 -3 -12 -4 -19 -1 -8 3 -5 6 6 6 11 1 17 -2 13
-5z m193 -4 c0 -5 -4 -10 -10 -10 -5 0 -10 5 -10 10 0 6 5 10 10 10 6 0 10 -4
10 -10z m98 -20 c0 -20 -4 -30 -14 -30 -11 0 -13 6 -9 20 4 12 2 20 -5 20 -7
0 -14 -8 -17 -18 -3 -14 -14 -18 -51 -17 -54 1 -60 19 -7 20 31 1 66 15 37 15
-7 0 -12 5 -12 10 0 6 17 10 38 10 36 0 39 -2 40 -30z m62 21 c0 -6 -5 -13
-10 -16 -15 -9 -43 3 -35 15 8 13 45 13 45 1z m743 2 c-7 -2 -19 -2 -25 0 -7
3 -2 5 12 5 14 0 19 -2 13 -5z m1042 -3 c3 -5 -1 -10 -9 -10 -8 0 -18 5 -21
10 -3 6 1 10 9 10 8 0 18 -4 21 -10z m-2134 -22 c0 -2 2 -22 5 -45 5 -42 4
-43 -23 -43 -54 0 -64 27 -25 73 12 14 40 24 43 15z m122 -8 c4 0 7 -3 7 -7 0
-5 -25 -6 -55 -5 -30 2 -55 7 -55 12 0 4 21 6 48 4 26 -2 50 -3 55 -4z m1022
0 c3 -5 1 -10 -4 -10 -6 0 -11 5 -11 10 0 6 2 10 4 10 3 0 8 -4 11 -10z m990
0 c8 -13 -5 -13 -25 0 -13 8 -13 10 2 10 9 0 20 -4 23 -10z m-1768 -22 c13
-12 23 -32 23 -45 0 -20 -5 -23 -40 -23 l-40 0 0 45 c0 52 18 60 57 23z m1050
3 c-3 -11 1 -22 9 -25 7 -3 20 -19 29 -37 22 -41 8 -52 -60 -44 -27 4 -46 3
-42 -1 4 -4 26 -9 50 -11 85 -8 62 -23 -35 -23 -54 0 -100 4 -103 10 -5 8 39
16 68 11 4 0 7 4 7 9 0 6 -6 10 -12 9 -40 -5 -108 3 -108 12 0 8 26 10 80 7
44 -3 80 -1 80 3 0 4 -52 10 -115 14 -63 4 -115 10 -115 14 0 3 52 4 115 3 78
-3 115 0 115 7 0 6 -10 11 -22 11 -18 0 -20 2 -9 9 8 5 20 7 27 4 6 -2 15 0
18 5 3 5 0 10 -7 9 -6 0 -33 1 -59 1 -77 3 -56 22 23 22 66 0 71 -2 66 -19z
m762 -17 c2 -2 -14 -4 -37 -4 -23 0 -42 5 -42 10 0 10 67 4 79 -6z m-3014 -4
c4 -6 -5 -10 -19 -10 -14 0 -26 5 -26 10 0 6 9 10 19 10 11 0 23 -4 26 -10z
m885 0 c0 -5 -4 -10 -9 -10 -6 0 -13 5 -16 10 -3 6 1 10 9 10 9 0 16 -4 16
-10z m110 0 c19 -13 -46 -13 -75 0 -16 7 -11 9 20 9 22 0 47 -4 55 -9z m128
-2 c1 -5 0 -8 -3 -8 -3 0 -25 0 -50 0 -25 0 -45 4 -45 9 0 11 94 9 98 -1z
m919 -4 c-3 -3 -12 -4 -19 -1 -8 3 -5 6 6 6 11 1 17 -2 13 -5z m106 -1 c-7 -2
-19 -2 -25 0 -7 3 -2 5 12 5 14 0 19 -2 13 -5z m-227 -61 c-11 -10 -14 3 -8
33 l7 30 3 -28 c2 -16 1 -31 -2 -35z m-994 42 c21 -4 36 -10 33 -14 -6 -10
-87 -1 -99 11 -12 11 12 12 66 3z m1043 -4 c3 -5 -1 -10 -9 -10 -9 0 -16 5
-16 10 0 6 4 10 9 10 6 0 13 -4 16 -10z m1035 0 c0 -5 -2 -10 -4 -10 -3 0 -8
5 -11 10 -3 6 -1 10 4 10 6 0 11 -4 11 -10z m-2890 -10 c0 -5 -9 -10 -20 -10
-11 0 -23 -7 -26 -15 -5 -11 -21 -15 -63 -14 l-56 1 36 12 c21 6 34 16 32 24
-3 8 10 12 46 12 28 0 51 -4 51 -10z m925 0 c8 -13 -25 -13 -45 0 -12 8 -9 10
12 10 15 0 30 -4 33 -10z m45 0 c0 -5 -2 -10 -4 -10 -3 0 -8 5 -11 10 -3 6 -1
10 4 10 6 0 11 -4 11 -10z m40 0 c0 -5 -4 -10 -10 -10 -5 0 -10 5 -10 10 0 6
5 10 10 10 6 0 10 -4 10 -10z m1840 -25 c0 -28 -4 -35 -20 -35 -23 0 -24 6 -7
43 17 37 27 34 27 -8z m161 15 c12 0 16 -5 13 -15 -5 -11 1 -15 25 -15 17 0
31 -4 31 -10 0 -5 -17 -10 -37 -10 -27 0 -34 -3 -26 -11 8 -8 6 -16 -8 -30
-23 -23 -65 -34 -73 -20 -5 7 4 11 24 11 19 0 29 4 25 10 -4 6 -11 8 -16 5 -5
-4 -17 -2 -26 4 -15 8 -12 11 17 19 l35 10 -32 1 c-45 1 -42 21 3 21 21 0 33
4 29 10 -4 6 -11 8 -16 5 -13 -9 -49 4 -49 17 0 6 12 8 31 4 17 -3 40 -6 50
-6z m-2258 -12 c9 0 15 -3 12 -8 -5 -7 -26 -8 -90 -1 l-20 2 20 9 c11 5 29 6
40 2 11 -3 28 -5 38 -4z m-750 -8 c7 0 7 -4 -2 -9 -16 -10 -41 -4 -41 11 0 6
7 7 16 4 9 -3 21 -6 27 -6z m887 0 c0 -5 -25 -10 -55 -10 -30 0 -55 5 -55 10
0 6 25 10 55 10 30 0 55 -4 55 -10z m110 -2 c0 -4 -22 -8 -50 -8 -28 0 -50 5
-50 10 0 7 20 10 50 9 28 -2 50 -6 50 -11z m100 2 c8 -1 4 -5 -10 -9 -29 -8
-70 -3 -70 9 0 7 37 7 80 0z m824 1 c4 -5 -3 -7 -14 -4 -23 6 -26 13 -6 13 8
0 17 -4 20 -9z m-1094 -31 c0 -5 -22 -10 -50 -10 -27 0 -50 5 -50 10 0 6 23
10 50 10 28 0 50 -4 50 -10z m1020 0 c0 -11 -31 -11 -75 0 -26 7 -22 8 23 9
29 0 52 -3 52 -9z m35 0 c3 -5 1 -10 -4 -10 -6 0 -11 5 -11 10 0 6 2 10 4 10
3 0 8 -4 11 -10z m1012 4 c-3 -3 -12 -4 -19 -1 -8 3 -5 6 6 6 11 1 17 -2 13
-5z m-2890 -17 c3 -4 -19 -7 -50 -7 -31 0 -57 4 -57 9 0 11 96 8 107 -2z m921
6 c-16 -2 -40 -2 -55 0 -16 2 -3 4 27 4 30 0 43 -2 28 -4z m102 -1 c0 -5 -13
-7 -30 -4 -16 2 -30 6 -30 8 0 2 14 4 30 4 17 0 30 -4 30 -8z m40 4 c0 -11
-19 -15 -25 -6 -3 5 1 10 9 10 9 0 16 -2 16 -4z m883 -3 c-7 -2 -19 -2 -25 0
-7 3 -2 5 12 5 14 0 19 -2 13 -5z m910 -15 c-2 -5 -5 -8 -8 -8 -91 0 -99 1
-85 10 17 11 96 9 93 -2z m-1103 -8 c0 -13 -11 -13 -30 0 -12 8 -11 10 8 10
12 0 22 -4 22 -10z m350 -4 c91 -4 88 -3 64 -21 -19 -14 -19 -14 3 -15 12 0
24 -3 26 -7 3 -5 -20 -8 -51 -8 -45 0 -56 3 -54 15 3 12 1 12 -15 -1 -25 -22
-107 -14 -98 9 5 14 3 13 -13 -1 -21 -19 -57 -23 -67 -7 -4 6 7 10 27 10 25 0
29 3 18 10 -8 5 -43 10 -77 10 -35 0 -63 3 -63 8 0 6 122 6 300 -2z m-2207 -3
c-7 -2 -19 -2 -25 0 -7 3 -2 5 12 5 14 0 19 -2 13 -5z m1207 -9 c0 -2 -19 -4
-42 -4 -26 0 -38 4 -30 8 12 8 72 4 72 -4z m1782 -16 c8 -5 -14 -6 -51 -4 -35
3 -66 8 -69 11 -10 9 105 3 120 -7z m-1046 -6 c-5 -8 -76 -4 -76 4 0 2 18 4
41 4 22 0 38 -4 35 -8z m62 -27 c6 -3 12 -16 12 -30 0 -31 20 -34 21 -2 1 20
2 20 6 2 3 -11 9 -25 15 -32 6 -7 5 -14 -3 -18 -6 -4 -15 -2 -19 5 -15 24 -22
-28 -8 -57 12 -25 23 -29 133 -50 333 -64 333 -64 328 -84 -3 -11 0 -19 6 -19
6 0 11 -6 11 -14 0 -8 11 -17 25 -20 21 -5 24 -11 19 -31 -4 -15 -1 -32 6 -40
9 -10 9 -19 2 -27 -15 -19 -9 -55 10 -70 13 -9 18 -31 21 -80 3 -67 3 -67 -25
-73 -33 -8 -58 8 -58 36 0 10 -4 21 -10 24 -6 4 -10 -7 -10 -24 0 -24 -4 -31
-19 -31 -11 0 -22 6 -25 13 -5 9 -7 9 -12 -2 -5 -9 -18 -1 -45 30 l-38 44 -1
-32 c0 -34 -19 -47 -21 -15 -4 89 -2 147 4 150 22 7 34 -2 51 -41 l20 -42 4
38 c6 65 22 40 22 -35 0 -87 10 -85 13 3 1 34 7 64 13 66 15 5 31 -17 36 -47
3 -25 3 -25 19 6 9 18 13 38 9 45 -5 7 -6 18 -3 26 3 9 0 11 -10 7 -8 -3 -18
0 -22 6 -5 8 -11 8 -21 -1 -12 -10 -19 -8 -37 9 -17 16 -26 19 -34 11 -13 -13
-43 -5 -43 11 0 5 7 10 15 10 9 0 12 6 9 15 -5 13 -11 11 -31 -10 -15 -14 -23
-31 -19 -40 3 -8 1 -15 -4 -15 -6 0 -10 7 -10 15 0 8 -6 15 -14 15 -34 0 -59
84 -40 134 8 20 48 21 64 1 17 -20 5 -33 -25 -27 -25 4 -26 2 -23 -28 2 -19
10 -35 18 -38 12 -4 13 -2 3 9 -24 24 -16 40 14 28 21 -8 28 -7 35 6 11 19 22
19 43 -1 12 -13 19 -14 30 -4 22 18 45 4 45 -26 0 -41 6 -26 14 32 l6 50 -47
12 c-27 6 -88 18 -138 27 -49 9 -121 23 -160 31 -38 8 -78 17 -88 19 -17 3
-18 -17 -13 -428 3 -238 5 -492 5 -566 l0 -134 23 7 c13 3 47 6 76 6 l52 0 0
65 c0 45 -4 65 -12 66 -35 2 -93 11 -97 15 -14 14 31 14 241 0 128 -9 307 -21
398 -27 91 -6 169 -15 174 -19 5 -5 2 -16 -8 -25 -13 -13 -16 -14 -16 -2 0 10
-14 14 -55 15 -30 0 -55 -4 -55 -9 0 -5 -4 -9 -10 -9 -5 0 -7 7 -4 15 5 12 -2
15 -34 13 l-40 -1 -4 -59 c-3 -55 -2 -58 20 -58 16 0 22 6 22 21 0 11 4 17 10
14 6 -4 8 -15 5 -26 -6 -17 -1 -19 63 -19 56 0 71 3 76 16 6 16 18 14 18 -3
-1 -4 7 -16 15 -25 20 -22 54 -23 -417 2 -471 25 -440 25 -440 0 0 -15 7 -20
27 -20 14 0 24 -3 21 -6 -3 -3 -45 -2 -92 2 -75 6 -86 9 -86 25 0 17 -9 19
-94 19 -66 0 -96 4 -99 13 -3 6 -6 -3 -6 -21 l-1 -33 -82 1 c-46 0 -95 -2
-109 -6 l-26 -6 0 229 c-1 217 0 222 8 99 7 -105 12 -131 26 -141 28 -21 32
-1 27 115 -2 58 -6 322 -8 587 l-4 481 226 -5 c125 -2 233 -6 240 -8z m947 5
c4 -6 -12 -10 -40 -10 -28 0 -44 4 -40 10 3 6 21 10 40 10 19 0 37 -4 40 -10z
m95 0 c0 -5 -4 -10 -10 -10 -5 0 -10 5 -10 10 0 6 5 10 10 10 6 0 10 -4 10
-10z m-913 -16 c-3 -3 -12 -4 -19 -1 -8 3 -5 6 6 6 11 1 17 -2 13 -5z m763
-69 c0 -14 -4 -25 -10 -25 -5 0 -10 11 -10 25 0 14 5 25 10 25 6 0 10 -11 10
-25z m1455 -98 c7 -59 0 -117 -15 -117 -12 0 -27 52 -24 80 2 14 7 47 10 74 8
60 19 45 29 -37z m-2865 22 c0 -5 5 -7 10 -4 6 4 10 -6 9 -22 0 -25 -1 -26 -9
-8 -7 17 -9 15 -9 -12 -1 -20 4 -33 12 -33 9 0 9 -2 -1 -9 -11 -7 -11 -12 -1
-28 10 -17 9 -24 -4 -43 -15 -21 -16 -17 -19 74 -2 53 0 96 5 96 4 0 7 -5 7
-11z m2163 -61 c3 -10 1 -21 -4 -24 -5 -3 -6 -10 -3 -16 5 -8 1 -9 -11 -4 -14
5 -16 4 -6 -7 9 -11 8 -32 -4 -86 -8 -40 -15 -86 -15 -102 0 -20 -4 -29 -12
-26 -15 4 -13 102 3 212 9 58 14 71 29 71 11 0 21 -8 23 -18z m-2570 -19 c14
-10 -1 -29 -18 -22 -16 5 -20 34 -8 47 4 4 9 1 12 -6 2 -7 8 -16 14 -19z
m-643 -3 c0 -9 -40 -13 -46 -5 -3 5 6 9 20 9 14 0 26 -2 26 -4z m354 -12 c25
-9 19 -21 -13 -27 -34 -7 -47 -36 -31 -67 11 -21 44 -25 38 -5 -2 6 -7 9 -11
7 -5 -1 -7 3 -5 10 3 7 14 14 26 16 23 4 27 -12 16 -55 -5 -17 -14 -23 -35
-23 -59 0 -82 91 -33 129 30 24 27 23 48 15z m371 -57 c-2 -68 -8 -87 -30 -87
-22 0 -26 15 -11 46 19 39 23 62 11 64 -5 1 -11 -7 -13 -17 -6 -35 -26 -63
-44 -63 -10 0 -18 5 -18 11 0 8 -4 8 -14 0 -24 -20 -66 -23 -82 -6 -19 19 -44
20 -44 1 0 -20 -37 -30 -53 -14 -24 23 -26 57 -7 81 10 12 22 18 27 13 4 -5 2
-11 -4 -13 -13 -5 -18 -55 -6 -66 3 -4 12 -2 20 4 10 9 10 15 2 25 -12 15 -6
44 10 44 5 0 11 -10 13 -22 5 -34 23 -32 33 4 8 26 15 33 35 33 19 0 26 -6 28
-24 2 -13 -1 -28 -7 -34 -6 -6 -11 -15 -11 -20 0 -16 30 15 47 47 l16 31 9
-32 c13 -50 38 -36 38 21 0 28 8 36 35 36 20 0 21 -5 20 -63z m1378 46 c-7 -2
-19 -2 -25 0 -7 3 -2 5 12 5 14 0 19 -2 13 -5z m50 -10 c-7 -2 -19 -2 -25 0
-7 3 -2 5 12 5 14 0 19 -2 13 -5z m704 -55 c-2 -13 -4 -3 -4 22 0 25 2 35 4
23 2 -13 2 -33 0 -45z m-607 42 l25 -8 -25 0 c-14 0 -38 4 -55 8 l-30 8 30 0
c17 0 41 -4 55 -8z m85 -19 c3 -6 -6 -8 -22 -5 -37 7 -42 14 -10 14 14 0 28
-4 32 -9z m683 -65 c7 -19 31 -50 52 -70 37 -33 40 -40 40 -88 -1 -54 -7 -70
-50 -127 -25 -32 -25 -32 -32 -9 -4 13 -5 -8 -2 -47 3 -38 12 -80 20 -92 16
-26 19 -79 4 -88 -18 -11 -41 16 -34 38 4 13 2 17 -5 13 -7 -5 -9 4 -5 26 4
27 3 30 -6 15 -14 -22 -25 -15 -45 26 -41 88 -58 200 -33 225 10 10 10 15 -2
22 -10 6 -15 27 -15 66 0 55 2 59 35 82 l35 23 6 -23 c6 -20 7 -18 8 10 1 42
14 41 29 -2z m-3099 -9 c0 -21 -1 -21 -9 -2 -12 28 -12 37 0 30 6 -3 10 -16 9
-28z m2420 -4 c0 -21 -4 -47 -9 -58 -6 -14 -9 -4 -9 38 -1 32 3 57 9 57 6 0
10 -17 9 -37z m535 -26 c-10 -26 -22 -20 -16 9 3 15 8 22 14 16 5 -5 6 -16 2
-25z m-2985 -17 c0 -10 -3 -8 -9 5 -12 27 -12 43 0 25 5 -8 9 -22 9 -30z
m1050 11 c6 -10 8 -34 5 -53 -5 -28 -2 -39 17 -57 16 -14 18 -21 8 -21 -12 0
-12 -2 1 -10 13 -8 12 -10 -2 -10 -10 0 -28 16 -40 35 -13 19 -31 35 -41 35
-15 0 -18 -7 -15 -37 3 -35 1 -38 -23 -41 l-26 -3 -2 90 -2 91 55 0 c44 0 57
-4 65 -19z m-1073 -58 c-5 -5 -36 50 -36 64 0 4 9 -7 21 -26 11 -18 18 -35 15
-38z m514 57 c0 -5 -4 -10 -10 -10 -5 0 -10 5 -10 10 0 6 5 10 10 10 6 0 10
-4 10 -10z m389 -16 c21 -27 29 -94 12 -94 -5 0 -12 15 -15 34 -7 39 -27 59
-53 54 -25 -5 -26 -105 -2 -119 12 -6 21 -4 29 6 13 16 40 20 40 7 0 -11 -55
-42 -76 -42 -28 0 -64 40 -64 71 0 42 18 80 40 86 11 3 20 9 20 14 0 20 50 8
69 -17z m981 -59 c0 -64 -3 -74 -23 -87 -27 -18 -58 -9 -81 23 -20 29 -5 49
19 25 34 -34 46 -21 45 47 -2 80 -3 76 20 70 18 -5 20 -14 20 -78z m-1130 -15
c0 -81 -9 -112 -23 -77 -4 9 -8 8 -16 -3 -8 -11 -11 8 -11 71 0 91 3 99 32 99
16 0 18 -9 18 -90z m1190 31 c0 -60 9 -91 26 -91 11 0 14 17 14 67 0 88 18 71
21 -20 2 -51 -1 -71 -12 -78 -22 -14 -55 -11 -69 7 -12 13 -31 160 -22 168 2
2 12 2 23 -1 15 -4 19 -14 19 -52z m838 52 c-10 -2 -28 -2 -40 0 -13 2 -5 4
17 4 22 1 32 -1 23 -4z m-2118 -106 l0 -78 -52 36 c-29 19 -56 35 -60 35 -5 0
-8 -16 -8 -36 0 -21 -4 -33 -10 -29 -11 7 -14 165 -4 165 4 0 29 -16 56 -37
55 -40 71 -35 62 22 -4 23 -3 27 5 15 6 -8 11 -50 11 -93z m2354 66 c9 -46 11
-113 3 -113 -4 0 -11 0 -15 0 -4 0 -9 8 -10 18 -1 9 -4 34 -8 54 -10 61 18
100 30 41z m-2616 -56 c3 -63 4 -67 27 -67 32 0 45 26 46 92 1 41 3 48 9 28
23 -71 -4 -162 -44 -147 -9 4 -16 2 -16 -3 0 -12 -30 -2 -52 18 -22 19 -26
137 -5 145 26 11 32 -2 35 -66z m2115 58 c-3 -9 -8 -14 -10 -11 -3 3 -2 9 2
15 9 16 15 13 8 -4z m21 -34 c-9 -23 -18 -40 -21 -38 -2 3 1 15 6 28 5 13 12
33 15 43 4 10 9 17 12 14 3 -3 -3 -24 -12 -47z m-2564 -6 l25 -30 -33 29 c-17
17 -32 34 -32 40 0 6 3 6 8 1 4 -6 18 -23 32 -40z m120 20 c0 -14 -4 -25 -10
-25 -11 0 -14 33 -3 43 11 11 13 8 13 -18z m218 18 c-1 -5 2 -25 6 -45 13 -62
-16 -127 -50 -114 -8 3 -14 1 -14 -4 0 -17 -29 -11 -50 10 -11 11 -20 27 -20
37 0 15 2 15 18 0 9 -8 28 -17 42 -19 24 -3 25 -1 28 70 3 64 5 72 22 72 11 0
19 -3 18 -7z m2047 -35 c25 -11 30 -30 25 -99 -1 -16 5 -29 14 -32 9 -4 13
-13 10 -22 -10 -24 -20 -18 -36 23 l-15 37 -8 -37 c-18 -91 -52 1 -46 125 1
20 20 22 56 5z m127 -33 c0 -20 -5 -42 -11 -48 -8 -8 -11 -1 -11 25 0 38 9 72
17 64 3 -3 5 -21 5 -41z m88 28 c0 -5 -10 -21 -21 -38 -12 -17 -18 -21 -14
-10 4 11 10 28 12 38 5 17 23 24 23 10z m1245 -25 c-8 -45 -26 -78 -40 -78 -7
0 -23 -9 -37 -20 l-25 -19 5 24 c2 14 11 25 18 25 8 0 14 6 14 13 0 11 58 87
67 87 3 0 2 -15 -2 -32z m-805 -126 c0 -7 -4 -10 -10 -7 -5 3 -10 1 -10 -4 0
-6 6 -11 13 -11 25 0 65 -147 49 -177 -10 -16 -12 -14 -26 19 -9 20 -19 38
-23 40 -5 1 -19 18 -31 36 -18 25 -23 44 -20 73 2 21 0 39 -4 39 -12 0 -10 68
2 75 7 4 7 12 0 25 -5 10 -10 25 -9 32 1 16 68 -121 69 -140z m277 101 c-17
-18 -22 -8 -11 22 5 12 10 13 17 6 8 -8 6 -16 -6 -28z m-777 -2 c0 -5 3 -17 7
-27 4 -11 3 -15 -4 -11 -14 9 -24 47 -12 47 5 0 9 -4 9 -9z m77 -6 c0 -18 -53
-70 -60 -58 -6 10 39 73 52 73 4 0 8 -7 8 -15z m-1407 -37 c0 -9 -19 -14 -53
-16 -28 -1 -110 -7 -182 -12 -71 -6 -148 -9 -170 -9 -36 2 96 16 310 34 44 4
82 8 84 11 7 7 11 4 11 -8z m834 -43 c138 -19 307 -44 376 -55 69 -10 149 -22
178 -26 29 -4 49 -11 45 -15 -5 -5 -69 0 -143 11 -135 21 -213 31 -357 50
-368 48 -373 48 -373 60 0 13 -9 14 274 -25z m586 19 c0 -8 -14 -20 -30 -26
-40 -13 -33 -34 11 -31 19 1 28 0 21 -3 -6 -3 -9 -10 -6 -15 5 -9 -59 -3 -77
7 -13 7 4 54 20 54 9 0 25 7 35 15 25 19 26 19 26 -1z m-1902 -21 c-21 -2 -55
-2 -75 0 -21 2 -4 4 37 4 41 0 58 -2 38 -4z m3546 -34 c-10 -18 -22 -8 -20 16
1 22 2 23 13 9 7 -9 10 -21 7 -25z m-3059 21 c3 -5 1 -10 -4 -10 -6 0 -11 5
-11 10 0 6 2 10 4 10 3 0 8 -4 11 -10z m3195 -11 c0 -11 -4 -18 -10 -14 -5 3
-7 12 -3 20 7 21 13 19 13 -6z m-4447 4 c-7 -2 -21 -2 -30 0 -10 3 -4 5 12 5
17 0 24 -2 18 -5z m324 -9 c-3 -3 -12 -4 -19 -1 -8 3 -5 6 6 6 11 1 17 -2 13
-5z m1518 -4 c3 -5 12 -7 19 -4 7 3 42 0 77 -6 35 -6 84 -13 109 -16 25 -3 86
-12 135 -20 50 -9 97 -15 105 -15 8 0 60 -6 115 -14 55 -8 130 -17 167 -20 44
-4 68 -11 72 -21 3 -8 -1 -14 -12 -15 -15 -1 -15 -2 -1 -6 18 -4 32 -74 22
-112 -5 -21 -9 -22 -77 -15 -39 3 -78 11 -86 16 -10 6 7 7 47 3 60 -6 64 -5
74 19 13 29 4 95 -14 97 -7 1 -25 3 -42 5 l-30 3 2 -57 c2 -52 1 -54 -7 -22
-5 19 -11 45 -12 58 -2 23 -17 31 -19 10 -1 -7 -3 -20 -4 -28 -1 -8 -3 -25 -4
-38 -2 -43 -19 -12 -18 32 1 24 5 39 9 33 5 -8 8 -6 8 6 0 12 -8 17 -25 17
-23 0 -25 -3 -25 -49 0 -28 -4 -52 -8 -55 -4 -2 -8 8 -7 22 0 16 -5 26 -12 24
-18 -3 -16 8 3 29 9 10 14 24 12 31 -3 9 -13 4 -30 -14 -19 -21 -24 -35 -20
-59 3 -18 0 -34 -8 -39 -6 -4 16 -10 50 -14 34 -4 60 -9 57 -12 -2 -3 -47 -1
-98 5 -52 5 -186 19 -299 31 -212 22 -320 45 -157 33 l87 -6 0 41 c0 46 8 72
22 72 6 0 7 -22 3 -60 -6 -56 -5 -60 13 -60 25 0 38 31 17 42 -19 11 -20 44 0
52 31 11 16 34 -27 41 -24 3 -55 8 -70 11 -28 6 -25 11 -44 -86 -3 -16 -10
-30 -15 -30 -11 0 0 80 14 98 12 16 10 17 -36 28 -21 5 -38 13 -37 19 1 5 -7
12 -17 16 -16 7 -16 8 -1 8 9 1 19 -3 23 -9z m-669 -9 c-3 -4 -61 -11 -128
-15 -68 -4 -142 -9 -166 -12 -27 -2 -41 0 -37 6 3 6 43 11 88 11 67 1 152 7
235 17 7 1 11 -2 8 -7z m3209 -1 c-3 -5 -10 -10 -16 -10 -5 0 -9 5 -9 10 0 6
7 10 16 10 8 0 12 -4 9 -10z m-445 -25 c-6 -8 -9 -19 -5 -25 3 -5 -1 -13 -10
-16 -8 -4 -14 -11 -13 -18 1 -6 -6 -24 -17 -40 -11 -16 -19 -38 -20 -49 0 -16
-11 -23 -52 -32 -29 -7 -53 -8 -53 -4 0 5 -9 0 -20 -11 -20 -20 -46 -28 -35
-11 3 5 1 13 -5 16 -8 5 -6 15 4 31 18 27 20 38 6 29 -6 -4 -10 8 -10 29 0 42
9 48 125 86 97 31 121 35 105 15z m490 -12 c0 -21 -3 -24 -9 -14 -5 8 -7 20
-4 28 8 21 13 15 13 -14z m-3665 7 c-63 -9 -163 -13 -180 -9 -15 4 121 15 185
16 l55 0 -60 -7z m415 -15 c0 -8 -4 -15 -9 -15 -5 0 -11 7 -15 15 -3 9 0 15 9
15 8 0 15 -7 15 -15z m3200 5 c0 -5 -5 -10 -11 -10 -5 0 -7 5 -4 10 3 6 8 10
11 10 2 0 4 -4 4 -10z m-3449 -33 c-8 -8 -11 -7 -11 4 0 20 13 34 18 19 3 -7
-1 -17 -7 -23z m-533 16 c-10 -2 -28 -2 -40 0 -13 2 -5 4 17 4 22 1 32 -1 23
-4z m392 -15 c0 -12 7 -30 17 -40 15 -17 15 -18 -2 -18 -10 0 -15 -5 -12 -14
10 -25 -50 -29 -74 -5 -11 11 -24 17 -29 14 -6 -4 -5 5 2 19 6 14 15 26 20 26
4 0 8 6 8 14 0 16 15 24 48 25 16 1 22 -5 22 -21z m66 -36 c-12 -11 -17 7 -9
34 l8 29 3 -28 c2 -16 1 -31 -2 -35z m401 36 c-3 -8 -6 -5 -6 6 -1 11 2 17 5
13 3 -3 4 -12 1 -19z m1692 13 c62 -9 83 -28 131 -123 23 -45 28 -62 21 -81
-10 -26 -37 -42 -46 -28 -2 5 4 11 15 14 30 8 24 24 -7 23 -24 -1 -28 -5 -25
-28 3 -20 -1 -28 -12 -28 -24 0 -23 -80 2 -81 16 -1 16 -2 0 -6 -21 -5 -23
-14 -6 -31 7 -7 8 -12 2 -12 -16 0 -17 -92 -2 -102 10 -6 10 -8 1 -8 -8 0 -13
-14 -13 -35 0 -21 5 -35 13 -36 10 0 10 -2 0 -6 -7 -2 -13 -13 -13 -24 0 -18
-9 -19 -150 -19 l-150 0 0 125 c0 69 3 124 8 124 20 -3 32 3 32 16 0 12 -4 13
-19 6 -16 -9 -19 -7 -22 17 -8 52 0 69 27 64 13 -2 24 0 24 6 0 12 -29 24 -41
16 -5 -3 -9 9 -9 25 0 26 4 31 25 31 14 0 25 4 25 9 0 14 -33 23 -40 10 -11
-17 -19 3 -16 37 3 25 7 29 30 26 14 -2 26 1 26 7 0 6 -7 11 -15 11 -8 0 -18
0 -22 1 -10 0 -25 40 -18 47 2 3 73 1 156 -4 83 -5 153 -6 155 -2 11 17 -42
27 -171 32 -76 4 -141 9 -144 11 -7 8 188 4 248 -4z m-2716 -8 c-7 -2 -21 -2
-30 0 -10 3 -4 5 12 5 17 0 24 -2 18 -5z m3415 -23 c13 -16 18 -30 13 -30 -6
0 -17 14 -26 30 -9 17 -14 30 -12 30 2 0 13 -13 25 -30z m32 21 c0 -6 -4 -13
-10 -16 -5 -3 -10 1 -10 9 0 9 5 16 10 16 6 0 10 -4 10 -9z m-3547 -8 c-13 -2
-35 -2 -50 0 -16 2 -5 4 22 4 28 0 40 -2 28 -4z m839 -35 c-6 -6 -7 0 -4 19 5
21 7 23 10 9 2 -10 0 -22 -6 -28z m998 -8 c4 -22 4 -40 0 -40 -8 0 -20 49 -20
78 0 27 12 4 20 -38z m2370 40 c0 -5 -2 -10 -4 -10 -3 0 -8 5 -11 10 -3 6 -1
10 4 10 6 0 11 -4 11 -10z m-4160 -30 c0 -5 -2 -10 -4 -10 -3 0 -8 5 -11 10
-3 6 -1 10 4 10 6 0 11 -4 11 -10z m997 -22 c-3 -7 -5 -2 -5 12 0 14 2 19 5
13 2 -7 2 -19 0 -25z m660 0 c-3 -8 -6 -5 -6 6 -1 11 2 17 5 13 3 -3 4 -12 1
-19z m-892 -8 c3 -5 1 -10 -4 -10 -6 0 -11 5 -11 10 0 6 2 10 4 10 3 0 8 -4
11 -10z m2212 -67 c-10 -11 -13 -6 -14 29 l-2 42 15 -29 c12 -24 12 -31 1 -42z
m277 57 c17 -6 26 -17 26 -30 0 -12 5 -30 10 -41 7 -13 7 -19 0 -19 -5 0 -10
4 -10 8 0 5 -7 17 -16 28 -14 18 -15 18 -8 -5 6 -21 4 -23 -19 -17 -16 4 -27
1 -30 -7 -3 -6 -6 1 -6 17 -1 26 -4 28 -31 24 -16 -3 -30 -2 -30 2 0 13 35 38
60 43 14 2 26 5 27 6 1 0 13 -3 27 -9z m-3038 -29 c-8 -13 -36 -15 -36 -3 0 4
5 13 12 20 14 14 34 0 24 -17z m78 14 c3 -8 1 -15 -4 -15 -6 0 -10 7 -10 15 0
8 2 15 4 15 2 0 6 -7 10 -15z m191 5 c3 -5 1 -10 -4 -10 -6 0 -11 5 -11 10 0
6 2 10 4 10 3 0 8 -4 11 -10z m-415 -10 c0 -5 -4 -10 -10 -10 -5 0 -10 5 -10
10 0 6 5 10 10 10 6 0 10 -4 10 -10z m-70 -16 c0 -8 -4 -12 -10 -9 -5 3 -10
10 -10 16 0 5 5 9 10 9 6 0 10 -7 10 -16z m773 9 c-13 -2 -35 -2 -50 0 -16 2
-5 4 22 4 28 0 40 -2 28 -4z m-160 -10 c-18 -2 -48 -2 -65 0 -18 2 -4 4 32 4
36 0 50 -2 33 -4z m-150 -10 c-18 -2 -48 -2 -65 0 -18 2 -4 4 32 4 36 0 50 -2
33 -4z m2717 -12 c0 -6 -4 -13 -10 -16 -5 -3 -10 1 -10 9 0 9 5 16 10 16 6 0
10 -4 10 -9z m-3037 -8 c-13 -2 -33 -2 -45 0 -13 2 -3 4 22 4 25 0 35 -2 23
-4z m867 -3 c0 -6 -35 -9 -87 -8 l-88 1 65 7 c104 11 110 11 110 0z m2010 -15
c10 -20 11 -28 2 -37 -9 -9 -12 -6 -12 16 0 15 -4 25 -10 21 -5 -3 -10 1 -10
9 0 24 15 19 30 -9z m-1160 -5 c47 -5 137 -14 200 -20 63 -5 153 -14 200 -20
47 -5 115 -12 152 -16 l66 -5 -1 -77 -2 -77 -30 2 c-16 1 -131 10 -255 18
-124 9 -236 20 -250 25 l-25 8 28 1 c26 1 27 3 29 59 l2 57 3 -57 c3 -36 9
-58 16 -59 7 0 22 -2 35 -5 16 -3 22 1 22 14 1 15 2 15 15 -2 12 -16 17 -17
30 -6 20 17 20 54 0 46 -10 -4 -15 1 -15 14 0 11 5 20 10 20 6 0 10 6 10 14 0
18 -53 32 -58 16 -3 -9 -6 -9 -11 -1 -4 6 -29 13 -57 16 -27 3 -73 8 -101 11
-50 5 -53 4 -54 -18 l-2 -23 -4 23 c-6 30 -37 25 -41 -6 -2 -12 -7 -22 -11
-22 -4 0 -7 -18 -6 -40 l0 -40 43 0 c38 0 42 2 42 24 0 13 7 26 15 30 12 4 15
-3 15 -29 0 -27 5 -35 23 -39 28 -6 -179 3 -214 10 -25 5 -26 8 -28 74 -2 67
-1 70 21 71 l23 0 -22 9 c-13 5 -23 12 -23 15 0 6 44 3 210 -15z m-1220 0 c0
-6 -23 -9 -52 -8 l-53 1 50 7 c28 4 51 8 53 8 1 1 2 -2 2 -8z m170 4 c-36 -7
-150 -9 -150 -2 0 4 37 7 83 7 45 -1 75 -3 67 -5z m-362 -21 c-15 -2 -42 -2
-60 0 -18 2 -6 4 27 4 33 0 48 -2 33 -4z m562 -47 l0 -53 -77 -7 c-140 -11
-133 -14 -133 47 0 30 3 57 7 60 3 4 51 7 105 7 l98 0 0 -54z m2650 50 c0 -3
-4 -8 -10 -11 -5 -3 -10 -1 -10 4 0 6 5 11 10 11 6 0 10 -2 10 -4z m-3397 -13
c-13 -2 -35 -2 -50 0 -16 2 -5 4 22 4 28 0 40 -2 28 -4z m457 -9 c0 -8 -4 -12
-10 -9 -5 3 -10 10 -10 16 0 5 5 9 10 9 6 0 10 -7 10 -16z m3220 6 c0 -5 -9
-10 -20 -10 -11 0 -20 5 -20 10 0 6 9 10 20 10 11 0 20 -4 20 -10z m-3887 -7
c-7 -2 -21 -2 -30 0 -10 3 -4 5 12 5 17 0 24 -2 18 -5z m70 0 c-7 -2 -21 -2
-30 0 -10 3 -4 5 12 5 17 0 24 -2 18 -5z m447 -15 c0 -18 -2 -20 -9 -8 -6 8
-7 18 -5 22 9 14 14 9 14 -14z m3052 -5 c-6 -10 -20 -27 -33 -38 -17 -16 -16
-12 7 21 29 42 44 52 26 17z m-3695 11 c-3 -3 -12 -4 -19 -1 -8 3 -5 6 6 6 11
1 17 -2 13 -5z m3110 -16 c-3 -8 -6 -5 -6 6 -1 11 2 17 5 13 3 -3 4 -12 1 -19z
m-2707 -38 c0 -41 -3 -50 -17 -50 -10 0 -27 -3 -39 -6 -22 -6 -66 27 -46 34 6
2 8 17 5 38 l-6 34 52 0 51 0 0 -50z m310 14 c0 -19 -4 -33 -8 -30 -4 2 -7 17
-6 33 3 33 3 33 9 33 3 0 5 -16 5 -36z m1367 -41 c-2 -16 -4 -3 -4 27 0 30 2
43 4 28 2 -16 2 -40 0 -55z m63 46 c0 -17 -4 -28 -10 -24 -5 3 -10 17 -10 31
0 13 5 24 10 24 6 0 10 -14 10 -31z m1147 9 c-3 -8 -6 -5 -6 6 -1 11 2 17 5
13 3 -3 4 -12 1 -19z m-3042 -20 c-11 -56 -16 -68 -28 -68 -8 0 -8 3 1 12 15
15 16 82 2 73 -5 -3 -10 -1 -10 4 0 6 9 11 21 11 18 0 20 -4 14 -32z m1735 22
c0 -5 -2 -10 -4 -10 -3 0 -8 5 -11 10 -3 6 -1 10 4 10 6 0 11 -4 11 -10z
m2069 -10 c-8 -4 -32 -10 -54 -14 -22 -4 -52 -9 -67 -12 -16 -3 -28 -1 -28 4
0 5 23 12 50 16 28 4 50 10 50 15 0 4 14 5 31 3 21 -3 27 -7 18 -12z m-3963
-5 c10 -9 14 -29 12 -52 -3 -35 -4 -36 -20 -19 -10 10 -18 32 -18 52 0 38 4
41 26 19z m1771 -7 c-3 -8 -6 -5 -6 6 -1 11 2 17 5 13 3 -3 4 -12 1 -19z
m-1907 -39 l0 -50 -37 3 c-35 3 -38 6 -41 36 -5 50 3 62 43 62 l35 0 0 -51z
m836 3 c-12 -11 -18 7 -10 30 l8 23 4 -23 c2 -13 1 -26 -2 -30z m-629 -14 c-2
-13 -4 -5 -4 17 -1 22 1 32 4 23 2 -10 2 -28 0 -40z m1828 24 c-8 -8 -25 10
-19 20 4 6 9 5 15 -3 4 -7 6 -15 4 -17z m945 18 c0 -5 -5 -10 -11 -10 -5 0 -7
5 -4 10 3 6 8 10 11 10 2 0 4 -4 4 -10z m353 -10 c-3 -11 -7 -20 -9 -20 -2 0
-4 9 -4 20 0 11 4 20 9 20 5 0 7 -9 4 -20z m-323 -31 c0 -5 -4 -9 -10 -9 -5 0
-10 7 -10 16 0 8 5 12 10 9 6 -3 10 -10 10 -16z m-2460 1 c0 -5 -2 -10 -4 -10
-3 0 -8 5 -11 10 -3 6 -1 10 4 10 6 0 11 -4 11 -10z m2830 -26 c0 -19 -4 -33
-8 -30 -5 3 -8 15 -6 28 1 13 3 26 3 31 1 4 3 7 6 7 3 0 5 -16 5 -36z m-2282
19 c-21 -2 -55 -2 -75 0 -21 2 -4 4 37 4 41 0 58 -2 38 -4z m-240 -10 c-16 -2
-40 -2 -55 0 -16 2 -3 4 27 4 30 0 43 -2 28 -4z m2163 -20 c-12 -20 -14 -14
-5 12 4 9 9 14 11 11 3 -2 0 -13 -6 -23z m-1891 -22 c0 -5 -57 -12 -127 -15
-71 -4 -149 -9 -175 -12 -30 -3 -48 -1 -48 6 0 5 17 11 38 11 56 2 296 15 305
17 4 1 7 -2 7 -7z m-360 -19 c0 -9 -558 -38 -566 -29 -7 7 87 15 301 25 262
13 265 13 265 4z m2623 -9 c-7 -2 -19 -2 -25 0 -7 3 -2 5 12 5 14 0 19 -2 13
-5z m-2263 -58 c0 -63 -10 -70 -29 -20 -9 25 -9 40 -1 55 19 35 30 22 30 -35z
m672 -33 c8 -9 8 -16 -1 -25 -18 -18 -32 10 -29 58 2 56 12 68 16 20 2 -22 8
-46 14 -53z m-1612 69 c0 -4 -57 -8 -127 -8 -126 0 -127 0 -38 7 146 10 165
10 165 1z m575 -19 c-8 -8 -25 10 -19 20 4 6 9 5 15 -3 4 -7 6 -15 4 -17z
m293 -24 c14 -16 14 -18 -1 -18 -10 0 -17 -5 -17 -11 0 -5 -5 -7 -11 -4 -6 4
-8 14 -4 23 3 8 0 19 -7 24 -10 6 -10 8 0 8 6 0 13 8 13 18 1 14 2 13 6 -3 3
-11 12 -28 21 -37z m779 -30 c-2 -18 -4 -6 -4 27 0 33 2 48 4 33 2 -15 2 -42
0 -60z m-1147 18 l0 -53 -52 -6 c-60 -8 -79 3 -60 33 9 15 10 26 2 40 -18 35
-12 40 50 40 l60 0 0 -54z m-244 -3 c-6 -47 -26 -84 -26 -50 0 9 -7 17 -15 17
-10 0 -15 10 -15 34 0 35 9 44 44 45 17 1 18 -4 12 -46z m74 -10 c0 -64 -13
-62 -28 4 -10 44 -8 53 15 53 9 0 13 -16 13 -57z m450 22 c0 -32 -2 -35 -19
-26 -10 6 -21 7 -25 3 -4 -3 -4 2 0 13 6 17 31 45 41 45 2 0 3 -16 3 -35z
m3200 25 c0 -5 -7 -10 -16 -10 -8 0 -12 5 -9 10 3 6 10 10 16 10 5 0 9 -4 9
-10z m-4026 -24 c-5 -14 -9 -15 -15 -5 -5 8 -3 17 4 21 15 9 19 4 11 -16z m63
-8 c-3 -7 -5 -2 -5 12 0 14 2 19 5 13 2 -7 2 -19 0 -25z m83 16 c0 -8 -4 -12
-10 -9 -5 3 -10 10 -10 16 0 5 5 9 10 9 6 0 10 -7 10 -16z m70 -21 c0 -23 -4
-33 -9 -27 -9 8 -4 64 5 64 2 0 4 -17 4 -37z m3050 27 c0 -5 -12 -10 -27 -9
l-28 1 25 8 c14 4 26 8 28 9 1 1 2 -3 2 -9z m-3340 -49 l0 -48 -46 -7 c-93
-12 -94 -12 -94 42 0 27 3 52 7 55 3 4 35 7 70 7 l63 0 0 -49z m3713 42 c-7
-2 -21 -2 -30 0 -10 3 -4 5 12 5 17 0 24 -2 18 -5z m190 0 c-13 -2 -35 -2 -50
0 -16 2 -5 4 22 4 28 0 40 -2 28 -4z m-1443 -49 c0 -37 -2 -43 -13 -32 -21 22
-14 76 11 78 1 0 2 -21 2 -46z m-1760 5 c0 -27 -3 -30 -27 -27 -28 3 -46 28
-20 28 8 0 20 7 27 15 17 21 20 19 20 -16z m75 -17 c-12 -12 -23 21 -12 33 10
10 13 9 15 -7 2 -11 1 -23 -3 -26z m2619 32 c9 -24 7 -227 -3 -243 -6 -9 -15
6 -30 51 -17 52 -20 77 -15 124 4 32 6 61 5 63 -3 4 21 21 30 21 4 0 10 -7 13
-16z m173 10 c-3 -3 -12 -4 -19 -1 -8 3 -5 6 6 6 11 1 17 -2 13 -5z m56 -1
c-7 -2 -19 -2 -25 0 -7 3 -2 5 12 5 14 0 19 -2 13 -5z m-3517 -40 c-11 -11
-17 4 -9 23 7 18 8 18 11 1 2 -10 1 -21 -2 -24z m141 15 c-3 -8 -6 -5 -6 6 -1
11 2 17 5 13 3 -3 4 -12 1 -19z m2971 1 c7 -12 11 -23 8 -26 -3 -3 1 -12 9
-20 8 -8 15 -19 15 -24 0 -13 -28 -11 -46 4 -29 24 -40 32 -58 42 -27 15 -21
29 16 36 18 4 35 7 38 8 3 0 11 -8 18 -20z m119 -5 c-3 -4 -14 -3 -24 0 -15 6
-15 8 -3 16 16 10 39 -4 27 -16z m-3114 -36 c-6 -12 -43 -10 -43 2 0 6 8 18
18 28 16 17 17 17 23 -3 3 -11 4 -23 2 -27z m2285 27 c-3 -3 -9 2 -12 12 -6
14 -5 15 5 6 7 -7 10 -15 7 -18z m1217 15 c3 -5 -3 -10 -15 -10 -12 0 -18 5
-15 10 3 6 10 10 15 10 5 0 12 -4 15 -10z m-3945 -29 c0 -15 -6 -19 -27 -18
-36 3 -41 25 -6 30 15 2 29 5 31 6 1 0 2 -8 2 -18z m300 -13 c0 -5 -11 -8 -25
-8 -29 0 -33 15 -8 29 17 9 32 -1 33 -21z m3469 -55 c1 -27 -3 -33 -19 -33
-15 0 -20 7 -20 24 0 14 5 28 10 31 6 3 11 21 11 38 l1 32 8 -30 c4 -16 8 -45
9 -62z m-2479 57 c0 -6 -35 -10 -84 -10 -45 0 -173 -4 -282 -9 -358 -17 -569
-23 -561 -15 9 9 222 20 572 30 138 3 252 8 254 10 10 9 101 3 101 -6z m2048
-25 c-5 -24 -3 -25 39 -25 37 0 50 -6 83 -37 68 -66 73 -127 13 -136 -23 -3
-21 -4 10 -6 56 -2 45 -17 -15 -20 -64 -2 -221 -21 -226 -26 -3 -2 1 -18 7
-36 13 -38 15 -199 2 -199 -5 0 -11 5 -13 10 -2 6 -11 4 -23 -5 -19 -16 -19
-16 -1 -11 16 6 17 4 6 -9 -14 -16 -45 -21 -35 -5 3 6 2 10 -4 10 -5 0 -13 -4
-16 -10 -15 -24 -35 -9 -35 25 0 19 -4 35 -10 35 -12 0 -11 7 -16 -102 l-4
-88 57 0 c93 0 197 -12 181 -21 -8 -4 -66 -11 -129 -15 l-114 -7 3 -228 2
-229 -30 0 c-28 0 -30 3 -30 36 l0 36 -202 -5 c-112 -2 -184 -3 -160 0 23 2
42 7 42 12 0 4 16 5 35 3 32 -4 35 -2 35 22 0 14 5 26 10 26 6 0 10 -12 10
-26 0 -23 3 -25 33 -22 24 2 31 7 29 21 -2 9 4 20 13 23 18 7 20 25 3 21 -15
-2 -12 41 3 59 6 8 4 14 -5 17 -25 10 1 77 30 77 8 0 14 -6 14 -14 0 -19 27
-28 34 -10 9 23 40 16 59 -13 l17 -28 -6 29 c-6 24 -4 28 9 23 9 -3 19 -2 22
3 4 6 -1 10 -9 10 -12 0 -16 10 -16 36 0 19 4 33 9 29 5 -3 12 -1 15 4 9 15
-32 19 -146 15 -61 -2 -110 1 -113 6 -4 6 9 10 29 10 19 0 36 4 38 9 2 4 13
12 26 15 16 6 22 3 22 -8 0 -23 27 -20 33 4 4 14 10 18 22 14 13 -5 14 -9 3
-15 -9 -6 -2 -9 20 -9 20 0 32 5 32 13 0 7 12 18 28 24 l27 11 -28 1 c-25 1
-27 4 -25 39 5 83 -1 124 -17 118 -8 -3 -25 -1 -37 4 -24 9 -16 13 32 14 18 1
26 7 28 23 2 12 11 24 20 26 14 4 14 6 -4 12 -23 7 -23 35 0 64 8 11 8 15 -1
18 -23 8 -15 49 12 61 28 13 32 4 37 -72 2 -22 8 -41 14 -43 12 -4 12 165 -1
270 l-8 67 -156 2 -156 2 158 3 c115 3 157 7 158 16 0 6 4 2 9 -10 9 -21 10
-21 57 -6 26 8 53 15 58 17 6 1 16 5 23 10 8 4 26 12 40 16 16 5 20 9 10 9
-10 1 -18 6 -18 11 0 7 -8 6 -22 -1 -21 -11 -22 -11 -9 5 8 9 21 14 32 11 9
-3 20 -1 24 5 12 20 27 10 23 -15z m58 4 c19 -21 19 -21 -11 -17 -19 2 -31 10
-33 21 -5 24 21 22 44 -4z m457 -26 c4 -19 2 -33 -3 -33 -6 0 -10 17 -10 37 0
43 5 41 13 -4z m-3508 17 c4 -6 -16 -10 -53 -10 -32 0 -95 -2 -138 -5 -43 -3
-74 -3 -68 0 6 3 63 9 125 14 63 4 117 9 121 10 4 0 10 -3 13 -9z m3135 -29
c0 -5 3 -17 7 -27 9 -23 -13 -10 -27 17 -9 15 -7 19 5 19 8 0 15 -4 15 -9z
m480 -6 c0 -8 -4 -15 -10 -15 -5 0 -10 7 -10 15 0 8 5 15 10 15 6 0 10 -7 10
-15z m-2320 -16 c0 -5 -12 -9 -26 -9 -22 0 -24 2 -14 14 12 15 40 11 40 -5z
m67 -15 c-3 -4 -19 -3 -34 1 -27 6 -27 7 -8 21 17 12 21 12 34 -1 8 -8 12 -17
8 -21z m-127 16 c0 -5 -4 -10 -10 -10 -5 0 -10 5 -10 10 0 6 5 10 10 10 6 0
10 -4 10 -10z m162 -5 c0 -5 -5 -11 -11 -13 -6 -2 -11 4 -11 13 0 9 5 15 11
13 6 -2 11 -8 11 -13z m-1909 -22 c-13 -2 -33 -2 -45 0 -13 2 -3 4 22 4 25 0
35 -2 23 -4z m164 1 c-3 -3 -12 -4 -19 -1 -8 3 -5 6 6 6 11 1 17 -2 13 -5z
m3770 -36 c-3 -7 -5 -2 -5 12 0 14 2 19 5 13 2 -7 2 -19 0 -25z m106 25 c-7
-2 -19 -2 -25 0 -7 3 -2 5 12 5 14 0 19 -2 13 -5z m-26 -55 c-3 -8 -6 -5 -6 6
-1 11 2 17 5 13 3 -3 4 -12 1 -19z m-19 0 c-5 -15 -78 -24 -78 -9 0 9 24 17
63 20 11 0 17 -4 15 -11z m-438 -98 c0 -5 -18 -10 -39 -10 -22 0 -41 -5 -43
-12 -3 -7 -14 -9 -32 -4 -39 10 -29 16 45 25 35 5 65 9 67 10 1 0 2 -3 2 -9z
m50 6 c0 -2 -7 -6 -15 -10 -8 -3 -15 -1 -15 4 0 6 7 10 15 10 8 0 15 -2 15 -4z
m55 -40 c4 -18 5 -89 3 -156 l-3 -123 68 6 c39 3 67 2 67 -4 0 -5 -17 -9 -37
-9 -66 0 -83 -9 -83 -42 0 -19 -4 -27 -11 -22 -6 3 -9 17 -6 29 3 19 -1 25
-22 30 -15 4 -27 2 -29 -4 -4 -11 -62 13 -62 26 0 3 23 3 50 -1 49 -7 50 -6
50 19 0 14 -4 25 -10 25 -5 0 -10 -4 -10 -8 0 -4 -17 -9 -37 -10 -27 -1 -32 1
-19 7 13 5 16 10 9 14 -6 4 -19 0 -27 -9 -15 -14 -17 -14 -33 1 -15 16 -18 16
-28 1 -13 -17 -35 -22 -35 -7 0 6 5 13 10 16 6 3 10 51 10 107 0 126 9 126 11
0 1 -84 3 -92 21 -92 18 0 19 6 16 105 -4 126 8 141 14 18 3 -58 9 -88 17 -91
11 -4 10 -6 0 -13 -11 -7 -9 -9 6 -9 16 0 20 7 21 35 0 23 -4 35 -13 35 -7 0
-13 5 -13 10 0 6 6 10 13 10 8 0 7 3 -3 10 -12 8 -12 10 3 16 14 5 15 9 6 20
-9 11 -8 14 2 14 9 0 10 3 3 8 -16 11 -24 41 -12 48 19 12 28 -20 28 -99 0
-61 3 -79 16 -84 13 -5 13 -7 2 -14 -9 -6 -8 -9 8 -9 17 0 21 7 23 41 2 34 -1
40 -14 36 -11 -5 -15 0 -15 21 0 16 6 34 12 40 10 10 10 15 -2 22 -13 9 -13
11 0 20 13 8 12 10 -2 10 -10 0 -18 5 -18 10 0 6 9 10 21 10 11 0 17 5 14 10
-3 6 -2 10 4 10 6 0 13 -15 16 -34z m75 -21 c10 -13 9 -15 -9 -15 -12 0 -21 6
-21 15 0 8 4 15 9 15 5 0 14 -7 21 -15z m422 -68 c1 -64 2 -67 7 -27 l6 45 6
-53 c4 -30 13 -58 22 -65 9 -7 17 -21 19 -32 2 -15 -3 -21 -24 -23 -39 -5 -35
-22 5 -23 l32 -1 -30 -10 c-16 -6 -33 -16 -37 -21 -4 -7 -11 -7 -21 1 -10 9
-49 12 -121 10 -78 -2 -106 0 -106 9 0 9 32 13 110 15 61 2 111 7 113 12 1 5
-27 8 -65 7 -54 -2 -68 1 -76 15 -6 11 -11 13 -16 5 -4 -6 -13 -11 -19 -11 -7
0 -6 4 3 10 13 8 13 10 -2 10 -9 0 -19 -6 -21 -12 -4 -8 -6 -7 -6 4 -1 10 12
21 33 28 36 12 45 25 47 68 1 17 3 20 6 10 4 -16 6 -16 29 -2 19 13 30 14 54
6 l30 -11 0 60 c0 87 20 65 22 -24z m86 35 c3 -17 -2 -22 -17 -22 -14 0 -21 6
-21 18 0 38 33 41 38 4z m522 -22 c0 -16 -4 -30 -10 -30 -5 0 -10 14 -10 30 0
17 5 30 10 30 6 0 10 -13 10 -30z m40 -1 c0 -17 -4 -28 -10 -24 -5 3 -10 17
-10 31 0 13 5 24 10 24 6 0 10 -14 10 -31z m-103 -101 c-2 -24 -4 -7 -4 37 0
44 2 63 4 43 2 -21 2 -57 0 -80z m-369 74 c2 -15 -2 -22 -12 -22 -11 0 -16 9
-16 26 0 31 23 28 28 -4z m435 -76 c-4 -5 -10 3 -14 19 -5 15 -5 33 -2 39 4 5
10 -3 14 -19 5 -15 5 -33 2 -39z m37 27 c0 -20 -3 -33 -7 -29 -9 9 -14 38 -8
54 8 23 15 12 15 -25z m-1730 12 c0 -8 -9 -15 -20 -15 -17 0 -19 2 -8 15 17
19 28 19 28 0z m87 -11 c-3 -3 -12 -4 -19 -1 -8 3 -5 6 6 6 11 1 17 -2 13 -5z
m783 -18 c0 -3 -4 -8 -10 -11 -5 -3 -10 -1 -10 4 0 6 5 11 10 11 6 0 10 -2 10
-4z m-850 -21 c20 -24 2 -34 -70 -42 -44 -4 -61 -3 -56 5 3 6 22 9 41 6 30 -4
35 -1 41 21 7 28 25 32 44 10z m1707 -37 c-3 -7 -5 -2 -5 12 0 14 2 19 5 13 2
-7 2 -19 0 -25z m-1042 -6 c-3 -3 -11 0 -18 7 -9 10 -8 11 6 5 10 -3 15 -9 12
-12z m672 -4 c-3 -8 -6 -5 -6 6 -1 11 2 17 5 13 3 -3 4 -12 1 -19z m-1574 5
c-7 -2 -21 -2 -30 0 -10 3 -4 5 12 5 17 0 24 -2 18 -5z m567 -3 c0 -5 -4 -10
-10 -10 -5 0 -10 5 -10 10 0 6 5 10 10 10 6 0 10 -4 10 -10z m-330 -21 c0 -6
6 -17 14 -25 13 -12 16 -12 24 2 13 23 46 13 50 -14 4 -24 12 -24 -135 -13
-13 1 -5 42 11 53 16 11 36 10 36 -3z m237 5 c-3 -3 -12 -4 -19 -1 -8 3 -5 6
6 6 11 1 17 -2 13 -5z m203 -24 c0 -5 -2 -10 -4 -10 -3 0 -8 5 -11 10 -3 6 -1
10 4 10 6 0 11 -4 11 -10z m739 -4 c9 -11 9 -16 -1 -22 -7 -4 -10 -4 -6 1 4 4
3 14 -3 22 -6 7 -9 13 -6 13 2 0 10 -6 16 -14z m166 -3 c18 -14 18 -15 2 -9
-10 3 -23 6 -28 6 -5 0 -9 5 -9 10 0 14 12 12 35 -7z m-1495 -23 c0 -6 -11
-10 -25 -10 -14 0 -25 4 -25 8 0 4 11 9 25 10 14 1 25 -3 25 -8z m60 0 c12 -8
9 -10 -12 -10 -16 0 -28 5 -28 10 0 13 20 13 40 0z m1147 -36 c7 -10 13 -25
13 -33 -1 -12 -3 -11 -12 4 -17 30 -29 35 -78 34 -95 -2 -153 1 -146 8 11 12
115 19 165 12 26 -4 50 -14 58 -25z m288 26 c22 -9 24 -13 15 -31 -7 -11 -14
-18 -18 -15 -3 4 0 12 6 18 9 9 6 15 -16 24 -33 15 -24 18 13 4z m-15 -24 c0
-3 -4 -8 -10 -11 -5 -3 -10 -1 -10 4 0 6 5 11 10 11 6 0 10 -2 10 -4z m231
-59 c-8 -8 -11 -2 -11 19 0 40 14 54 18 19 2 -15 -1 -32 -7 -38z m-1487 37
c25 -9 19 -34 -7 -34 -29 0 -37 7 -30 26 6 15 13 17 37 8z m-79 -14 c3 -5 -3
-10 -15 -10 -12 0 -18 5 -15 10 3 6 10 10 15 10 5 0 12 -4 15 -10z m1533 -32
c-3 -39 -6 -43 -31 -46 -26 -3 -27 -2 -15 18 11 17 11 22 -2 30 -16 10 -15 12
15 28 32 18 36 14 33 -30z m-121 13 c-1 -12 -7 -17 -19 -13 -12 3 -21 -3 -26
-18 -7 -20 -9 -20 -21 -6 -16 19 -16 18 24 39 39 21 44 21 42 -2z m-1724 2
c-7 -2 -21 -2 -30 0 -10 3 -4 5 12 5 17 0 24 -2 18 -5z m235 0 c-10 -2 -26 -2
-35 0 -10 3 -2 5 17 5 19 0 27 -2 18 -5z m782 -8 c0 -9 -10 -11 -36 -8 -27 4
-35 2 -32 -9 3 -7 19 -14 36 -16 18 -2 32 -8 32 -13 0 -5 -11 -7 -24 -3 -16 4
-36 -1 -55 -12 -30 -18 -59 -12 -31 7 13 8 13 10 0 19 -10 6 -11 10 -2 10 6 0
12 8 12 18 0 14 10 17 50 19 36 1 50 -2 50 -12z m389 -29 c9 -11 9 -15 -1 -19
-15 -6 12 -10 62 -8 27 1 31 -1 20 -8 -20 -14 -220 -14 -220 -1 0 6 25 10 55
10 30 0 55 4 55 9 0 14 -34 23 -56 15 -16 -5 -16 -4 -4 5 21 15 75 14 89 -3z
m181 0 c0 -8 -6 -16 -14 -19 -10 -4 -12 0 -9 14 6 22 23 26 23 5z m300 4 c0
-5 -4 -10 -10 -10 -5 0 -10 5 -10 10 0 6 5 10 10 10 6 0 10 -4 10 -10z m-2045
-40 c13 -6 -7 -8 -60 -8 -68 1 -73 2 -35 8 63 10 72 10 95 0z m245 -2 c0 -4
-31 -8 -70 -8 -38 0 -70 4 -70 8 0 4 32 8 70 8 39 0 70 -3 70 -8z m862 -32
c32 15 72 3 76 -22 3 -19 -4 -22 -76 -30 -43 -5 -100 -8 -125 -6 l-47 4 23 18
c39 31 90 48 109 36 11 -7 24 -7 40 0z m409 4 c31 0 39 -4 39 -18 0 -16 6 -18
53 -11 28 4 73 8 98 8 44 1 47 0 53 -31 3 -17 4 -33 2 -35 -2 -2 -30 -4 -62
-5 -64 -2 -277 23 -256 30 6 2 12 8 12 13 0 5 -35 9 -78 9 -71 0 -78 2 -78 20
0 16 7 20 32 20 17 0 45 -7 60 -15 27 -14 30 -14 43 5 8 12 20 19 28 15 8 -3
32 -5 54 -5z m383 -13 c60 4 104 1 159 -11 80 -18 109 -36 59 -36 -46 0 -284
-19 -309 -25 -20 -5 -23 -1 -23 25 0 39 22 85 28 58 3 -15 13 -16 86 -11z
m-1421 -16 c3 -15 -2 -20 -22 -24 -33 -7 -35 -4 -21 22 13 26 36 27 43 2z
m393 10 c-4 -5 0 -12 6 -14 8 -4 9 -6 2 -6 -6 -1 -17 6 -24 14 -10 12 -9 15 4
15 10 0 15 -4 12 -9z m-894 -26 c0 -5 -5 -11 -11 -13 -6 -2 -11 4 -11 13 0 9
5 15 11 13 6 -2 11 -8 11 -13z m586 0 c-5 -5 -68 -13 -68 -9 0 9 45 21 58 16
7 -2 12 -6 10 -7z m-322 -8 c4 -4 -5 -7 -20 -7 -15 0 -25 4 -22 9 7 10 31 9
42 -2z m474 -30 c0 -7 -9 -13 -20 -14 -20 -2 -26 8 -13 20 11 12 33 8 33 -6z
m-370 -37 c0 -18 -7 -20 -81 -20 -44 0 -78 4 -75 9 3 5 36 9 73 9 39 0 69 5
71 11 6 17 12 13 12 -9z m682 -35 c-8 -16 -20 -26 -37 -26 -14 -1 -30 -2 -37
-3 -19 -2 -39 45 -27 61 14 17 81 21 98 6 12 -10 12 -17 3 -38z m-945 21 c4
-3 -26 -6 -66 -6 -40 0 -70 4 -67 9 6 10 123 7 133 -3z m1315 -9 c11 -18 -1
-28 -27 -21 -12 3 -26 1 -30 -6 -5 -8 -10 -8 -21 1 -17 14 -18 36 -1 42 17 8
71 -3 79 -16z m-1234 6 c-10 -2 -26 -2 -35 0 -10 3 -2 5 17 5 19 0 27 -2 18
-5z m219 1 c-3 -3 -12 -4 -19 -1 -8 3 -5 6 6 6 11 1 17 -2 13 -5z m729 -14 c9
0 12 -4 9 -10 -10 -17 -55 -12 -55 6 0 11 5 14 16 10 9 -3 22 -6 30 -6z m974
-20 c0 -16 -4 -30 -10 -30 -5 0 -9 3 -8 8 1 4 -3 17 -10 30 -11 20 -10 22 8
22 16 0 20 -6 20 -30z m-320 -5 c0 -10 -10 -15 -30 -15 -49 0 -34 24 18 29 6
0 12 -6 12 -14z m-1850 -35 c12 0 19 -4 15 -9 -3 -5 -19 -9 -35 -9 -27 1 -30
4 -26 27 6 38 6 38 16 14 6 -14 18 -23 30 -23z m1695 20 c3 -5 1 -10 -4 -10
-6 0 -11 5 -11 10 0 6 2 10 4 10 3 0 8 -4 11 -10z m-1276 -20 l56 -8 -64 2
c-45 1 -66 5 -69 15 -3 9 0 11 8 6 7 -4 38 -11 69 -15z m-94 -1 c-7 -11 -72
-11 -100 0 -13 5 1 8 43 9 37 1 60 -3 57 -9z m-405 -9 c0 -5 -11 -10 -25 -10
-14 0 -25 5 -25 10 0 6 11 10 25 10 14 0 25 -4 25 -10z m2036 -35 c-9 -24 -50
-15 -54 12 -2 14 3 23 15 25 24 6 47 -16 39 -37z m-462 9 c4 -10 -3 -14 -24
-14 -16 0 -41 -5 -57 -11 l-28 -10 25 24 c28 27 75 33 84 11z m116 -19 c0 -8
-4 -15 -10 -15 -5 0 -7 7 -4 15 4 8 8 15 10 15 2 0 4 -7 4 -15z m220 5 c0 -5
-7 -10 -15 -10 -8 0 -15 5 -15 10 0 6 7 10 15 10 8 0 15 -4 15 -10z m-1580
-36 c0 -2 -14 -4 -31 -4 -16 0 -28 4 -25 9 5 8 56 3 56 -5z m1797 10 c-3 -3
-12 -4 -19 -1 -8 3 -5 6 6 6 11 1 17 -2 13 -5z m-1974 -11 c-7 -2 -19 -2 -25
0 -7 3 -2 5 12 5 14 0 19 -2 13 -5z m1892 -3 c-3 -5 -10 -10 -16 -10 -5 0 -9
5 -9 10 0 6 7 10 16 10 8 0 12 -4 9 -10z m-2042 -7 c-7 -2 -21 -2 -30 0 -10 3
-4 5 12 5 17 0 24 -2 18 -5z m651 -54 c-6 -10 -38 -12 -47 -3 -3 4 -2 15 4 26
10 19 12 19 30 2 10 -9 16 -21 13 -25z m334 20 c14 0 14 -2 2 -6 -8 -3 -23
-12 -32 -21 -21 -18 -22 -13 -7 25 6 16 13 22 16 16 3 -7 12 -13 21 -14z
m-452 -14 l29 -15 -32 0 c-23 0 -33 5 -33 15 0 18 1 18 36 0z m183 6 c9 -6 4
-10 -18 -13 -31 -4 -43 6 -18 15 18 8 21 8 36 -2z m-299 -17 c0 -2 -14 -4 -31
-4 -16 0 -28 4 -25 9 5 8 56 3 56 -5z m-156 -6 c-8 -12 -74 -10 -74 2 0 6 17
10 39 8 22 -1 38 -5 35 -10z m214 5 c-10 -2 -26 -2 -35 0 -10 3 -2 5 17 5 19
0 27 -2 18 -5z m-458 -7 c0 -8 -61 -12 -66 -4 -3 4 11 8 30 8 20 0 36 -2 36
-4z m63 -3 c-7 -2 -21 -2 -30 0 -10 3 -4 5 12 5 17 0 24 -2 18 -5z m2051 -48
c-4 -8 -1 -15 5 -15 6 0 11 7 11 15 0 23 27 18 33 -7 7 -25 -17 -58 -41 -58
-42 0 -62 63 -23 73 9 3 17 5 18 6 1 0 0 -6 -3 -14z m141 -41 c-21 -15 -37
-10 -29 10 3 8 14 12 26 8 20 -5 20 -6 3 -18z m-255 -34 c0 -5 -4 -10 -9 -10
-6 0 -13 5 -16 10 -3 6 1 10 9 10 9 0 16 -4 16 -10z m320 -9 c0 -21 -18 -28
-75 -27 -32 1 -41 5 -43 21 -3 19 3 21 58 23 53 2 60 0 60 -17z"/>
<path d="M2275 3060 c3 -5 8 -10 11 -10 2 0 4 5 4 10 0 6 -5 10 -11 10 -5 0
-7 -4 -4 -10z"/>
<path d="M2230 3041 c0 -5 -10 -12 -22 -14 -20 -4 -19 -4 5 -6 18 -1 27 4 27
14 0 8 -2 15 -5 15 -3 0 -5 -4 -5 -9z"/>
<path d="M2110 3031 c0 -4 13 -8 30 -7 39 1 39 16 0 16 -16 0 -30 -4 -30 -9z"/>
<path d="M2320 2749 c0 -5 5 -7 10 -4 6 3 10 8 10 11 0 2 -4 4 -10 4 -5 0 -10
-5 -10 -11z"/>
<path d="M2060 2630 c0 -5 5 -10 11 -10 5 0 7 5 4 10 -3 6 -8 10 -11 10 -2 0
-4 -4 -4 -10z"/>
<path d="M1670 2470 c0 -5 5 -10 10 -10 6 0 10 5 10 10 0 6 -4 10 -10 10 -5 0
-10 -4 -10 -10z"/>
<path d="M1782 2450 c0 -14 2 -19 5 -12 2 6 2 18 0 25 -3 6 -5 1 -5 -13z"/>
<path d="M2060 2459 c0 -5 5 -7 10 -4 6 3 10 8 10 11 0 2 -4 4 -10 4 -5 0 -10
-5 -10 -11z"/>
<path d="M2587 2358 c8 -46 13 -48 13 -5 0 21 -4 37 -10 37 -5 0 -7 -14 -3
-32z"/>
<path d="M2490 2370 c0 -5 5 -10 10 -10 6 0 10 5 10 10 0 6 -4 10 -10 10 -5 0
-10 -4 -10 -10z"/>
<path d="M2611 2333 c0 -25 1 -26 9 -8 12 27 12 35 0 35 -5 0 -10 -12 -9 -27z"/>
<path d="M1680 2300 c0 -5 5 -10 10 -10 6 0 10 5 10 10 0 6 -4 10 -10 10 -5 0
-10 -4 -10 -10z"/>
<path d="M2060 2290 c0 -5 5 -10 10 -10 6 0 10 5 10 10 0 6 -4 10 -10 10 -5 0
-10 -4 -10 -10z"/>
<path d="M2625 2177 c-8 -29 11 -80 28 -75 16 6 21 66 6 84 -17 20 -28 17 -34
-9z"/>
<path d="M1680 2130 c0 -5 5 -10 10 -10 6 0 10 5 10 10 0 6 -4 10 -10 10 -5 0
-10 -4 -10 -10z"/>
<path d="M1792 2105 c0 -16 2 -22 5 -12 2 9 2 23 0 30 -3 6 -5 -1 -5 -18z"/>
<path d="M1686 1961 c-4 -5 -2 -12 3 -15 5 -4 12 -2 15 3 4 5 2 12 -3 15 -5 4
-12 2 -15 -3z"/>
<path d="M1685 1780 c3 -5 8 -10 11 -10 2 0 4 5 4 10 0 6 -5 10 -11 10 -5 0
-7 -4 -4 -10z"/>
<path d="M1792 1745 c0 -16 2 -22 5 -12 2 9 2 23 0 30 -3 6 -5 -1 -5 -18z"/>
<path d="M1690 1610 c0 -5 5 -10 10 -10 6 0 10 5 10 10 0 6 -4 10 -10 10 -5 0
-10 -4 -10 -10z"/>
<path d="M2075 1610 c-3 -5 -1 -10 4 -10 6 0 11 5 11 10 0 6 -2 10 -4 10 -3 0
-8 -4 -11 -10z"/>
<path d="M2341 1531 c6 -13 7 -44 3 -68 -6 -39 -4 -43 15 -43 23 0 40 28 25
39 -14 9 -11 56 4 70 14 14 13 16 17 -34 1 -22 -1 -48 -6 -57 -10 -19 8 -25
59 -20 31 4 32 5 32 52 0 33 5 50 15 54 12 4 15 -4 15 -43 0 -30 -5 -51 -12
-54 -7 -3 -1 -6 15 -6 26 -1 36 16 20 33 -12 12 -9 50 5 64 21 23 14 27 -46
29 -31 1 -82 3 -113 5 -57 4 -57 4 -48 -21z m129 -51 c0 -16 0 -33 1 -37 0 -4
-4 -9 -10 -11 -7 -2 -11 12 -11 37 0 23 5 41 10 41 6 0 10 -13 10 -30z"/>
<path d="M2568 1480 c-3 -57 -2 -60 20 -60 13 0 20 4 17 10 -4 6 -3 30 1 53 6
40 7 41 16 17 5 -14 8 -40 6 -57 -4 -33 -4 -33 39 -33 48 0 49 4 37 83 -9 52
-22 46 -30 -13 -4 -28 -11 -53 -15 -56 -13 -7 -11 73 1 97 10 18 7 19 -39 19
l-49 0 -4 -60z"/>
<path d="M2716 1514 c3 -13 7 -42 7 -64 1 -61 15 -47 19 20 2 49 0 60 -14 64
-15 3 -17 -1 -12 -20z"/>
<path d="M1690 1440 c0 -5 5 -10 10 -10 6 0 10 5 10 10 0 6 -4 10 -10 10 -5 0
-10 -4 -10 -10z"/>
<path d="M1063 2415 c-3 -9 -3 -18 0 -21 9 -9 27 6 27 22 0 19 -19 18 -27 -1z"/>
<path d="M3522 2240 c0 -19 2 -27 5 -17 2 9 2 25 0 35 -3 9 -5 1 -5 -18z"/>
<path d="M3532 2180 c0 -14 2 -19 5 -12 2 6 2 18 0 25 -3 6 -5 1 -5 -13z"/>
<path d="M3598 2123 c7 -3 16 -2 19 1 4 3 -2 6 -13 5 -11 0 -14 -3 -6 -6z"/>
<path d="M3542 2100 c0 -14 2 -19 5 -12 2 6 2 18 0 25 -3 6 -5 1 -5 -13z"/>
<path d="M1405 2280 c-4 -7 -3 -16 3 -22 14 -14 45 -2 40 15 -6 16 -34 21 -43
7z"/>
<path d="M2745 2170 c3 -5 8 -10 11 -10 2 0 4 5 4 10 0 6 -5 10 -11 10 -5 0
-7 -4 -4 -10z"/>
<path d="M3380 1996 c0 -2 7 -7 16 -10 8 -3 12 -2 9 4 -6 10 -25 14 -25 6z"/>
<path d="M2415 1970 c-2 -3 -5 -32 -6 -65 l-3 -60 35 -2 c18 -1 28 0 22 3 -8
4 -13 26 -13 61 l0 55 29 -4 c17 -2 28 -1 26 3 -6 9 -85 17 -90 9z"/>
<path d="M2513 1920 c-11 -42 -7 -90 8 -90 5 0 9 11 9 25 0 14 5 25 10 25 6 0
10 -9 10 -20 0 -25 29 -38 41 -19 5 8 8 33 7 57 -2 23 1 43 7 43 11 2 -42 16
-65 18 -10 1 -20 -13 -27 -39z m43 -17 c-13 -14 -25 9 -13 28 12 20 12 20 15
-1 2 -12 1 -24 -2 -27z"/>
<path d="M2620 1916 c0 -18 -3 -48 -6 -65 -6 -28 -4 -31 17 -31 22 0 24 4 23
50 -2 77 -3 80 -19 80 -10 0 -15 -10 -15 -34z"/>
<path d="M4165 1914 c-16 -20 -23 -35 -16 -33 12 4 57 69 48 69 -2 0 -17 -16
-32 -36z"/>
<path d="M3330 1870 c0 -5 5 -10 10 -10 6 0 10 5 10 10 0 6 -4 10 -10 10 -5 0
-10 -4 -10 -10z"/>
<path d="M3340 1789 c0 -5 5 -7 10 -4 6 3 10 8 10 11 0 2 -4 4 -10 4 -5 0 -10
-5 -10 -11z"/>
<path d="M3340 1755 c0 -8 4 -15 10 -15 5 0 7 7 4 15 -4 8 -8 15 -10 15 -2 0
-4 -7 -4 -15z"/>
<path d="M3055 1570 c-9 -15 -1 -23 21 -18 15 3 16 4 1 16 -11 9 -17 10 -22 2z"/>
<path d="M3055 1489 c-10 -15 0 -21 27 -17 l23 3 -22 13 c-15 8 -24 9 -28 1z"/>
<path d="M3050 1402 c0 -14 11 -21 26 -15 8 3 11 9 8 14 -7 11 -34 12 -34 1z"/>
<path d="M2710 1725 c12 -14 16 -87 6 -103 -7 -12 50 -22 124 -22 l56 0 -4 35
c-3 22 2 45 12 60 16 24 16 25 -8 25 -24 0 -43 -34 -25 -46 15 -9 11 -64 -5
-64 -15 0 -28 78 -14 86 17 11 6 23 -24 28 -89 14 -129 14 -118 1z m57 -67
c-2 -13 -4 -5 -4 17 -1 22 1 32 4 23 2 -10 2 -28 0 -40z m56 45 c-18 -7 -16
-42 3 -50 12 -4 13 -8 3 -13 -21 -13 -37 0 -36 28 2 27 13 42 32 41 6 0 4 -3
-2 -6z"/>
<path d="M3538 1353 l-38 -4 0 -75 0 -74 39 0 39 0 4 80 c2 44 1 79 -2 78 -3
-1 -22 -3 -42 -5z"/>
<path d="M3638 1343 c7 -3 16 -2 19 1 4 3 -2 6 -13 5 -11 0 -14 -3 -6 -6z"/>
<path d="M3290 870 c0 -5 5 -10 11 -10 5 0 7 5 4 10 -3 6 -8 10 -11 10 -2 0
-4 -4 -4 -10z"/>
<path d="M3290 790 c0 -5 5 -10 11 -10 5 0 7 5 4 10 -3 6 -8 10 -11 10 -2 0
-4 -4 -4 -10z"/>
<path d="M3246 485 c8 -19 -16 -30 -28 -14 -8 11 -8 10 -4 -4 3 -10 6 -20 6
-23 0 -2 11 1 24 6 20 7 26 6 29 -8 3 -9 5 -3 6 14 1 23 -4 33 -18 37 -13 3
-18 0 -15 -8z"/>
<path d="M3170 483 c0 -4 4 -15 10 -23 6 -9 5 -17 -3 -23 -8 -6 -8 -7 3 -4 18
4 20 49 3 54 -7 3 -13 1 -13 -4z"/>
<path d="M3170 399 c0 -5 5 -7 10 -4 6 3 10 2 10 -4 0 -6 7 -8 15 -5 8 4 15 1
15 -5 0 -6 7 -11 15 -11 8 0 15 -5 15 -12 0 -17 16 2 25 30 6 21 4 22 -49 22
-33 0 -56 -4 -56 -11z"/>
<path d="M3290 400 c0 -5 5 -10 11 -10 5 0 7 5 4 10 -3 6 -8 10 -11 10 -2 0
-4 -4 -4 -10z"/>
<path d="M3228 3393 c12 -2 32 -2 45 0 12 2 2 4 -23 4 -25 0 -35 -2 -22 -4z"/>
<path d="M3226 3356 c4 -9 -3 -16 -18 -19 -17 -3 -15 -5 10 -6 22 -1 32 4 32
13 0 9 13 16 33 19 25 3 21 4 -15 5 -37 2 -46 -1 -42 -12z"/>
<path d="M3268 3333 c6 -2 18 -2 25 0 6 3 1 5 -13 5 -14 0 -19 -2 -12 -5z"/>
<path d="M3230 3170 c0 -5 5 -10 11 -10 5 0 7 5 4 10 -3 6 -8 10 -11 10 -2 0
-4 -4 -4 -10z"/>
<path d="M3266 3159 c3 -6 0 -15 -7 -20 -9 -6 0 -9 26 -8 35 0 37 1 17 10 -13
5 -20 13 -17 19 3 5 -1 10 -10 10 -9 0 -13 -5 -9 -11z"/>
<path d="M3210 3105 c0 -9 5 -15 11 -13 6 2 11 8 11 13 0 5 -5 11 -11 13 -6 2
-11 -4 -11 -13z"/>
<path d="M3262 3091 c2 -12 -5 -16 -30 -14 -18 1 -30 -2 -27 -7 7 -12 115 -10
115 2 0 4 -3 7 -7 7 -19 -3 -27 2 -15 10 10 6 7 10 -12 13 -20 4 -26 2 -24
-11z"/>
<path d="M3165 2940 c3 -5 8 -10 11 -10 2 0 4 5 4 10 0 6 -5 10 -11 10 -5 0
-7 -4 -4 -10z"/>
<path d="M3240 2940 c0 -5 14 -10 32 -10 36 0 33 9 -6 16 -14 2 -26 0 -26 -6z"/>
<path d="M3208 2933 c7 -3 16 -2 19 1 4 3 -2 6 -13 5 -11 0 -14 -3 -6 -6z"/>
<path d="M3203 2909 c-29 -10 7 -15 67 -9 l55 6 -53 4 c-29 3 -60 2 -69 -1z"/>
<path d="M3831 2854 c0 -11 3 -14 6 -6 3 7 2 16 -1 19 -3 4 -6 -2 -5 -13z"/>
<path d="M3962 2830 c0 -14 2 -19 5 -12 2 6 2 18 0 25 -3 6 -5 1 -5 -13z"/>
<path d="M3711 2814 c0 -11 3 -14 6 -6 3 7 2 16 -1 19 -3 4 -6 -2 -5 -13z"/>
<path d="M3851 2805 c0 -11 4 -27 9 -35 9 -13 10 -13 9 0 0 8 -4 24 -9 35 l-9
20 0 -20z"/>
<path d="M3820 2786 c0 -8 4 -17 9 -20 5 -4 7 3 4 14 -6 23 -13 26 -13 6z"/>
<path d="M3716 2777 c3 -10 9 -15 12 -12 3 3 0 11 -7 18 -10 9 -11 8 -5 -6z"/>
<path d="M3250 2775 c0 -15 56 -52 72 -47 28 7 21 22 -9 22 l-28 1 25 14 c25
14 24 14 -17 15 -24 0 -43 -2 -43 -5z"/>
<path d="M3666 2757 c3 -10 9 -15 12 -12 3 3 0 11 -7 18 -10 9 -11 8 -5 -6z"/>
<path d="M3410 2749 c0 -5 5 -7 10 -4 6 3 10 8 10 11 0 2 -4 4 -10 4 -5 0 -10
-5 -10 -11z"/>
<path d="M3926 2704 l-19 -59 -12 48 c-14 55 -31 78 -22 29 4 -21 3 -31 -3
-27 -6 3 -10 15 -10 25 0 10 -5 22 -11 26 -9 5 -10 -1 -5 -20 7 -28 -2 -34
-22 -14 -7 7 -12 8 -12 2 0 -5 9 -17 20 -27 11 -9 20 -23 20 -31 0 -7 7 -20
17 -27 14 -13 14 -11 -1 19 -20 38 -15 56 5 20 21 -37 20 -125 -1 -233 -13
-71 -17 -111 -11 -137 6 -27 5 -40 -4 -48 -11 -9 -11 -20 2 -63 9 -29 16 -60
15 -69 0 -10 6 -18 14 -18 8 0 14 6 14 13 0 6 9 -1 20 -18 l20 -30 0 34 0 34
55 -6 c33 -3 53 -2 50 4 -4 5 -13 9 -21 9 -8 0 -14 4 -14 9 0 5 -15 5 -36 1
-42 -10 -49 1 -40 63 5 37 4 40 -8 24 -13 -17 -14 -17 -21 0 -15 38 -18 169
-4 194 7 13 12 29 11 35 -1 7 11 23 28 37 16 14 30 30 30 36 0 5 6 14 13 18
16 10 51 61 61 88 8 23 8 23 -36 -36 -56 -73 -72 -89 -87 -89 -18 0 -10 103
14 172 9 26 15 53 13 59 -2 6 -12 -15 -22 -47z m-49 -486 c-3 -8 -6 -5 -6 6
-1 11 2 17 5 13 3 -3 4 -12 1 -19z"/>
<path d="M3196 2698 c-17 -24 -20 -49 -10 -85 13 -47 124 -13 124 38 0 28 -44
69 -74 69 -14 0 -31 -9 -40 -22z m65 -29 c25 -25 16 -38 -13 -20 -17 11 -22
11 -29 0 -4 -8 -11 -11 -14 -7 -5 5 23 48 32 48 2 0 12 -9 24 -21z m-11 -49
c0 -5 -4 -10 -10 -10 -5 0 -10 5 -10 10 0 6 5 10 10 10 6 0 10 -4 10 -10z"/>
<path d="M3320 2704 c0 -8 5 -12 10 -9 6 4 8 11 5 16 -9 14 -15 11 -15 -7z"/>
<path d="M4396 2697 c3 -10 9 -15 12 -12 3 3 0 11 -7 18 -10 9 -11 8 -5 -6z"/>
<path d="M4278 2635 c2 -14 6 -25 7 -25 1 0 5 11 7 25 3 16 1 25 -7 25 -8 0
-10 -9 -7 -25z"/>
<path d="M4473 2635 c6 -7 15 -11 20 -8 13 8 7 19 -13 20 -16 1 -17 -1 -7 -12z"/>
<path d="M4560 2639 c0 -5 5 -7 10 -4 6 3 10 8 10 11 0 2 -4 4 -10 4 -5 0 -10
-5 -10 -11z"/>
<path d="M3421 2604 c-12 -27 -11 -28 4 -12 10 9 16 21 13 28 -2 7 -10 -1 -17
-16z"/>
<path d="M4540 2620 c-8 -23 -8 -50 -1 -55 14 -8 19 7 10 35 -4 14 -8 23 -9
20z"/>
<path d="M3472 2590 c0 -14 2 -19 5 -12 2 6 2 18 0 25 -3 6 -5 1 -5 -13z"/>
<path d="M3817 2539 c-32 -61 -33 -65 -8 -65 15 0 17 4 10 12 -7 9 -4 25 11
54 12 23 20 44 17 46 -2 2 -16 -19 -30 -47z"/>
<path d="M3480 2522 c0 -18 5 -32 10 -32 6 0 8 11 4 28 -10 39 -14 40 -14 4z"/>
<path d="M3615 2510 c-3 -5 -1 -10 4 -10 6 0 11 5 11 10 0 6 -2 10 -4 10 -3 0
-8 -4 -11 -10z"/>
<path d="M3420 2490 c0 -5 5 -10 11 -10 5 0 7 5 4 10 -3 6 -8 10 -11 10 -2 0
-4 -4 -4 -10z"/>
<path d="M3581 2484 c0 -11 3 -14 6 -6 3 7 2 16 -1 19 -3 4 -6 -2 -5 -13z"/>
<path d="M4056 2417 c3 -10 9 -15 12 -12 3 3 0 11 -7 18 -10 9 -11 8 -5 -6z"/>
<path d="M4666 2350 c10 -51 26 -74 18 -25 -4 22 -10 44 -15 50 -6 5 -7 -5 -3
-25z"/>
<path d="M4784 2335 c0 -29 4 -35 21 -34 11 0 14 3 8 6 -7 2 -13 18 -13 34 0
16 -4 29 -8 29 -4 0 -8 -16 -8 -35z"/>
<path d="M4017 2353 c-4 -3 -7 -13 -7 -22 1 -13 3 -13 11 2 11 19 8 33 -4 20z"/>
<path d="M4000 2290 c0 -11 2 -20 4 -20 2 0 6 9 9 20 3 11 1 20 -4 20 -5 0 -9
-9 -9 -20z"/>
<path d="M3991 2244 c0 -11 3 -14 6 -6 3 7 2 16 -1 19 -3 4 -6 -2 -5 -13z"/>
<path d="M4832 2234 c-37 -41 -66 -124 -42 -124 6 0 10 10 10 22 0 25 46 108
60 108 16 0 15 -58 -1 -74 -5 -6 -9 -17 -9 -25 1 -14 3 -13 14 2 7 9 18 17 25
17 6 0 11 5 11 10 0 6 -5 10 -11 10 -5 0 -9 8 -8 18 6 65 -10 77 -49 36z"/>
<path d="M4500 2169 c0 -5 5 -7 10 -4 6 3 10 8 10 11 0 2 -4 4 -10 4 -5 0 -10
-5 -10 -11z"/>
<path d="M4560 2167 c0 -9 -4 -17 -8 -17 -5 0 -14 -11 -20 -25 -10 -22 -9 -25
8 -25 10 0 22 -5 26 -11 5 -8 9 -7 15 3 5 8 23 15 40 16 17 0 37 6 43 13 8 9
4 10 -17 7 -15 -3 -30 -1 -33 4 -4 6 -9 6 -14 -2 -4 -6 -20 -10 -36 -8 l-29 3
37 18 c20 10 40 22 44 28 4 8 1 8 -13 0 -14 -7 -23 -7 -31 1 -9 9 -12 8 -12
-5z"/>
<path d="M4470 2151 c0 -5 -3 -16 -6 -24 -6 -18 25 -32 40 -17 7 7 4 10 -8 10
-13 0 -16 5 -11 20 4 11 2 20 -4 20 -6 0 -11 -4 -11 -9z"/>
<path d="M4810 2119 c0 -5 5 -7 10 -4 6 3 10 8 10 11 0 2 -4 4 -10 4 -5 0 -10
-5 -10 -11z"/>
<path d="M3771 2083 c45 -49 52 -54 63 -43 13 13 -52 80 -78 80 -17 0 -15 -5
15 -37z"/>
<path d="M3680 2090 c0 -5 5 -10 11 -10 5 0 7 5 4 10 -3 6 -8 10 -11 10 -2 0
-4 -4 -4 -10z"/>
<path d="M4830 2049 c-13 -24 -4 -41 10 -19 10 16 13 40 5 40 -2 0 -9 -9 -15
-21z"/>
<path d="M4465 2040 c3 -5 8 -10 11 -10 2 0 4 5 4 10 0 6 -5 10 -11 10 -5 0
-7 -4 -4 -10z"/>
<path d="M3995 2020 c-3 -5 -1 -10 4 -10 6 0 11 5 11 10 0 6 -2 10 -4 10 -3 0
-8 -4 -11 -10z"/>
<path d="M4580 1905 c-13 -16 -8 -18 28 -9 12 4 22 10 22 15 0 15 -37 10 -50
-6z"/>
<path d="M4858 1743 c-14 -3 -15 -7 -5 -18 9 -9 14 -10 20 -1 5 8 10 7 17 -4
8 -12 10 -11 10 8 0 22 -7 24 -42 15z"/>
<path d="M4778 1709 c9 -11 21 -19 27 -19 5 0 3 5 -5 10 -12 8 -13 11 -1 19 9
6 6 9 -12 9 -23 0 -24 -2 -9 -19z"/>
<path d="M4727 1699 c-3 -13 -1 -19 6 -16 15 5 22 37 9 37 -5 0 -12 -9 -15
-21z"/>
<path d="M0 1647 c0 -20 5 -24 32 -25 17 0 43 5 56 12 25 13 25 13 -14 20 -21
4 -47 9 -56 12 -14 4 -18 -1 -18 -19z"/>
<path d="M4808 1663 c6 -2 18 -2 25 0 6 3 1 5 -13 5 -14 0 -19 -2 -12 -5z"/>
<path d="M4748 1653 c7 -3 16 -2 19 1 4 3 -2 6 -13 5 -11 0 -14 -3 -6 -6z"/>
<path d="M4688 1643 c7 -3 16 -2 19 1 4 3 -2 6 -13 5 -11 0 -14 -3 -6 -6z"/>
<path d="M4577 1630 c-20 -4 -40 -10 -44 -13 -9 -9 3 -8 72 7 62 14 39 19 -28
6z"/>
<path d="M4835 1610 c-11 -5 -15 -9 -10 -10 6 -1 1 -5 -10 -9 -12 -5 -23 -4
-27 3 -6 8 -8 7 -8 -1 0 -7 -7 -13 -15 -13 -8 0 -15 -4 -15 -10 0 -5 9 -10 21
-10 11 0 17 -4 14 -10 -11 -17 5 -32 20 -20 8 6 21 10 31 8 12 -2 20 6 25 25
4 16 16 35 26 43 17 12 16 13 -7 13 -14 0 -34 -4 -45 -9z m5 -50 c0 -5 -7 -10
-15 -10 -8 0 -15 5 -15 10 0 6 7 10 15 10 8 0 15 -4 15 -10z"/>
<path d="M4677 1473 c-41 -81 -17 -176 40 -165 16 3 31 10 35 16 9 14 0 46
-20 69 -14 15 -13 17 1 17 22 0 21 18 -3 58 -24 39 -35 40 -53 5z"/>
<path d="M4521 1464 c0 -11 3 -14 6 -6 3 7 2 16 -1 19 -3 4 -6 -2 -5 -13z"/>
<path d="M4885 1439 c-4 -24 -3 -45 3 -51 7 -7 10 7 10 41 1 28 -1 51 -3 51
-2 0 -6 -18 -10 -41z"/>
<path d="M4519 1428 c-6 -21 -5 -38 2 -38 5 0 9 9 9 20 0 16 -7 28 -11 18z"/>
<path d="M4825 1400 c3 -5 8 -10 11 -10 2 0 4 5 4 10 0 6 -5 10 -11 10 -5 0
-7 -4 -4 -10z"/>
<path d="M4862 1295 c-11 -13 -9 -15 8 -15 11 0 20 7 20 15 0 19 -11 19 -28 0z"/>
<path d="M4637 1276 c-6 -15 1 -26 15 -26 4 0 8 9 8 20 0 23 -15 27 -23 6z"/>
<path d="M4892 1200 c0 -14 2 -19 5 -12 2 6 2 18 0 25 -3 6 -5 1 -5 -13z"/>
<path d="M1350 9 c0 -5 21 -9 47 -9 25 0 44 2 42 4 -9 9 -89 13 -89 5z"/>
</g>
</svg>
