<?xml version="1.0" standalone="no"?>
<!DOCTYPE svg PUBLIC "-//W3C//DTD SVG 20010904//EN"
 "http://www.w3.org/TR/2001/REC-SVG-20010904/DTD/svg10.dtd">
<svg version="1.0" xmlns="http://www.w3.org/2000/svg"
 width="548.000000pt" height="351.000000pt" viewBox="0 0 548.000000 351.000000"
 preserveAspectRatio="xMidYMid meet">
<metadata>
Created by potrace 1.16, written by Peter Selinger 2001-2019
</metadata>
<g transform="translate(0.000000,351.000000) scale(0.100000,-0.100000)"
fill="#000000" stroke="none">
<path d="M2323 3502 c10 -2 17 -13 17 -27 0 -18 -4 -22 -19 -18 -12 3 -17 11
-14 19 3 9 0 12 -8 9 -8 -3 -14 -15 -14 -28 0 -17 6 -22 25 -22 15 0 26 -6 28
-17 2 -11 -3 -18 -12 -18 -9 0 -16 7 -16 16 0 22 -26 1 -33 -26 -4 -16 -2 -17
20 -9 14 5 29 7 32 3 3 -4 1 -9 -6 -11 -6 -2 -21 -13 -34 -24 -27 -23 -30 -24
-22 -3 5 14 3 15 -17 4 -18 -10 -21 -9 -15 1 6 9 3 11 -8 6 -14 -5 -16 -2 -11
21 5 26 5 26 -11 7 -8 -11 -13 -25 -11 -32 3 -7 1 -15 -4 -18 -14 -9 -50 13
-50 30 0 8 -4 15 -10 15 -5 0 -10 -4 -10 -10 0 -5 -11 -10 -25 -10 -19 0 -23
4 -18 18 6 15 4 15 -16 -3 -18 -16 -25 -17 -41 -7 -27 16 -41 15 -55 -5 -11
-15 -15 -15 -29 -4 -13 11 -17 11 -22 -3 -8 -22 -27 -20 -20 2 4 13 0 18 -15
19 -16 2 -18 -1 -10 -11 14 -17 2 -29 -16 -15 -9 9 -13 8 -13 0 0 -6 -7 -11
-16 -11 -10 0 -13 6 -9 18 4 16 0 19 -25 20 -16 0 -30 -4 -30 -9 0 -5 -3 -8
-7 -7 -10 2 -63 -20 -63 -26 0 -3 14 0 31 6 16 6 33 7 37 3 4 -4 2 -10 -5 -12
-7 -2 -10 -10 -7 -18 3 -7 -1 -12 -10 -12 -8 1 -15 -1 -15 -6 -1 -10 -25 -36
-31 -32 -3 1 -14 -6 -24 -16 -13 -12 -15 -19 -7 -19 11 0 11 -3 1 -15 -7 -8
-17 -12 -24 -8 -8 4 -8 3 0 -6 9 -10 17 -10 32 -2 18 9 19 8 14 -11 -4 -16 -2
-19 9 -13 8 5 7 1 -3 -10 -15 -16 -19 -16 -34 -4 -12 9 -15 10 -10 2 4 -7 3
-13 -2 -13 -5 0 -12 -9 -15 -21 -3 -12 -3 -18 0 -15 4 3 12 1 19 -5 8 -7 14
-7 19 1 3 5 -1 10 -9 10 -16 0 -21 12 -10 23 8 7 34 -17 34 -32 0 -6 -4 -11
-9 -11 -5 0 -8 -18 -7 -39 2 -42 -17 -83 -27 -58 -3 8 0 20 6 27 10 10 7 12
-10 7 -16 -3 -23 -1 -23 9 0 8 -4 14 -10 14 -5 0 -10 6 -10 14 0 17 -23 27
-40 16 -9 -6 -7 -10 9 -15 11 -3 21 -11 21 -16 0 -6 -4 -7 -10 -4 -5 3 -10 1
-10 -5 0 -7 8 -9 19 -5 20 6 23 -8 8 -32 -4 -6 -3 -14 2 -17 5 -3 12 1 15 10
3 8 11 12 17 9 7 -5 5 -13 -6 -25 -15 -16 -7 -38 9 -23 3 3 21 7 38 9 18 1 25
0 15 -3 -9 -2 -14 -9 -11 -15 4 -6 1 -14 -7 -19 -10 -6 -8 -12 10 -28 13 -12
19 -21 13 -21 -6 0 -19 -3 -29 -7 -16 -6 -17 -5 -3 12 14 17 13 18 -2 12 -12
-4 -21 0 -29 14 -6 12 -17 18 -25 15 -8 -3 -12 -2 -9 3 3 5 0 13 -6 17 -8 5
-7 9 2 15 11 6 10 12 -4 27 -9 10 -14 22 -10 25 3 4 2 7 -4 7 -6 0 -14 -7 -17
-16 -8 -22 -8 -24 6 -21 6 1 12 -9 12 -23 2 -29 21 -66 33 -62 4 2 9 -2 12 -9
2 -7 -1 -9 -9 -4 -9 5 -11 4 -6 -3 4 -7 14 -12 22 -12 8 0 14 -4 14 -10 0 -16
-14 -12 -38 10 -12 11 -28 20 -36 20 -8 0 -18 5 -21 10 -3 6 2 10 11 10 31 0
1 17 -41 24 -24 3 -32 2 -21 -3 19 -7 18 -8 -4 -14 -14 -3 -29 -2 -34 3 -11
11 -35 -11 -29 -27 3 -7 -1 -13 -8 -13 -7 0 -4 -10 10 -24 17 -18 19 -26 10
-31 -7 -5 -10 -4 -6 2 4 6 -2 13 -13 16 -30 8 -24 -6 13 -33 17 -13 26 -17 19
-8 -10 13 -9 16 5 20 14 4 18 -1 18 -19 0 -22 -4 -24 -30 -19 -16 2 -24 2 -17
-1 18 -7 15 -26 -4 -19 -14 5 -15 4 -4 -9 16 -19 30 -19 30 -1 0 7 10 16 22
19 12 4 19 9 16 13 -4 3 0 13 9 22 14 14 16 14 25 -1 11 -21 28 -22 28 -1 0 9
-9 18 -19 21 -12 3 -17 11 -14 19 3 8 0 14 -6 14 -6 0 -11 -4 -11 -10 0 -5 -7
-10 -16 -10 -8 0 -12 4 -9 10 4 6 -4 9 -17 7 -19 -2 -23 2 -20 22 3 29 13 41
19 24 5 -15 33 -17 33 -3 0 6 5 10 10 10 6 0 10 -9 10 -21 0 -15 4 -19 19 -14
11 3 22 1 26 -5 3 -5 1 -10 -4 -10 -6 0 -11 -5 -11 -11 0 -5 4 -7 10 -4 6 3 7
-1 4 -9 -3 -9 -2 -16 4 -16 5 0 12 -9 15 -20 3 -11 15 -24 28 -28 19 -7 20
-10 6 -15 -10 -4 -17 -2 -17 3 0 6 -4 10 -9 10 -5 0 -7 -9 -4 -20 4 -13 0 -20
-10 -20 -13 0 -35 18 -36 30 0 13 -14 40 -20 40 -10 0 -31 -52 -25 -62 3 -5
12 -4 20 3 10 8 14 8 14 0 0 -6 -4 -11 -10 -11 -6 0 -8 -17 -6 -40 2 -22 0
-38 -4 -35 -5 3 -7 14 -5 24 2 10 -1 24 -6 32 -7 12 -9 12 -9 -1 0 -10 -3 -11
-8 -4 -4 6 -23 15 -42 19 -33 7 -34 7 -20 -11 8 -11 22 -24 30 -31 13 -11 13
-12 0 -13 -12 0 -13 -2 -1 -9 7 -5 11 -15 9 -22 -3 -8 -1 -22 4 -31 5 -11 5
-18 -1 -18 -9 0 -23 29 -19 40 2 4 -37 81 -50 100 -2 2 -7 -2 -12 -10 -5 -8
-5 -19 0 -25 6 -7 2 -17 -10 -28 -19 -16 -20 -16 -21 1 -1 9 -1 21 0 26 1 5
-5 6 -14 2 -9 -3 -19 -6 -21 -6 -7 0 40 -45 49 -46 4 -1 15 -2 25 -3 15 -1 15
-3 -3 -18 -20 -15 -20 -15 1 -10 14 3 28 -3 38 -14 9 -11 11 -19 5 -19 -6 0
-9 -7 -5 -15 6 -18 5 -18 -29 -5 -28 11 -26 33 3 23 13 -4 14 -3 6 6 -16 17
-66 -3 -58 -24 3 -8 12 -15 19 -15 20 0 29 -20 16 -33 -9 -9 -11 -8 -5 6 5 15
2 14 -17 -5 -24 -24 -34 -68 -16 -68 5 0 7 9 4 20 -7 28 9 35 39 15 13 -9 30
-13 36 -9 6 4 9 1 6 -7 -7 -20 -48 -24 -48 -5 0 18 -16 30 -18 13 -1 -7 -4
-25 -8 -41 -7 -29 -6 -29 29 -23 31 5 37 2 43 -16 5 -12 7 -30 5 -41 -2 -12 1
-16 10 -11 8 5 10 4 5 -3 -4 -7 -16 -17 -28 -23 -11 -6 -18 -7 -15 -2 3 5 2
15 -2 22 -6 9 -10 6 -15 -12 -5 -21 -11 -25 -34 -22 -15 2 -27 5 -27 6 0 1
-44 2 -97 4 -89 1 -119 -5 -85 -18 6 -3 2 -6 -10 -6 -13 -1 -23 -5 -23 -11 0
-5 14 -8 30 -6 17 2 33 -1 37 -7 3 -5 1 -7 -5 -3 -6 3 -13 2 -17 -3 -3 -6 -12
-8 -20 -4 -8 3 -15 0 -15 -6 0 -6 -5 -11 -11 -11 -6 0 -9 7 -5 15 3 8 1 15 -5
15 -5 0 -2 11 7 25 17 27 12 45 -14 45 -13 0 -14 -2 -4 -8 17 -11 4 -42 -17
-42 -14 0 -14 2 -1 11 12 8 11 9 -5 7 -16 -2 -21 4 -24 27 -4 30 -4 30 -11 5
-4 -18 -12 -24 -26 -22 -15 3 -17 1 -6 -9 14 -15 16 -33 2 -24 -19 12 -10 -7
13 -25 13 -12 31 -17 44 -13 13 3 23 1 23 -6 0 -6 16 -10 40 -8 22 1 40 5 40
8 0 11 30 6 30 -5 0 -8 2 -8 8 0 9 14 52 37 58 31 3 -3 -7 -17 -21 -31 -19
-19 -30 -24 -39 -17 -12 10 -56 11 -56 1 0 -3 -18 -6 -39 -7 -33 -2 -39 1 -34
14 5 13 2 15 -11 10 -10 -4 -20 -7 -23 -7 -2 0 2 -7 11 -15 8 -8 23 -15 34
-15 19 0 36 -22 26 -33 -7 -7 -64 25 -64 36 0 4 -7 7 -16 7 -11 0 -15 6 -11
20 3 13 0 20 -9 20 -23 0 -16 -26 15 -59 19 -21 27 -38 24 -51 -5 -18 -3 -19
20 -11 14 5 28 7 31 4 3 -4 6 -1 6 7 0 10 3 10 15 0 8 -6 19 -9 25 -5 5 3 23
-2 40 -11 28 -17 30 -17 52 2 26 23 67 22 48 -1 -9 -11 -6 -16 10 -25 19 -10
20 -9 15 17 -5 28 -5 28 5 3 9 -20 13 -22 20 -10 6 10 3 21 -8 34 -17 19 -17
19 15 1 22 -13 29 -23 23 -29 -15 -15 -12 -26 5 -20 8 4 15 12 15 20 0 8 5 14
10 14 6 0 10 7 10 15 0 8 5 15 11 15 5 0 8 -4 4 -9 -3 -5 0 -13 6 -16 5 -4 8
-13 5 -21 -7 -19 12 -28 29 -14 10 8 19 8 34 1 26 -14 34 -14 26 2 -4 6 1 3 9
-7 9 -11 16 -15 16 -10 0 5 20 9 45 9 25 0 45 -3 45 -7 0 -5 22 -8 48 -8 26 0
53 -5 60 -12 13 -13 17 -175 4 -194 -7 -12 -176 -30 -244 -27 -21 1 -38 -3
-38 -8 0 -5 -12 -6 -27 -3 -15 4 -34 7 -43 6 -8 -1 -43 -2 -77 -1 -52 0 -63
-3 -63 -16 0 -15 -2 -15 -17 0 -16 16 -17 16 -30 -1 -12 -17 -13 -17 -13 2 0
16 -2 17 -10 4 -7 -11 -10 -11 -10 -2 0 7 -8 12 -17 10 -10 -1 -23 1 -29 5 -7
4 -15 0 -18 -9 -4 -10 -2 -13 7 -8 9 5 9 4 0 -6 -12 -13 -37 -4 -28 11 3 5 0
6 -8 3 -8 -3 -18 -1 -22 5 -3 6 -11 11 -16 11 -6 0 -8 -4 -5 -9 9 -14 -26 -23
-38 -10 -8 9 -8 10 0 6 7 -4 15 0 18 8 5 13 2 13 -25 0 -16 -9 -35 -13 -41 -9
-19 12 -58 14 -58 3 0 -12 -58 -2 -76 12 -6 5 -20 2 -33 -8 -19 -13 -25 -13
-32 -2 -5 8 -9 10 -9 5 0 -5 -8 -2 -17 6 -10 9 -38 19 -63 23 -40 7 -43 6 -31
-9 7 -9 12 -16 10 -17 -46 -8 -59 -6 -64 11 -4 11 -12 17 -20 13 -8 -3 -12
-10 -8 -17 4 -6 -1 -5 -10 2 -9 8 -21 11 -26 8 -5 -4 -12 -2 -15 3 -9 13 -46
1 -46 -15 0 -19 -6 -18 -30 6 -12 12 -18 25 -15 30 4 6 -4 10 -16 10 -18 0
-19 -2 -9 -15 7 -8 9 -15 4 -16 -5 0 2 -5 15 -10 19 -8 21 -12 11 -24 -14 -17
-45 -21 -35 -5 4 6 11 8 16 5 5 -4 9 -1 9 4 0 6 -7 11 -16 11 -8 0 -19 13 -25
28 -6 18 -17 28 -29 28 -12 0 -19 -5 -16 -12 9 -23 -8 -24 -21 -2 -7 13 -12
17 -13 11 0 -7 -7 -13 -16 -13 -12 0 -14 3 -6 13 8 9 2 12 -24 14 -19 1 -32
-2 -29 -6 2 -5 -14 -14 -35 -21 -22 -7 -40 -19 -40 -27 0 -7 -4 -13 -9 -13
-10 0 -36 29 -27 31 11 3 26 6 34 9 4 2 13 4 21 4 22 2 25 46 3 46 -13 0 -14
-2 -3 -9 8 -5 9 -11 3 -15 -6 -4 -15 2 -21 11 -9 16 -10 15 -11 -6 0 -21 -2
-22 -17 -10 -11 10 -14 10 -9 2 10 -18 -5 -16 -18 2 -6 8 -21 17 -33 19 l-22
5 -1 -975 0 -974 560 0 560 0 0 25 c0 14 5 25 10 25 6 0 10 -11 10 -25 0 -31
17 -33 22 -3 2 17 11 22 46 25 38 4 42 2 43 -19 1 -20 2 -21 6 -3 3 11 9 24
13 28 12 14 50 -12 50 -33 0 -20 9 -20 375 -20 243 0 375 4 375 10 0 6 32 10
75 10 53 0 75 -4 75 -12 0 -9 3 -8 10 2 13 21 139 26 146 5 6 -13 166 -15
1334 -15 1165 0 1329 2 1334 15 3 9 0 15 -9 15 -8 0 -15 9 -15 20 0 11 7 20
15 20 8 0 15 -7 15 -15 0 -8 6 -12 15 -9 9 4 17 -3 21 -23 l8 -28 7 25 c7 24
7 24 8 3 1 -23 1 -23 186 -23 l185 0 0 1585 0 1585 -68 1 c-123 1 -173 12
-247 54 -38 21 -64 40 -57 43 7 2 37 -10 67 -27 62 -35 98 -34 110 2 l8 22 4
-22 c5 -27 38 -31 48 -5 6 16 7 16 16 0 8 -14 23 -18 64 -18 l55 0 0 145 0
145 -1191 0 c-1033 0 -1193 -2 -1206 -15 -8 -8 -12 -18 -9 -23 2 -4 -3 -8 -13
-8 -9 0 -17 8 -17 18 0 11 6 16 13 14 7 -3 15 -1 18 4 4 6 -12 10 -37 10 -30
0 -39 -3 -28 -10 8 -5 12 -12 9 -15 -9 -9 -40 6 -33 16 10 16 -100 6 -114 -11
-11 -13 -11 -13 -6 3 5 15 -1 17 -46 17 -28 0 -49 -4 -46 -8 2 -4 -4 -8 -14
-8 -10 0 -16 4 -14 8 3 4 -2 8 -10 8 -9 0 -16 -5 -16 -11 0 -8 -4 -8 -14 0 -8
7 -29 11 -47 9 -31 -3 -32 -4 -16 -20 14 -13 14 -17 2 -21 -9 -4 -15 2 -17 16
-3 20 -9 22 -70 22 -38 1 -68 -3 -68 -8 0 -4 -6 -5 -12 0 -7 4 -49 8 -93 8
-44 1 -72 0 -62 -3z m-256 -516 l2 -89 -24 51 c-13 28 -35 58 -49 67 -32 21
-146 33 -146 16 0 -7 5 -9 13 -5 6 4 3 -2 -7 -14 -23 -27 -43 -28 -50 -4 -3 9
-14 22 -24 29 -17 10 -19 8 -16 -15 1 -14 -1 -33 -5 -41 -13 -21 -24 22 -16
59 6 27 10 29 58 32 29 2 99 3 157 3 l105 0 2 -89z m3083 -211 c-5 -94 -12
-231 -16 -305 -3 -74 -8 -146 -9 -160 -2 -14 -4 -47 -4 -73 -1 -31 -5 -46 -12
-42 -6 4 -8 35 -4 83 3 43 7 133 10 202 16 390 23 486 36 473 5 -5 5 -80 -1
-178z m-2770 -434 c36 -5 115 -16 175 -24 169 -24 309 -32 563 -32 127 0 232
-3 232 -7 0 -9 -15 -11 -42 -9 -11 2 -18 -5 -19 -16 -1 -17 -1 -17 -6 0 -5 18
-45 22 -68 6 -5 -4 -23 -5 -40 -4 -16 2 -33 -2 -37 -8 -5 -9 -10 -9 -20 1 -14
14 -94 16 -103 2 -4 -7 -13 -6 -27 1 -17 9 -23 8 -30 -5 -8 -14 -13 -15 -24
-5 -8 6 -14 8 -14 3 0 -4 -6 0 -13 11 -13 17 -14 17 -29 -4 -13 -18 -19 -20
-42 -11 -15 5 -32 7 -38 4 -6 -4 -26 -8 -44 -9 -30 -2 -39 5 -35 27 0 4 -9 6
-20 5 -18 -1 -18 -3 -4 -13 13 -10 12 -12 -10 -16 -14 -3 -28 -1 -31 4 -4 6
-10 5 -14 -2 -11 -18 -33 -1 -27 21 3 11 1 17 -3 14 -5 -3 -11 -1 -15 5 -9 15
-28 12 -22 -4 3 -8 -4 -22 -15 -33 -20 -18 -21 -18 -13 6 5 17 4 22 -6 19 -8
-3 -13 -12 -11 -22 2 -9 -2 -16 -8 -16 -5 0 -10 6 -10 13 0 8 -4 7 -10 -3 -10
-15 -11 -12 -14 22 -1 6 7 12 17 14 23 3 33 12 23 21 -4 4 -10 3 -14 -3 -8
-11 -27 -12 -38 -1 -4 4 -12 7 -18 7 -5 0 -1 -7 10 -15 16 -12 17 -14 2 -15
-9 0 -19 -8 -22 -18 -5 -14 -19 -18 -77 -21 l-71 -2 25 25 c30 30 47 33 47 9
0 -9 2 -14 5 -11 11 11 -7 57 -25 63 -49 15 -80 13 -94 -7 l-14 -20 -11 21
c-15 26 -54 29 -44 4 6 -16 5 -16 -11 -4 -15 13 -19 13 -26 1 -5 -8 -4 -22 1
-32 14 -26 -20 -51 -70 -51 -23 0 -44 3 -47 6 -9 9 35 29 49 21 9 -5 9 -4 0 6
-6 7 -9 19 -6 26 3 8 0 14 -7 14 -6 0 -9 -4 -6 -9 3 -5 -1 -15 -10 -22 -13
-10 -17 -10 -26 2 -8 12 -9 11 -5 -2 8 -26 -8 -41 -47 -41 -20 0 -39 -5 -43
-11 -4 -7 -8 -50 -9 -97 0 -47 -2 -119 -4 -161 -2 -42 1 -82 6 -90 4 -8 7 -27
5 -43 -1 -16 3 -32 10 -37 8 -4 10 -11 6 -16 -5 -4 -13 -1 -18 7 -8 11 -12 12
-16 3 -2 -7 -16 -13 -30 -13 l-25 0 6 253 c3 138 5 269 6 290 l0 37 223 -1
c122 0 251 -4 287 -8z m2435 -43 c3 -7 1 -26 -3 -43 l-8 -30 -112 -2 c-120 -2
-124 0 -114 54 4 21 10 23 106 26 55 1 107 4 114 5 7 1 15 -4 17 -10z m-2600
-112 c22 -8 50 -12 62 -9 12 3 32 -2 45 -11 12 -9 17 -16 10 -16 -6 0 -12 -7
-12 -15 0 -8 -7 -15 -15 -15 -8 0 -15 7 -15 16 0 9 -6 14 -12 11 -7 -2 -21 0
-30 4 -12 7 -18 4 -23 -11 -3 -11 -10 -20 -16 -20 -5 0 -15 -16 -23 -35 -13
-31 -13 -39 0 -67 8 -18 20 -41 27 -51 15 -22 -1 -51 -32 -55 -24 -4 -44 33
-31 58 5 8 6 38 3 67 -4 33 -1 58 6 67 8 10 9 16 1 21 -11 7 -14 58 -3 68 9 9
12 9 58 -7z m-83 -32 c-5 -26 -6 -27 -59 -26 -47 0 -47 0 -20 -12 51 -22 63
-70 27 -106 -35 -35 -110 -16 -110 29 0 14 -2 14 -10 1 -5 -8 -10 -10 -10 -5
0 6 -3 20 -6 33 -4 13 -2 22 5 22 6 0 11 -8 11 -17 1 -16 2 -15 12 2 6 11 17
23 24 28 8 5 11 19 7 40 -5 34 -5 34 38 35 23 1 44 4 47 6 11 12 47 -13 44
-30z m2515 -11 c-5 -25 21 -63 43 -63 14 0 31 -37 24 -54 -4 -12 0 -16 16 -16
16 0 21 -5 18 -22 -3 -20 -10 -23 -48 -26 l-45 -2 24 20 c22 19 22 20 3 20
-12 0 -27 9 -35 20 -8 11 -17 17 -21 13 -9 -9 -35 28 -36 51 0 15 -3 16 -15 6
-12 -10 -15 -9 -15 7 0 25 27 63 54 73 29 11 39 2 33 -27z m-2422 -264 c42
-16 47 -34 7 -26 -21 4 -29 2 -29 -9 0 -10 7 -14 17 -11 11 3 20 -5 27 -22 9
-24 7 -27 -14 -29 -16 -1 -23 3 -21 12 2 8 0 15 -4 15 -23 2 -27 0 -22 -14 4
-9 0 -15 -10 -15 -9 0 -15 3 -14 8 2 13 -14 42 -24 42 -6 0 -8 -9 -5 -20 6
-22 -17 -48 -28 -30 -3 5 -1 10 4 10 6 0 11 5 11 11 0 6 -9 9 -19 6 -15 -3
-18 -1 -14 12 4 13 2 13 -7 -2 -6 -9 -9 -21 -5 -26 8 -14 -18 -20 -39 -8 -19
9 -19 10 -1 23 21 15 9 19 -14 5 -8 -5 -11 -16 -8 -24 8 -21 -41 -13 -58 10
-20 27 -8 29 14 2 15 -17 20 -20 21 -9 0 8 -11 24 -24 34 -21 15 -23 21 -13
37 9 15 24 19 64 19 29 0 53 -4 53 -10 0 -5 4 -10 10 -10 5 0 7 6 4 13 -7 19
95 22 141 6z m2415 -90 c0 -15 5 -19 16 -15 8 3 12 2 9 -4 -11 -17 4 -47 30
-58 19 -9 25 -19 25 -41 0 -40 -32 -59 -64 -38 -12 8 -33 17 -47 19 -20 2 -25
9 -27 41 -3 34 -5 37 -19 25 -15 -12 -16 -9 -10 22 11 58 87 100 87 49z
m-3450 -11 c13 -15 16 -24 9 -29 -15 -9 -2 -15 51 -24 62 -10 111 -40 132 -79
8 -16 7 -18 -6 -13 -21 8 -40 -27 -28 -50 13 -26 23 -131 13 -137 -4 -3 -7
-26 -6 -51 1 -42 -1 -47 -34 -68 -44 -27 -138 -28 -177 -2 -23 15 -24 18 -9
29 16 11 16 14 1 28 -18 18 -22 33 -6 23 6 -3 10 -2 10 4 0 5 -4 13 -10 16 -5
3 -14 24 -20 45 -5 22 -15 58 -20 80 -8 30 -16 40 -31 40 -18 0 -19 2 -5 28
19 36 86 108 109 115 9 4 17 14 17 23 0 9 -8 23 -17 30 -11 8 -13 13 -6 14 7
0 21 -10 33 -22z m1144 -207 c3 -5 -4 -11 -17 -15 -16 -4 -18 -8 -10 -14 10
-6 10 -12 -2 -28 -14 -17 -16 -17 -27 -3 -19 23 -68 34 -68 15 0 -8 -10 -22
-22 -30 -32 -22 -32 -106 0 -136 25 -24 26 -25 12 -51 -12 -22 -43 -25 -57 -6
-14 18 -15 157 -2 174 8 9 8 17 1 26 -5 6 -10 24 -10 39 0 27 1 27 62 24 33
-2 72 0 86 5 35 10 48 10 54 0z m-272 -98 c27 -24 23 -68 -8 -92 -15 -12 -23
-22 -18 -22 5 -1 14 -2 19 -4 6 -1 20 -3 33 -3 18 -2 23 -7 20 -24 -3 -21 -8
-23 -63 -23 -51 0 -60 3 -63 19 -2 10 1 22 8 26 8 5 4 15 -14 33 -31 31 -33
60 -6 87 24 24 67 26 92 3z m2558 -48 c0 -8 9 -15 20 -15 13 0 20 -7 20 -19 0
-10 11 -26 25 -35 17 -11 25 -26 25 -44 0 -16 5 -33 10 -38 16 -16 -11 -44
-44 -47 -23 -2 -32 4 -46 28 -9 17 -26 31 -38 33 -21 3 -26 15 -23 57 1 18 0
18 -20 -5 l-22 -25 6 40 c4 25 16 48 32 63 30 25 55 29 55 7z m-3223 -173 c6
-4 11 -22 11 -40 -1 -32 -11 -41 -24 -21 -4 8 -8 8 -13 1 -4 -6 -26 -14 -49
-18 -41 -6 -42 -6 -43 22 l0 29 -12 -25 c-16 -36 -17 -37 -33 -16 -12 17 -14
18 -14 3 0 -24 -21 -21 -27 3 l-6 21 -14 -21 c-17 -24 -45 -26 -63 -5 -16 19
-25 19 -45 -1 -20 -21 -28 -13 -27 27 1 40 7 45 40 33 20 -8 33 -7 45 0 12 8
22 8 36 -1 15 -10 21 -10 25 0 5 9 7 9 12 -1 5 -10 9 -10 21 -1 11 10 16 10
23 0 6 -10 9 -10 15 -1 4 6 25 10 51 9 24 -2 46 0 50 4 9 9 26 9 41 -1z m3213
-186 c0 -13 36 -53 75 -85 16 -13 16 -25 0 -64 -6 -13 -4 -16 10 -11 15 6 15
5 4 -15 -18 -28 -47 -27 -71 4 -11 14 -33 32 -50 41 -26 14 -29 20 -24 46 5
25 3 28 -7 19 -18 -14 -26 -5 -20 20 10 38 83 78 83 45z m-2503 -143 c-2 -25
-6 -28 -40 -27 -20 1 -37 0 -37 -2 0 -2 11 -14 25 -28 14 -14 25 -31 25 -39 0
-24 -40 -67 -64 -67 -61 0 -89 70 -43 107 18 14 22 22 14 34 -20 32 -2 46 61
48 l61 2 -2 -28z m-852 -163 c4 -6 10 -8 15 -5 11 7 16 -99 10 -184 -5 -63 -6
-66 -30 -64 -20 2 -18 0 9 -10 28 -11 31 -15 17 -20 -24 -9 -114 -9 -120 1 -4
7 -9 165 -7 231 1 31 3 33 30 28 23 -5 30 -2 34 13 5 21 32 27 42 10z m13
-369 c10 -6 13 -36 12 -122 -2 -140 -3 -149 -11 -143 -4 2 -10 0 -14 -6 -3 -5
-26 -10 -50 -10 -54 0 -56 5 -56 147 0 114 8 136 41 115 17 -11 20 -10 20 8 0
21 33 28 58 11z"/>
<path d="M444 3021 c-10 -17 -21 -28 -25 -26 -4 3 -3 -10 1 -29 6 -26 3 -38
-8 -50 -12 -11 -13 -16 -4 -16 7 0 11 -4 8 -9 -4 -5 -1 -11 4 -13 7 -2 8 -19
4 -46 -5 -32 -11 -42 -25 -42 -11 0 -18 3 -18 8 5 31 -3 200 -10 211 -13 20
-81 26 -81 6 0 -8 -7 -15 -16 -15 -14 0 -14 -3 -3 -16 10 -12 10 -20 1 -34 -8
-13 -8 -20 0 -22 6 -2 3 -11 -8 -23 -17 -17 -17 -18 -1 -12 11 4 17 2 17 -8 0
-8 -7 -15 -15 -15 -12 0 -13 -4 -2 -27 6 -16 16 -31 22 -35 7 -5 7 -8 -1 -8
-5 0 -15 5 -22 12 -9 9 -12 8 -12 -5 0 -9 5 -17 12 -17 6 0 9 -3 5 -6 -3 -4 1
-13 9 -22 14 -14 14 -16 0 -24 -19 -11 -22 -32 -3 -23 6 4 3 -1 -7 -9 -17 -14
-17 -16 -3 -16 11 0 15 -7 12 -22 -3 -12 1 -26 8 -30 8 -5 4 -8 -10 -8 -13 0
-23 -5 -23 -12 0 -6 -3 -8 -7 -5 -3 4 0 19 7 33 12 21 12 27 1 34 -10 6 -15
46 -18 151 -3 79 -5 150 -5 157 -2 24 -45 37 -72 22 -19 -10 -23 -18 -19 -39
3 -14 5 -30 5 -36 0 -5 -2 -39 -5 -75 -2 -36 0 -73 5 -83 6 -11 6 -23 0 -30
-15 -20 -23 -49 -11 -41 8 4 9 -1 4 -16 -5 -15 -4 -20 4 -16 13 8 3 -52 -12
-71 -6 -9 -6 -13 2 -13 11 0 12 -15 11 -144 0 -17 -3 -32 -5 -34 -2 -3 7 -14
22 -25 l26 -21 38 22 c42 24 53 27 44 12 -7 -11 43 -59 62 -60 7 0 27 13 46
29 23 21 37 27 47 21 12 -7 12 -10 -2 -15 -12 -5 -16 -16 -13 -35 2 -19 -2
-30 -11 -34 -18 -7 -9 -26 12 -26 8 0 14 9 14 19 0 17 5 19 35 14 21 -3 41 -1
50 7 13 10 15 9 15 -9 0 -13 -6 -21 -17 -21 -10 0 -28 -16 -41 -35 -12 -19
-18 -35 -12 -35 5 0 7 -7 4 -15 -5 -12 -1 -13 26 -3 25 8 38 8 52 -1 17 -11
19 -10 10 5 -8 14 -5 22 13 36 26 20 46 24 43 7 -2 -6 8 -15 22 -20 l24 -10
-23 25 -24 25 24 11 c13 5 31 15 40 22 18 12 49 5 49 -11 0 -6 -7 -8 -15 -5
-8 4 -17 -1 -21 -10 -3 -9 -16 -16 -28 -16 -14 0 -17 -3 -8 -8 7 -5 14 -23 15
-40 2 -33 5 -36 23 -24 13 8 14 42 2 42 -5 0 -6 5 -3 10 10 15 32 12 39 -6 4
-9 1 -23 -5 -30 -8 -10 -8 -14 0 -14 6 0 11 5 11 10 0 6 8 5 20 -2 16 -11 17
-14 5 -21 -8 -4 -21 -5 -28 -1 -9 5 -9 4 -1 -5 7 -8 18 -9 35 -2 13 5 37 7 52
6 27 -3 36 8 16 21 -6 3 -15 0 -20 -7 -8 -12 -13 -6 -11 12 1 4 -6 6 -14 5 -9
0 -23 10 -32 24 -10 13 -11 21 -5 17 7 -5 23 -2 35 5 13 7 26 12 29 11 3 -1 4
8 2 21 -6 30 11 41 28 19 11 -13 11 -17 2 -20 -7 -3 -13 -11 -13 -18 0 -7 -8
-16 -17 -19 -20 -8 -8 -21 28 -30 20 -4 29 -1 33 11 6 14 9 15 15 4 6 -9 11
-10 15 -2 4 6 -4 16 -18 23 -14 6 -26 15 -26 20 0 12 24 10 37 -3 7 -7 12 -6
16 5 4 11 -6 19 -36 29 -29 9 -42 20 -43 33 -2 35 -4 39 -14 24 -8 -13 -10
-12 -10 3 0 9 5 17 11 17 5 0 7 5 4 10 -3 6 -1 10 4 10 6 0 11 -5 11 -11 0 -6
10 -23 21 -37 l21 -27 -7 25 c-4 14 -11 27 -15 30 -12 9 -7 70 6 70 7 0 16 -4
19 -10 3 -5 2 -10 -2 -10 -5 0 -9 -9 -10 -20 -1 -11 4 -20 10 -19 27 3 47 -2
47 -11 0 -5 -7 -10 -15 -10 -8 0 -15 5 -15 11 0 5 -4 7 -10 4 -18 -11 -11 -21
25 -34 35 -12 47 -31 21 -31 -8 0 -18 -5 -22 -12 -5 -8 0 -9 14 -6 17 5 22 2
22 -13 0 -10 -7 -19 -15 -19 -8 0 -15 -7 -15 -15 0 -18 1 -18 36 -5 21 8 24
14 16 22 -7 7 -12 24 -12 38 0 19 5 26 21 27 28 2 31 6 24 35 -5 21 -12 25
-34 22 -31 -4 -77 38 -65 58 4 7 9 6 15 -3 7 -11 9 -10 9 3 0 9 -6 19 -12 21
-7 3 -3 6 8 6 12 1 25 -6 28 -15 3 -8 10 -12 16 -9 5 3 10 0 10 -8 0 -15 28
-32 37 -23 3 2 2 14 -2 27 -6 17 -9 19 -16 8 -6 -10 -9 -8 -9 9 0 17 -6 22
-26 22 -24 0 -25 2 -13 17 8 9 9 14 3 10 -8 -4 -11 2 -10 18 1 26 10 32 21 15
4 -7 12 -7 25 0 13 7 19 6 24 -5 3 -8 11 -15 17 -15 7 0 2 11 -10 24 -13 14
-29 22 -37 19 -8 -3 -14 1 -14 11 0 12 5 14 23 7 38 -15 76 27 62 67 -4 11 -8
11 -20 -2 -17 -17 -20 -30 -5 -21 6 3 10 -1 10 -10 0 -9 -5 -13 -10 -10 -6 4
-9 3 -8 -2 2 -4 -1 -8 -7 -8 -5 0 -9 3 -8 6 1 4 -7 4 -19 1 -11 -3 -23 -14
-26 -24 -4 -18 -5 -18 -19 1 -8 13 -20 18 -31 14 -9 -3 -14 -3 -10 2 4 4 3 16
-2 25 -8 14 -4 22 16 35 14 9 28 15 30 12 8 -8 -8 -37 -17 -31 -5 3 -9 -1 -9
-9 0 -7 7 -14 15 -14 8 0 12 4 9 9 -3 4 0 8 6 8 6 0 8 5 4 12 -5 7 0 9 14 6
13 -4 29 2 42 14 14 13 27 17 38 12 9 -4 23 -6 29 -5 13 2 8 -24 -10 -47 -7
-9 -6 -11 7 -6 9 3 16 10 16 16 0 5 4 7 9 4 5 -3 12 2 15 11 8 20 -17 42 -48
44 -27 2 -27 2 -51 -6 -17 -6 -16 -3 5 13 l24 20 -26 -1 c-14 -1 -24 -5 -22
-8 2 -4 -4 -10 -13 -13 -15 -6 -15 -8 -3 -16 8 -5 12 -12 9 -15 -11 -10 -36 6
-49 31 -7 13 -17 24 -22 24 -11 0 -10 -18 2 -25 6 -3 10 -11 10 -17 0 -6 -12
-2 -27 7 l-28 18 20 -23 c17 -20 18 -23 3 -17 -10 3 -17 3 -17 -1 1 -4 1 -18
0 -31 l-1 -24 -20 23 c-11 13 -23 20 -28 16 -4 -4 5 -18 21 -31 34 -30 34 -35
1 -35 -15 0 -23 -4 -19 -10 4 -6 15 -8 26 -5 24 8 25 -4 2 -21 -16 -12 -16
-12 5 -7 17 4 22 1 22 -14 0 -10 6 -25 13 -32 10 -11 9 -13 -5 -8 -13 5 -18 1
-18 -13 0 -11 -7 -20 -15 -20 -8 0 -12 6 -9 14 4 10 -2 12 -20 9 -28 -6 -37
14 -11 23 16 6 15 34 -1 56 -6 7 -11 46 -12 87 l-2 73 25 -16 c21 -14 24 -14
19 -1 -4 9 -15 20 -26 26 -18 9 -19 20 -16 139 3 112 1 131 -14 141 -9 7 -14
17 -11 22 3 4 -6 3 -18 -4 -13 -7 -31 -15 -39 -19 -9 -5 -14 -18 -12 -33 1
-14 -2 -28 -8 -32 -6 -4 -7 1 -3 12 6 15 5 16 -9 3 -12 -12 -13 -17 -2 -27 7
-7 10 -22 7 -34 -4 -14 -2 -20 4 -16 14 9 14 -54 0 -72 -8 -10 -9 -13 -1 -8 8
4 11 -2 10 -17 -1 -18 -4 -22 -14 -14 -9 8 -11 7 -6 -6 3 -9 2 -16 -4 -16 -16
0 -21 24 -21 123 0 74 3 100 15 111 14 15 13 16 -6 16 -17 0 -20 4 -16 23 3
12 3 16 0 10 -7 -15 -34 -17 -34 -4 0 6 -11 6 -29 0 -20 -7 -28 -15 -24 -25 3
-8 0 -14 -7 -14 -7 0 -10 -8 -7 -19 3 -14 0 -17 -14 -14 -11 3 -19 14 -19 25
0 10 4 17 9 13 5 -3 13 -1 16 5 4 6 3 9 -2 8 -4 -1 -25 4 -45 12 -25 9 -34 17
-25 22 9 6 9 8 0 8 -6 0 -20 -13 -29 -29z"/>
<path d="M35 3020 c4 -6 -3 -10 -14 -10 -20 0 -20 -5 -18 -291 2 -255 4 -293
18 -302 22 -14 66 -1 74 22 3 11 14 22 23 24 14 4 14 5 1 6 -19 1 -23 61 -4
61 6 0 12 7 12 15 0 10 -6 14 -14 11 -16 -7 -15 34 2 47 6 6 6 10 -2 14 -7 2
-13 14 -13 24 0 13 4 18 13 13 6 -4 4 2 -6 13 -9 11 -15 22 -12 24 5 6 6 90 2
187 -2 40 0 75 5 78 12 8 -16 44 -46 60 -15 7 -24 9 -21 4z"/>
</g>
</svg>
